<?xml version="1.0" encoding="utf-8"?>
<!-- Generator: Adobe Illustrator 25.3.0, SVG Export Plug-In . SVG Version: 6.00 Build 0)  -->
<svg version="1.1" id="레이어_1" xmlns="http://www.w3.org/2000/svg" xmlns:xlink="http://www.w3.org/1999/xlink" x="0px"
	 y="0px" viewBox="0 0 1044.3 276" style="enable-background:new 0 0 1044.3 276;" xml:space="preserve">
<style type="text/css">
	.st0{fill:#FFFFFF;}
	.st1{fill:#58595B;}
</style>
<g id="Coin_Gecko_Vector_Text">
	<path d="M431.7,108.4c-2.8-11.1-10-19.2-24-19.2c-20.7,0-29.3,18.2-29.3,36.7s8.6,36.7,29.3,36.7c15,0,23.2-11.2,24.6-25.2h16.5
		c-1.4,23.1-17.7,39-41,39c-28.9,0-46.2-22.9-46.2-50.5s17.2-50.5,46.1-50.5c21.7,0.1,38.9,12.1,40.9,32.9L431.7,108.4z"/>
	<path d="M458.7,139.1c0-21.3,12.8-36.7,35.2-36.7s35.2,15.4,35.2,36.7S516.3,176,493.9,176S458.7,160.6,458.7,139.1z M513.7,139.1
		c0-12-6.1-24.6-19.8-24.6S474,127.1,474,139.1s6.1,24.7,19.8,24.7S513.7,151.3,513.7,139.1z"/>
	<path d="M542.3,77.7h15.4v14.6h-15.4V77.7z M542.3,104.3h15.4v69.8h-15.4V104.3z"/>
	<path d="M574.5,104.3h14.6v10.3l0.3,0.3c4.5-7.7,12.8-12.5,21.7-12.4c15.1,0,24.7,8.1,24.7,23.8v47.9h-15.4v-43.9
		c-0.3-10.9-4.6-15.6-13.6-15.6c-10.3,0-16.9,8.1-16.9,18.4v41.2h-15.4L574.5,104.3L574.5,104.3z"/>
	<path d="M738.2,174.1h-10.8l-2.6-11.3c-9,10.3-17.3,13.6-29,13.6c-28.9,0-46.2-23-46.2-50.5s17.3-50.5,46.2-50.5
		c21,0,38.7,11.2,41.3,32.9h-16.5c-1.6-12.7-12.7-19.2-24.8-19.2c-20.7,0-29.3,18.2-29.3,36.7s8.6,36.7,29.3,36.7
		c17.3,0.3,26.7-10.1,27-26.5h-25.6v-12.8h41L738.2,174.1z"/>
	<path d="M766.5,143.2c0,10.9,5.9,20.7,18.8,20.7c8.9,0,14.3-3.9,17-11.6h14.6c-3.4,15.2-16.3,23.8-31.6,23.8
		c-21.9,0-34.2-15.3-34.2-36.7c0-19.9,13-36.8,33.8-36.8c22,0,35.5,19.8,32.9,40.8h-51.3V143.2z M802.4,133
		c-0.5-9.7-7.2-18.5-17.5-18.5c-10.7,0-18,8.1-18.4,18.5H802.4z"/>
	<path d="M876.6,127.6c-1.2-8.5-7.4-13.1-15.9-13.1c-8,0-19.2,4.2-19.2,25.4c0,11.6,5.1,23.9,18.5,23.9c8.9,0,15.1-5.9,16.6-15.9
		H892c-2.8,18.1-14,28.1-32,28.1c-21.9,0-33.9-15.5-33.9-36.1c0-21.1,11.5-37.5,34.4-37.5c16.2,0,30,8.1,31.5,25.2
		C892,127.6,876.6,127.6,876.6,127.6z"/>
	<path d="M905,77.7h15.4v54.8l27.8-28.2h18.9l-26.7,25.6l29.3,44.2h-18.8l-21.3-33.9l-9.2,8.9v25H905V77.7z"/>
	<path d="M973.8,139.1c0-21.3,12.8-36.7,35.2-36.7s35.2,15.4,35.2,36.7S1031.5,176,1009,176S973.8,160.6,973.8,139.1z M1028.9,139.1
		c0-12-6.1-24.6-19.8-24.6s-19.8,12.6-19.8,24.6s6.1,24.7,19.8,24.7S1028.9,151.3,1028.9,139.1z"/>
</g>
<path d="M276,137.4c0.3,76.2-61.2,138.3-137.4,138.6S0.3,214.8,0,138.6S61.2,0.3,137.4,0l0,0C213.6-0.3,275.7,61.2,276,137.4z"/>
<path class="st0" d="M265.6,137.4c0.3,70.5-56.6,127.9-127,128.2S10.7,209,10.4,138.6S67,10.7,137.4,10.4l0,0
	C207.9,10.1,265.3,67,265.6,137.4z"/>
<path class="st0" d="M140.4,18.7c8.1-1.4,16.4-1.4,24.5,0c8.2,1.3,16.1,4,23.4,7.8c7.3,4,13.6,9.4,19.8,14.5s12.5,10.3,18.4,16
	c6.1,5.6,11.3,12,15.7,19c4.5,6.9,8.2,14.4,11,22.2c5.3,15.7,7.2,32.5,4.5,48.6H257c-2.7-15.9-6.3-31.1-12-45.6
	c-2.7-7.3-5.8-14.4-9.4-21.2c-3.8-6.9-7.9-13.5-12.4-19.9c-4.6-6.5-10.2-12.2-16.6-16.8c-6.5-4.6-13.9-7.6-21.1-10.4
	s-14.5-5.9-22-8.1s-15.2-3.8-23.1-5.3V18.7z"/>
<path d="M202.7,92.4c-9.3-2.7-18.9-6.5-28.6-10.3c-0.6-2.4-2.7-5.5-7.1-9.2c-6.4-5.5-18.3-5.4-28.6-2.9c-11.4-2.7-22.6-3.6-33.4-1
	c-88.2,24.3-38.2,83.6-70.6,143.2C39,222,88.7,279,160.6,263.7c0,0-24.6-59.1,30.9-87.4C236.6,153.2,269.1,110.5,202.7,92.4z"/>
<path class="st0" d="M213.6,131.2c0,3-2.4,5.4-5.3,5.4c-3,0-5.4-2.4-5.4-5.3c0-3,2.4-5.4,5.3-5.4
	C211.2,125.9,213.6,128.2,213.6,131.2z"/>
<path d="M138.5,69.9c6.4,0.5,29.7,8,35.7,12.1C169.2,67.5,152.3,65.6,138.5,69.9L138.5,69.9z"/>
<path class="st0" d="M144.6,106.6c0,13.6-11,24.7-24.7,24.7s-24.7-11-24.7-24.7s11-24.7,24.7-24.7l0,0
	C133.5,81.9,144.6,92.9,144.6,106.6L144.6,106.6z"/>
<path class="st1" d="M137.3,106.8c0,9.6-7.8,17.4-17.4,17.4s-17.4-7.8-17.4-17.4s7.8-17.4,17.4-17.4l0,0
	C129.5,89.4,137.3,97.2,137.3,106.8z"/>
<path d="M233.6,142.1c-20,14.1-42.7,24.8-75,24.8c-15.1,0-18.2-16-28.1-8.2c-5.1,4.1-23.3,13.1-37.7,12.4S55,162,48.5,131.2
	c-2.6,30.8-3.9,53.4-15.4,79.4c23,36.8,77.8,65.2,127.6,53c-5.4-37.4,27.3-73.9,45.7-92.7C213.3,163.9,226.6,152.3,233.6,142.1
	L233.6,142.1z"/>
<path class="st1" d="M232.9,143c-6.2,5.7-13.6,9.9-21.1,13.6c-7.6,3.6-15.5,6.5-23.7,8.6s-16.7,3.7-25.3,2.9s-17.4-3.7-23.1-10.2
	l0.3-0.3c7,4.5,15.1,6.1,23.1,6.4c8.1,0.2,16.3-0.4,24.3-2c8.1-1.7,16-4.1,23.6-7.3c7.6-3.1,15.2-6.8,21.7-12L232.9,143z"/>
</svg>
