<?xml version="1.0" encoding="utf-8"?>
<!-- Generator: Adobe Illustrator 24.0.1, SVG Export Plug-In . SVG Version: 6.00 Build 0)  -->
<svg version="1.1" id="레이어_1" xmlns="http://www.w3.org/2000/svg" xmlns:xlink="http://www.w3.org/1999/xlink" x="0px"
	 y="0px" viewBox="0 0 1080 1080" style="enable-background:new 0 0 1080 1080;" xml:space="preserve">
<style type="text/css">
	.st0{fill:#846E5B;}
</style>
<g>
	<path class="st0" d="M455.77,838.23c-21.17,0-42.33,0.07-63.5-0.07c-3.95-0.03-5.54,1.36-6.18,5.28
		c-9.92,61.15-19.97,122.28-29.98,183.41c-0.91,5.53-7.43,11.3-14.02,11.17c-8.97-0.17-17.93-1.15-26.89-1.9
		c-3.92-0.33-2.52-3.36-2.21-5.37c1.63-10.87,3.45-21.71,5.21-32.56c8.33-51.45,16.62-102.91,25.07-154.34
		c0.69-4.19-0.92-5-4.45-4.84c-9.48,0.43-18.96,0.91-28.45,1.11c-9.06,0.19-14.2-5.47-13.33-14.32c0.54-5.47,1.26-10.92,1.59-16.4
		c0.2-3.32,1.57-4.7,4.89-4.82c13.47-0.51,26.94-1.41,40.42-1.64c4.82-0.08,6.63-1.67,7.43-6.35c5.13-30.03,10.48-60.03,15.91-90.01
		c0.66-3.65-0.73-4.32-3.86-4.4c-7.06-0.2-7.11-0.29-7.97-7.25c-0.35-2.8-0.38-5.64-0.62-8.46c-0.26-3.11,0.22-5.43,3.98-6.23
		c3.49-0.74,2.95-3.95,2.95-6.58c0-25.17,0.19-50.33-0.08-75.5c-1.34-125.48-0.51-250.97-0.91-376.45c0-1.5,0.12-3.01,0-4.5
		c-0.27-3.47,1.46-5,4.72-4.82c20.34,1.11,40.43-3.71,60.77-2.55c3.97,0.23,5.31-1.77,5.51-5.35c0.17-2.99,0.68-5.95,0.88-8.94
		c0.22-3.31,1.55-4.32,5.11-4.25c9.56,0.19,9.49-0.08,11.1-9.96c3.41-21.04,6.87-42.07,10.37-63.1c1.67-10.05,8.08-15.46,18.2-15.51
		c10.2-0.05,16.51,5.24,18.68,15.22c1.76,8.1-0.4,15.91-1.38,23.79c-1.89,15.2-4.09,30.36-6.28,45.52
		c-0.48,3.34,0.66,4.55,3.96,4.52c10-0.08,20-0.01,30,0.03c4.42,0.02,6.48-1.57,6.46-6.53c-0.1-34.33,0.04-68.66,0.2-102.99
		c0.04-7.49,0.46-14.98,0.72-22.47c0.21-6.04,3.57-9.97,8.85-12.21c4.94-2.1,9.78-1.19,14.18,1.8c2.58,1.75,3.2,4.39,3.45,7.37
		c0.75,9.15,0.68,18.31,0.7,27.47c0.02,14.83,0.15,29.66,0.09,44.5c-0.08,18.98-1.21,37.94-0.96,56.93c0.06,4.82,1.5,6.33,6.29,6.22
		c11.49-0.27,23-0.09,34.5,0.01c3.55,0.03,4.9-0.72,4.32-4.92c-2.54-18.47-6.53-36.74-7.94-55.34c-0.51-6.79-2.2-13.92,2.36-20.33
		c4.5-6.32,10.4-9.34,16.98-7.93c7.74,1.65,12.76,6.29,14.45,14.11c3.34,15.46,4.75,31.22,7.1,46.84
		c1.14,7.56,2.22,15.13,3.22,22.71c0.48,3.67,2.36,4.91,6.06,4.9c9.34-0.04,9.35,0.13,10.31,9.57c0.93,9.13,1.07,9.61,10.08,9.23
		c16.22-0.68,32.03,3.97,48.22,3.25c2.83-0.13,5.66-0.11,8.49-0.15c2.84-0.04,4.35,1.38,4.48,4.2c0.08,1.83,0.31,3.69,0.1,5.49
		c-1.7,14.63,0.66,29.28-0.13,43.88c-2.93,54.27-0.91,108.59-2.1,162.86c-0.66,29.99-0.09,59.97-0.9,89.94
		c-0.81,29.98-0.86,59.95-1.03,89.93c-0.1,19.47,0.15,38.95,0.21,58.43c0.01,2.16,0.09,4.39-0.38,6.46
		c-0.65,2.87-0.77,5.13,2.36,6.69c1.79,0.89,2.1,2.88,2.1,4.79c0,4-0.09,8,0.03,12c0.1,3.41-1.41,5.09-4.78,4.64
		c-4.57-0.62-4.85,1.84-4.31,5.35c2.52,16.45,4.99,32.92,7.42,49.38c1.92,12.99,3.84,25.98,5.59,38.99c0.9,6.71,1.61,7.51,8.33,7.85
		c13.13,0.66,26.27,1.4,39.4,2.05c2.79,0.14,4.37,0.22,3.98,4.24c-0.49,5.04,0.76,10.24,1.23,15.37c0.65,7.15-4.53,13.2-11.75,12.5
		c-9.77-0.94-19.58-1.27-29.31-2.38c-4.76-0.54-5.5,0.83-4.82,4.93c2.38,14.45,4.7,28.9,6.92,43.38
		c4.71,30.74,9.31,61.5,14.01,92.24c2.71,17.76,5.45,35.52,8.32,53.26c0.62,3.85,0.68,4.92-4.28,4.33
		c-6.81-0.8-13.89,0.43-20.82,1.16c-6.99,0.73-13.32-3.76-14.39-10.49c-6.84-42.88-13.69-85.76-20.62-128.63
		c-2.79-17.24-5.86-34.44-8.57-51.7c-0.65-4.17-2.07-5.77-6.63-5.94c-42.3-1.57-84.61-0.56-126.92-0.85
		c-8.06-0.06-7.86,0.26-7.64,8.16c0.44,15.82,0.39,31.66,0.47,47.49c0.07,15.33-0.07,30.67,0.15,46c0.07,4.75-1.55,6.6-6.37,6.41
		c-7.32-0.29-14.66-0.18-22-0.05c-3.48,0.06-5.22-0.97-5.14-4.81c0.65-32.64,1.12-65.29,1.86-97.93c0.09-3.89-0.77-5.37-4.84-5.34
		C498.44,838.3,477.11,838.23,455.77,838.23z M555.85,693.93l0.25,0.17c1.13,0.23,2.27,0.7,3.39,0.66
		c12.83-0.51,25.6,0.74,38.41,1.05c1.61,0.04,3.75-0.62,4.59,1.11c1.18,2.44,3.12,2.13,5.06,2.12c34.13-0.18,68.26,0.06,102.38,0.71
		c11.74,0.22,11.75,0.03,10.49-11.88c-4.03,1.7-8.24,2.52-12.57,2.34c-12.44-0.54-24.87-1.5-37.29-2.31
		c-10.02-0.65-19.95,0.94-29.91,0.11c-14.09-1.16-28.2-1.73-42.33-1.79c-34.32-0.13-68.63-0.06-102.95-0.14
		c-7.47-0.02-14.89-1.31-22.42-0.71c-15.58,1.25-31.21,1.44-46.82,1.37c-9.49-0.04-18.93,0.47-28.39,0.95
		c-10.26,0.53-20.48,2.77-30.79,0.46c-1.28-0.29-2.93-0.14-3.16-1.82c-0.28-2.03,2.13-0.94,2.76-2.05c-5.81,0.18-7.2,4.2-4.37,13.19
		c1.31-1.2,2.11-2.7,4.29-2.77c22.08-0.74,44.14-3.09,66.24-0.33c1.08,0.14,2.67-0.54,2.59,1.26c-0.07,1.49-1.65,1.42-2.77,1.46
		c-5.16,0.18-10.32,0.07-15.46-0.53c-12.93-1.52-25.72,1.42-38.62,0.78c70.36,1.89,140.72,1.29,211.07,1.23
		c-15.1-0.69-30.32,0.58-45.21-3.24C548.03,693.05,552.01,694.2,555.85,693.93z M703.66,817.74c2.43,5.5,2.65,11.42,3.34,17.25
		c0.02,0.67-0.04,1.34,0.06,2c3.69,23.17,7.38,46.34,11.1,69.5c0.08,0.53-0.37,1.63,0.71,1.45c3.52-0.61,2.98,2.27,3.41,4.03
		c4.48,18.3,5.79,37.1,8.7,55.64c0.15,0.97,0.15,2.67-0.81,2.5c-2.91-0.51-1.74,1.21-1.57,2.38c1.57,10.2,3.12,20.41,4.76,30.6
		c1.26,7.88,2.57,15.76,4,23.61c0.31,1.68,0.3,4.05,2.61,4.35c1.93,0.25,4.61,0.52,5.8-0.53c2.76-2.43,2.48-2.75,5.22-2.74
		c2.24,0.01,4.48,0,7.4,0c-2.29-1.28-4.64-0.8-5.95-3.3c3.94-1.15,3.27-4.28,3.28-7.28c0.01-2.89-2.7-3.92-3.59-5.79
		c-1.83-3.81-2.35-8.26-3.29-12.48c-3.62-16.25-5.7-32.76-7.76-49.26c-0.47-3.78-2.5-7.85,0.41-13.26
		c3.76,14.15,3.61,27.6,7.16,40.35c0.11-2.01-0.05-3.98-0.32-5.94c-2.96-21.25-6.33-42.43-10.31-63.52
		c-0.34-1.8-0.78-3.84,1.12-6.01c3.2,5.82,2.13,12.14,4.73,18.45c-0.15-2.3-0.14-3.75-0.35-5.16
		c-7.94-51.78-15.88-103.57-23.95-155.33c-0.42-2.67,0.33-6.03-2.2-7.9c-2.31-1.7-2.93-3.96-3.37-6.4
		c-1.11-6.22-2.09-12.46-3.13-18.69c-0.13-0.76-0.45-2.16-0.51-2.15c-4.74,0.78-3.28-3.37-3.9-5.33c-1.25-3.94-1.9-8.09-2.56-12.2
		c-0.34-2.12-0.95-3.67-3.38-3.19c-2.68,0.53-1.14,2.64-1.26,4.08c-0.05,0.64,0.14,1.32,0.29,1.97c2.89,12.53,4.32,25.27,5.42,38.05
		c0.18,2.14,0.68,4.49-1.13,7.16c-1.69-3.78-1.78-7.16-2.21-10.96c-1.21,2.69,0.45,5.42-2.04,8.04c-3.32-11.08-3.19-22.1-6.28-33.58
		c-0.2,5.16,2.23,9.29-0.37,13.38c-2.22-8.34-3.94-16.74-5.69-25.13c-0.39-1.89,1.09-2.26,2.85-2.99c-4.63,0.39-4.59,0.38-3.63,6.41
		C692.22,745.78,697.94,781.76,703.66,817.74z M379.22,810.64c5.96-35.94,11.93-71.89,17.89-107.83c-0.46-0.09-0.91-0.18-1.37-0.28
		c-1.24,9.43-3.54,18.58-6.29,27.52c-2.08-0.26-0.82-2.37-2.21-2.71c-1.44,7.55-2.86,15.05-4.29,22.55
		c-3.39-3.88-0.89-7.85-1.2-12.82c-2.39,5.79-0.71,11.24-3.83,16.27c-1.49-3.72-1-6.82-0.63-9.92c1.5-12.73,3.58-25.35,6.38-37.86
		c0.26-1.17,0.9-2.84-1.1-3.25c-1.64-0.34-2.78,0.25-3.36,2.09c-2.35,7.34-1.72,15.77-7.84,21.75c-0.14,12.33-6.88,22.98-8.82,34.88
		c-3.29,20.19-6.96,40.32-10.25,60.52c-5.28,32.36-10.36,64.74-15.59,97.11c-1.78,11.03-3.76,22.03-5.65,33.05
		c4.07-17.24,6.71-34.76,11.04-51.9c0.79,0.15,1.58,0.3,2.37,0.45c-4.39,25.85-10.51,51.45-13.24,77.56
		c3.9-13.72,4.19-28.18,9.01-41.72c-2,25.35-6.37,50.29-11.86,74.98c-2.12-0.1-0.9-2.17-2.38-2.66c0.57,3.18-0.74,6.02-0.94,9.02
		c-0.08,1.18,0.24,3.16-1.77,2.85c-1.58-0.25-0.79-1.85-0.73-2.95c0.18-3.52,0.33-7.05,0.5-10.57c-0.92,2.58-1.16,5.2-1.62,7.77
		c-1.12,6.42-1.16,6.41,5.36,7.46c0.7,0.11,1.21,0.48,1.17,1.5c-2.21,1.51-5.08,0.78-8.93,1.73c6.49,1.35,11.85-0.36,17.54,1.53
		c-3.44,2.76-6.99,2.29-11.67,2.68c4.81,0.64,8.31,0.09,11.73,0.99c3.83,1.02,5.79-0.41,6.39-4.59c1.8-12.52,3.88-25,5.95-37.47
		c1.22-7.36,2.64-14.68,3.97-22.02c-1.01,0.74-0.87,2.19-2.2,2.1c-1.94-0.13-1.15-1.71-1-2.7c1.8-11.83,3.58-23.67,5.54-35.48
		c1.03-6.23,2.65-12.37,3.5-18.62c0.61-4.49,4.81-6.8,5.45-11.47c2.1-15.32,5.07-30.52,7.44-45.8c1.65-10.68,4.43-21.17,5.19-31.99
		C378.27,818.59,378.81,814.63,379.22,810.64z M715.14,678.58c1.5-29.07,0.36-58.03,1.43-87.01c1.12-30.45,0.33-60.96,1.06-91.44
		c0.84-35.3,0.33-70.62,0.98-105.94c0.84-45.97-0.25-91.96,1.27-137.92c0.33-9.98-0.51-19.96,0.72-29.94
		c0.75-6.08-1.14-7.64-7.12-7.26c-1.16,0.07-2.34,0.06-3.49-0.04c-16.93-1.45-33.91-1.73-50.88-2.02c-3.25-0.06-4.92,0.9-5.24,4.35
		c-0.2,2.14-1.26,4.21-3.87,4.64c-5.1,0.85-10.21,1.67-15.38,0.73c-5.4-0.98-10.8-0.46-16.21-0.31c7.63,0.6,15.26,1.04,22.89,1.52
		c1.41,0.09,3.69-0.42,3.73,1.46c0.05,2.45-2.48,1.7-3.91,1.66c-9.97-0.27-19.95-0.53-29.91-1.11c-8.12-0.47-16.28-0.96-24.31-2.15
		c-28.69-4.27-57.42-3.93-86.04-0.23c-18.74,2.42-37.58,0.59-56.28,2.58c-1.31,0.14-3.6,0.52-3.57-1.56
		c0.02-1.9,2.17-1.71,3.62-1.68c11.83,0.22,23.58-1.72,35.42-1.13c2.13,0.11,4.27,0.02,6.41,0.02c-15.5-0.57-30.99-0.61-46.47-0.55
		c-4.43,0.02-7.65-1.22-7.49-6.37c0.1-3.24-2.22-2.9-4.12-2.83c-11.48,0.42-22.95,0.01-34.45,0.71c-7.74,0.48-15.5,2.47-23.36,0.82
		c-2.78-0.58-3.92,1.5-4.22,3.82c-0.3,2.3-0.34,4.66-0.24,6.98c0.87,19.08,0.81,38.2,0.81,57.27c0.02,46.29,1,92.6-0.58,138.9
		c-0.48,13.97,0.32,27.98,0.44,41.96c0.45,50.65,0.29,101.31,0.35,151.96c0.02,19.38,0,38.77,0,58.15
		c0.65-5.67,0.74-11.35,2.26-16.84c0.42-0.01,0.85-0.01,1.27-0.02c0,5.65,0,11.29,0,16.94c1.1-1.79,0.95-3.59,1.14-5.35
		c0.22-1.97-0.94-5.62,1.61-5.41c3.01,0.25,1.48,3.74,1.22,5.85c-0.49,3.94,2.26,7.63,6.29,7.9c2.66,0.18,5.33,0.18,7.99,0.19
		c11.78,0.02,23.63-0.76,35.32,0.26c10.24,0.9,20.13-1.73,30.45-0.89c10.41,0.84,21.18-1,31.82-1.41
		c17.09-0.66,34.2-2.94,51.23-2.42c15.22,0.47,30.47,0.34,45.77,1.91c24.9,2.55,50.06,2.72,75.12,3.49
		c13.93,0.42,27.89,0.03,41.84-0.03c2.27-0.01,3.96-0.27,5.87-2.5c3.78-4.42,1.66-10.61,5.44-14.8c0.62-0.69-0.03-2.61,1.5-2.73
		c1.98-0.16,1.82,1.63,1.84,2.86C715.18,668.6,715.14,673.59,715.14,678.58z M556.23,751.79c0,13.83,0.1,27.65-0.07,41.47
		c-0.05,3.95,1.02,5.6,5.3,5.64c22.64,0.21,45.3,0.37,67.92,1.19c17.81,0.64,35.64,0.35,53.43,1.17c5.04,0.23,5.85-0.79,5.02-5.47
		c-5.05-28.18-9.95-56.39-14.69-84.62c-0.63-3.72-2.05-5-5.79-5.02c-35.14-0.23-70.28,0.52-105.4-0.95
		c-4.29-0.18-5.89,1.12-5.8,5.61C556.39,724.47,556.23,738.13,556.23,751.79z M469.23,705.23c-17.49,0-34.98,0.07-52.47-0.06
		c-3.64-0.03-5.5,1-5.88,4.9c-0.42,4.46-1.46,8.86-2.23,13.29c-4.13,23.78-8.29,47.55-12.38,71.34c-1.03,6.01-0.92,6.12,5.27,6.01
		c6.32-0.11,12.64-0.59,18.96-0.62c32.81-0.15,65.63-0.3,98.44-0.22c4.65,0.01,5.93-1.51,5.96-6.02c0.2-24.97,0.69-49.95,1.09-74.92
		c0.04-2.5,0.01-5,0.17-7.49c0.41-6.2,0.45-6.21-5.97-6.21C503.21,705.22,486.22,705.23,469.23,705.23z M409.19,819.34
		c-6.3,2.55-14.5,0.49-18.33,7.97c-0.03,0.06-0.31-0.03-0.47-0.01c-1,0.13-2.28-2.72-2.89-0.06c-0.55,2.39,1.69,2.51,3.36,2.44
		c4.48-0.18,8.96-0.66,13.44-0.73c43.78-0.7,87.57,0.67,131.37-0.8c20.57-0.69,41.22,1.23,61.83,1.51
		c24.32,0.34,48.64,0.1,72.97,0.3c6.97,0.06,13.92,1.28,20.92,0.81c1.33-0.09,2.79-0.02,3.14-1.78c0.21-1.04-0.02-2.16-0.97-2.64
		c-1.7-0.85-1.17,2.4-3.22,1.63c-0.47-1.43-1.01-3.06-1.59-4.82c-1.09,1.06-1.79,4.01-3.17,1.79c-2.37-3.84-6.05-2.77-9.22-3.65
		c-1.15-0.32-2.67,0.26-3.36-1.32c1.83-2.23,4.99,0.07,7.08-2.5c-6.71-2.28-13.7-0.83-21.1-3.35c5.74-2.21,10.79-0.59,15.53-1.9
		c-10.82-0.38-21.64-0.53-32.45-0.34c-16.1,0.29-31.76-4.66-47.91-3.76c-4.98,0.28-9.99-0.12-14.99-0.15
		c-5.91-0.03-11.83-0.01-17.75-0.01c13.93,3,28.03,1.17,42.03,2.06c-0.11,2.03-1.25,2.03-2.19,2.09
		c-5.47,0.39-10.94,0.86-16.42,1.04c-22.12,0.72-44.23-1.65-66.38-0.17c-11.26,0.75-22.63,0.49-33.89-0.86
		c-2.04-0.24-5.83,1.26-5.64-1.87c0.16-2.63,3.95-1.47,6.04-1.22c11.64,1.4,23.21,0.81,34.79-0.7c-10.44-0.33-20.88-0.37-31.32-1.01
		c-8.98-0.55-17.85,1.15-26.8,2.3c-16.25,2.09-32.9,1.18-49.38,1.51c-1.59,0.03-3.18,0-4.77,0c4.81,1.33,9.8-0.26,14.51,2.66
		c-6.64,0.69-13.28,1.39-20.67,2.16C404.01,819.04,407.18,816.7,409.19,819.34z M618.81,212.12c0.01,0.63,0.02,1.27,0.04,1.9
		c3.97,0,8.02-0.52,11.88,0.13c5.21,0.87,7.79-1.76,9.82-5.75c0.41-0.81,0.03-2.24,1.46-2.17c1.39,0.07,1.73,1.32,2.09,2.46
		c0.3,0.93-0.37,2.06,0.4,2.67c0-4.44,0-9.03,0-13.86c-3.27,1.74-6.57,2.65-10.1,2.62c-21.95-0.17-43.9,1.13-65.85-0.1
		c-14.39-0.8-28.78-1.19-43.5-0.64c2.06,1.3,4.69-0.54,6.44,2.47c-6.37,1.7-12.48,2.67-18.81,2.06c-1.05-0.1-2.15-0.66-2.14-1.74
		c0.01-2.48-1.68-2.03-3.08-1.99c-15.32,0.44-30.61-0.52-45.92-0.86c-6.31-0.14-12.58-0.19-19.12-2.31c0,4.78,0,9.2,0,13.62
		c0.27-0.46,0.33-0.95,0.38-1.43c0.19-1.58-0.39-3.81,1.83-4.1c2.2-0.29,1.6,2.16,2.12,3.35c1.46,3.31,2.85,5.63,7.41,5.5
		c8.43-0.23,16.76-1.83,21.53-1.45c-4.84,0.5-13.23-1.69-21.74-1.33c-1.32,0.06-3.51,0.35-3.23-1.92c0.21-1.72,2.08-1.24,3.34-1.19
		c14.13,0.58,28.26,1.19,42.39,1.78c2.52,0.11,5.06,0.13,7.25,1.86c-16.48,5.93-33.59,3.67-50.8,5.86c2.07,1.77,3.77,1.13,5.33,1.2
		c10.69,0.49,21.27-0.93,31.89-1.75c13.93-1.08,27.91-1.42,41.86-2.17c2.2-0.12,5.72,0.82,4.52-3.66c-0.96-3.58,1.06-5.8,3.64-7.47
		c2.29-1.48,4.9-1.06,7.07,0.48c2.55,1.81,3.63,4.45,2.51,7.45c-1.01,2.71,0.14,2.97,2.44,3.25c19.66,2.43,39.53,1.54,59.21,3.94
		c6.66,0.81,13.49,0.13,20.25,0.13c-11.79-2.2-23.68-2.71-36.8-3.16c3.25-2.83,5.77-1.4,8.07-2.44c-6.42-0.54-12.68,0.47-19.2-0.72
		c0.93-1.95,2.26-1.64,3.26-2.02c4.24-1.61,8.52,0.23,12.87-0.29c11.07-1.32,22.25-1.5,33.41-1.37c1.23,0.01,3.14-0.33,3.07,1.55
		c-0.06,1.72-1.92,1.56-3.2,1.58C628.33,212.15,623.57,212.12,618.81,212.12z M537.13,170.94c-1.12-20.88-1.12-41.82-1.73-62.75
		c-0.43,2.97-0.4,5.93-0.43,8.9c-0.11,12.81,0.93,25.65-0.74,38.42c-1.24,9.47,1.15,18.52,3.24,27.59c0.54,2.34,2.75,4.01,2.99,6.71
		c0.16,1.82,2.14,1.04,3.36,1.14c1.33,0.11,2.22-0.09,3.08-1.67c2.89-5.32,4.07-11.34,4.54-16.92c1-11.93,0.31-23.99,0.31-36
		c-0.82,11.7-0.16,23.47-1.75,35.17c-2-5.56-4.54-10.62-4.34-16.69c0.64-18.61-0.44-37.28,6.27-55.29
		c2.19-5.87,0.67-12.57,0.82-18.89c0.01-0.33,0.04-0.68-0.04-1c-0.1-0.41-0.3-0.03-0.5-0.03c-2.17,0.07-2.33,0.03-2.29-1.08
		c0.31-7.79-1.08-15.64,0.84-23.35c0.34-1.36,0.36-2.31-0.87-2.93c-3.66-1.85-7.4-1.71-11.08-0.06c-1,0.45-2.31,0.75-2.32,2.27
		c0,0.14,0.19,0.27,0.26,0.41c2.8,5.9,1.56,12.07,0.79,18.05c-1.08,8.32-3.54,16.47-2.58,25.01c0.23,1.99,0.07,3.93,2.07,5.29
		c1.84,1.26,1.84,3.46,1.97,5.44c0.34,4.93,1.08,9.82,1.65,14.69C542.49,139.24,544.62,155.34,537.13,170.94z M474.73,192.11
		c2.32-1.65,2.65-2.93,2.86-4.19c1.7-10.33,3.38-20.66,5-31.01c0.18-1.12,0.44-2.6-0.09-3.41c-2.53-3.83-1.76-8.02-1.64-12.11
		c0.29-10.27-0.58-20.61,1.62-30.78c0.37-1.69-0.09-2.8-1.96-3.37c-7.19-2.22-15.29,2.7-16.47,10.22
		c-3.36,21.32-6.64,42.65-10,63.96c-1.68,10.67-1.72,10.53,9.05,10.38c3.52-0.05,5.17-1.35,5.64-4.76
		c0.52-3.78,1.32-7.52,2.01-11.28c0.29-1.59,0.53-4.32,2.13-3.8c1.5,0.49,3.76,1.96,4.12,4.24c0.18,1.11-0.12,2.31-0.3,3.45
		C476.14,183.4,475.53,187.14,474.73,192.11z M621.96,116.56c-2.82-6.42-9.12-9.22-14.69-7.28c-1.81,0.63-2.32,1.94-2.09,3.49
		c1.36,8.98,2.33,17.96,1.72,27.09c-0.27,4.04,0.86,8.19-1.57,12.13c-0.61-1.95-1.23-3.9-1.84-5.84c-0.14,0.03-0.27,0.06-0.41,0.09
		c2.28,14.88,4.56,29.76,6.9,45.02c1.94-1.04,1.82-1.94,1.73-2.71c-0.39-3.46-0.66-6.96-1.36-10.37c-0.68-3.32,2.01-5.05,3.73-5.55
		c2.57-0.75,1.91,2.36,2.23,3.95c0.74,3.58,1.34,7.19,1.93,10.79c0.34,2.05,0.67,4.29,3.23,4.33c3.9,0.06,7.98,1.26,11.64-0.96
		c0.52-0.32,0.55-1.89,0.4-2.81c-1.9-11.27-3.88-22.53-5.84-33.79c-0.36,2.2-0.33,4.35-0.37,6.5c-0.02,1.19,1.42,2.99-0.47,3.44
		c-2.07,0.49-1.52-2.08-2.37-3.04c-1.78,1.41-1.64,5.33-4.05,4.91c-2.56-0.44-1.43-4.01-2.24-6.11c-0.29-0.76-0.3-1.63-0.4-2.46
		c-0.63-5.6-2.84-11.17-1.69-16.8c1.52-7.47,3.05-14.88,2.29-22.53C618.07,114.84,619.4,115.19,621.96,116.56z M346.56,1028.93
		c4.2-0.44,3.63-3.61,4-5.7c1.71-9.83,2.91-19.75,4.72-29.56c7.8-42.36,14.48-84.9,21.62-127.37
		c6.59-39.19,13.74-78.29,19.67-117.59c2.13-14.13,4.95-28.16,7.41-42.24c0.23-1.32,1.56-3.28-0.63-3.82
		c-2.37-0.59-2.3,1.8-2.77,3.29c-0.25,0.79-0.29,1.64-0.42,2.46c-2.65,17.6-5.57,35.17-8.54,52.71
		c-7.01,41.32-14.31,82.58-20.89,123.98c-5.3,33.34-11.45,66.54-17.12,99.82C351.14,999.44,348.94,1014.02,346.56,1028.93z
		 M732.16,1027.54c0.52-0.08,1.04-0.17,1.57-0.25c-1.9-10.77-4.07-21.5-5.66-32.31c-5.96-40.31-12.47-80.53-19.15-120.73
		c-3.95-23.77-7.41-47.62-11.2-71.42c-3.27-20.53-6.72-41.04-10.02-61.56c-1.82-11.32-3.45-22.67-5.32-33.98
		c-0.24-1.42-0.18-4.02-2.47-3.67c-2.54,0.38-1.22,2.66-0.98,4.11c2.95,17.73,6.15,35.43,8.87,53.18
		c6.61,43.23,13.49,86.41,20.76,129.53c6.15,36.43,12.43,72.84,18.68,109.25C728.82,1008.99,730.51,1018.26,732.16,1027.54z
		 M533.19,927.62c0.21,0,0.42,0,0.62,0c0-5.26-0.02-10.51,0.02-15.77c0.01-0.98,0.19-2.23,1.47-2.2c1.51,0.03,1.04,1.32,1.04,2.26
		c-0.03,3.49-1.41,7.96,0.23,10.28c3.47,4.9,2.39,9.51,1.82,14.5c-0.17,1.51-1.3,3.97,1.72,4.3c3.4,0.38,2.86-2.31,2.59-4.05
		c-1.34-8.49,3-16.42,2.25-24.83c-0.11-1.18,0.15-2.46,1.36-3.01c4.22-1.9,4.89-5.34,4.54-9.47c-0.34-3.91,0.62-7.97-2.14-11.48
		c-3.74-4.76-5.13-10.27-4.84-16.3c0.16-3.32-0.1-6.66,0.02-9.98c0.1-2.81-1.37-3.17-3.74-3.24c-2.69-0.08-2.34,1.37-2.38,3.17
		c-0.13,5.82-0.28,11.64-0.76,17.44c-0.33,4.01-1.85,7.95-5.4,9.94c-1.02,0.57-1.52,0.67-1.53,1.72c-0.02,5.32-1.02,10.56-1,15.91
		c0.04,10.3,0.85,20.63-0.75,30.89c-0.14,0.93-0.47,2.22,1.43,2.99c0-3.51-0.01-6.65,0-9.79c0.01-5.99-0.01-11.98,0.08-17.97
		c0.03-1.79-0.03-4.66,1.8-4.68c2.44-0.02,1.45,2.82,1.49,4.43C533.28,917.66,533.19,922.64,533.19,927.62z M533.41,758.79
		c-1.85,4.06-1.21,8.11-1.24,12.06c-0.03,3.98-0.89,8.48,0.67,11.79c1.36,2.87-0.96,7.99,4.41,8.77c-1.01,3.29,2.09,5.91,1.51,9.07
		c-0.38,2.07-0.04,3.29,2.3,3.27c2.31-0.02,2-1.67,2.58-3.29c1.3-3.63,1.05-7.53,3.56-11.13c1.73-2.49,3.73-6.08,3.53-9.87
		c-0.37-7.1-0.66-14.2-1.03-22.38c-0.82,3.2-2.55,4.88-2.65,7.31c-0.05,1.2,0.18,3.15-1.77,2.87c-1.64-0.23-1.27-2.08-1.43-3.34
		c-1.24-9.6-0.99-19.25-0.96-28.89c0.01-1.86-0.11-4.05,1.15-5.26c4.15-3.99,2.39-8.96,2.75-13.59c0.31-4.03-2.69-3.14-4.75-2.88
		c-2.13,0.27-5.72-2.1-5.87,2.8c-0.17,5.48,1.41,10.55,2.48,15.82c2.2,10.87,0.41,22.17,0.3,33.29c-0.01,0.98-0.24,2.2-1.52,2.15
		c-1.26-0.05-1.48-1.29-1.44-2.26C536.13,762.75,534.79,761.03,533.41,758.79z M333.92,807.22c-0.01-0.07-0.01-0.14-0.02-0.21
		c-3.48,0.3-6.96,0.63-10.44,0.89c-2.25,0.17-4.7,0.42-4.93,3.16c-0.28,3.38-1.83,7.28,0.41,10.06c1.38,1.71,5.45,1.58,7.06,0.27
		c4.16-3.4,8.74-2.57,13.26-2.54c3.56,0.02,4.54-1.49,4.58-4.82c0.09-6.84,0.24-6.84-6.42-6.81
		C336.26,807.22,335.09,807.22,333.92,807.22z M749.87,810.3c0-0.07,0-0.14,0-0.21c-2.16,0-4.33,0.16-6.47-0.03
		c-3.86-0.35-5.39,1.14-5.25,5.12c0.11,3.24,1.1,4.6,4.5,5.11c4.32,0.66,8.71-0.15,12.96,3.09c3.87,2.95,8.15-0.31,8.2-5.13
		c0.08-7.04-0.33-7.51-7.45-7.92C754.19,810.2,752.03,810.3,749.87,810.3z M347.23,826.34c-1.46-1.67-3.38-1.05-5.07-1.1
		c-7.63-0.22-15.27,0.29-22.9-0.86c-3.14-0.48-4.44-1.64-4.38-4.69c0.06-3.41,0.01-6.82,0.01-10.23
		c-1.38,4.72,0.46,10.23-2.84,14.86c-2.17-2.2-0.53-4.81-1.87-7.32c0,2.34,0.26,4.21-0.05,5.98c-0.76,4.26,1.28,4.98,4.98,4.89
		c8.98-0.23,17.96-0.08,26.95-0.19C343.74,827.67,345.74,828.4,347.23,826.34z M734.09,827.1c1.9,2.12,3.64,1.84,5.2,1.86
		c7.49,0.11,14.96,0.18,22.44,0.71c10.58,0.74,10.6,0.48,9.8-10.4c-1.07,2.1,0.78,4.94-1.71,7.07c-3.39-4.38-1.09-9.55-2.69-14.65
		c0,3,0.06,5.28-0.01,7.55c-0.21,6.94-1.06,7.81-7.81,7.85C751.19,827.14,743.08,827.1,734.09,827.1z M589.47,833.28
		c-27.66-0.12-55.27-2.48-82.86,0.72C534.24,831.94,561.88,835.73,589.47,833.28z M424.26,833.35c25.5,0.91,50.98,0.15,76.46-0.84
		C475.22,831.51,449.75,833.23,424.26,833.35z"/>
	<path class="st0" d="M376.86,822.38c-4.73,19.82-8.53,39.85-12.5,59.92c-0.89-0.31-1.28-0.32-1.46-0.52
		c-2.52-2.92,2.39-7.83-2.78-10.3c-0.59-0.28-0.21-3.19,0.15-4.78c5.07-22.4,8.83-45.04,12.47-67.71c0.21-1.33-0.37-3.69,1.77-3.41
		c2.16,0.28,0.91,2.39,0.82,3.73c-0.86,11.98-3.55,23.67-5.56,35.47c-0.22,1.3-0.41,2.6-0.27,3.96c2.54-9.98,5.19-19.92,6.31-30.2
		c0.34-3.14,0.77-6.27,1.26-9.38c0.13-0.8,0.69-1.63,1.7-1.45c1.12,0.19,1.04,1.18,0.88,1.98c-0.74,3.64-0.38,7.31-0.42,10.96
		C378.81,814.63,378.27,818.59,376.86,822.38z"/>
	<path class="st0" d="M703.66,817.74c0.78-5.02-1.29-9.89-0.84-14.88c0.12-1.36-0.63-3.67,1.23-3.73c2.04-0.07,2.04,2.35,2.02,3.91
		c-0.17,10.24,2.32,20.09,4.22,30.03c0.24,1.29,0.64,2.54,1.54,3.71c-1.52-10.39-3.06-20.78-4.55-31.18
		c-0.26-1.8-0.45-3.63-0.44-5.45c0.01-1.21-0.49-3.18,1.29-3.27c2.06-0.09,1.89,2.01,1.91,3.4c0.1,5.67,1.21,11.21,2.01,16.8
		c2.34,16.45,5.1,32.82,8.37,49.11c0.5,2.49,3.64,6.41-1.88,7.99c-0.25,0.07,0.46,3.36,0.64,5.16c0.15,1.53,1.47,3.81-0.74,4.3
		c-1.95,0.43-1.66-2.11-1.92-3.38c-2.94-14.14-5.76-28.3-8.64-42.45c-0.2-0.96-0.58-1.89-0.88-2.83
		C706.31,829.15,706.08,823.23,703.66,817.74z"/>
	<path class="st0" d="M536.26,670.27c-2.91,1.81-5.89,1.83-8.86,1.81c-29.61-0.2-59.16-2.55-88.82-2.24
		c-10.88,0.11-21.98,0-32.87-1.7c-1.15-0.18-2.34-0.17-3.45-0.45c-0.96-0.24-2.03-0.8-1.9-1.98c0.17-1.55,1.48-1.64,2.67-1.47
		c25.99,3.75,52.17,1.75,78.25,2.75c16.95,0.65,33.88,2.18,50.87,1.95C533.42,668.93,534.84,668.6,536.26,670.27z"/>
	<path class="st0" d="M546.77,670.11c1.46-1.48,2.86-1.19,4.14-1.18c27.81,0.3,55.58-2.02,83.41-1.2
		c14.97,0.44,29.91-0.83,44.85-1.84c1.36-0.09,3.92-1.41,3.97,1.2c0.04,1.83-2.46,1.89-4.07,2c-6.14,0.43-12.3,0.62-18.43,1.15
		c-18.3,1.61-36.58,0.05-54.87,0.12c-16.95,0.07-33.85,2.29-50.85,1.82C552.17,672.1,549.26,672.51,546.77,670.11z"/>
	<path class="st0" d="M711.96,494.53c-1.48-3.8-2.19-7.11-1.96-10.56c1.78-26.75,1.88-53.54,1.84-80.34
		c-0.01-7.5-0.03-15,0.07-22.49c0.02-1.32-0.49-3.52,1.75-3.39c1.65,0.09,1.44,2.04,1.42,3.3c-0.3,20.31,0.54,40.6-0.54,60.93
		c-0.85,15.95-0.48,31.97-1.31,47.94C713.14,491.21,713.45,492.59,711.96,494.53z"/>
	<path class="st0" d="M372.22,492.97c-1.53-1.6-1.3-3-1.29-4.3c0.11-19.31-0.78-38.61-0.87-57.92c-0.08-16.62-0.37-33.26,0.76-49.87
		c0.11-1.55-0.54-4.18,1.52-4.15c2.5,0.03,1.77,2.82,1.7,4.44c-1.01,25.3-0.99,50.6-0.67,75.9c0.13,10.3,1.14,20.6-0.12,30.89
		C373.05,489.52,373.52,491.21,372.22,492.97z"/>
	<path class="st0" d="M707.83,489.78c-2.47-2.91-1.87-4.99-1.93-6.91c-0.71-22.8,0.77-45.58,0.94-68.37
		c0.03-3.46,1.6-6.87,0.26-10.38c-0.27-0.72-0.32-1.79,0.82-1.94c0.96-0.13,1.52,0.72,1.76,1.49c0.3,0.93,0.47,1.96,0.45,2.94
		c-0.49,23.28-0.98,46.57-1.54,69.85C708.5,480.53,708.14,484.59,707.83,489.78z"/>
	<path class="st0" d="M377.24,488.38c-1.75-2.09-1.32-3.82-1.33-5.43c-0.09-25.46-0.13-50.92-0.19-76.38c0-0.83-0.04-1.67,0.06-2.49
		c0.18-1.42,0.09-3.58,2.11-3.14c1.75,0.38,0.41,2.25,0.41,3.46c0.04,9.63,0.01,19.25,0.51,28.9c0.9,17.6,0.41,35.24-0.7,52.85
		C378.07,486.71,377.68,487.26,377.24,488.38z"/>
	<path class="st0" d="M714.16,327.02c-2.46-3.92-0.22-7.76-0.28-11.62c-0.25-16.61-0.15-33.22-0.06-49.83
		c0.01-2.35-1.09-6.42,1.35-6.65c3.23-0.31,1.94,4.09,3.02,6.27c1.62,3.27-1.36,6.16-1.24,9.56c0.38,10.78,0.49,21.6,0.04,32.38
		C716.73,313.79,716.91,320.64,714.16,327.02z"/>
	<path class="st0" d="M371.97,326.39c-2.26-2.39-2.16-5.19-2.16-7.92c-0.02-14.65-0.14-29.31,0.07-43.96
		c0.07-4.71-3.02-9.28-0.47-14.05c0.58-1.08,0.16-3.07,1.99-2.97c1.79,0.09,1.67,1.88,1.64,3.14c-0.16,9.81,0.26,19.59-0.47,29.43
		c-0.8,10.75-0.93,21.61,0.24,32.39C372.95,323.72,373.4,325,371.97,326.39z"/>
	<path class="st0" d="M692.98,606.02c1.34-8.35,2.63-16.72,1.35-25.2c-0.17-1.14-1.18-2.26,0.65-2.7c1.53-0.36,2.81,0.38,2.93,1.92
		c0.24,2.98,0.36,5.99,0.17,8.97c-0.86,13.61-2.88,27.14-3.05,40.81c-0.02,1.64-0.05,3.37-2.01,4.35c0-9.48,0-18.85,0-28.23
		L692.98,606.02z"/>
	<path class="st0" d="M567.62,662.48c19.72-0.61,39.43-1.22,59.15-1.83c0.02,0.66,0.04,1.31,0.07,1.97
		c-19.69,1.81-39.39,3.49-59.2,2.16C567.63,664,567.63,663.24,567.62,662.48z"/>
	<path class="st0" d="M515.8,664.29c-20.02,1.96-39.83-0.95-60.62-2.33C458.95,659.39,510.04,661.56,515.8,664.29z"/>
	<path class="st0" d="M389.99,597.97c-0.35,11.92,0.98,23.8,1.33,35.73c-3.94-6.63-3.64-14.03-4.13-21.08
		c-0.69-10.07-1.99-20.16-1.39-30.31c0.09-1.48-0.21-3.03,0.66-4.37c0.61-0.94,1.6-1.2,2.62-0.87c1.14,0.38,0.78,1.17,0.42,1.98
		c-2.83,6.4-0.12,12.65,0.51,18.96L389.99,597.97z"/>
	<path class="st0" d="M383.91,469.12c-2.07-1.94-2.03-4.31-2.04-6.61c-0.06-13.3-0.07-26.6-0.08-39.9c0-0.99,0.05-2,0.24-2.97
		c0.19-0.98,0.6-2.02,1.88-1.82c1.03,0.16,1.13,1.16,1.12,1.97c-0.12,16.26,0.76,32.52-0.4,48.77
		C384.64,468.66,384.42,468.75,383.91,469.12z"/>
	<path class="st0" d="M371.08,221.55c6.34-3.03,39.84-2.74,44.8,0.03C400.94,222.56,386,224.06,371.08,221.55z"/>
	<path class="st0" d="M699.58,470.41c0.87-14.42-0.72-28.16,1.08-41.86c0.32-2.43-0.1-4.96-0.24-7.44c-0.06-0.97-0.53-2.2,0.82-2.44
		c1.66-0.29,1.72,1.19,1.87,2.31c0.13,0.98,0.11,1.99,0.1,2.98c-0.05,13.93,0.44,27.87-0.97,41.77
		C702.07,467.31,702.37,469.08,699.58,470.41z"/>
	<path class="st0" d="M693.02,605.95c-2.37,6.7-1.85,13.72-2.17,20.63c-0.11,2.34-0.2,4.55-2.82,6.46c0-5.29-0.36-10.6,0.08-15.85
		c0.68-8.08,1.82-16.12,1.83-24.26c0-1.34-0.7-3.6,1.34-3.68c2.36-0.1,1.92,2.3,1.93,3.83c0.02,4.31-0.14,8.63-0.23,12.94
		C692.98,606.02,693.02,605.95,693.02,605.95z"/>
	<path class="st0" d="M709.15,277.28c3.02,1.66,2.91,3.71,3,5.64c0.62,13.15-0.65,26.25-0.98,39.37c-0.03,1.26,0.19,3.13-1.61,3.11
		c-1.73-0.01-1.79-1.89-1.62-3.13c1.34-9.43,0.15-18.97,1.31-28.37C709.92,288.61,709.46,283.41,709.15,277.28z"/>
	<path class="st0" d="M376.91,276.06c0,16.46,0,32.13,0,48.49C372.98,319.3,373.01,281.71,376.91,276.06z"/>
	<path class="st0" d="M586.15,233.61c7.35-4.06,36.84-3.42,44.39,1.07C615.75,233.97,600.95,234.14,586.15,233.61z"/>
	<path class="st0" d="M390.02,598.02c0.02-2.66-0.02-5.32,0.1-7.97c0.05-1.06,0.73-1.92,1.94-1.81c1.06,0.1,1.12,1.03,1.18,1.87
		c0.88,13.42,1.77,26.83,2.61,40.25c0.03,0.41-0.4,0.85-1.33,2.66c-0.93-5.95-2.39-10.44-2.68-15.32
		c-0.39-6.59-0.52-13.23-1.86-19.74C389.99,597.97,390.02,598.02,390.02,598.02z"/>
	<path class="st0" d="M499.97,233.57c-14.61-0.51-29.22,0.07-43.83,0.22C461.6,229.83,492.97,229.58,499.97,233.57z"/>
	<path class="st0" d="M699.38,231.02c4.05-2.26,8.1-0.32,12.81-2.33c-7.11-1.07-13.23,0.26-19.02-1.54
		c6.67-2.36,13.51-2.46,20.36-2.17c1.64,0.07,2.64,1.2,1.91,2.69c-0.9,1.85,0.68,5.18-3,5.43C708.2,233.39,704,233.3,699.38,231.02z
		"/>
	<path class="st0" d="M386.92,229.8c-4.75,3.21-9.11,2.37-13.33,2.01c-2-0.17-2.58-1.88-2.59-3.69c-0.01-1.48-0.26-3.58,1.5-3.81
		c6.96-0.94,13.86-0.59,20.49,2.57c-5.85,0-11.7,0-17.55,0C378.53,229.92,382.72,227.75,386.92,229.8z"/>
	<path class="st0" d="M670.19,222.08c0.52-1.5,1.86-1.16,2.9-1.17c12.93-0.07,25.86-0.1,38.79-0.07c1.19,0,3.17-0.48,3.16,1.36
		c0,1.43-1.88,1.93-3.14,1.79c-13.7-1.47-27.47-0.1-41.17-1.15C670.55,222.83,670.39,222.37,670.19,222.08z"/>
	<path class="st0" d="M332.33,998.13c2.43-11.15,4.65-22.03,6.03-33.06c0.58-4.6,1.04-9.22,1.77-13.8c0.24-1.51,0.77-3.91,2.76-3.4
		c2.02,0.52,0.45,2.57,0.27,3.86c-1.82,12.96-2.89,26.04-5.91,38.81c-0.61,2.58-1.4,5.12-2.14,7.67c-0.28,0.94-0.61,2.15-1.79,2.03
		C331.81,1000.08,332.6,998.73,332.33,998.13z"/>
	<path class="st0" d="M747.67,1000.56c0,0.44,0.24,1.48-0.9,1.6c-1.26,0.13-1.64-0.99-1.86-1.94c-1.3-5.49-2.91-10.94-3.71-16.5
		c-1.51-10.5-2.54-21.07-3.78-31.6c-0.11-0.95-0.64-2.16,0.76-2.43c1.2-0.23,1.55,0.94,1.96,1.84c1.66,3.62,0.96,7.54,1.43,11.31
		c1.42,11.55,3.41,22.99,5.63,34.4C747.39,998.22,747.48,999.22,747.67,1000.56z"/>
	<path class="st0" d="M530.04,824.02c-1.22,1.84-3.11,1.33-4.57,1.42c-10.76,0.66-21.54,1.16-32.31,1.64
		c-1.22,0.05-2.97,0.37-3.22-1.45c-0.15-1.13,1.06-1.62,2.09-1.67c12.28-0.55,24.55-1.87,36.86-0.78
		C529.28,823.22,529.62,823.7,530.04,824.02z"/>
	<path class="st0" d="M517.02,818.02c-3.33-1.63-6.88-0.7-10.33-0.88c-2.99-0.15-5.99,0.01-8.99-0.07c-1.8-0.05-4.62,0.09-4.59-1.87
		c0.05-2.42,2.91-1.41,4.5-1.4c9.96,0.08,19.92,0.34,29.88,0.51c0.7,0.01,1.43,0.03,1.64,0.74c0.32,1.05-0.54,1.55-1.33,1.73
		c-3.57,0.82-7.15,1.64-10.86,1.19L517.02,818.02z"/>
	<path class="st0" d="M553.16,815.49c4.91-1.01,9.86-1.7,14.93-1.66c5.79,0.04,11.59-0.06,17.38,0.02c1.3,0.02,3.59-0.71,3.52,1.44
		c-0.05,1.55-2.17,1.78-3.68,1.8c-5.63,0.07-11.26,0.1-16.89,0.11c-5.07,0.02-10.14,0-15.21,0
		C553.2,816.64,553.18,816.07,553.16,815.49z"/>
	<path class="st0" d="M551.8,824.07c1.64-1.65,3.54-1.08,5.22-1.2c10.12-0.73,20.16,1.09,30.27,1.05c1.5-0.01,3.95-0.32,3.78,1.98
		c-0.13,1.84-2.41,1.33-3.76,1.25c-11.39-0.65-22.78-1.4-34.17-2.16C552.77,824.96,552.42,824.51,551.8,824.07z"/>
	<path class="st0" d="M516.96,817.99c3.47,1.74,7.58-0.09,11.39,1.89c-1.17,2.17-3.02,2.05-4.76,2.19c-6.84,0.53-13.61-0.65-20.41-1
		c-1.13-0.06-2.63-0.15-2.46-1.76c0.17-1.57,1.68-1.28,2.81-1.29c4.5-0.01,8.99,0,13.49,0
		C517.02,818.02,516.96,817.99,516.96,817.99z"/>
	<path class="st0" d="M488.11,692.38c6.27-1.77,12.74-1.89,19.13-1.23c7.18,0.73,14.26-0.4,21.39-0.18
		c0.95,0.03,2.22-0.08,2.43,1.16c0.18,1.11-1.21,0.81-1.88,1.48c2.93,0.87,6.17-0.53,9.04,1.18c-1.11,2.04-2.88,2.02-4.43,2.19
		c-16.58,1.77-33.23,1.02-49.85,1.18c-1.34,0.01-3.57,0.37-3.29-1.8c0.24-1.82,2.18-0.75,3.39-0.76c8.14-0.02,16.27-0.01,24.41-0.01
		c0.01-0.56,0.02-1.13,0.03-1.69c-6.8,0-13.6,0-20.4,0C488.1,693.39,488.1,692.88,488.11,692.38z"/>
	<path class="st0" d="M646.86,696.24c12.44-1.86,23.62-2.86,34.91-2.24c10.44,0.57,20.87,1.23,31.3,1.83
		c1.16,0.07,2.33-0.02,3.49,0.06c1.11,0.08,2.6-0.07,2.53,1.61c-0.05,1.16-1.21,1.5-2.24,1.57c-1.49,0.1-3,0.21-4.49,0.1
		c-19.56-1.48-39.13-2.33-58.75-1.13C651.78,698.15,649.7,698.57,646.86,696.24z"/>
	<path class="st0" d="M555.85,693.93c-1.11-1.02-3.05-0.18-4.12-2c2.74-1.85,5.78-1.25,8.54-0.83c6.15,0.93,12.21,0.63,18.37,0.09
		c4.58-0.4,9.26,0.39,13.89,0.71c0.99,0.07,2.17,0.33,1.91,1.69c-0.25,1.31-1.41,1.01-2.41,1c-11.98-0.19-23.95-0.34-35.93-0.5
		C556.1,694.1,555.85,693.93,555.85,693.93z"/>
	<path class="st0" d="M466.68,165.22c-1.32-2.15-2.94-4.18-3.03-7.75c-0.86,2.38-0.88,4.41-2.75,5.89
		c-1.78-2.21-1.07-4.58-0.76-6.71c1.86-13.02,3.85-26.02,5.82-39.02c0.19-1.27,0.18-3.04,2.07-2.72c1.5,0.26,1.2,1.95,1.01,2.95
		c-1.21,6.34,3.1,12.44,0.76,18.8c5.14,8.8-1.13,17.14-1.11,25.74C468.7,163.36,468.41,164.78,466.68,165.22z"/>
</g>
</svg>
