<?xml version="1.0" encoding="utf-8"?>
<!-- Generator: Adobe Illustrator 24.0.1, SVG Export Plug-In . SVG Version: 6.00 Build 0)  -->
<svg version="1.1" id="레이어_1" xmlns="http://www.w3.org/2000/svg" xmlns:xlink="http://www.w3.org/1999/xlink" x="0px"
	 y="0px" viewBox="0 0 1080 1080" style="enable-background:new 0 0 1080 1080;" xml:space="preserve">
<style type="text/css">
	.st0{fill:#846E5B;}
</style>
<g>
	<path class="st0" d="M786,1081c-0.69-30.64-2.43-61.23-3.89-91.83c-1.08-22.79-2.12-45.59-3.16-68.38
		c-1.69-37.27-3.36-74.54-5.02-111.82c-1.43-32.11-2.82-64.23-4.53-96.37c-0.18,2.41-0.36,4.82-0.62,8.19
		c-1.68-3.73-0.17-7.06-2.08-10.6c0.45,57.84,6.59,114.67,4.4,171.73c-1.02-1.45-1.14-3.32-1.22-5.18
		c-0.68-15.97-1.63-31.93-1.98-47.91c-0.66-30.31-4.43-60.5-3.33-90.87c0.08-2.1,0.6-5.31-2.91-5.29c-3.48,0.01-3.44,2.91-3.44,5.51
		c0,14.5-0.03,29-0.02,43.49c0,3.94-0.43,7.8-2.24,11.62c-0.36-2.43-1.03-4.85-1.04-7.28c-0.05-15.5,0.08-30.99,0.03-46.49
		c-0.01-1.69,1.74-4.72-1.33-4.82c-3.09-0.11-2.26,3.14-2.29,5.12c-0.14,11-0.15,22-0.21,33c-0.02,3.61-0.5,7.13-1.55,10.88
		c-2.16-1.97-1.84-4.25-1.83-6.32c0.04-12.66-0.33-25.34,0.66-37.97c0.26-3.27-0.62-4.05-3.89-3.54
		c-5.82,0.92-11.68,2.14-17.72,0.21c3.85-0.75,7.72-1.45,11.56-2.27c3.93-0.84,7.74-1.27,11.63-3.31c2.44-1.28,5.73-0.04,6.32-4.48
		c0.14-1.02,1.64,0.1,1.82,1.12c0.35,2.03,1.43,2.93,3.48,2.54c2.28-0.43,2.17-2.22,2.13-3.9c-0.19-6.88,0.26-7.55-6.59-6.72
		c-6.16,0.74-12.21,1.96-18.31,3.37c7.73,2.44,15.4-2.5,23.94-1.1c-2.04,2.59-4.22,2.31-6,2.76c-11.71,2.96-23.71,3.37-35.69,3.8
		c-6.99,0.25-7.46,0.55-6.76,8.03c1.24,13.11,1.17,26.27,1.67,39.41c0.03,0.81-0.07,1.63-0.76,2.54c-0.45-3.42-1.08-6.82-1.3-10.26
		c-0.8-11.96-1.47-23.92-2.14-35.88c-0.13-2.3-0.19-4.4-3.35-4.42c-3.25-0.01-3.35,2.2-3.2,4.45c1.24,18.3,0.99,36.63,0.83,54.95
		c-0.03,3.47,1.79,4.15,4.73,4.14c8.5-0.04,17-0.05,25.5,0.12c7.5,0.15,9.34,1.99,9.77,9.56c0.17,2.99,0.25,6.03-0.1,8.98
		c-0.41,3.45-2.57,4.11-5.15,1.74c-1.09-1-1.92-2.29-2.88-3.44c-2.26-2.72-4.75-5.27-8.18-6.37c-8.57-2.75-12.53-1.26-12.95,7.54
		c-0.86,17.98-1.3,35.94,0.43,53.89c0.42,4.33,3.02,7.26,6.13,9.92c1.11,0.95,2.6,1.99,2.11,3.68c-0.53,1.88-2.46,2.31-4.07,2.37
		c-8.98,0.34-17.98,0.69-26.95-0.21c-1.59-0.16-3.58-0.36-4.04-2.35c-0.45-1.93,1.08-3.14,2.48-3.97c5.7-3.36,6.69-8.96,6.76-14.7
		c0.19-15.66,0.21-31.33,0.01-46.99c-0.11-8.97-4.93-11.89-13.36-8.58c-4.17,1.64-7.28,4.56-10.01,8.03c-1,1.27-2.14,3.02-3.99,2.52
		c-2.16-0.59-2.19-2.89-2.13-4.62c0.12-3.65,0.46-7.31,1.03-10.92c0.64-3.98,3.13-6.11,7.27-6.13c0.67,0,1.33-0.06,2-0.08
		c11.37-0.31,11.35-0.31,11.32-11.48c-0.05-17.5-0.19-35-0.01-52.49c0.05-4.63-1.45-6.14-6.09-5.85
		c-28.96,1.81-57.99,2.05-86.95,1.04c-49.15-1.72-98.31-0.02-147.44-0.98c-28.62-0.56-57.2-2.55-85.63-6.17
		c-1.27-0.16-2.58-0.77-4.91,1.05c9.93,2.98,19.85,2.85,29.12,7.25c-2.64,1.48-4.95,1.84-7.39,1.85
		c-15.5,0.11-30.97-0.23-46.26-3.16c-1.23-0.24-2.87-1.19-3.55,0.46c-0.6,1.47-0.82,3.38,0.19,4.79c0.95,1.34,2.26,1.08,3.34-0.19
		c0.46-0.54,1.25-0.77,1.76-0.19c4.42,4.96,10.88,3.26,16.27,5.03c1.86,0.61,3.81,0.9,7.04,1.64c-6.39,1.52-11.44,0.66-16.26-0.52
		c-5.18-1.26-5.96,0.79-5.89,5.24c0.19,12,0.08,24,0.03,36c-0.01,1.78,0.37,3.69-1.15,5.52c-1.97-1.5-1.27-3.64-1.28-5.4
		c-0.09-12-0.05-24-0.06-36c0-1.5-0.04-3-0.18-4.49c-0.12-1.27-0.79-2.27-2.18-2.31c-1.51-0.05-1.92,1.08-2.01,2.34
		c-0.06,0.83-0.13,1.68-0.03,2.5c1.88,15.32-0.59,30.61-0.23,45.93c0.06,2.59-0.67,5.21-1.43,7.8c-1.23-4.91-2.08-9.85-1.59-14.87
		c1.33-13.64,0.44-27.31,0.68-40.96c0.04-2.21,0.03-4.43-2.93-4.98c-2.15-0.4-3.64-0.15-3.57,2.55c0.06,2.33-0.09,4.67-0.03,7
		c0.55,21.53-2.15,42.87-3.72,64.28c-1.11,15.1-1.4,30.26-2.35,45.38c-0.64,10.19-0.71,20.44-2.63,30.53
		c-1.29-5.33,0.37-10.55,0.29-15.85c-0.5-32.17,1.55-64.22,4.68-96.23c0.58-5.95,0.3-11.99,0.33-17.99
		c0.05-10,0.61-19.96,1.74-29.89c0.09-0.83,0.34-2.31,0.11-2.4c-3.65-1.35-1.74-5.03-3.26-7.42
		C310.94,833.23,303.47,957.12,296,1081c-1,0-2,0-3,0c-0.36-15,1.6-29.9,2.19-44.86c0.54-13.63,1.72-27.23,2.57-40.85
		c1.62-26.08,3.22-52.16,4.8-78.24c1.1-18.11,2.11-36.23,3.21-54.34c1.58-26.25,3.23-52.49,4.8-78.74
		c1.11-18.61,2.1-37.22,3.24-55.83c1.55-25.42,3.23-50.82,4.76-76.24c1.15-19.11,2.06-38.24,3.2-57.36
		c2.23-37.24,4.57-74.47,6.8-111.71c1.08-17.94,2.16-35.89,2.95-53.84c0.23-5.19,2.53-8.16,6.97-10.45
		c33.9-17.5,67.73-35.13,101.59-52.73c1.63-0.85,3.2-1.86,4.91-2.47c5.93-2.12,8.13-6.45,8.71-12.51
		c1.12-11.78,1.34-11.73-10.38-12.62c-2.32-0.18-4.63-0.58-6.91-1.04c-5.59-1.13-7.76-4.33-7.05-10.03
		c1.41-11.23,2.77-22.47,4.14-33.71c0.1-0.79,0.01-1.6,0.01-3.93c-2.9,5.37-6.63,4.36-10.29,3.95c-14.73-1.66-29.43-3.38-43.8-7.3
		c-7.93-2.17-7.74-1.88-7.14-10.17c1.53-21.44,3.77-42.79,7.3-64c0.08-0.49-0.03-1.05,0.15-1.48c1.02-2.44-3.02-4.4-0.65-6.91
		c3.87-4.1,8.21-7.54,13.92-8.58c28.83-5.25,57.77-9.67,87.07-11.32c13.78-0.78,27.55-1.81,41.34-2.65c2.8-0.17,5.62-0.02,8.46,0.33
		c-4.33,1.15-8.66,2.09-13.18,2.22c19.58,0,39.15,0,58.73,0c-3.2-0.35-6.42-0.7-10.66-2.42c12.07,0.63,22.92,0.93,33.73,1.82
		c25.21,2.08,50.41,4.39,75.31,8.94c11.9,2.18,24.01,3.48,35.56,7.64c3.87,1.39,4.79,5.44,8.22,6.88c0.3,0.13,0.6,0.97,0.47,1.31
		c-3.88,9.82,0.81,19.22,1.63,28.76c1.21,14.27,2.33,28.55,3.24,42.83c0.5,7.87,0.18,7.5-7.31,9.48c-9.23,2.44-18.6,3.72-28.04,4.79
		c-5.95,0.67-11.93,1.17-17.88,1.86c-2.9,0.34-5.64,0.47-8.36-2.11c0.69,7.01,1.36,14.02,2.08,21.03c0.51,4.97,1.11,9.92,1.67,14.89
		c0.58,5.18-1.92,8.85-7.11,9.63c-4.76,0.71-9.6,1.07-14.41,1.29c-3.03,0.14-4.34,1.26-3.74,4.3c0.03,0.16,0.06,0.33,0.05,0.5
		c-0.76,10.9,3.52,17.55,13.9,22.82c32.52,16.51,64.25,34.58,96.56,51.51c8.19,4.29,10.99,9.57,11.17,18.8
		c0.53,27.46,2.33,54.9,3.54,82.35c1.82,41.26,3.53,82.53,5.34,123.8c1.62,37.1,3.31,74.2,4.97,111.31
		c2.01,44.92,3.96,89.85,6.04,134.77c1.43,30.94,2.88,61.88,4.01,92.84c1.19,32.61,3.06,65.19,4.64,97.78
		C788.67,1081,787.33,1081,786,1081z M620,382.99c-2.23-0.92-4.57-0.8-6.9-0.76c-15.65,0.27-31.3,0.05-46.96,0.73
		c-21.64,0.95-43.3-0.6-64.94-1.18c-18.46-0.49-36.95-0.86-55.29-3.42c-2.54-0.35-4.86,0.18-7.16,1.5
		c-20.36,11.71-40.5,23.8-61.58,34.22c-4.05,2-7.87,4.45-13.04,7.41c2.71,0.17,3.84,0.3,4.97,0.3c41.47-0.03,82.93-0.12,124.4-1.65
		c36.29-1.34,72.63-0.53,108.92,0.93c8.31,0.33,16.64,0.5,24.95,0.92c2.51,0.13,6.06,2.29,7.27-0.37c0.93-2.05-2.49-4.29-4.06-6.38
		c-2.39-3.18-6.28-5.2-8.07-10.37c5.89,4.14,9.58,8.78,13.22,13.48c1.01,1.31,2.03,2.7,3.33,3.67c1.37,1.01,3.4,1.41,4.63,0.14
		c1.18-1.22-0.54-2.37-1.25-3.36c-5.84-8.13-12.05-15.95-19.17-23.02c-1.25-1.24-3.15-2.31-2.81-4.79c2.16,0.48,3.03,2.03,4.19,3.16
		c7.91,7.7,14.59,16.43,21.11,25.29c1.19,1.61,2.21,3.72,5.66,2.87c-6.65-8.59-12.59-16.97-19.3-24.8
		c-4.1-4.78-9.16-8.78-12.1-14.52c2.53,0.4,3.9,2.43,5.52,4.05c9.95,9.89,18.18,21.2,26.41,32.48c2.19,3.01,4.64,4.2,8.34,4.22
		c17.29,0.1,34.59-0.16,51.88,0.86c5.06,0.3,10.15,0.05,15.69,0.05c-1.52-2.43-3.51-3.03-5.17-3.95
		c-20.07-11.14-40.2-22.14-59.76-34.18c-3.79-2.33-7.35-6.18-11.79-6.18C640.73,380.36,630.23,380.44,620,382.99z M504.48,435.61
		c-53.86-0.8-107.69-0.15-161.5-1.34c-4.5-0.1-5.98,1.84-5.67,5.98c0.81,10.98,0.58,21.96-0.42,32.9
		c-1.88,20.42-3.1,40.88-2.47,61.38c0.34,10.99,0.91,21.96-0.01,32.95c-1.05,12.44-2.71,24.88-2.99,37.34
		c-0.64,28.8,0.53,57.64-2.06,86.4c-0.15,1.61-0.39,3.34,1.66,4.25c6.37,2.83,10.97-0.19,10.71-7.09c-0.02-0.5-0.04-1-0.07-1.5
		c-1.7-29.32-0.71-58.6,1.37-87.85c0.3-4.27,0.37-8.92,3.6-12.57c-0.15,3.95-0.98,7.81-1.24,11.71
		c-2.15,31.45-1.21,62.95-1.15,94.44c0,1.41-0.37,3.6,1.57,3.69c2.49,0.11,1.92-2.31,1.9-3.8c-0.26-16.65,0.73-33.32-0.55-49.97
		c-0.2-2.6-0.01-5.15,1.42-8.33c0.43,1.31,0.66,1.73,0.69,2.16c1.12,18.13,1,36.29,0.96,54.45c0,1.5-0.01,3,0.09,4.5
		c0.07,1.17,0.22,2.53,1.77,2.56c1.68,0.03,1.59-1.44,1.65-2.56c0.17-3.5-0.16-6.97-0.49-10.47c-0.28-3.02-1.27-6.34,1.79-10.06
		c0.3,8.72,0.27,16.45,2.06,24.84c1.98-2.15,1.57-3.71,1.73-5.13c0.16-1.46-0.37-3.25,1.88-4.2c0.14,0.98,0.29,1.61,0.32,2.25
		c0.33,7.64,0.33,7.64,8.22,8.34c0.83,0.07,1.68,0.11,2.48,0.31c3.2,0.82,4.08-0.66,4.19-3.64c0.69-19.29,3-38.51,2.95-57.84
		c0-1.74-0.36-3.71,2.13-5.58c-1.59,12.81-0.01,25.04-1.2,37.26c-0.85,8.77-1.13,17.6-1.58,26.41c-0.07,1.4-0.36,3.46,1.72,3.54
		c2.19,0.09,1.88-2.01,1.85-3.39c-0.2-10.65,0.59-21.32-0.61-31.96c-0.32-2.87-1.33-6.09,1.44-9.12
		c2.26,15.12,1.47,29.87,2.25,44.54c1.64-8.64,0.02-17.44,1.52-26.01c0.67,0.02,1.34,0.03,2.01,0.05c0,8.91,0,17.83,0,26.74
		c0.58,0,1.17,0.01,1.75,0.01c1.71-5.52-0.42-11.57,1.8-17.08c1.85,4.56,1,9.32,1.1,13.97c0.06,3.11,0.87,5.13,4.28,5.53
		c14.57,1.71,29.12,3.07,43.83,1.59c7.66-0.77,15.43-0.98,24.16,1.39c-2.37,0.67-3.61,1.31-4.86,1.32
		c-15.81,0.13-31.58,2.39-47.42,0.85c-5.8-0.56-11.59-1.22-17.39-1.82c-1.15-0.12-2.58-0.44-2.93,1.07c-0.4,1.73,1.03,2.25,2.4,2.53
		c0.81,0.16,1.65,0.23,2.48,0.24c34.66,0.04,69.16,3.89,103.76,4.74c42.97,1.07,85.98,1.25,128.94-0.92
		c6.15-0.31,12.29-0.76,18.45-0.94c1.11-0.03,2.6-0.02,2.44-1.73c-0.11-1.19-1.27-1.47-2.28-1.51c-3.66-0.17-7.34-0.15-10.99-0.41
		c-4.5-0.33-8.98-0.87-13.46-1.31c0.01-0.51,0.03-1.03,0.04-1.54c1.72-0.13,3.44-0.36,5.16-0.38c5.83-0.05,11.67-0.12,17.5,0.01
		c3.08,0.07,4.66-0.87,4.58-4.24c-0.44-18.98,0.99-37.98-0.76-56.95c-0.2-2.2-0.77-4.56,1.38-8.13c0.37,3.79,0.65,6.17,0.84,8.56
		c1.49,18.96,0.98,37.96,0.84,56.95c-0.01,1.36-0.88,3.44,1.32,3.67c2.46,0.26,2.32-1.97,2.29-3.57
		c-0.15-7.99,0.38-15.98-0.43-23.97c-0.5-4.91-1.01-9.94,0.71-14.82c2.38,14.13,2.22,28.4,3.18,42.65
		c2.83-5.22-1.08-11.22,2.12-16.55c0.45,0.53,0.81,0.75,0.82,0.99c0.11,2.99,0.2,5.99,0.24,8.98c0.08,7.54,0.28,7.72,7.57,6.97
		c15.41-1.57,30.82-3.14,46.23-4.66c8.9-0.87,8.9-0.82,9.96-9.54c0.02-0.2,0.44-0.35,0.73-0.56c2.56,1.92,0.32,5.52,3.46,8.67
		c0.89-8.53,0.53-16.17,2.16-23.84c1.63,1.65,1.29,3.33,1.24,4.95c-0.14,4.99-0.29,9.99-0.39,14.98c-0.02,0.95-0.15,2.28,1.13,2.43
		c1.24,0.14,1.55-1.09,1.65-2.08c0.28-2.65,0.67-5.31,0.64-7.96c-0.23-16.5,0.56-32.97,1.27-49.44c0.04-1.02-0.41-2.34,1.41-3.11
		c1.16,2.08,0.94,4.27,0.8,6.32c-1.14,16.64-0.83,33.3-0.84,49.95c0,1.59-1.08,4.44,1.41,4.5c2.09,0.05,1.72-2.79,1.93-4.53
		c0.14-1.15,0.05-2.33,0.08-3.5c0.31-10.99,0.34-21.98,0.69-32.98c0.5-15.47,0.79-30.96-0.27-46.46
		c-0.52-7.61-1.08-15.22-1.62-22.88c0.83,0.64,1.3,1.32,1.5,2.07c2.47,9.42,2.88,19.11,3.07,28.74c0.49,24.82,0.3,49.65-0.92,74.46
		c-0.18,3.58,0.85,5.41,4.76,4.92c3.25-0.41,7.45,1.04,6.96-4.92c-0.51-6.14-0.65-12.31-0.8-18.47c-0.49-19.33,0.2-38.65,0.53-57.97
		c0.48-27.79-4.26-55.4-2.13-83.35c2.33-30.44-2.79-60.89-1.7-91.39c0.01-0.33-0.02-0.67-0.03-1c-0.04-2.48-1.44-3.64-3.78-3.71
		c-7.99-0.25-15.98-0.48-23.97-0.65c-1.27-0.03-3.14-0.26-3.24,1.47c-0.14,2.24,1.97,1.85,3.34,1.86
		c5.83,0.04,11.65,0.16,17.47-0.51c6.81-0.78,7.44,0.07,7.58,6.74c0.2,9.67-1.1,19.27-0.69,28.97c1.31,31.29,2.26,62.59,2.48,93.91
		c0.01,1.14,0.38,2.52-0.86,3.51c-1.34-1.64-1.16-3.36-1.26-5c-1.29-21.29-1.71-42.6-2.2-63.92c-0.43-18.48-1.75-36.95,0.06-55.42
		c0.36-3.71-1.28-5.23-4.92-4.94c-5.98,0.47-11.96,0.95-17.94,1.27c-2.91,0.16-2.95,1.82-2.84,4.08c0.7,14.3,1.28,28.6,1.92,42.9
		c0.31,6.95-0.09,13.85-1.49,20.72c-0.4-1.28-0.56-2.57-0.58-3.86c-0.21-18.65-0.53-37.3-2.06-55.9c-0.19-2.26,1.11-6.51-1.72-6.31
		c-3.47,0.24-1.56,4.26-1.37,6.64c1.1,13.78,0.31,27.54-0.03,41.35c-0.55-0.71-0.75-1.45-0.77-2.2
		c-0.39-12.32-0.74-24.64-1.17-36.95c-0.08-2.32-0.45-4.63-0.79-6.93c-0.17-1.17-0.58-2.43-2.14-2.21
		c-1.49,0.21-1.67,1.52-1.64,2.69c0.11,4.33-0.03,8.69,0.54,12.96c0.93,6.89-0.44,13.81,0.73,20.68
		c-1.69-10.71-2.64-21.45-3.59-32.2c-0.17-1.94,0.24-4.31-2.76-4.38c-3-0.07-2.91,2.19-2.86,4.21c0.14,5.32-0.09,10.64,0.47,15.98
		c0.58,5.54,0.57,11.15-0.72,16.64c-0.8-1.82-0.93-3.62-1-5.43c-0.39-9.32-0.76-18.63-1.18-27.95c-0.06-1.27,0.14-3.02-1.71-3.08
		c-1.9-0.07-1.75,1.67-1.8,2.96c-0.08,2.16-0.05,4.33-0.05,6.5c0,8.18,0,16.36,0,24.54c-0.45,0-0.9,0-1.35,0c0-2.13,0.01-4.27,0-6.4
		c-0.04-7.83-0.1-15.67-0.11-23.5c0-2.66-0.68-4.62-3.83-4.65c-5.33-0.05-10.66-0.15-16-0.21c-2.42-0.02-3.72,1.13-3.69,3.65
		c0.11,9.49-0.01,18.99,0.37,28.48c0.23,5.62,0.49,11.22,0.22,18.31c-3.37-16.46-0.68-31.91-4.06-46.9
		c-0.41,21.19-1.14,42.35-0.27,63.53c-3.32-21.26-2.43-42.76-2.97-64.18c-0.84,0.02-1.68,0.05-2.52,0.07
		c0.6,25.37,1.2,50.73,1.8,76.1c-0.99-3.68-1.71-7.39-1.85-11.12c-0.79-19.79-1.64-39.59-2-59.4c-0.09-5.17-1.7-6.62-6.66-6.35
		c-20.83,1.16-41.56-1.38-62.35-2.05c-1.54-0.05-3.19-0.01-4.57-1.58c24.13-1.08,47.78,3.5,71.61,1.43
		c-0.35-2.07-2.9-0.91-3.24-2.63c1.23-1.19,3.51,0.24,4.36-1.9c-1.38-1.84-3.38-1.16-5.05-1.1c-31.2,1.15-62.13-2.81-93.17-4.63
		c-16.28-0.95-32.85-1.94-48.93,0.02c-23.92,2.92-47.8,3.16-71.76,3.23c-18.26,0.05-36.51,0.01-54.77,0.01
		c15.93,1.71,32.01-0.36,48.5,2.32c-2.16,2.52-4.68,1.43-7.2,2.75c25.17,2.57,49.67-1.71,74.11,0.6
		c-22.57,0.88-45.05,3.36-67.73,2.02c-7.98-0.47-15.64-2.82-23.62-2.74c-21.01,0.2-41.98-0.36-62.84-3.13
		c-3.8-0.5-5.6,0.73-5.54,4.81c0.19,15.49,0.15,30.97-0.75,46.46c-1.09,18.62-1.31,37.29-2.41,55.9
		c-0.43,7.35-0.24,14.87-2.67,22.05c-0.32-7.96-0.56-15.93-0.28-23.87c1.22-34.11,3.93-68.17,3.71-102.34
		c-0.04-6.79,0.69-7.49,7.52-6.7c10.31,1.18,20.68,1.06,30.96,0.41c23.3-1.46,46.65-1.27,69.93-1.06
		C467.63,436.62,486.06,435.17,504.48,435.61z M585.13,311.93c-0.37-0.01-0.74-0.02-1.11-0.02c-0.73-8.09-1.78-16.16-2.08-24.27
		c-0.16-4.42-1.7-5.68-5.95-5.64c-22.32,0.2-44.66-0.27-66.96,0.42c-8.21,0.25-17-1.1-24.66,3.71c-0.44,0.28-0.81,0.5-1.26,0.04
		c-4.16-4.26-4.08,0.21-5.13,2.47c-0.53,1.13-0.47,2.71-2.11,3.06c-1.02-0.43-0.82-1.31-0.91-2.11c-0.17-1.35,1.44-3.52-0.63-3.88
		c-2.71-0.47-2.14,2.42-2.58,3.96c-1.02,3.56-0.83,7.49-3.3,11.19c-1.37-4.36-0.27-8.07,0.18-11.81c0.15-1.25,0.56-3.04-1.26-3.27
		c-1.78-0.22-1.92,1.5-2.04,2.83c-0.4,4.31-0.68,8.63-1.15,12.93c-0.3,2.76-0.05,5.78-2.79,8.52c-1.6-8.34,0.22-16.03-0.33-23.75
		c-3.82,11.46-2.32,24.02-7.41,35.13c-0.65-2.08-0.84-4.07-0.62-6.01c0.9-8.27,1.96-16.53,2.87-24.8c0.15-1.33,1.37-3.45-0.63-3.85
		c-2.02-0.4-1.83,1.89-2.01,3.29c-1.35,10.57-2.58,21.15-4.04,31.7c-0.45,3.22,0.41,4.05,3.67,3.71
		c25.18-2.65,50.43-4.18,75.77-3.76c2.58,0.04,5.32-0.38,8.24,2.23c-32.35,0.86-63.93,2.02-95.32,5.97
		c15.09-0.69,30.15-2.39,45.25-1.99c14.89,0.39,29.63-2.81,44.51-1.97c-19.98,4.91-40.4,4.03-60.61,5.51c39.24,0,78.48,0,117.72,0
		c0.01-0.25,0.01-0.5,0.02-0.75c-8.55-1.22-17.1-2.44-25.64-3.66c8.77-3.01,17.38,1.37,26.01,0.17c0.02-0.52,0.05-1.03,0.07-1.55
		c-10.04-0.58-20.09-1.16-31.32-1.81c3.23-2.02,5.53-2.11,7.84-2.1c6.66,0.04,13.33-0.31,19.96,0.72c3.28,0.51,4.59-0.64,4.14-4.13
		c-1.35-10.56-2.49-21.14-3.76-31.71c-0.16-1.31,0.31-3.11-2.13-3.51C584.13,292.83,584.63,302.38,585.13,311.93z M517.02,339.35
		c-12.5,1.33-25.05,2.07-37.67,1.97c0.01,0.7,0.02,1.41,0.03,2.11c10.98,0,21.96,0,32.94,0c-10.37,4.4-21.22,1.87-31.74,3.58
		c4.83,1.53,10.02-0.28,15.61,1.88c-5.66,2.74-11.43-0.13-16.2,2.36c0.3,2.41,3.38,1.25,3.38,4c-3.34,0-6.65-0.02-9.95,0.01
		c-1.18,0.01-2.58,0.1-2.72,1.57c-0.18,1.9,1.43,1.93,2.75,2.05c0.83,0.08,1.66,0.06,2.5,0.07c27.81,0.38,55.61-0.16,83.42,0.66
		c18.64,0.55,37.31,0.32,55.96,0.43c1.83,0.01,3.67,0.03,5.49-0.07c1.17-0.06,2.53-0.26,2.45-1.85c-0.08-1.49-1.33-1.75-2.57-1.75
		c-3.39-0.02-6.78-0.01-10.31-0.01c0.49-2.83,3.53-1.69,3.54-4.23c-4.7-2.43-10.57,0.72-15.1-3.45c4.85,0,9.7,0,14.55,0
		c0-0.5-0.01-1-0.01-1.49c-5.36,0-10.71,0.02-16.07-0.01c-8.9-0.05-12.16-0.69-15.91-3.37c11.48,1.12,22.35,1.19,33.2-0.29
		c-12.49-2.13-25.18-1.53-37.57-4.03c8.18-0.69,16.31-1.18,24.43-0.23c6.81,0.79,13.64,0.38,20.46,0.4c1.38,0,2.9-0.28,2.83-2.06
		c-0.07-1.69-1.65-1.25-2.72-1.37c-0.66-0.07-1.33-0.03-2-0.03c-47.96-0.36-95.92-0.72-143.88-1.07c-1.17-0.01-2.34-0.05-3.5,0.03
		c-1.28,0.09-3.03-0.08-2.96,1.8c0.06,1.84,1.81,1.7,3.08,1.69c7.82-0.07,15.64,0.28,23.47-0.38
		C503.15,337.71,510.12,337.16,517.02,339.35z M505.94,368.88c-1.29,0.09-2.58,0.24-3.87,0.26c-14.65,0.2-29.29,0.43-43.88-1.68
		c-3.15-0.46-6.84-1.59-10.3,1.76c14.39,2.75,28.33,2.79,42.64,2.4c-1.66,1.68-3.41,1.32-5.02,1.56
		c-12.86,1.98-25.57,0.44-38.25-1.61c-3.38-0.55-6.1,0.36-8.69,2.67c2.64,1.54,5.26-0.77,7.4,0.21c6.73,3.1,13.99,2.66,20.98,3.09
		c17.94,1.1,35.92,1.71,53.9,2.04c11.65,0.22,23.28,1.99,34.93,1.03c15.98-1.32,31.97-0.63,47.95-0.96
		c8.82-0.18,17.64-0.94,26.46-0.87c8.15,0.06,15.84-3.82,24.08-2.42c0.06,0.01,0.16-0.24,0.38-0.6c-3.24-3.72-7.47-2.68-11.47-2.19
		c-8.77,1.09-17.53,1.98-26.38,1.55c-7.14-0.35-10.52-1.04-12.9-2.67c13.82,0.48,27.63,0.93,41.77-1.71
		c-2.19-2.66-4.53-2.61-6.84-2.28c-14.9,2.13-29.89,1.94-44.88,1.61c-2.1-0.05-4.25-0.03-7.09-1.93c18.81-0.86,36.67,0.78,54.9-2.43
		c-2.47-2.2-4.72-1.73-6.82-1.77c-8.99-0.18-17.99-0.36-26.97-0.46c-49.97-0.6-99.95-0.83-149.93-1.18
		c-2.27-0.02-4.57-0.04-6.27,1.88C469.77,368.05,488.05,365.65,505.94,368.88z M679.84,230.13c-1.05-8.71-1.17-16.87-1.1-25.02
		c0.02-2.7-0.79-4.42-3.77-4.82c-9.56-1.29-19.08-2.86-28.66-3.98c-5.85-0.68-6.2-0.21-6.04,5.95c0.26,9.65,0.45,19.31,1.12,28.93
		c0.85,12.11,1.53,24.24,3.65,36.24c0.66,3.75,2.03,6.16,5.65,6.95c9.6,2.1,19.36,3.14,29.11,4.21c2.5,0.27,2.82-1.19,2.05-3.16
		c-5.51-14.13-4.19-29.2-5.93-43.84c-0.21-1.79-0.77-3.98,1.2-5.45C678.84,226.88,677.96,229.04,679.84,230.13z M418.97,224.2
		c2.02,3.7,0.71,7.48,0.32,11.12c-1.39,12.87-0.97,26.03-6.07,38.32c-1.19,2.87,0.53,3.09,2.72,2.83
		c8.43-0.99,16.88-1.82,25.29-2.98c6.62-0.91,8.15-2.58,9.25-9.03c0.56-3.28,1.09-6.57,1.51-9.88c2.36-18.85,3.31-37.81,4.43-56.76
		c0.19-3.21-1.64-3.69-4.08-3.39c-10.41,1.27-20.81,2.62-31.23,3.88c-2.64,0.32-3.84,1.67-3.77,4.29
		c0.21,8.17-0.47,16.31-1.03,24.45c-0.01,0.21,0.22,0.44,0.28,0.57C417.67,226.8,417.12,225.01,418.97,224.2z M479.1,192.97
		c0,0.22,0,0.43,0,0.65c-5.15,0-10.3-0.1-15.45,0.05c-1.97,0.06-4.2,0.44-4.29,3.17c-0.35,10.79-1.4,21.63-0.76,32.37
		c0.75,12.61-0.27,24.93-3.54,36.98c-1.29,4.74-0.01,4.99,3.89,4.71c8.29-0.6,16.58-1.61,24.9-0.96c4.5,0.36,6.18-1.47,6.62-5.78
		c2.3-22.49,4.27-45.01,5.33-67.6c0.12-2.6-0.58-3.67-3.23-3.61C488.08,193.05,483.59,192.97,479.1,192.97z M615.82,193.97
		c-4.05,0-8.05-0.01-12.04,0c-2.23,0-3.24,0.91-3.17,3.36c0.69,22.98,2.23,45.9,4.46,68.79c0.32,3.26,1.52,4.84,4.92,4.76
		c9.34-0.22,18.64,0.53,27.91,1.68c2.57,0.32,3.78-0.14,2.77-3.23c-3.71-11.41-4.72-23.33-3.62-35.06
		c1.09-11.56-0.86-22.96-0.11-34.42c0.23-3.44-1.41-4.73-4.71-4.86C626.74,194.79,621.27,194.33,615.82,193.97z M580.89,193.24
		c0-0.09,0-0.18,0-0.27c-4.16,0-8.32,0.07-12.48-0.03c-2.11-0.05-3.02,0.75-3.12,2.86c-0.26,5.48-1.17,10.99-0.86,16.43
		c1.03,17.94,2.5,35.85,3.78,53.77c0.14,2,0.55,3.65,2.95,3.86c8.96,0.77,17.94,1.15,26.93,0.83c1.84-0.07,2.82-1.05,2.46-2.92
		c-1.4-7.3-5.04-14.48-0.99-22.02c-1.76-15.07-1.85-30.22-1.97-45.37c-0.05-7.09-0.33-7.1-7.22-7.14
		C587.21,193.22,584.05,193.24,580.89,193.24z M510.99,269.93c0-0.06,0-0.13,0-0.19c4.16,0,8.32-0.08,12.48,0.03
		c2.5,0.07,3.4-0.8,3.59-3.42c0.65-8.96,1.69-17.89,2.43-26.84c1.19-14.24,3.32-28.43,1.56-42.81c-0.42-3.46-1.72-4.57-5-4.49
		c-6.65,0.18-13.32-0.01-19.97,0.2c-6.42,0.21-6.87,0.87-7.16,7.37c-0.63,13.96-0.73,27.94-2.54,41.83
		c-0.19,1.47-0.68,3.63,0.05,4.35c3.02,2.96,1.57,6.17,1.03,9.28c-0.57,3.27-1.31,6.54-2.37,9.68c-1.33,3.95,0.14,5.15,3.92,5.02
		C503,269.82,507,269.93,510.99,269.93z M626.28,302.38c-1.8-2.39-1.9-4.59-2.3-6.59c-0.64-3.26-0.97-6.59-1.53-9.87
		c-0.24-1.36-0.9-2.77-2.59-2.39c-1.68,0.38-0.83,1.83-0.78,2.92c0.09,2.09,1.71,4.27,0.01,6.56c-1.95-1.47-1.98-3.42-2.67-5.07
		c-0.65-1.56-0.01-4.12-2.48-4.4c-2.55-0.28-0.97,3.21-2.99,3.86c-1.44-2.04-1.32-5.36-5.13-5.2c-4.99,0.21-9.99-0.04-14.99-0.09
		c-2.58-0.03-3.58,1.03-3.08,3.73c0.66,3.6,1.08,7.24,1.47,10.88c0.75,7.11,1.38,14.24,2.13,21.35c0.17,1.58,0.06,4.05,2.14,3.88
		c2.25-0.19,1.36-2.67,1.33-4.17c-0.08-3.15-0.63-6.3-0.64-9.45c-0.02-5.4-1.98-10.76-0.55-16.19c2.09,8.46,3.14,17.02,3.45,25.62
		c0.14,3.9,1.64,5.39,5.25,5.58c4.32,0.23,8.64,0.55,12.95,0.94c8.62,0.77,17.23,1.58,25.84,2.45c3.29,0.33,4.5-0.66,3.9-4.2
		c-0.75-4.42-0.86-8.94-1.34-13.41c-0.94-8.6-1.95-17.2-2.94-25.8c-0.13-1.13-0.06-2.74-1.58-2.69c-2.17,0.07-1.29,1.89-1.2,3.07
		c0.21,2.49,0.58,4.96,0.83,7.45c1.08,10.81,2.83,21.57,2.2,32.54c-3.98-6.13-3.53-13.25-4.12-20c-1.13-12.83-1.72-17.34-4.06-20.02
		c-0.22,9.12,2.96,17.99,0.01,27.17c-2.12-2.18-1.91-4.55-2.1-6.79c-0.47-5.64-0.88-11.29-1.48-16.92
		c-0.16-1.49-0.11-3.95-2.51-3.45c-2.07,0.43-0.87,2.45-0.81,3.84C626.13,292.18,628.17,296.8,626.28,302.38z M384.34,280.2
		c4.51-6.8,1.63-15.43,5.81-22.34c0.31,5.78,0.07,11.49-0.6,17.14c-0.43,3.6,0.33,5,4.22,4.1c3.06-0.71,6.26-1.11,9.4-1.14
		c3.89-0.04,5.18-1.99,5.48-5.52c1.91-22.71,3.88-45.42,5.9-68.12c0.34-3.85-1.09-5.19-4.91-4.49c-6.38,1.18-12.82,2.01-19.17,3.29
		c-2.44,0.49-7.22-0.46-6.38,3.23c0.64,2.8,4.52-0.2,6.91-0.58c5.72-0.92,11.22-3.39,17.22-2.31c-6.74,3.45-14.63,3.29-21.2,7.27
		c5.85,0.11,11.39-2.9,18-1.44c-3.84,2.83-8.52,1.7-12.09,4.47c2.74,1.92,5.83,0.13,8.68,1.89c-2.37,0.63-4.25,1.17-6.16,1.63
		c-1.8,0.43-2.97,1.3-3.12,3.32c-0.32,4.46-0.65,8.93-1.13,13.38c-0.73,6.71-0.8,13.51-3.2,20.08c0-3.57,0-7.14,0-10.71
		C387.2,255.7,385.05,267.86,384.34,280.2z M537.64,224.42c-1.07,12.21-2.15,25.13-3.34,38.05c-0.51,5.51,0.12,6.49,5.15,6.55
		c5.66,0.07,11.34-0.18,16.99,0.12c3.95,0.21,4.71-1.33,4.5-4.97c-0.78-13.61-2.4-27.17-2.84-40.82c0,6.82,0,13.64,0,20.45
		c0,6.67,0,13.34,0,20.01c-3.86-20.47-2.39-40.84,0.8-61.17c0.53,0.74,1.18,1.63,2.05,2.84c2.39-12.6,2.22-12.85-9.55-14
		c-1.49-0.15-3.01-0.3-4.49-0.16c-14.28,1.37-13.48-0.89-11.81,13.37c0.05,0.39,0.23,0.77,0.38,1.28c0.8-0.95,0.49-2.6,1.62-2.47
		c3.37,20.19,4.63,40.23-0.15,60.22C537.59,250.31,538.27,236.9,537.64,224.42z M622.45,430.85c4.94-0.77,9.83-1.15,14.79-0.33
		c1.15,0.19,3.14,0.85,3.36-0.94c0.22-1.77-1.61-2.26-3.17-2.43c-0.66-0.08-1.33-0.09-1.99-0.1c-10.82-0.25-21.63-0.57-32.45-0.72
		c-28.64-0.4-57.28-0.55-85.92-0.83c-58.79-0.57-117.59-0.29-176.38-0.33c-1.63,0-3.6-0.5-5.28,2.73
		c23.13-1.88,45.34-0.89,67.46,1.12c22.17,2.02,44.39-1.64,67.12,0.3c-1.56,2.42-3.41,1.41-5.4,2.99c54.28,0,107.69,0,160.87,0
		C624.94,431.57,622.99,432.72,622.45,430.85z M707.16,255.6c-0.37,0.06-0.74,0.12-1.11,0.19c-0.45-6.77-0.7-13.56-1.41-20.31
		c-0.77-7.31,1.25-16.34-9.86-18.09c2.73-1.91,6.14,1.34,9.35-1.31c-4.34-2.64-9.6-1.61-14.06-4.92c7.13-0.92,12.94,2.15,19.17,2.14
		c-6.55-4.22-14.8-3.89-21.39-7.95c7.15-0.13,13.79,2.04,20.5,3.86c1.3,0.35,3.22,1.82,3.94-0.04c0.84-2.2-1.46-2.64-3.04-2.96
		c-6.85-1.36-13.7-2.84-20.61-3.85c-6.06-0.89-6.72-0.1-6.56,5.94c0.5,18.15,2,36.24,3.44,54.33c0.38,4.81,0.92,9.61,1.45,14.4
		c0.16,1.43,0.81,2.62,2.48,2.59c1.99-0.04,1.8-1.52,1.77-2.88c-0.27-11.82-0.53-23.64-0.82-35.46c-0.04-1.53-1.38-3.86,0.96-4.17
		c2.4-0.31,1.74,2.29,1.93,3.78c1.41,11.11,0.76,22.29,1.03,33.43c0.04,1.65-0.4,3.46,1.16,5.77c0.76-9.18-0.31-17.52,0.55-25.78
		c2.99,7.12,2.07,14.47,2.24,21.72c0.08,3.17,0.47,5.87,4.46,5.63c4.64-0.28,2.78-3.74,2.51-6.02c-0.6-5.06-0.51-10.05,0.23-15.15
		c3.39,7.13,0.96,15.57,5.4,22.41c-1.39-15.53-2.96-30.98-3.72-46.52C707.16,242.79,707.16,249.19,707.16,255.6z M698.14,751.29
		c-0.32,11.48,0.47,22.94,0.97,34.4c0.1,2.21-0.53,5.17,3.16,4.94c3.3-0.21,2.63-2.98,2.55-4.98c-0.49-12.79-1.23-25.57-1.13-38.38
		c0.04-5.47-0.41-10.96-0.87-16.42c-0.15-1.76,0.2-4.58-2.69-4.41c-2.63,0.16-1.95,2.69-1.97,4.39
		C698.09,737.65,698.14,744.47,698.14,751.29z M658.38,379.47c0.3,0.35,0.54,0.8,0.92,1.03c23.99,14.75,48.66,28.33,73.05,42.38
		c4.26,2.45,8.88,2.26,14.35,1.64C716.05,410.57,687.91,393.8,658.38,379.47z M345.53,421.63c6.39,0.32,11.25,0.52,15.87-2.07
		c18.44-10.28,36.96-20.41,55.4-30.69c6.28-3.5,12.39-7.32,18.58-10.99c-0.19-0.36-0.38-0.71-0.58-1.07
		C405.51,391.49,377.06,407.88,345.53,421.63z M756.57,429.67c-2.28-1.91-4.96-1.38-7.5-1.4c-19.31-0.19-38.61-0.01-57.92-0.82
		c-9.31-0.39-18.65-0.17-27.97-0.17c-1.09,0-2.78-0.43-3,1c-0.26,1.66,1.2,2.87,2.7,3.04c2.7,0.32,5.62,1.39,7.99-1.06
		c0.55-0.57,1.06-1.59,1.96-0.7c4.39,4.39,9.79,2.08,14.59,1.79c18.78-1.15,37.54-2.28,56.36-0.82
		C747.99,430.87,752.3,431.17,756.57,429.67z M488.48,188.8c40.08-0.6,80.14-0.98,120.17,1.1
		C568.63,184.82,528.56,184.79,488.48,188.8z M327.1,625.36c-0.27,2.11-0.62,4.21-0.8,6.32c-1.29,15.56-2.59,31.11-3.78,46.67
		c-0.57,7.45-0.91,14.92-1.29,22.39c-0.04,0.88-0.17,2.34,1.32,2.1c1.21-0.2,1.07-1.47,0.97-2.47c-0.15-1.39-2.03-2.35-0.87-4.09
		c3.81-5.7,2.97-12.61,3.93-18.81C329.24,660.35,327.37,642.95,327.1,625.36z M581.16,274.36c-1.83-0.21-2.78-0.36-3.74-0.43
		c-16.96-1.35-33.95-0.63-50.92-0.8c-9.49-0.1-18.99,0.07-28.48,0.23c-1.26,0.02-3.61-0.91-3.52,1.27c0.07,1.65,2.02,0.68,3.29,0.67
		c2.94-0.01,5.87,0.6,8.81,0.6c22.98,0,45.97-0.08,68.95-0.18C577.13,275.72,578.85,276.28,581.16,274.36z M579.38,279.87
		c0-0.47,0.01-0.94,0.01-1.4c-1.47-0.09-2.94-0.27-4.41-0.27c-28.62,0.03-57.24,0.08-85.86,0.14c-1.19,0-2.5,0.11-2.52,1.72
		c-0.01,1.27,1.05,1.62,2.09,1.64c1.83,0.02,3.68,0.08,5.48-0.15c8.43-1.07,16.86-1.78,25.38-1.71c14.49,0.13,28.99,0.04,43.48,0.04
		C568.49,279.87,573.94,279.87,579.38,279.87z M762.42,628.37c-0.22,23.28-3.16,46.68,3.64,69.65
		C766.37,674.73,763.55,651.59,762.42,628.37z M694,721.52c0,2.27,0.03,4.04,0,5.82c-0.27,15.47,0.6,30.95-0.7,46.41
		c-0.39,4.63-0.12,9.32-0.1,13.98c0.01,1.16,0.14,2.52,1.69,2.6c1.6,0.09,1.76-1.24,1.84-2.43c0.07-1.16,0.09-2.33,0.03-3.49
		c-0.92-19.29-0.99-38.59-1.06-57.89C695.7,724.97,696.14,723.19,694,721.52z M763.73,578.77c-1-21.45-2-42.82-2.99-64.19
		c0.68,22.82-3.53,45.69,0.25,68.98c1.24-1.94,0.21-3.34,0.2-4.74C761.19,577.24,761.61,577.22,763.73,578.77z M665.61,713.08
		c19.08,1.36,38.06,1.37,56.32-5.57C703.07,708.42,684.47,711.98,665.61,713.08z M644.07,283.05c1.4,13.9,2.81,27.8,4.19,41.71
		c0.17,1.71,0.72,3.07,2.69,2.74c2.2-0.38,1.69-2.14,1.35-3.57c-1.32-5.68-2.24-11.43-2.82-17.23c-0.8-7.94-1.75-15.87-2.66-23.8
		c-0.14-1.17-0.41-2.52-2-2.26C643.46,280.85,643.75,282.08,644.07,283.05z M330.63,513.52c-0.28,21.96-4.89,43.96-1.66,66.1
		C332.5,557.69,330.24,535.64,330.63,513.52z M450.65,284.07c-0.29-0.55,1-2.56-0.8-2.82c-2.09-0.31-1.63,2.01-2.14,3.26
		c-0.24,0.6-0.25,1.3-0.32,1.96c-1.27,11.86-2.39,23.74-5.15,35.39c-0.31,1.3-1.4,3.26,0.79,3.76c2.55,0.59,2.93-1.63,3.15-3.46
		C447.68,309.67,449.12,297.17,450.65,284.07z M434.18,278.68c-15.54,1.13-31.14,1.44-46.23,5.55
		C403.66,284.59,419.13,283.06,434.18,278.68z M660.18,279.84c5.7,4.39,42.43,8.96,47.26,5.71
		C691.39,284.06,676.43,280.55,660.18,279.84z M591.25,436.24c24.84,1.72,49.72,1.57,74.59,1.25
		C641,435.6,616.11,436.59,591.25,436.24z M383.89,241.13c-1.16,6.36-2.35,12.71-3.47,19.07c-1.04,5.89-2.03,11.79-2.95,17.71
		c-0.19,1.21-0.69,2.99,1.18,3.26c1.42,0.2,1.75-1.32,1.91-2.48C382.27,266.21,384.2,253.75,383.89,241.13z M711.87,244.08
		c-0.9,12.71,1.38,25.11,2.6,37.59c0.11,1.16,0.5,2.58,1.96,2.4c1.54-0.19,1.39-1.75,1.23-2.83
		C715.77,268.86,713.81,256.47,711.87,244.08z M598.93,327.49c17.71,1.34,35.41,2.77,53.14,3.82
		C634.42,329.11,616.78,326.79,598.93,327.49z M338.83,707.62c1.93,0.04,3.19,0.12,3.67-1.28c0.41-1.18,0.14-2.27-0.8-3.18
		c-2.78-2.71-5.82-4.72-9.94-4.76c-2.62-0.03-3.37,1.45-3.89,3.6c-0.56,2.28,0.77,3.05,2.49,3.51
		C333.4,706.33,336.47,707.04,338.83,707.62z M755.21,702.22c-4.29-0.93-6.49,2.74-9.07,5.27c-1.47,1.44-0.61,3.36,1.74,3.17
		c2.95-0.24,5.87-0.89,8.77-1.51c2.11-0.46,4.45-0.92,3.83-4.03C759.94,702.3,757.8,702.12,755.21,702.22z M345.65,718.79
		c-6.08-2.79-11.32-2.31-16.22-3.38c-1.77-0.39-3.99-0.47-4.61,1.81c-0.78,2.85-1.69,6.13,0.24,8.61c1.26,1.63,3.5,1.5,4.66-1.13
		c1.63-3.67-1.31-4.57-4.56-6.15C332.27,716.36,338.23,721.04,345.65,718.79z M651.34,283.95c0.15,12.35,1.31,24.55,4.21,36.52
		C655.18,308.16,655.02,295.83,651.34,283.95z M438.6,320.79c3.12-12.71,4.76-25.62,5.1-38.69
		C439.41,294.66,439.75,307.82,438.6,320.79z"/>
	<path class="st0" d="M773,1081c-2.38-38.66-5.24-77.31-3.3-116.12c2.73,20.13,2.25,40.43,2.81,60.68c0.3-32.04,2.55-64.08-0.4-96.1
		c-1.04-11.27-2.1-22.53-3.14-33.8c-0.08-0.83-0.14-1.67-0.06-2.49c0.19-1.9-0.49-5.11,1.68-5.13c2.61-0.01,1.31,3.14,1.48,4.9
		c1.25,12.58,2.61,25.16,3.53,37.76c1.31,18.1,1.6,36.21,0.99,54.39c-0.78,23.45-0.78,46.95,0.11,70.43
		c0.32,8.48,0.21,16.98,0.3,25.47C775.67,1081,774.33,1081,773,1081z"/>
	<path class="st0" d="M306,1081c-0.69-12.66,0.42-25.29,0.66-37.94c0.6-31.48,0.52-62.97,1.28-94.44
		c0.44-18.13,2.7-36.17,5.41-54.12c0.51-3.36-0.32-6.91,1.24-10.51c2.18,1.48,1.65,3.46,1.61,5.11
		c-0.24,11.67-2.51,23.15-3.39,34.76c-0.5,6.63-1.38,13.26-1.5,19.9c-0.33,17.97-0.99,35.94-0.43,53.93
		c0.25,7.98-1.19,15.94-0.22,23.96c2.28-20.52,0.11-41.38,4.5-61.76c1.4,3.15,0.03,6.28,0.01,9.4c-0.17,21.48-0.64,42.96-2.06,64.39
		c-1.05,15.77-3.41,31.45-3.1,47.31C308.67,1081,307.33,1081,306,1081z"/>
	<path class="st0" d="M313,1081c0.69-12.93,1.28-25.86,2.09-38.78c0.8-12.76,1.82-25.5,2.76-38.25c0.18-2.41-0.34-4.99,2.41-7.96
		c0.2,29.07-4.1,56.94-4.26,84.99C315,1081,314,1081,313,1081z"/>
	<path class="st0" d="M767,1081c-1.38-26.9-2.77-53.8-4.15-80.7c0.5-0.06,0.99-0.13,1.49-0.19c1.54,2.13,1.44,4.88,1.5,7.27
		c0.53,23.08,3.31,46.05,3.41,69.15c0.01,1.49-0.16,2.98-0.24,4.47C768.33,1081,767.67,1081,767,1081z"/>
	<path class="st0" d="M321,1081c1.09-14.22,1.89-28.46,1.89-42.74c0-3.59,0-7.24,2.98-10.31c-0.62,17.68-1.25,35.36-1.87,53.04
		C323,1081,322,1081,321,1081z"/>
	<path class="st0" d="M759,1081c-1.8-6.35-1.06-12.87-1.16-19.32c-0.17-10.07-0.04-20.15-0.04-30.11
		c2.41,2.53,4.24,29.78,3.21,49.43C760.33,1081,759.67,1081,759,1081z"/>
	<path class="st0" d="M591.94,812.93c-1.29,3.24-0.87,5.93-0.86,8.51c0.08,12.82-0.82,25.65,0.85,38.44
		c0.57,4.39,1.82,8.43,4.48,12.02c2.27,3.06,1.1,5.22-2.3,5.73c-6.4,0.96-12.86,2.05-19.33,0.45c-1.49-0.37-3.01-0.89-3.2-2.68
		c-0.17-1.56,1.05-2.4,2.27-2.98c5.49-2.6,6.84-7.48,6.87-12.87c0.09-15.66,0.06-31.33,0-46.99c-0.02-5.55-1.63-10.47-6.11-14.2
		c-1.36-1.13-3.11-2.47-2.24-4.58c0.83-2.02,2.95-1.79,4.76-2.01c11.56-1.4,20.62,2.08,27.59,12.03
		c10.02,14.33,20.82,28.11,31.33,42.1c1.37,1.83,2.95,3.51,4.43,5.26c0.58-0.52,1.02-0.72,1.03-0.94
		c0.59-14.81,1.31-29.62-0.9-44.36c-0.53-3.5-1.8-6.68-4.44-9.3c-2.14-2.12-2.22-4.19,1.35-4.93c6.51-1.36,12.94-0.32,19.3,0.97
		c3.11,0.63,3.63,3.28,1.73,5.35c-7.35,8-6.36,17.77-6.47,27.41c-0.17,15.32-0.5,30.64-0.84,45.95c-0.14,6.57-2.91,8.06-8.55,4.67
		c-4.05-2.43-7.34-5.72-10.17-9.5c-11.89-15.87-23.78-31.73-35.7-47.58C595.36,816.97,593.76,815.15,591.94,812.93z"/>
	<path class="st0" d="M343.39,848.58c1.73,7.44,4.78,13.54,6.98,19.95c1.21,3.54,2.97,3.07,4.95,0.88c2.75-3.04,3.27-7,3.31-10.78
		c0.18-16.99,0.13-33.99,0.06-50.98c-0.02-4.03-1.81-7.36-4.83-10.07c-1.08-0.97-2.57-1.97-2.08-3.69c0.49-1.72,2.23-1.86,3.7-2
		c14.28-1.37,28.61-2.12,42.84,0.01c11.46,1.72,19.36,9.6,20.74,19.46c1.67,11.96-3.85,21.94-14.93,27.27
		c-6.78,3.26-14.14,3.76-21.39,4.5c-4.96,0.5-7.16,2.92-7.36,7.59c-0.35,8.21-1.21,16.59,7.52,21.7c1.13,0.66,2.17,1.87,1.72,3.33
		c-0.58,1.9-2.45,2.14-4.09,2.3c-7.46,0.75-14.94,1.32-22.44,0.85c-3.28-0.21-3.59,0.85-2.68,3.66
		c11.89,36.73,18.06,74.72,24.85,112.58c1.85,10.32,3.53,20.68,5.39,31c0.54,2.97,0.62,5.89-0.55,8.95
		c-2.09-11.51-4.27-23.01-6.25-34.54c-6.13-35.62-12.51-71.18-21.91-106.12c-1.55-5.74-4.22-11.25-5.85-16.85
		c-2.68-9.18-7.46-17.67-8.8-27.23C342.25,850.1,342.6,849.8,343.39,848.58z M375.33,818.24c0,3.66-0.09,7.32,0.03,10.97
		c0.07,2.23,0.76,4.23,3.17,5.17c8.77,3.41,20.99-3.07,22.99-12.21c3.3-15.14-5.59-24.84-21.02-23.07
		c-2.76,0.32-4.08,1.47-4.58,4.23C375.03,808.28,375.37,813.26,375.33,818.24z"/>
	<path class="st0" d="M496.93,878.27c-3.32-0.19-6.66-0.21-9.94-0.63c-3.02-0.39-4.48-1.97-2.92-5.21
		c3.39-7.01,0.24-13.32-2.44-19.56c-1.29-3.01-4.49-3.3-7.29-3.5c-3.81-0.27-7.66-0.21-11.48-0.17
		c-11.13,0.13-18.07,12.59-12.49,22.37c2.67,4.69,2.35,5.5-2.83,6.22c-5.5,0.77-10.97,0.14-16.4-0.77
		c-1.69-0.28-3.27-1.02-3.81-2.83c-0.58-1.96,0.78-3.25,2.15-4.13c5.23-3.36,7.7-8.57,9.85-14.06
		c6.51-16.58,12.92-33.21,18.42-50.16c1.07-3.31,2.38-6.62,4.11-9.61c4.07-7.01,10.95-7.26,15.64-0.69
		c3.91,5.49,6.03,11.85,8.31,18.1c5.24,14.39,9.88,28.99,15.95,43.08c2.27,5.28,4.77,10.24,9.48,13.81
		c1.27,0.97,2.79,2.12,2.09,4.13c-0.64,1.81-2.31,2.2-3.97,2.61C505.27,878.3,501.09,878.07,496.93,878.27z M466.67,810.41
		c-3.25,9.23-6.5,18.46-9.77,27.68c-0.97,2.75,0.31,3.69,2.85,3.69c4.83,0,9.66-0.02,14.49,0.01c2.9,0.02,4.06-1.4,3.25-4.11
		C474.73,828.47,471.59,819.38,466.67,810.41z"/>
	<path class="st0" d="M540.93,878.94c-4.66,0-9.31,0.08-13.96-0.05c-1.47-0.04-3.12-0.47-3.61-2.17c-0.51-1.74,0.76-2.97,2.03-3.65
		c6.28-3.34,7.23-9.24,7.3-15.35c0.17-15.63,0.14-31.27,0.06-46.91c-0.03-5.73-1.54-10.86-7.05-13.95c-1.43-0.8-2.95-1.96-2.3-3.96
		c0.63-1.93,2.46-2.05,4.14-2.06c8.98-0.04,17.96-0.06,26.95-0.03c1.64,0.01,3.5,0.07,4.16,2.02c0.5,1.47-0.45,2.74-1.59,3.36
		c-6.1,3.36-7.44,9.1-7.56,15.27c-0.31,16.95-0.95,33.9,0.4,50.85c0.36,4.53,2.1,7.88,6.01,10.25c1.49,0.9,3.45,2,2.67,4.24
		c-0.73,2.07-2.89,2.1-4.67,2.15c-4.32,0.12-8.65,0.04-12.97,0.04C540.93,878.99,540.93,878.96,540.93,878.94z"/>
	<path class="st0" d="M358.84,918.41c10.09,42.06,16.61,84.67,21.64,127.55C372.32,1003.59,366.87,960.75,358.84,918.41z"/>
	<path class="st0" d="M322.15,865.1c-3.14-13.29,2.83-26.22,1.07-39.43c-2.93,19.32-2.61,38.91-4.67,58.31
		c-2.71-23.43,0.82-46.57,3.2-69.91c0.33,6.2,5.23,10.83,4.64,17.47C325.4,842.79,323.04,853.85,322.15,865.1z"/>
	<path class="st0" d="M732.99,999.94c-2.67-36.22,9.76-70.17,15.5-106.42c1.59,7,0.26,12.6-0.89,18.16
		c-4.15,20.01-9.51,39.79-11.9,60.15C734.6,981.18,733.88,990.57,732.99,999.94z"/>
	<path class="st0" d="M751.78,907.31c0.17,6.71-0.9,13.35-2.05,19.96c-2.98,17.04-8.28,33.59-10.93,50.7
		c-1.14,7.36-1.64,14.77-2.19,22.22c-2.65-4.45-1.8-9.24-1.39-13.89c1.21-13.63,4.48-26.88,7.81-40.11
		c3.09-12.27,5.74-24.61,6.85-37.23c0.05-0.6,0.39-1.18,0.59-1.77C750.91,907.23,751.35,907.27,751.78,907.31z"/>
	<path class="st0" d="M494.97,724.08c33.28-0.26,66.57-0.94,99.85,1.77c-33.24,0-66.48,0-99.72,0
		C495.05,725.26,495.01,724.67,494.97,724.08z"/>
	<path class="st0" d="M370.35,1037.75c-1.67-31.05-5.79-61.69-14.66-91.59C364.44,961.21,373.39,1017.79,370.35,1037.75z"/>
	<path class="st0" d="M765.02,854.05c0.2-12.27-2.2-24.54-0.07-36.82c2.1,23.54,4.96,47.04,2.58,70.68
		c-0.61,0.01-1.21,0.03-1.82,0.04c0-8.86,0.03-17.72-0.02-26.59c-0.01-2.47,0.36-5.01-0.72-7.39L765.02,854.05z"/>
	<path class="st0" d="M367.42,1047.97c-2.41-25.36-6.39-50.39-15.13-74.45c-0.17-0.47,0.37-1.21,0.6-1.87
		C363.42,996.1,367.68,1021.6,367.42,1047.97z"/>
	<path class="st0" d="M578.77,731.8c-23.51,0.2-47.03,1.01-70.52-0.68C514.04,729.09,570.74,729.69,578.77,731.8z"/>
	<path class="st0" d="M741.99,997.57c1.69-21.4,6.25-42.34,10.2-63.38C750.38,955.57,746.51,976.62,741.99,997.57z"/>
	<path class="st0" d="M764.97,853.98c0.2,5.07,0.96,10.18-1.02,15.6c-3.57-10.75-4.64-39.98-1.28-43.25
		c-0.61,9.64,0.9,18.68,2.34,27.73C765.02,854.05,764.97,853.98,764.97,853.98z"/>
	<path class="st0" d="M521.91,737.54c14.86-2.37,29.72-2.29,44.55,0.48C551.62,737.75,536.76,738.26,521.91,737.54z"/>
	<path class="st0" d="M548.37,708.4c19.16,0,38.32,0,57.86,0c-1.04,2.38-2.33,1.92-3.42,1.9c-19.13-0.27-38.26,0.07-57.4-1.29
		c-10.89-0.77-21.92,0.82-32.9,0.95c-8.97,0.11-17.96-0.36-26.93-0.57c-1.12-0.03-2.74,0.4-2.78-1.19
		c-0.04-1.54,1.64-1.38,2.72-1.38c10.66-0.02,21.32,0.02,31.98,0.03c3.99,0.01,7.97,0,11.98-0.27c-9.74-0.75-19.62,0.07-29.27-1.91
		c10.76-0.19,21.45-1.55,32.14-0.26c4.61,0.56,9.31,0.52,13.96,0.49c11.3-0.08,22.58-1.6,33.89-0.17c1.93,0.24,4.01,0.41,5.9-0.49
		c0.79-0.38,1.71-1.68,2.19,0.15c0.31,1.18-0.65,1.93-1.67,2.06c-2.3,0.29-4.69,0.79-6.92,0.45
		C569.22,705.27,558.82,707.02,548.37,708.4z"/>
	<path class="st0" d="M345.09,560.41c-0.46-4.83-1.04-8.57-1.14-12.31c-0.75-28.65,1.48-57.14,4.45-85.61
		c0.52-5.02,1.57-10.23-0.85-15.2c-0.74-1.53-0.15-3.27,1.53-3.63c2.25-0.47,1.96,1.63,2.25,3.01c1.41,6.81,0.39,13.65-0.29,20.38
		c-2.83,27.66-4.14,55.37-3.79,83.17C347.29,553.34,347.18,556.46,345.09,560.41z"/>
	<path class="st0" d="M745.91,563.26c-2.47-2.58-2.16-4.98-2.17-7.2c-0.04-11.31-0.01-22.62,0.02-33.93
		c0.05-19.64-2.07-39.16-3-58.74c-0.23-4.8,0.03-9.64,0.23-14.45c0.06-1.34,0.77-2.8,2.57-2.13c1.45,0.54,2.14,2.32,1.32,3.29
		c-3.49,4.1-1.65,8.78-1.27,12.98c2.57,28.5,4.42,57.02,3.35,85.65C746.78,553.3,746.31,557.87,745.91,563.26z"/>
	<path class="st0" d="M352.75,522.08c-0.78-23,1.85-45.93,2.1-68.93C357.09,476.2,355.92,499.15,352.75,522.08z"/>
	<path class="st0" d="M738.4,525.09c-2.95-22.93-3.18-45.92-1.16-68.96C737.35,479.13,740.05,502.06,738.4,525.09z"/>
	<path class="st0" d="M494.99,452.45c-16.5,0-33,0-49.5,0c0-0.41,0-0.81,0-1.22c16.49,0,32.97,0,49.46,0
		C494.97,451.64,494.98,452.04,494.99,452.45z"/>
	<path class="st0" d="M597.14,452.72c16.58-1.76,33.09-0.13,49.61,0.84C630.2,454.18,613.65,454.69,597.14,452.72z"/>
	<path class="st0" d="M434.06,387.13c-2.08,3.46-4.08,4.73-6.02,5.9c-12.52,7.57-25.11,15.04-37.7,22.5
		c-1.03,0.61-2.43,1.96-3.35,0.15c-0.66-1.3,0.86-2.03,1.8-2.6C403.25,404.31,417.55,395.26,434.06,387.13z"/>
	<path class="st0" d="M676.24,267.52c-2.94-7.03-2.47-13.45-3.24-19.61c-1.29-10.39-1.93-20.87-2.82-31.31
		c-0.11-1.3-0.49-3.05,1.15-3.41c1.88-0.41,2.12,1.57,2.08,2.7c-0.49,16.53,3.9,32.67,3.76,49.16
		C677.16,265.5,676.84,265.95,676.24,267.52z"/>
	<path class="st0" d="M418.7,264.5c-1.09-7.56,0.61-14.87,1.31-22.23c0.82-8.57,2.85-17.04,2.25-25.74
		c-0.04-0.65,0.14-1.32,0.31-1.96c0.32-1.24,0.27-3.21,1.92-3.02c1.99,0.23,1.53,2.24,1.37,3.67c-1.41,12.71-2.82,25.41-4.32,38.11
		C421.1,257.14,421.62,261.21,418.7,264.5z"/>
	<path class="st0" d="M459.06,263.23c1.4-19.28,2.81-38.57,4.21-57.85c0.55,0.03,1.1,0.07,1.65,0.1c0.78,19.41-1.78,38.61-4,57.84
		C460.31,263.3,459.68,263.26,459.06,263.23z"/>
	<path class="st0" d="M464.2,260.12c0.29-14.06,2.82-27.89,2.77-43.27C470.36,222.65,468.03,253.57,464.2,260.12z"/>
	<path class="st0" d="M634.34,264.33c-1.9-19.1-4.09-38.19-3.25-57.43c0.6-0.03,1.21-0.06,1.81-0.09
		c1.11,19.14,2.22,38.28,3.33,57.42C635.6,264.26,634.97,264.29,634.34,264.33z"/>
	<path class="st0" d="M629.69,261.03c-1.93-13.82-3.48-27.67-2.74-41.65c0.57-0.04,1.14-0.07,1.71-0.11
		c0.93,13.95,1.87,27.91,2.8,41.86C630.87,261.1,630.28,261.06,629.69,261.03z"/>
	<path class="st0" d="M590.88,209.41c0.93,17.3,3.16,34.51,3.57,51.85C590.03,244.22,589.15,226.91,590.88,209.41z"/>
	<path class="st0" d="M506.82,208.55c-0.28,17.03-1.31,33.99-4.6,50.76c-0.6-0.05-1.2-0.1-1.81-0.15
		c1.51-16.94,3.01-33.88,4.52-50.83C505.57,208.4,506.19,208.47,506.82,208.55z"/>
	<path class="st0" d="M660.03,389.15c15.05,7.8,29.27,17.02,43.56,26.1c1.07,0.68,2.81,1.38,2.27,2.89
		c-0.59,1.65-2.03,0.52-2.9-0.02c-13.71-8.54-28.01-16.12-41.03-25.76c-0.94-0.69-1.99-1.23-2.98-1.84
		C659.31,390.07,659.67,389.61,660.03,389.15z"/>
</g>
</svg>
