<?xml version="1.0" encoding="utf-8"?>
<!-- Generator: Adobe Illustrator 25.3.0, SVG Export Plug-In . SVG Version: 6.00 Build 0)  -->
<svg version="1.1" id="레이어_1" xmlns="http://www.w3.org/2000/svg" xmlns:xlink="http://www.w3.org/1999/xlink" x="0px"
	 y="0px" viewBox="0 0 945 606" style="enable-background:new 0 0 945 606;" xml:space="preserve">
<style type="text/css">
	.st0{fill:#FFFFFF;}
</style>
<g>
	<path class="st0" d="M899.5,443.7c3.8,3.6,6.5,6.3,9.3,8.9c1.5,1.5,2.7,3.2,2,5.3c-0.8,2.4-3.1,2.3-5,2.3
		c-13.2,0.1-26.3,0.1-39.5,0.1c-106-0.1-212-0.2-317.9-0.3c-20.8,0-41.6-0.6-62.4-0.6c-92.3-0.1-184.6-0.1-276.9-0.1
		c-49.7,0-99.3-0.1-149-0.2c-8.2,0-16.3-0.4-24.5-0.7c-1.6,0-3.6,0.2-4.3-1.7c-0.8-2.1,0.2-3.8,1.8-5.3c2.2-2,4.4-4.1,6.5-6.2
		c0.7-0.7,1.8-1.3,1.4-2.4c-0.4-1.4-1.9-1.2-3-1.2c-3-0.1-6,0-9-0.2c-6.1-0.4-7-1.1-6.8-7.2c1.1-40.3,0.7-80.6,1.1-121
		c0.1-14.5,0.4-29,0.9-43.5c0.1-4.2-1.4-5.5-5.4-5.5c-6.8,0-8.1-2.2-5.4-8.5c2.1-4.8,7.9-8.1,13.2-7.9c6.2,0.3,12.3,0.1,18.5,0.2
		c2.6,0,4.4-1,5.6-3.4c3.1-5.9,6.4-11.7,9.3-17.7c1.7-3.5,4-4.9,7.8-4.8c11.3,0.1,22.7-0.1,34,0.1c4.1,0.1,5.9-1.4,5.4-5.5
		c-0.1-1.1,0-2.3,0-3.5c0.1-3-0.4-6.3,3.8-7c3.8-0.6,8.4,2.3,9.4,5.9c0.1,0.5,0.2,1,0.2,1.5c1,8.5,1,8.5,9.4,8.5
		c43.8,0,87.6-0.1,131.5,0c3.8,0,6.5-1,9.3-3.7c31.1-30.9,62.3-61.6,93.6-92.3c31.5-30.9,63.1-61.8,94.6-92.7
		c3.5-3.4,7.2-6.5,10.5-10c2-2.1,3.1-1.4,4.9,0.3c20.4,20.1,40.9,40.1,61.3,60.3c45.3,44.8,90.5,89.6,135.7,134.4
		c2.6,2.6,5.3,4,9.2,4.1c44.7,0.1,89.3,0.4,134,0.7c4.9,0,7.7-0.8,7-6.5c-0.4-3.5,1-6.5,4.5-8.2c5.8-2.9,9.3-0.9,9.5,5.6
		c0.3,9.1,0.3,9,9.4,9.1c9.2,0,18.3,0.2,27.5,0.1c5.2,0,8.8,1.5,10.9,6.7c2.1,5.2,5.4,10,7.8,15.1c1.4,3,3.5,4,6.7,4
		c6.3-0.1,12.7,0,19,0.1c6.5,0.1,12.1,5.3,12.9,11.7c0.4,3.1,0,5-4.1,4.8c-7.8-0.4-8-0.2-7.7,7.8c1.5,54.8,0.6,109.6,1.2,164.4
		c0,3.1-0.9,4.6-4.1,4.8C910.3,442.7,905.7,443.2,899.5,443.7z M402.4,443.2c0-0.5-0.1-1-0.1-1.6c-7.7-1.4-15.7,0.5-23.4-1.9
		c6.6-0.8,13.2-0.8,19.8-0.9c1.7,0,4.3,0.6,4.2-2.1c-0.1-3-2.7-1.6-4.3-1.7c-4.5-0.3-9.1,1-13.6-1c0.2-0.5,0.3-0.7,0.4-0.7
		c3.9-1,8,0,11.9-0.6c2.1-0.3,5.6,0.3,5.4-2.8c-0.1-2.5-3.3-1.2-5.1-1.6c-0.7-0.2-1.6,0.2-2.1-0.7c8.6-1.8,8.6-1.9,8.7-11.2
		c0-0.7,0-1.3,0-2c0-7.1,0-7-7.1-7.3c-6.9-0.2-13.8-0.7-20.7-1.1c8-1,16-1,23.9-1.1c1.6,0,3.7,0.1,3.7-2.3c0.1-2.3-2-2.3-3.6-2.4
		c-8.1-0.3-16.3-0.5-24.5-0.9c-3.2-0.2-5.3,1.1-7.3,3.4c-7.8,8.9-15.8,17.6-23.5,26.6c-3.9,4.6-8.6,8.6-11.8,14
		C356.9,443.2,379.6,443.2,402.4,443.2z M556.2,434.1c-3.9,1.6-7.9,0.8-11.8,1.1c-1.8,0.1-4.9-1.1-4.9,1.7c0,3.2,3.3,2,5.2,2
		c5,0.2,10,0.1,15,0.2c1.5,0,3.3-0.3,4,2.3c-8-0.1-15.7-0.6-23.5,0.2c0.8,2.7,2.4,2.2,3.6,2.3c20.5,0.3,41,0.6,61.4,0.8
		c1.1,0,2.6,0.5,3.2-0.8c0.6-1.3-0.8-2-1.5-2.9c-11.4-13-22.8-26-34.3-39c-1.1-1.2-2.2-2.7-4.1-2.4c-9,1.1-18,0.4-27,0.7
		c-1.7,0.1-3.7,0-3.5,2.5c0.2,2.3,2.3,2.1,3.9,2.1c6.5,0.1,13,0,19.5,0.1c1.7,0,3.5-0.5,5,1.6c-6,0.7-12,0.6-18,0.7
		c-11.6,0-11.5,0-10.4,11.8c0.4,4.9,1.1,9,7.5,8.3c0.1,0,0.2,0.5,0.4,1c-0.6,0.2-1.2,0.5-1.8,0.7c-1.6,0.7-4.9-0.8-4.5,2.2
		c0.3,2.5,3.3,1.5,5.1,1.7C548.5,433.2,552.4,432.2,556.2,434.1z M38.7,413.5c-0.3,0-0.6,0-1,0c0,6.7,0.1,13.3-0.1,20
		c-0.1,4.1,2,5.2,5.6,5.2c2.6,0,4.4-1.4,6.1-3c9.7-9.6,19.4-19.2,29.1-28.8c1.6-1.6,2.9-3.2,2.9-5.6c0.3-14.8,0.6-29.6,1.1-44.4
		c0.1-3.6-1.4-4.6-4.8-4.6c-11.3,0.1-22.6,0.1-34,0c-3.6,0-5.1,1.2-5,4.9C38.7,375.9,38.7,394.7,38.7,413.5z M483.2,406.1
		c2.2-1.8,4.5-0.9,6.5-1.2c1.5-0.2,3.3-0.1,3.2-2.2c-0.1-2-1.7-2.2-3.3-2.3c-2.5-0.1-5,0-7.5,0c-9.5,0-19,0-28.5,0
		c-1.9,0-4.6-0.5-4.5,2.5c0,2.7,2.6,1.8,4.3,2.1c1.7,0.3,3.6-0.7,5.2,1.3c-1.8,1.5-3.9,1-5.7,1c-2.9,0-4.3,1.1-4.2,4.1
		c0.1,9.5,0.2,19,0.1,28.5c0,3,1.3,4.1,4.2,4.1c11.8-0.1,23.6-0.1,35.4,0c3.5,0,4.7-1.4,4.6-4.8c-0.1-7.2,0.1-14.3,0.1-21.5
		c0-9.3,0-9.3-8.9-10.7C484.2,406.9,483.9,406.6,483.2,406.1z M903.6,396.9c-0.1,0-0.2,0-0.3,0c0-12.3-0.1-24.6,0.1-37
		c0.1-4.2-1-6-5.6-5.9c-10.8,0.2-21.6,0.2-32.5-0.1c-4.4-0.1-5.8,1.5-5.6,5.8c0.5,13.8,0.8,27.6,1.1,41.4c0,1.9,0.1,3.7,1.5,5.1
		c10.7,10.7,21.4,21.4,32.2,32c2,2,4.7,1.8,7.1,1.1c2.8-0.8,2-3.5,2-5.6C903.6,421.5,903.6,409.2,903.6,396.9z M222.8,264.3
		c-2.7,0-4.5,0-6.2,0c-34.5,0-69-0.1-103.5,0c-11.8,0-10.3-1.2-10.2,10.5c0.1,14.1-2,12.2,12.1,12.3c10.4,0.1,9.3,0.5,9.5-9
		c0-1,0-2,0.1-3c0.8-5.2,4-8.2,9-8.2c5.7-0.1,8,1.7,9.3,7.6c0.5,2.4,1.1,5,0.9,7.4c-0.2,4.3,1.9,5.5,5.8,5.3c3.8-0.2,7.7,0,11.5,0
		c10.9,0,10.9,0,11.9-10.9c0.5-6,2.7-8.3,7.7-8.3c5.6,0.1,7.9,2.4,8.3,8.3c0.1,1.5,0.2,3,0.4,4.5c0.9,6.4,7.9,9.3,12.9,4.8
		C209.1,279,215.4,271.9,222.8,264.3z M721.2,265.8c6.7,7.1,13,14.6,20.3,21c4.8,4.2,10.6,0.9,11-5.5c0.1-1.7,0.3-3.3,0.5-5
		c0.8-5.5,3.6-7.8,9.2-7.5c4.6,0.2,7,2.9,7.3,8.3c0.1,2,0.2,4,0.1,6c-0.2,3.7,1.5,5,5,5c5.7-0.1,11.3-0.3,17,0.1
		c5,0.3,7.1-1.4,6.7-6.5c-0.2-1.9,0.4-4,0.8-5.9c1.3-5.9,4.4-8.3,10.1-8c4.8,0.3,8,3.8,8.4,9.5c0.2,2.7,0.3,5.3,0.5,8
		c0.1,1.8,0.9,2.8,2.8,2.8c4.7,0.2,9.3,0.4,14,0.6c3.3,0.2,4.4-1.6,4.3-4.6c-0.1-4,0-8,0-12c0-6.7,0-6.7-6.5-6.7
		c-35.7,0-71.3,0-107,0C724.2,265.3,722.5,264.8,721.2,265.8z M496,363c-0.2-0.4-0.6-1.2-1.2-1.8c-7.2-8.3-14.4-16.5-21.7-24.8
		c-1.4-1.6-2.5-1.7-4,0c-7,8-14,16-21.1,23.9c-2,2.2-2,4.1,0,6.5c6.8,8.2,13.5,16.5,20,24.8c2.4,3,4,2.6,6.1-0.1
		c6.7-8.5,13.6-16.8,20.4-25.2C495.3,365.5,496.2,364.7,496,363z M253.5,234.2c-3.2,0-4.9,0-6.5,0c-44.8,0-89.6,0.1-134.4,0.1
		c-7.7,0-7.9,0.1-7.8,7.7c0,1.7-0.8,4.1,1.9,4.4c2.2,0.2,2.4-1.9,2.8-3.5c0.8-3.6,3.1-5.6,6.6-5.7c3.6-0.1,5.3,2.6,5.9,5.7
		c0.7,3.4,2.7,4,5.8,4c7.3-0.1,14.7-0.2,22,0c4.1,0.1,6.7-1.3,7.6-5.5c0.7-2.9,2.3-5.5,5.6-5.3c3.5,0.2,3.2,3.6,3.4,5.8
		c0.4,3.9,2.2,5,5.8,4.9c7.2-0.2,14.3-0.3,21.5,0c4.4,0.2,7.3-0.9,8.7-5.5c0.8-2.6,2.1-5.6,5.8-5.1c3.5,0.4,4.5,3,4.8,6.1
		c0.3,3.6,2.4,4.7,5.8,4.5c4.5-0.2,9.1-0.7,13.5,0C242.4,248.5,246.9,241.3,253.5,234.2z M742,236.1c0-0.4,0-0.8,0-1.1
		c-15.8,0-31.7,0-47.5,0c-1.2,0-3-0.6-3.5,1c-0.4,1.2,1.1,1.9,1.8,2.8c4.8,6.2,10.6,9.7,18.9,8.4c3.4-0.5,7-0.2,10.5,0
		c4.1,0.2,7.3-0.4,7.5-5.6c0.1-2.2,1.6-4,4-4.5c2.3-0.5,3.9,0.6,5,2.4c0.7,1.1,1.5,2.3,1.8,3.5c1,3.8,3.4,4.8,7.1,4.7
		c6-0.2,12,0,18,0c8.3,0,8.3,0,10.9-7.7c1.2-3.4,3.7-4,6.4-1.5c1.3,1.2,1.9,2.7,2.3,4.4c0.9,3.6,3.2,5.1,7,5
		c7.5-0.1,15-0.1,22.5,0.1c3.2,0.1,5.3-0.2,5.8-4.2c0.4-2.9,2.3-5.4,5.6-5.5c3.2,0,5.6,1.8,6.7,5c0.4,1.1,0.7,2.3,1.3,3.2
		c1,1.5,2.2,1.4,3.2-0.1c2.6-4.3-0.7-10.4-5.7-10.4C801.6,236.1,771.8,236.1,742,236.1z M314.6,425.2c-2.5-1-3.5-3.3-5.2-5
		c-1.4-1.5-2.2-4.8-5.3-2.2c-2.4,2-4.3,4-1.6,7.5c5.6,7.4,11,15,16.4,22.6c1.8,2.6,3.2,2.9,5.4,0.4c6.5-7.5,13.1-15,19.8-22.4
		c1.5-1.6,1.7-2.9,0.2-4.7c-5.7-7.3-11.3-14.8-16.8-22.3c-2-2.7-3.6-3-5.9-0.4c-3.5,4-7.1,8-10.8,11.7c-2.4,2.4-2.3,4.5-0.3,7
		C312.3,419.7,314.4,421.8,314.6,425.2z M372.1,393.9c-0.4-0.8-0.6-1.4-1-2c-6-7.6-12-15.2-18-22.7c-1.7-2.1-3.1-1.2-4.5,0.4
		c-6.3,6.9-12.5,13.8-18.9,20.6c-2.2,2.3-1.8,4.2,0,6.5c5.4,7,10.7,14,15.9,21.2c1.8,2.4,3.1,3,5.4,0.4c6.4-7.4,13.1-14.7,19.6-22
		C371.1,395.6,371.6,394.7,372.1,393.9z M626.9,426.1c0.7-3.9,3.1-6.1,5-8.5c1.7-2.2,2-3.8-0.1-6c-4.2-4.3-8.2-8.7-12.2-13.2
		c-1.5-1.7-2.6-1.6-3.9,0.2c-5.8,7.7-11.7,15.3-17.5,23c-1.3,1.7-1.4,3.4,0,5c6.7,7.6,13.5,15.2,20.2,22.7c1.3,1.5,2.9,1.8,4.2,0
		c6-8.2,12-16.3,17.8-24.7c2.1-3-1.1-5-2.9-6.6c-2.3-2.1-2.9,1-4,2.1C631.5,422,630.5,424.8,626.9,426.1z M594.1,420.8
		c0.4-0.3,0.9-0.7,1.3-1.2c6.2-8.1,12.3-16.2,18.4-24.3c1.4-1.8,0.3-3-0.9-4.3c-6.3-6.9-12.6-13.7-18.8-20.7c-2-2.2-3.3-2.7-5.4,0
		c-5.5,7.1-11.2,14.1-16.9,21c-1.7,2.1-1.7,3.6,0.2,5.6c6.6,7.3,13,14.7,19.5,22.1C592.2,419.9,592.7,420.8,594.1,420.8z
		 M360.4,363.4c-2.5-1.2-4.1-2.7-5.7-0.5c-1.3,1.9,0,3.2,1,4.4c5.4,6.8,10.9,13.5,16.1,20.4c2.5,3.3,4.2,2.7,6.5-0.1
		c5.8-6.7,11.6-13.3,17.6-19.7c2.4-2.6,1.8-4.5-0.2-6.9c-5.2-6.2-10.4-12.5-15.5-19c-2-2.5-3.5-3.1-5.9-0.5
		c-4.5,5.1-9.2,10.1-13.9,15C358.6,358.6,358.7,360.4,360.4,363.4z M539.1,311c-0.4-0.7-0.6-1.4-1-1.8c-6.9-7.6-13.9-15.2-20.8-22.9
		c-1.9-2.1-3-0.9-4.3,0.7c-5.3,6.2-10.7,12.3-16.2,18.3c-2.2,2.4-1.9,4.1,0.2,6.4c6.5,7.2,12.8,14.4,19.1,21.8
		c2.1,2.5,3.7,2.2,5.5-0.1c5.3-6.6,10.7-13.2,16-19.8C538.1,312.8,538.5,311.9,539.1,311z M270.2,449.3c0.6-0.5,1.5-1,2.1-1.7
		c7.1-7.7,14.1-15.5,21.3-23.1c2.1-2.2,1.6-4,0-6.1c-4.5-6-9-12-13.2-18.2c-2.1-3.1-3.7-3-6.1-0.4c-6.4,7-12.9,13.8-19.5,20.7
		c-2.1,2.1-2.4,4.1-0.7,6.6c4.5,6.6,8.9,13.3,13.3,19.9C268,448.1,268.5,449.2,270.2,449.3z M582,362.9c1.2-2.4,1.5-4.4-0.5-6.4
		c-4.6-4.6-8.9-9.4-13.2-14.3c-2.4-2.8-4-2.5-6.2,0.3c-5.1,6.6-10.4,13-15.8,19.4c-1.7,2-2.2,3.5-0.3,5.6
		c6.3,7.1,12.6,14.2,18.9,21.3c1.8,2.1,3.4,2.2,5.2-0.1c5.4-7,11-13.8,16.5-20.8c1.2-1.5,2-2.9,0.6-4.9
		C585.5,360.6,584,362.8,582,362.9z M447.8,307.9c-0.2-0.4-0.3-0.9-0.7-1.2c-6-6.9-12.1-13.7-18.1-20.6c-1.6-1.8-2.8-0.8-4.1,0.6
		c-6.4,7-12.8,14-19.2,20.9c-2,2.1-2.1,3.8-0.3,6c5.3,6.4,10.5,12.9,15.6,19.5c2.2,2.8,3.7,2.5,5.8,0c6.4-7.4,12.9-14.8,19.4-22.1
		C446.9,310.1,447.9,309.3,447.8,307.9z M196.4,290.2c-3.1,0-4.8,0-6.4,0c-26.6,0-53.2,0-79.9,0c-7.3,0-7.3,0-7.3,7.2
		c0,7.3,0,7.4,7.6,7.4c2.8,0,5.7,0,8.5,0c1.9,0,3.6-0.4,5-1.8c5.4-5,11.7-5.4,17.5-1.7c5.2,3.4,10.5,3.6,16.1,3.5
		c4.7-0.1,9.4-0.6,14,0.1C183.3,306.8,188.9,298.5,196.4,290.2z M792.9,291.4C792.9,291.3,792.9,291.3,792.9,291.4
		c-13.8-0.1-27.7-0.1-41.5,0c-1.3,0-3.8-1.2-3.6,1.7c0.2,2.6,12.1,11.7,15.1,12c9,1,18,0.4,27,0.6c3.3,0.1,6.1-0.7,8.9-2.5
		c5-3.2,11.1-5.1,16-1.4c5.9,4.5,12.1,3.5,18.4,4c5.6,0.4,6.2-2.5,6.1-7c-0.2-7.4-0.1-7.5-5.9-7.5
		C819.9,291.3,806.4,291.4,792.9,291.4z M666.1,398.2c-2.2,0-2.8,0.9-3.3,1.7c-4.9,6.7-9.7,13.5-14.7,20.2c-1.5,2-1.1,3.5,0.4,5.2
		c7,7.6,13.9,15.2,20.8,22.8c2,2.3,3.5,2.6,5.3-0.3c4.4-6.8,8.9-13.6,13.5-20.3c1.5-2.2,1.4-3.7-0.5-5.6c-7-7.3-13.9-14.8-20.8-22.2
		C666.4,399.1,666.2,398.2,666.1,398.2z M202.1,423.8c-0.2-0.4-0.4-1.3-0.8-1.9c-4.8-7.4-9.6-14.8-14.4-22.2
		c-1.8-2.8-3.2-1.2-4.6,0.3c-6.7,6.9-13.3,13.9-20.1,20.8c-1.8,1.8-2.1,3.4-0.6,5.7c4.5,6.8,9,13.6,13.3,20.5
		c1.8,2.9,3.3,3.1,5.7,0.6c6.4-6.7,13-13.3,19.5-19.9C201,426.6,201.9,425.6,202.1,423.8z M531.4,426.9c4-2.2,5.4-16,2.1-18.9
		c-0.7-0.6-1.8-0.8-2.8-0.8c-10.1,0-20.3,0-30.4,0c-2.5,0-3.7,1.2-3.7,3.7c0,8.2,0.1,16.3,0.1,24.4c0,2.1,0.8,3.8,3.2,3.4
		c10.3-2,20.5,0.9,30.8,0.2c1.7-0.1,4.2,0.5,4.3-2.1c0.2-3.1-2.6-2.4-4.4-2.6c-4.3-0.5-8.7-0.9-13-1.3c0-0.5,0-0.9,0.1-1.4
		c4.1-1,8.2-0.2,12.4,0.2c1.7,0.2,4,1,4.7-1.4C535.5,427.9,532.3,428.7,531.4,426.9z M423.5,432.6c-0.8,0.2-1.5,0.6-2.3,0.6
		c-4,0.1-8,0-11.9,1c-1.5,0.3-2.5,1-2.3,2.7c0.1,1.5,1.2,1.9,2.5,1.9c1.2,0.1,2.3,0,3.5,0.1c9.8,0.2,19.5-2.1,29.4-0.3
		c3,0.5,3-1.9,3.1-3.9c0.1-7.5,0-15,0.2-22.5c0.1-3.6-1.3-5.1-4.9-5.1c-6.8,0.1-13.6,0-20.5,0c-15.6,0.1-11.3-1.7-13.3,12.8
		c-0.4,3-0.5,6.1,3.6,6.7c-0.5,2.3-4.4,1.3-3.2,4c1,2.2,3.2,0.7,5,0.6C416,431.1,419.8,430.3,423.5,432.6z M781.9,424.8
		c-0.6-0.9-1-1.8-1.7-2.5c-6.9-7.2-13.8-14.4-20.7-21.6c-2.1-2.2-3.2-1.4-4.6,0.7c-4.4,6.8-8.9,13.7-13.5,20.4
		c-1.7,2.5-1.6,4.3,0.6,6.5c6.4,6.5,12.8,13.1,19,19.8c2.6,2.8,4.2,3,6.4-0.4c4.2-6.8,8.7-13.4,13-20.1
		C781,426.7,781.4,425.8,781.9,424.8z M182.7,393.8c-0.2-0.5-0.4-1.3-0.9-2c-4.6-7.1-9.3-14.2-13.9-21.3c-1.3-2-2.5-1.6-4-0.1
		c-7,7.1-14.1,14.1-21.2,21.1c-1.7,1.7-1.9,3.3-0.6,5.3c4.5,6.8,9,13.5,13.5,20.4c1.5,2.4,2.9,2.8,5,0.5c6.6-7,13.5-13.8,20.2-20.7
		C181.7,396.2,182.6,395.4,182.7,393.8z M35,363.6c0.5,21.3-1.4,42.6-1.3,63.9c0,1.4,0.6,3.7-1.4,3.7c-2.1,0-1.2-2.3-1.2-3.7
		c0.4-24.1,0.3-48.3,0.8-72.4c0.6-27,1.2-53.9,1.4-80.9c0-2.4-0.7-5,2.4-6.5c1.1-0.5,1.3-2.3,0.1-3c-2.1-1.2-4.6-0.7-6.8-0.3
		c-2.1,0.4-1.5,2.2-1.5,3.7c-0.3,30.1-0.3,60.3-1,90.4c-0.6,24.8-0.7,49.6-0.9,74.4c0,3.2,0.7,5,4.4,5c3.6,0,4.4-1.7,4.6-4.9
		C35.7,409.9,35.3,386.8,35,363.6z M801.2,395.3c-0.5-0.8-0.8-1.5-1.3-2.1c-7.2-7.3-14.5-14.6-21.8-21.9c-1.7-1.7-2.7-1.1-3.8,0.7
		c-4.3,6.7-8.7,13.4-13.1,20c-1.7,2.5-1.3,4.5,0.8,6.6c6.6,6.6,13.1,13.2,19.5,20c2.5,2.7,4,1.9,5.7-0.8c4.1-6.5,8.3-12.8,12.5-19.2
		C800.2,397.5,800.6,396.4,801.2,395.3z M450.2,311.8c-0.3,0.3-0.9,0.6-1.3,1.1c-7.2,8-14.4,16.1-21.6,24.1c-1.2,1.4-1,2.7,0.1,4
		c4.8,5.9,9.6,11.9,14.4,17.8c1.2,1.5,2.3,1.7,3.6,0.2c7.1-8.1,14.2-16.2,21.3-24.4c1.7-1.9,1.8-3.7,0-5.7
		c-4.7-5.2-9.2-10.5-13.8-15.7C452.3,312.5,451.6,311.7,450.2,311.8z M499.2,360.1c0.4-0.3,1-0.6,1.4-1.1
		c4.8-5.9,9.6-11.9,14.4-17.8c1.5-1.8,0.7-3.3-0.6-4.8c-6.6-7.5-13.2-14.9-19.8-22.5c-1.8-2-3.2-2.6-5.2-0.3
		c-4.6,5.4-9.4,10.8-14.1,16.1c-1.6,1.8-1.2,3.2,0.2,4.8c6.9,7.9,13.8,15.8,20.7,23.7C497,359,497.7,360,499.2,360.1z M127.5,229.8
		c-2-5.1-5.9-4.8-9.8-4.6c-1.7,0.1-3.3,0-5,0c-2.8-0.1-5.4,0-6.1,3.6c-0.1,0.5-0.8,1.2-1.2,1.3c-1,0.1-1.5-0.8-1.5-1.6
		c0.1-3.5-2.3-3.4-4.7-3.4c-3.2,0-6.3,0-9.5,0c-2.2,0-4.5-0.2-4.2,3.2c0.1,0.9-0.4,1.8-1.4,1.7c-0.9-0.1-1.4-0.9-1.5-1.8
		c-0.3-2.6-2.1-3.1-4.3-3.1c-3.5,0-7,0-10.5,0c-3.2,0-4.7,2.5-4.8,4.8c-0.1,3.2,3.1,1.7,4.6,1.7c20.6,0.1,41.3-0.3,61.9-0.5
		c38.5-0.5,76.9-0.3,115.4-0.5c1.3,0,2.7,0,4,0c1.3-0.1,2.9,0,2.7-2c-0.1-1.5-0.7-3.5-2.5-3.2c-5.3,0.7-11.2-3.1-15.8,2.3
		c-0.2,0.3-1.2,0.5-1.2,0.4c-3.4-5.5-8.8-2.1-13.2-2.9c-3.3-0.6-6.2,0.1-7.2,4.2c-4-6-16.9-5.9-21.4-0.2c-1.4-1.4-1.3-4.2-4.3-4
		c-4,0.2-8,0.3-12,0c-3.7-0.4-1.9,4.5-4.2,4.2c-2.1-0.3-1.6-4.6-5.2-4.3c-3.8,0.4-7.7,0.3-11.5,0c-3.3-0.3-3,3.7-4.9,4
		c-2.5,0.5-1.7-4.5-5.3-4c-2.8,0.4-5.6,0.1-8.5,0C131.3,225,128.5,225.3,127.5,229.8z M192.6,342.5c-0.6,0.4-1.5,0.9-2.2,1.5
		c-6.6,6.6-13.2,13.2-19.9,19.7c-1.6,1.6-1.5,3.1-0.3,4.8c4.4,6.7,8.9,13.3,13.1,20.1c1.8,2.8,3.2,2.7,5.3,0.4
		c6.1-6.6,12.4-13,18.7-19.5c1.8-1.8,2.2-3.5,0.7-5.7c-4.3-6.4-8.4-12.8-12.6-19.2C194.9,343.7,194.2,342.7,192.6,342.5z
		 M348.4,364.5c-0.4-0.9-0.6-1.7-1.1-2.3c-5-6.4-10.1-12.8-15.1-19.2c-1.7-2.2-3.1-1-4.5,0.5c-6.3,6.6-12.5,13.3-18.9,19.9
		c-1.7,1.8-1.8,3.2-0.3,5.2c4.7,6,9.3,12.2,13.8,18.4c2,2.8,3.7,2.7,5.9,0.2c6-6.6,12.2-13.1,18.3-19.7
		C347.2,366.5,347.7,365.5,348.4,364.5z M612.3,341.8c-0.7,0.6-1.4,1.1-1.9,1.7c-5,6.2-10,12.5-15,18.7c-1.8,2.2-1.1,3.8,0.6,5.6
		c6.4,6.8,12.7,13.7,18.9,20.6c1.9,2.1,3,1.9,4.6-0.3c4.7-6.3,9.4-12.5,14.2-18.7c1.6-2,1.8-3.7-0.1-5.7c-6.3-6.6-12.5-13.3-18.8-20
		C614.1,343.1,613.2,342.5,612.3,341.8z M250.8,419.9c0.4-0.3,1-0.6,1.4-1.1c7.2-7.6,14.4-15.2,21.6-22.8c1.9-2,1-3.6-0.3-5.3
		c-4-5.5-8.1-11-11.9-16.6c-2.1-3.1-3.8-3-6.2-0.4c-6.3,6.8-12.8,13.6-19.3,20.2c-1.7,1.8-1.8,3.2-0.4,5.2
		c4.3,6.3,8.4,12.8,12.7,19.1C248.9,419.2,249.3,420.2,250.8,419.9z M96.6,421.9c1.8-0.1,1.9,1.4,2.7,2.1c1.2,1.2,1.4,4.4,4.3,2.3
		c2.2-1.6,2.8-3.4,1.1-5.9c-2.8-4.3-5.3-8.8-7.9-13.3c-1.3-2.2-2.4-2.3-4.2-0.5c-10.7,10.7-21.5,21.3-32.2,32c-1,1-1.6,1.9-1.2,3.5
		c2.1,7.7,7.1,11.3,14.8,10.7c2.5-0.2,4.4-1.3,6.1-3c3.4-3.4,6.7-7,10.3-10.1c4.2-3.6,7.2-7.3,3.6-13c0,0,0.4-0.4,0.6-0.6
		c2.2,0.6,1.7,4,4.6,4.3C100.1,426.9,95.5,425.2,96.6,421.9z M773,367.8c0-1.6-0.9-2.4-1.7-3.2c-6.5-6.5-12.9-12.9-19.3-19.4
		c-2.2-2.2-3.6-1.5-5.1,0.7c-4.1,6.3-8.1,12.6-12.3,18.7c-1.8,2.7-1,4.5,0.9,6.5c6,6,11.9,12,17.8,18.2c2.4,2.5,4.1,2.8,6.1-0.4
		c3.9-6.2,8.1-12.2,12.1-18.3C772,369.6,772.5,368.6,773,367.8z M684.5,372.1c-1.5,0-2,0.9-2.6,1.7c-4.4,6-8.7,12.2-13.2,18.1
		c-1.7,2.3-0.8,3.8,0.8,5.6c6.6,7,13.2,14.1,19.6,21.3c2.5,2.8,3.8,2,5.5-0.7c3.6-5.8,7.4-11.5,11.4-17c2.1-2.8,1.9-4.9-0.5-7.4
		c-6.4-6.5-12.6-13.2-18.9-19.9C685.8,373.2,685,372.6,684.5,372.1z M210.1,406.9c-0.3-0.2-0.8-0.5-0.9-0.9
		c-0.3-1.1,0.5-1.8,1.2-2.6c3.6-3.9,7.2-7.8,11-11.6c2.3-2.3,2.6-4.2,0.6-6.9c-2.8-3.7-5.3-7.7-7.8-11.6c-1.7-2.8-3.2-3.4-5.7-0.8
		c-6.2,6.7-12.6,13.3-19,19.8c-1.8,1.8-1.6,3.3-0.3,5.3c4.7,7.1,9.4,14.2,14,21.3c1.3,1.9,2.4,2.5,4.2,0.6
		c6.7-7.2,13.5-14.3,20.3-21.3c1.7-1.8,1.1-3.3-0.4-4.8c-1.6-1.6-2.7-0.1-3.8,0.9c-3.4,3.4-6.8,6.9-10.2,10.3
		C212.6,405.6,211.7,406.7,210.1,406.9z M907.5,389.5c-0.2,0-0.5,0-0.8,0c0,14.9,0,29.9,0,44.8c0,2.4-0.6,5.3,3.5,5.1
		c3.5-0.2,6.2-0.8,6-5.4c-0.4-6.2-0.6-12.3-0.6-18.5c-0.2-25.2-0.2-50.3-0.5-75.5c-0.2-23.8-1.3-47.6-0.4-71.4
		c0.1-1.8-0.3-3.1-2.2-3.1c-2.2,0-4.7-1.1-6.5,1.2c-0.5,0.6-0.4,1.9,0.4,2.2c3.1,1.4,2.2,4.2,2.3,6.5c0.2,8.2,0.4,16.3,0.5,24.5
		c0.7,43,1,86,1.4,129c0,1.5,0.8,4-1.4,4.1c-2.2,0.1-1.5-2.5-1.8-4c-0.1-0.8-0.1-1.7-0.1-2.5C907.5,414.1,907.5,401.8,907.5,389.5z
		 M224.1,448.3c0.4-0.3,1-0.6,1.5-1c6.9-7.2,13.7-14.5,20.5-21.7c1.2-1.3,1-2.7,0.1-4.1c-4.3-6.5-8.6-13-12.8-19.6
		c-1.5-2.3-2.9-2.3-4.7-0.3c-6.4,6.8-12.8,13.5-19.2,20.2c-1.6,1.7-2,3.3-0.7,5.3c4.3,6.5,8.5,13.1,12.8,19.6
		C222.1,447.6,222.7,448.4,224.1,448.3z M541.5,361.4c1.2,0,1.8-0.8,2.4-1.5c5.7-7,11.3-14,17.1-20.9c1.9-2.3,0.8-3.9-0.8-5.6
		c-5.1-5.5-10.2-11-15.1-16.7c-2.4-2.8-4-2.1-5.9,0.3c-5,6.2-9.9,12.5-15.1,18.6c-2.3,2.7-2.2,4.8,0.1,7.3c4.9,5.4,9.7,11,14.5,16.5
		C539.5,360.2,540.2,361.2,541.5,361.4z M716.8,393.3c-1.8-0.1-2.1,1.2-2.7,2.1c-1.1,1.5-0.5,2.8,0.7,4c6.7,7,13.3,14,19.9,21
		c1.8,2,2.9,1.4,4.2-0.6c4.6-7.1,9.3-14.2,14-21.3c1.3-2,1.3-3.5-0.4-5.3c-6.4-6.6-12.7-13.2-19-19.8c-2.3-2.5-3.8-1.8-5.4,0.7
		c-2.7,4.2-5.4,8.4-8.3,12.5c-1.5,2.2-1.4,3.8,0.5,5.6c3.9,3.8,7.7,7.8,11.5,11.8c0.9,0.9,2.3,2.1,1,3.4c-1.3,1.3-2.5-0.1-3.3-1
		c-3.5-3.6-6.8-7.3-10.3-10.9C718.4,394.7,717.5,394,716.8,393.3z M400,314.7c-0.5,0.3-1.2,0.7-1.8,1.3c-5.7,6.1-11.3,12.2-17,18.2
		c-1.5,1.6-0.8,3,0.3,4.4c5.7,7,11.4,13.9,17,20.9c1.7,2.1,3,2,4.8,0.1c5.1-5.9,10.3-11.7,15.6-17.5c1.9-2.2,1.7-4,0-6.2
		c-5.3-6.4-10.5-12.9-15.7-19.4C402.3,315.6,401.6,314.7,400,314.7z M734.4,425.6c-0.5-0.9-0.9-1.8-1.5-2.5
		c-6.5-6.9-13-13.8-19.5-20.7c-1.8-1.9-3-1.5-4.3,0.5c-4.1,6.3-8.2,12.5-12.5,18.7c-1.5,2.2-1.2,3.8,0.6,5.7
		c6.3,6.7,12.5,13.4,18.6,20.2c1.9,2.1,3.3,2.4,5-0.3c4-6.3,8.2-12.5,12.3-18.8C733.6,427.6,733.9,426.6,734.4,425.6z M350.7,348
		c1.2,1.9,2.5,3.8,3.7,5.7c1.4,2.1,2.8,2,4.3,0.2c4.6-5.2,9.3-10.4,14-15.5c1.6-1.8,1.8-3.4,0.2-5.2c-4.7-5.6-9.3-11.2-13.9-17
		c-2.1-2.6-3.7-2.6-5.9-0.1c-5.9,6.5-12,12.9-18.1,19.2c-1.8,1.9-2.2,3.4-0.4,5.5c4.8,5.9,9.5,12,14.2,17.9c0.9,1.1,1.7,3.3,3.9,1.5
		c1.6-1.4,1.2-2.8,0.3-4.4C351.6,353.5,349.4,351.5,350.7,348z M592.6,348c0,3.4-2,5.5-3.5,7.8c-1.2,1.9-1.2,3.4,0.6,4.7
		c1.8,1.4,2.7-0.2,3.6-1.3c4.8-6,9.5-12,14.4-17.9c1.8-2.1,1.5-3.7-0.3-5.6c-6.2-6.5-12.4-13-18.4-19.7c-1.9-2.1-3.3-2.2-5.1,0.1
		c-4.7,5.9-9.4,11.7-14.3,17.3c-1.9,2.2-1.5,3.7,0.3,5.5c3.1,3.2,6,6.7,9.1,9.9c6.5,6.9,6.5,6.9,12.2-0.6
		C591.3,348.2,591.5,348.2,592.6,348z M847.5,427.5c-1.7,7.3-1.7,7.3,3.9,13c2.7,2.7,5.7,5.2,8.1,8.2c3.6,4.5,8.2,5.8,13.7,5.2
		c3.1-0.4,10-8.2,9.5-11.3c-0.1-0.8-0.7-1.5-1.2-2.1c-10.7-10.7-21.4-21.4-32.1-32c-1.4-1.4-2.6-1.9-3.9,0.2
		c-2.8,4.7-5.6,9.4-8.4,14.1c-1.3,2.1,0.1,3.5,1.6,4.6c2,1.5,2.5-0.6,3.4-1.5c1-1,1-3,3.2-2.8c1,3.2-3.1,4.9-2.6,8
		C845.2,431,844.7,427.5,847.5,427.5z M729.4,364c1.6,0,2-1,2.5-1.8c4.4-6.5,8.7-13,13.1-19.5c1.6-2.4,0.7-3.9-1-5.6
		c-5.8-5.7-11.6-11.4-17.3-17.3c-2.4-2.5-4.1-2.8-6.2,0.3c-3.6,5.4-7.4,10.6-11.4,15.7c-2.4,3.1-2.2,5.5,0.5,8.2
		c6,6,11.8,12.1,17.8,18.2C728,363,728.8,363.6,729.4,364z M235.7,338.8c-0.4-0.7-0.9-1.8-1.5-2.7c-3.9-5.6-8-11-11.8-16.7
		c-2.2-3.3-4-3-6.5-0.3c-5.8,6-11.7,11.8-17.7,17.5c-2.1,2-1.9,3.4-0.5,5.5c4.2,6.2,8.4,12.4,12.4,18.7c1.9,3,3.4,2.8,5.7,0.4
		c6-6.4,12.1-12.7,18.2-19.1C234.8,341.3,235.7,340.5,235.7,338.8z M491.5,258.8c-0.2-0.4-0.5-1-0.9-1.5
		c-5.8-6.4-11.7-12.8-17.5-19.2c-1.5-1.6-2.6-0.8-3.7,0.5c-5.5,6-11.1,12-16.7,17.9c-1.7,1.8-1.7,3.3,0,5.1
		c5.4,5.9,10.7,11.9,15.9,17.9c2,2.3,3.7,2.3,5.7,0c5.1-5.9,10.4-11.7,15.6-17.6C490.6,261.1,491.6,260.4,491.5,258.8z M654.2,341.7
		c-0.2-2.1-1.4-3.3-2.5-4.5c-5.8-6.2-11.7-12.3-17.4-18.5c-1.7-1.8-2.8-1.6-4.3,0.3c-4.4,5.7-8.8,11.2-13.4,16.7
		c-1.9,2.2-1.2,3.7,0.5,5.5c6.1,6.6,12.2,13.1,18.2,19.8c2,2.2,3.3,2.1,5-0.3c4-5.5,8.2-10.9,12.3-16.3
		C653.2,343.5,653.7,342.5,654.2,341.7z M305.1,362.2c0.4-0.3,0.9-0.6,1.3-1.1c6.5-6.9,12.9-13.8,19.4-20.7c1.7-1.8,1.6-3.4,0.1-5.3
		c-4.4-5.4-8.8-10.8-13-16.4c-1.9-2.5-3.3-2-5.1,0c-5.9,6.3-11.9,12.6-17.9,18.7c-1.8,1.8-2.3,3.4-0.6,5.6
		c4.5,5.8,8.8,11.7,13.2,17.5C303.1,361.3,303.6,362.2,305.1,362.2z M336.5,289.8c-1.3,0-2,1-2.8,1.8c-6.1,6.4-12.1,12.8-18.2,19.1
		c-1.9,1.9-1.8,3.6-0.2,5.6c4.3,5.3,8.6,10.6,12.7,16c1.7,2.3,3.2,2.5,5.1,0.3c6-6.5,12-12.9,18.1-19.2c2.1-2.2,2.3-4.2,0.3-6.5
		c-4.3-5.1-8.5-10.2-12.7-15.3C338.2,290.8,337.7,289.9,336.5,289.8z M611.4,334.9c1.3,0.1,1.8-0.6,2.3-1.2
		c4.7-5.8,9.3-11.7,14-17.5c1.6-1.9,0.9-3.2-0.5-4.7c-6.2-6.5-12.4-13-18.5-19.6c-2.2-2.4-3.6-2-5.4,0.4c-3.8,5-7.9,9.9-12,14.7
		c-2.1,2.5-2.3,4.4,0,6.8c6.1,6.4,12,12.9,18,19.3C610.1,333.8,610.9,334.4,611.4,334.9z M575.5,243.7c3.5,1.2,5.6,4,7.9,6.5
		c2.3,2.5,3.9,2.3,5.9-0.4c2.9-3.8,6-7.6,9.1-11.2c1.8-2.1,1.7-3.6-0.2-5.5c-5.6-5.7-11.1-11.4-16.5-17.3c-2.4-2.6-4.2-2.7-6.5,0
		c-4.6,5.5-9.3,10.8-14.1,16.1c-1.7,1.9-1.8,3.2,0,5c6,6.2,11.9,12.5,17.9,18.8c1,1,2,3.3,4,1.6c2.1-1.9,0.5-3.5-0.9-5.1
		C579.7,249.6,576.6,247.5,575.5,243.7z M366.9,242.3c0.4,0.4,0.7,0.7,1.1,1c-1.9,3.9-5.8,6.2-8.1,9.8c-0.8,1.2-1.2,2.4,0.1,3.5
		c1.2,1,2.2,0.3,3-0.6c6.2-6.5,12.5-13,18.7-19.4c1.7-1.8,1.5-3.4-0.1-5.2c-5-5.6-9.9-11.3-14.7-17c-1.4-1.7-2.6-1.7-4.1-0.2
		c-6,6.2-12.1,12.4-18.2,18.5c-1.5,1.5-1.9,3.1-0.4,4.8c3.2,4,6.5,8,9.7,12c1.8,2.2,3.4,2.2,5.4,0.1
		C361.7,247.2,364.3,244.8,366.9,242.3z M562.8,281.4c0.3-0.2,1-0.5,1.4-1c4.8-5.8,9.5-11.6,14.2-17.5c1.2-1.5,0.5-2.8-0.7-4
		c-6.2-6.5-12.4-13-18.5-19.6c-1.6-1.8-3-1.7-4.5,0.1c-4.5,5.1-9,10.3-13.6,15.4c-1.6,1.8-1.7,3.2,0.1,5.1
		c6.1,6.4,12.1,12.9,18.2,19.3C560.2,280.2,561,281.3,562.8,281.4z M385.6,237.9c-0.4,0.2-1,0.5-1.4,1c-6.4,6.7-12.9,13.5-19.3,20.3
		c-1.4,1.5-1,3.1,0.2,4.5c4.3,5.3,8.6,10.6,12.8,16c1.6,2,3,2.1,4.8,0c6-6.6,12.2-13.2,18.4-19.7c1.8-1.9,2.3-3.4,0.4-5.5
		c-4.5-4.9-8.8-10-13.2-15C387.7,238.7,387,237.9,385.6,237.9z M312.7,259.8c-0.2-0.4-0.3-0.9-0.6-1.2c-4.7-5.8-9.4-11.6-14.1-17.4
		c-1.5-1.9-2.8-1-4.1,0.3c-6.2,6.2-12.4,12.5-18.7,18.6c-2,1.9-2,3.5-0.3,5.5c4.1,5,8.2,10.1,12.1,15.2c1.9,2.5,3.5,3.1,5.9,0.5
		c5.9-6.3,12.1-12.4,18.1-18.5C311.8,261.9,312.8,261.2,312.7,259.8z M669.4,264.1c0.2-1.5-0.7-2.1-1.3-2.8
		c-6.3-6.4-12.7-12.6-19-19c-2.1-2.2-3.6-1.5-5.2,0.6c-3.8,4.8-7.6,9.6-11.7,14.3c-2.2,2.5-2.2,4.5,0.1,6.8
		c6.1,6.1,12.1,12.3,18.1,18.6c1.8,1.9,3,2,4.7-0.2c4.2-5.5,8.7-10.9,13-16.4C668.7,265.2,669.1,264.5,669.4,264.1z M286.8,286.6
		c-0.4-0.8-0.5-1.4-0.9-1.9c-4.6-5.9-9.2-11.8-13.9-17.7c-1.5-2-2.8-1-4.1,0.3c-6,6-12,12-18.1,18c-1.7,1.7-2.1,3.1-0.5,5.2
		c4.4,5.6,8.8,11.3,13,17.1c1.6,2.1,3,2.3,4.8,0.4c5.9-6.3,12-12.5,17.9-18.8C285.8,288.3,286.3,287.4,286.8,286.6z M672.6,266.7
		c-1.1,0-1.8,0.8-2.4,1.6c-4.3,5.5-8.6,11-13,16.4c-1.8,2.3-0.8,4,0.8,5.7c5.9,6.1,11.8,12.2,17.7,18.3c1.7,1.8,2.9,1.7,4.4-0.3
		c4.4-5.9,8.8-11.7,13.3-17.4c1.7-2.1,1-3.5-0.6-5.1c-5.8-5.7-11.5-11.5-17.3-17.3C674.6,267.8,673.8,266.8,672.6,266.7z
		 M137.2,417.9c-0.4,0.6-0.7,1.2-1.2,1.5c-1.1,0.5-2-0.2-2.5-1c-1.5-2.4-3-4.8-4.4-7.3c-1.5-2.7-3.1-3-5.4-0.7
		c-3.2,3.4-6.5,6.7-9.9,9.8c-2.2,2.1-2.3,4-0.8,6.6c4.2,7,8.4,14,12.4,21c1.4,2.4,2.6,3.2,4.9,0.9c5.3-5.5,10.7-10.9,16.1-16.3
		c1.6-1.6,2.1-3.2,0.8-5.3c-4.7-7.2-9.4-14.5-14.1-21.8c-0.5-0.8-1.1-2-2.3-1.4c-1.4,0.8-0.8,2-0.2,3c1.6,2.6,3.2,5.1,4.7,7.6
		C136.1,415.7,136.6,416.7,137.2,417.9z M512.3,282c-0.3-0.7-0.4-1.4-0.8-1.9c-5-5.5-10.1-11.1-15.2-16.6c-1.6-1.7-3-0.7-4.2,0.7
		c-5.5,6.2-11,12.4-16.6,18.6c-1.3,1.5-1.6,2.8-0.2,4.3c4.8,5.3,9.5,10.7,14.2,16.1c1.7,1.9,3,2.2,4.8,0.1
		c5.3-6.2,10.7-12.3,16-18.5C511.1,284,511.6,283,512.3,282z M806.6,420.8c-2.1-0.7-1.8-2.1-0.9-3.5c1.5-2.6,3.3-5,4.9-7.5
		c0.8-1.3,2.8-3,0.8-4.3c-1.7-1.1-2.3,1.3-3,2.5c-4.3,6.5-8.5,13.2-12.9,19.6c-1.7,2.5-1.5,4.3,0.6,6.5c5.3,5.3,10.5,10.8,15.5,16.2
		c1.9,2.1,3,2,4.4-0.5c2.8-5.1,6-10,8.8-15.1c7.1-12.3,7.5-8.7-2.3-18.7c-7.1-7.2-7.1-7.2-12.6,1.3
		C809.2,418.7,808.6,420.4,806.6,420.8z M448,262.7c-0.4,0.3-1.2,0.6-1.8,1.2c-5,5.3-10,10.7-14.9,16.1c-1.6,1.7-0.6,3.1,0.6,4.4
		c5.4,6.3,11,12.5,16.3,18.8c2.2,2.6,3.5,1.9,5.4-0.4c3.9-4.7,8-9.3,12.3-13.7c2.4-2.5,2.8-4.5,0.4-7.2
		c-5.2-5.8-10.3-11.7-15.5-17.5C450.1,263.5,449.5,262.7,448,262.7z M440.7,363.7c-0.4-0.7-0.6-1.3-1-1.8
		c-4.8-5.9-9.6-11.8-14.5-17.8c-2-2.5-3.4-0.9-4.8,0.7c-5.2,5.8-10.3,11.7-15.6,17.5c-1.8,1.9-1.4,3.4,0,5.2
		c4.6,5.7,9.2,11.3,13.8,17c1.5,1.8,2.7,2.1,4.4,0.2c5.2-6,10.5-12,15.7-18C439.5,365.7,440.1,364.7,440.7,363.7z M520.9,386.2
		c1.5,0,2-0.9,2.7-1.7c4.8-5.8,9.5-11.6,14.3-17.4c1.6-1.9,0.9-3.2-0.5-4.8c-5.2-5.8-10.5-11.7-15.5-17.6c-2.2-2.5-3.6-2.1-5.5,0.2
		c-4.1,5.2-8.3,10.4-12.6,15.5c-1.9,2.3-2.1,4.1,0,6.5c5.3,5.8,10.3,11.8,15.5,17.7C519.9,385.2,520.5,385.8,520.9,386.2z
		 M547.6,308.2c-1.1,0-1.6,0.7-2,1.4c-0.8,1.2-0.4,2.2,0.4,3.2c5.7,6.3,11.3,12.6,17,18.9c1.4,1.6,2.7,1.6,4.1-0.1
		c4.9-6.1,9.8-12.2,14.8-18.2c1.7-2.1,1.3-3.8-0.5-5.7c-5.3-5.5-10.5-11.1-15.7-16.8c-2.1-2.3-3.6-2.4-5.5,0.2
		c-2.4,3.2-4.8,6.4-7.6,9.3c-2.5,2.7-3.1,5,0.1,7.5c0.9,0.7,1.7,1.7,2.3,2.7c1.2,2.1,5.7,4,3.5,6s-3.9-2.4-5.8-3.8
		C550.8,311.4,549.7,309.2,547.6,308.2z M392,304.1c-0.2-0.5-0.2-1.1-0.5-1.4c-3.5-4.5-6.9-8.9-10.6-13.3c-1.1-1.4-2.4-0.5-3.4,0.6
		c-5.5,6-11.1,12-16.7,17.9c-1.4,1.5-2,3-0.5,4.8c5,6,9.9,12.2,14.8,18.2c1.3,1.5,2.7,2,4.2,0.4c5.8-6.4,11.7-12.8,17.5-19.2
		c1.2-1.3,0.7-2.4-0.4-3.5c-1.1-1.1-2.1-0.6-3,0.3c-1.5,1.5-2.9,3.2-4.6,4.6c-1.5,1.3-3,4.8-4.9,3c-2.3-2.3,1.5-3.7,2.7-5.3
		C388.5,308.8,391.1,307.1,392,304.1z M448.9,247.4c0.3,1.6-0.4,2.4-1,3.1c-1,1.3-2.6,2.7-0.7,4.3c1.9,1.6,2.9-0.4,4-1.5
		c5.2-5.6,10.3-11.4,15.5-16.9c1.8-2,2.1-3.3,0.1-5.4c-4.6-4.8-9.1-9.7-13.5-14.7c-2.2-2.5-4-3-6.4-0.2c-2.8,3.3-6,6.2-8.9,9.5
		c-8.6,9.8-8.6,9.9,0.1,19.5C443,250.4,443,250.4,448.9,247.4z M377,285.2c-0.3-0.7-0.5-1.3-0.9-1.8c-4.7-5.8-9.4-11.6-14.1-17.4
		c-1.5-1.9-2.8-1.1-4.1,0.3c-5.7,6-11.4,12.1-17.2,18.1c-1.4,1.5-1.5,2.7-0.1,4.3c4.4,5.2,8.7,10.5,12.9,15.8c2.1,2.7,3.9,2.4,6,0
		c5.1-5.6,10.4-11.2,15.6-16.7C375.9,287,376.4,286.1,377,285.2z M603.1,287c-0.4-0.7-0.6-1.4-1-1.8c-6-6.4-12.1-12.8-18.1-19.2
		c-1.5-1.5-2.6-0.8-3.7,0.6c-4.3,5.5-8.7,10.9-13.1,16.3c-1.6,1.9-1.4,3.5,0.2,5.2c5.4,5.7,10.8,11.3,16,17.1
		c2.2,2.4,3.7,2.1,5.5-0.3c4.1-5.2,8.4-10.3,12.6-15.5C602.1,288.7,602.5,287.9,603.1,287z M494.2,247.3c6.1,6,8.5-0.2,11.7-3.6
		c1.8-1.9,3.4-4.1,5.3-6c1.7-1.7,2-3.2,0.2-5.1c-5.4-5.6-10.8-11.3-16-17.1c-2-2.2-3.5-1.7-5.3,0.3c-4.7,5.2-9.5,10.2-14.2,15.4
		c-1,1.1-2.2,2.3-0.8,3.9c5.9,6.5,11.8,13.1,17.7,19.5c0.9,1,2,1.2,3,0.1c1.1-1.1,0.4-2.1-0.3-3.1
		C494.8,250.6,493.3,249.7,494.2,247.3z M627,257.4c0.8-0.5,1.6-0.9,2.1-1.5c4.6-5.5,9.2-11,13.7-16.4c1.7-2,0.3-3.3-1-4.6
		c-5.6-5.6-11.3-11.2-16.9-16.9c-2.1-2.2-3.6-2.4-5.5,0.2c-3.7,4.9-7.6,9.7-11.5,14.4c-2,2.4-2,4.2,0.3,6.4
		c5.5,5.4,10.7,10.9,16.1,16.3C625,256,625.9,256.6,627,257.4z M337,235.3c-0.4-0.7-0.5-1.4-0.9-1.9c-4.4-5.5-8.7-10.9-13.1-16.3
		c-1.8-2.2-3.4-1.3-5,0.3c-5.6,5.7-11.2,11.3-17,16.9c-1.9,1.9-2.1,3.4-0.3,5.5c4,4.7,7.9,9.4,11.7,14.3c2.1,2.8,3.9,3,6.4,0.4
		c5.2-5.6,10.7-10.9,16-16.4C335.6,237.2,336.2,236.2,337,235.3z M361.6,209.2c-0.2-0.4-0.4-1.1-0.8-1.5
		c-4.5-5.3-9.1-10.6-13.7-15.8c-1.7-1.9-2.9-0.5-4.1,0.7c-5.7,5.6-11.2,11.3-17,16.9c-1.9,1.8-2.3,3.3-0.4,5.5
		c4,4.7,7.8,9.5,11.6,14.3c2.2,2.9,4.1,2.6,6.4,0c5.3-5.7,10.8-11.3,16.2-16.9C360.5,211.4,361.5,210.7,361.6,209.2z M597.6,191.4
		c-0.8,0.5-1.6,0.8-2.1,1.4c-4.5,5.1-9,10.3-13.5,15.4c-1.5,1.8-0.4,3,0.8,4.3c5.8,6,11.7,11.9,17.5,17.9c2,2.1,3.4,2,5.2-0.3
		c3.8-4.9,7.7-9.6,11.7-14.3c2-2.3,1.7-3.9-0.4-5.9c-5.5-5.3-10.8-10.8-16.3-16.2C599.7,192.8,598.7,192.2,597.6,191.4z
		 M404.2,191.8c-0.3,0.6-0.5,1.4-0.7,1.4c-0.6,0-1.4-0.1-1.8-0.4c-1.9-1.8-3.7-3.8-5.6-5.6c-1.6-1.6-3-4-5.7-1.4
		c-2.7,2.6-0.8,4.4,0.9,6.3c4.4,4.9,9,9.8,13.2,14.9c2.1,2.5,3.5,2.3,5.5,0.1c5-5.5,10.2-10.9,15.4-16.3c1.8-1.8,1.8-3.3,0-5.1
		c-3.1-3.2-6.2-6.5-9.1-9.9c-7.8-9-7.7-9.1-15.9-0.8c-5.8,5.9-5.7,5.9,0,12.2C401.7,188.7,403,190.3,404.2,191.8z M538.2,194.1
		c2-4.7,4.8-7.1,7.2-9.8c2-2.1,2.1-3.9,0-6c-2.7-2.7-5.3-5.5-7.8-8.4c-2-2.4-3.6-2.2-5.6,0.1c-4.6,5.2-9.4,10.3-14.2,15.4
		c-2.1,2.2-1.8,4,0.1,6c5.2,5.4,10.4,10.7,15.5,16.2c1.9,2,3.3,1.5,4.9-0.4c4.7-5.4,9.4-10.8,14.2-16c1.8-2,1.9-3.6-0.1-5.5
		c-2.2-2.1-3.5-0.4-5,0.9C545,189,543.2,192.4,538.2,194.1z M532.7,212.7c0.1-1-0.6-1.7-1.3-2.4c-5.3-5.7-10.7-11.3-16-17
		c-1.7-1.8-3-1.5-4.5,0.1c-4.5,4.9-9,9.8-13.5,14.6c-1.5,1.6-1.6,3.1,0,4.8c5.3,5.7,10.7,11.4,16,17.1c0.9,1,2.2,2.3,3.4,1.2
		c5.9-5.4,11-11.4,15.9-17.7C532.6,213.2,532.6,213,532.7,212.7z M429.4,191.8c-0.3,0.2-0.9,0.6-1.4,1c-5.6,5.7-11.1,11.5-16.7,17.2
		c-1.6,1.7-1.4,3.2,0,4.8c4.5,5.1,9.1,10.1,13.6,15.3c1.4,1.6,2.6,1.7,4.1,0.1c5.4-5.9,10.9-11.7,16.4-17.5c1.8-1.9,1.6-3.3-0.1-5.1
		c-4.4-4.6-8.6-9.3-12.9-13.9C431.8,192.9,431.1,191.8,429.4,191.8z M490.2,122c-0.5-0.8-0.8-1.6-1.3-2.2
		c-5-5.3-10.1-10.6-15.1-15.9c-2-2.1-3.5-1-5,0.6c-4.7,4.9-9.3,9.9-14.1,14.8c-2,2-1.8,3.5,0.1,5.5c4.6,4.8,9.2,9.6,13.7,14.5
		c2.1,2.3,3.8,2.7,6.1,0.2c4.5-5.1,9.3-9.9,14-14.9C489.1,123.9,489.6,123,490.2,122z M386.1,231.3c0.8-0.6,1.5-1,2.1-1.5
		c4.8-5.1,9.6-10.2,14.4-15.2c1.6-1.6,1.6-3.1,0-4.8c-4.8-5.3-9.5-10.7-14.2-16.1c-2.2-2.6-3.9-2.2-6.1,0.1
		c-4.2,4.5-8.5,8.9-13,13.2c-2.2,2.1-2.1,3.8-0.2,5.9c4.9,5.5,9.7,11,14.5,16.5C384.4,230,385.2,230.6,386.1,231.3z M227.3,385.3
		c0.7-0.5,1.3-0.9,1.8-1.3c6.9-7,13.8-14,20.7-21c1.9-1.9,1-3.6-0.3-5.3c-2.9-4.1-6-8-8.7-12.2c-2-3.2-3.7-2.5-5.7-0.1
		c-2.8,3.1-5.6,6.2-8.5,9.2c-13.2,13.4-13.2,13.4-1.7,28.6c0.3,0.4,0.5,0.9,0.9,1.2C226.2,384.6,226.8,384.9,227.3,385.3z
		 M575.1,209.9c-0.2-0.4-0.6-1.2-1.1-1.8c-4.8-5.1-9.6-10.1-14.4-15.2c-2-2.1-3.5-0.9-4.9,0.7c-4.6,5.2-9.1,10.6-13.9,15.6
		c-2.4,2.6-2,4.4,0.3,6.7c4.3,4.4,8.5,8.8,12.6,13.4c2,2.3,3.6,2.4,5.6,0c4.6-5.4,9.4-10.7,14.1-16.1
		C574.3,212.4,575.1,211.6,575.1,209.9z M489.8,210.5c-0.5-0.7-0.7-1.3-1.2-1.8c-5.2-5.6-10.4-11.2-15.7-16.8
		c-1.8-1.9-2.9-0.4-4.1,0.8c-4.7,5-9.3,10-14,14.9c-1.6,1.7-2.2,3.1-0.4,5.1c5,5.4,9.8,10.9,14.7,16.3c1.6,1.8,3,1.7,4.5-0.1
		c4.8-5.4,9.6-10.6,14.4-15.9C488.8,212.2,489.3,211.3,489.8,210.5z M532,165.1c-0.5-0.7-0.8-1.5-1.3-2.1c-5-5.1-10-10.2-15-15.3
		c-2-2-3.5-0.9-5,0.7c-4.7,5-9.2,10-14,14.9c-1.9,2-1.9,3.6,0,5.5c4.7,4.9,9.4,9.8,14,14.8c1.9,2.1,3.3,1.5,4.9-0.3
		c4.9-5.4,9.9-10.7,14.9-16.1C531,166.7,531.4,165.9,532,165.1z M704.8,344.2c-1.3-0.3-1.9,0.4-2.3,1.1c-3.4,4.7-6.8,9.4-10.3,14.1
		c-1.1,1.5-0.9,2.7,0.3,4c6.8,7.1,13.6,14.1,20.3,21.2c1.7,1.8,2.9,1.7,4.3-0.4c2.8-4.3,5.7-8.6,8.7-12.8c1.8-2.5,1.4-4.4-0.7-6.5
		c-6-6.2-11.9-12.5-17.9-18.7C706.4,345.5,705.5,344.8,704.8,344.2z M448.2,166c-0.6-1-1-1.9-1.7-2.6c-5-5.5-10.2-11-15.2-16.5
		c-1.7-1.9-2.8-0.8-4,0.5c-4.6,4.8-9.2,9.6-13.9,14.3c-2.2,2.1-2.1,3.7-0.1,5.8c4.9,5.2,9.7,10.5,14.4,15.9c1.8,2,3.1,1.9,4.9,0
		c4.6-5,9.4-9.9,14-14.9C447.2,167.8,447.6,166.9,448.2,166z M471.2,328.7c0.8-0.6,1.5-0.9,2.1-1.5c4.9-5.5,9.7-11,14.6-16.5
		c1.8-2,0.9-3.5-0.6-5.2c-4.5-4.9-9-9.8-13.3-14.9c-1.9-2.2-3.3-2.2-5.2-0.1c-4.6,5.3-9.2,10.5-13.9,15.7c-1.6,1.8-1.3,3,0.1,4.7
		c4.5,5.1,9,10.3,13.5,15.4C469.2,327.2,470.2,327.8,471.2,328.7z M139.2,390.3c0.7-0.5,1.3-0.8,1.8-1.2
		c7.3-7.3,14.6-14.6,21.9-21.8c1.5-1.5,1.1-2.9,0.1-4.5c-2.7-4.2-5.4-8.4-8-12.6c-1.5-2.4-2.8-2.3-4.6-0.4c-3.9,4.1-8.1,7.9-12,12
		c-3.6,3.8-10,6.8-10.3,11.6c-0.2,5.2,5.4,9.5,8.3,14.3c0.3,0.6,0.7,1.1,1.2,1.6C138,389.7,138.6,390,139.2,390.3z M789.2,349.8
		c-0.3,0.3-0.9,0.7-1.3,1.2c-3,4.6-6,9.2-9,13.8c-1.2,1.9,0,3.1,1.2,4.3c6.8,6.8,13.7,13.6,20.4,20.5c2.4,2.4,3.8,1.8,5.4-0.8
		c2.4-3.8,4.8-7.6,7.5-11.2c1.5-2.2,1.3-3.8-0.6-5.6c-6.9-6.7-13.7-13.6-20.5-20.4C791.5,350.8,790.8,349.8,789.2,349.8z M485.4,397
		c8.2,0,16.3-0.1,24.4,0c4.5,0,6.5-3.1,8.3-6.2c1.7-2.9-1.5-4.5-2.9-6.2c-4.2-5.2-8.8-10-13-15.2c-2.4-3-3.9-2.4-6,0.3
		c-5,6.5-10.4,12.6-15.3,19.1c-1.9,2.5-6.4,5-4.9,7.9C477.4,399.4,482.2,397.2,485.4,397z M458.4,397.8c2,0,2.8,0.1,3.6,0
		c1.6-0.2,3.7,0.8,4.5-1c0.8-1.7-1.1-3-2.1-4.2c-6.2-7.8-12.6-15.5-18.8-23.3c-1.4-1.7-2.5-3.2-4.6-0.7c-5.3,6.2-10.7,12.3-16,18.5
		c-0.8,1-2.2,2-1.1,3.4c2.4,3,4.1,6.7,9.2,6.6C441.9,396.8,450.7,396.8,458.4,397.8z M124,388.9c3.1,1.3,3.9,3.7,5.3,5.4
		c1.1,1.4,1.7,4.2,4.5,2c2.1-1.6,2.5-3.3,0.9-5.6c-2.7-4-5.3-8-7.9-12.2c-1.4-2.3-2.8-2.5-4.8-0.6c-7.1,7-14.3,13.9-21.5,20.9
		c-1.7,1.6-2,3.3-0.8,5.4c2.7,4.4,5.3,8.9,7.9,13.3c1.3,2.1,2.7,2.2,4.4,0.5c2.7-2.7,5.2-5.6,8.2-8.1c3.8-3.2,5.7-6.3,1.9-10.8
		c-0.8-0.9-1.7-2.2-0.5-3.7c2.4,0.2,2.8,2.6,4.1,3.9c0.8,0.8,1.3,2.3,2.7,1.5c1.3-0.8,0.5-2.1,0-3.1
		C126.9,395.2,124.6,392.9,124,388.9z M636.8,304.1c0.3-0.3,0.9-0.6,1.3-1.1c3.7-4.5,7.3-9,11-13.5c1.2-1.5,0.6-2.7-0.5-3.9
		c-6.4-6.7-12.9-13.4-19.3-20.1c-1.5-1.6-2.7-1.5-4,0.2c-3.1,3.9-6.2,7.8-9.5,11.5c-2.3,2.5-2,4.4,0.3,6.7c6.1,6.1,12,12.4,18,18.6
		C634.8,303.2,635.4,304.1,636.8,304.1z M328.8,279.6c-0.5-0.8-1.1-1.8-1.8-2.6c-2.9-3.6-6-7.1-8.8-10.9c-2.1-2.8-3.6-2.6-5.9-0.2
		c-5.8,6.2-11.7,12.3-17.6,18.4c-2.1,2.1-2.1,3.9-0.3,6c3,3.6,5.9,7.2,8.7,10.9c1.9,2.5,3.5,2.4,5.6,0.2c6-6.2,12.1-12.4,18.1-18.5
		C327.8,282,328.8,281.2,328.8,279.6z M303.6,369.1c-0.5,0.4-1.2,0.8-1.7,1.4c-4.1,4.3-8.1,8.8-12.3,13.1c-1.9,1.9-1.1,3.5,0.1,5.3
		c4.7,6.4,9.5,12.8,14.1,19.3c1.6,2.2,2.9,2.3,4.6,0.3c4-4.5,8-8.9,12.1-13.2c1.8-1.9,1.3-3.5,0-5.3c-4.9-6.3-9.7-12.7-14.5-19
		C305.6,370.2,305.1,369.2,303.6,369.1z M289.6,290.7c-1.1,0-1.8,0.7-2.5,1.4c-6.1,6.2-12.1,12.4-18.3,18.5
		c-1.8,1.8-1.7,3.2-0.2,5.2c3.1,3.9,6.2,7.9,9,12c1.8,2.6,3.1,2.8,5.4,0.5c5.8-6.2,11.8-12.2,17.8-18.2c2-2,2.4-3.6,0.5-5.9
		c-3.1-3.7-6-7.6-9-11.4C291.6,291.8,290.9,290.8,289.6,290.7z M559.7,285.4c-0.5-0.7-0.8-1.3-1.2-1.8c-6.6-7.2-13.3-14.5-20-21.7
		c-1.6-1.8-2.8-0.9-4.1,0.5c-3.1,3.5-6,7.1-9.3,10.4c-2.2,2.2-1.8,3.9,0.1,5.9c6.4,6.8,12.8,13.5,19.1,20.4c1.7,1.8,2.9,2.4,4.7,0
		c2.9-3.9,6-7.5,9-11.3C558.8,287.1,559.2,286.2,559.7,285.4z M179.1,321.8c-0.4,0.2-1,0.5-1.4,0.9c-7.1,7-14.2,14-21.2,21.1
		c-1.3,1.3-1.2,2.6-0.2,4c2.8,4.1,5.7,8.2,8.4,12.4c1.4,2.1,2.7,2.6,4.7,0.7c6.6-6.5,13.3-13,20-19.5c1.8-1.7,1.8-3.3,0.4-5.3
		c-2.8-4.1-5.5-8.3-8.2-12.5C181.1,322.7,180.6,321.8,179.1,321.8z M510.7,142.9c-0.3-0.6-0.5-1.3-1-1.8c-5-5.1-10-10.2-15-15.3
		c-1.5-1.5-2.7-0.5-3.8,0.7c-5,5.3-10,10.7-15.1,15.9c-1.4,1.5-1.6,2.7-0.1,4.2c4.5,4.7,8.9,9.4,13.3,14.2c2,2.2,3.6,1.7,5.4-0.2
		c4.8-5.3,9.8-10.5,14.7-15.7C509.7,144.4,510.1,143.7,510.7,142.9z M675.2,314c-0.5-0.8-0.8-1.6-1.4-2.2
		c-6.2-6.5-12.4-13-18.6-19.5c-1.8-1.9-3.1-1.3-4.5,0.5c-3,3.8-5.9,7.6-9,11.3c-2.2,2.5-1.9,4.5,0.4,6.8c6,6,11.9,12.2,17.7,18.3
		c1.6,1.7,2.6,2.3,4.3,0.1c3.1-4.3,6.5-8.5,9.7-12.7C674.3,315.8,674.6,314.9,675.2,314z M468.8,144.8c-0.4-0.7-0.6-1.3-1-1.8
		c-5.3-5.7-10.7-11.4-16-17c-1.4-1.5-2.6-1.1-3.8,0.2c-4.5,4.6-9,9.3-13.6,13.9c-1.8,1.8-1.7,3.4,0,5.2c4.8,5.1,9.5,10.1,14.2,15.3
		c2,2.2,3.6,2.4,5.7,0.1c4.2-4.7,8.6-9.2,12.9-13.8C467.8,146.3,468.2,145.6,468.8,144.8z M419.4,275.7c-0.6-1-0.9-1.9-1.6-2.6
		c-2.9-3.4-6-6.7-8.8-10.1c-2.2-2.7-3.9-2.3-6,0.1c-3.3,3.7-7.1,7-10.1,10.9c-3.1,4-9.9,6.7-9,11.6c0.9,4.6,6.1,8.4,9.2,12.7
		c1.9,2.6,3.5,2.4,5.5,0.2c6.3-6.8,12.8-13.5,19.1-20.3C418.3,277.5,418.8,276.6,419.4,275.7z M638.5,370c-1.2,0-1.8,0.9-2.4,1.7
		c-4.8,6.3-9.7,12.7-14.5,19c-1.5,2-1.3,3.5,0.4,5.2c3.8,4,7.5,8,11.1,12.1c2.1,2.5,3.8,2.7,5.8-0.2c4.4-6.2,9-12.3,13.6-18.5
		c1-1.4,2-2.8,0.5-4.5c-4.4-4.8-8.8-9.5-13.3-14.2C639.4,370.4,638.9,370.2,638.5,370z M510,188.9c-0.1-1.8-1.1-2.6-2-3.6
		c-4.5-4.7-9.2-9.2-13.4-14.1c-2.2-2.5-3.5-2.1-5.5,0c-4.2,4.7-8.5,9.3-12.9,13.9c-1.8,1.9-1.7,3.2,0,5c4.7,4.9,9.4,9.9,14,15
		c2,2.2,3.5,2.5,5.6,0.1c4-4.6,8.3-9.1,12.4-13.6C508.9,190.7,509.4,189.6,510,188.9z M468.7,187.7c-0.3-0.6-0.4-1.2-0.8-1.5
		c-5.1-5.5-10.2-11-15.3-16.4c-1.3-1.4-2.3-0.5-3.3,0.5c-4.8,5.1-9.6,10.2-14.5,15.2c-2.2,2.2-1.7,4,0.1,6c4.2,4.5,8.4,9,12.5,13.6
		c2.1,2.5,3.6,2.1,5.6-0.1c4.6-5.1,9.3-10,14-15C467.6,189.3,468.1,188.5,468.7,187.7z M787,347.3c-0.5-0.9-0.9-1.8-1.6-2.5
		c-6.8-6.8-13.6-13.6-20.4-20.4c-1.8-1.8-3-1.5-4.3,0.5c-2.3,3.6-4.6,7.3-7.2,10.8c-2.2,3-1.8,5.2,0.9,7.7
		c4.7,4.4,9.2,9.1,13.8,13.7c7.3,7.3,7.3,7.3,13.2-1.4C783.2,353,785.1,350.2,787,347.3z M424.1,235.1c-0.5-0.9-0.9-1.8-1.5-2.5
		c-4.4-5-8.8-10-13.1-15c-2-2.4-3.5-1.6-5.3,0.3c-4.2,4.5-8.4,9-12.9,13.2c-2.8,2.6-2.3,4.6,0.1,7.1c4.2,4.5,8.3,9.1,12.2,13.9
		c1.8,2.2,3.1,2.5,5.1,0.3c4.6-5.1,9.3-10,13.9-15C423.1,236.7,423.5,236,424.1,235.1z M553.9,234.8c-0.4-0.7-0.7-1.4-1.1-1.8
		c-5-5.3-10-10.6-15-16c-1.6-1.7-2.9-0.9-4.1,0.5c-4.4,5-8.8,9.9-13.2,14.9c-1.6,1.8-1.7,3.4,0,5.2c4.7,4.9,9.3,9.9,13.9,14.9
		c1.8,2,3,1.8,4.8-0.2c4.2-5,8.6-9.7,12.8-14.5C552.8,236.9,553.3,235.8,553.9,234.8z M820.8,396.5c1.3,2.3-0.2,3.8-1.2,5.1
		c-2.4,3.2-1.7,5.7,1.2,8.2c3.2,2.9,6.2,6.1,9.2,9.2c1.8,1.8,3.3,2.1,4.7-0.4c2.5-4.2,5-8.3,7.5-12.4c1.2-2,1.1-3.7-0.6-5.4
		c-7.2-7.2-14.4-14.3-21.6-21.5c-1.5-1.5-2.8-1.7-4,0.2c-2.8,4.3-5.7,8.6-8.5,13c-1.4,2.1-0.5,3.9,1.3,5.2c2.2,1.5,2.8-0.8,3.8-1.9
		c1.6-1.8,2.1-4.8,5.7-5.3c-0.6,4-3.2,6.4-4.7,9.3c-0.5,1-0.8,1.9,0.3,2.6c0.9,0.5,1.5-0.3,2.1-0.9
		C817.6,399.7,818.1,397.1,820.8,396.5z M204.8,296.9c-0.4,0.2-1.1,0.5-1.5,0.9c-6.6,6.3-13.1,12.7-19.7,19c-1.4,1.3-1.1,2.6-0.2,4
		c2.8,4.1,5.6,8.2,8.3,12.4c1.8,2.8,3.4,2.5,5.5,0.3c5.8-5.9,11.7-11.8,17.7-17.6c2-2,2.4-3.6,0.6-6c-2.7-3.6-5.2-7.3-7.8-11
		C207,298.1,206.3,297.1,204.8,296.9z M395.7,396.8C395.7,396.8,395.7,396.8,395.7,396.8c4.7,0,9.3,0,14,0.1
		c4.4,0.1,5.7-3.5,7.7-6.2c1.8-2.5-0.9-3.9-2.1-5.5c-4-5.1-8.2-10-12.2-15.1c-1.8-2.3-3.1-2.3-5-0.1c-6.1,7-12.4,13.9-18.6,20.8
		c-1.1,1.2-2.7,2.3-1.6,4.2c1,1.7,2.7,1.7,4.4,1.7C386.7,396.8,391.2,396.8,395.7,396.8z M546.4,396.9c0,0,0-0.1,0-0.1
		c4.8,0,9.7,0,14.5,0c1.5,0,3.1-0.3,3.8-1.9c0.7-1.6-0.6-2.5-1.5-3.4c-6.1-6.8-12.2-13.6-18.3-20.5c-2.3-2.7-4.1-2.8-6.3,0.2
		c-3.5,4.7-7.1,9.3-11.1,13.5c-3.5,3.7-3.4,6.6,0.2,10.1c1.6,1.5,3.1,2.3,5.2,2.3C537.4,396.8,541.9,396.9,546.4,396.9z
		 M624.2,261.4c-0.4-0.8-0.6-1.6-1.1-2.2c-5.9-6.3-11.9-12.5-17.9-18.8c-1.7-1.8-2.8-1-4,0.5c-3.1,3.9-6.2,7.9-9.5,11.6
		c-2.1,2.4-1.9,4.2,0.3,6.4c5.5,5.5,10.9,11.2,16.3,16.9c1.8,1.9,3.2,2,4.8-0.1c3.1-3.9,6.4-7.7,9.5-11.6
		C623.2,263.3,623.6,262.4,624.2,261.4z M353.1,255.2c-0.6-0.9-1-1.8-1.6-2.6c-3.1-3.9-6.4-7.7-9.3-11.7c-1.9-2.6-3.4-2.5-5.5-0.3
		c-5.4,5.9-11,11.6-16.6,17.3c-1.8,1.8-1.9,3.2-0.2,5.1c3.2,3.8,6.5,7.6,9.4,11.6c1.9,2.5,3.2,2.7,5.4,0.4
		c5.4-5.9,11-11.5,16.5-17.3C351.9,257,352.4,256.2,353.1,255.2z M382.7,187.8c-0.3-0.6-0.5-1.2-0.8-1.5c-4.5-5.1-9-10.2-13.6-15.3
		c-1.5-1.7-2.6-0.6-3.8,0.5c-4.9,4.7-9.8,9.5-14.8,14.2c-1.9,1.8-1.6,3.2,0,5c4,4.4,8,9,11.8,13.6c1.9,2.2,3.5,2.8,5.6,0.4
		c4.5-4.9,9.2-9.7,13.7-14.5C381.7,189.4,382.2,188.5,382.7,187.8z M489,166.1c-0.4-0.7-0.7-1.4-1.1-1.8
		c-4.9-5.2-9.8-10.5-14.7-15.6c-1.5-1.5-2.6-0.6-3.7,0.6c-4.5,4.7-8.9,9.5-13.5,14c-2,2-1.8,3.5,0,5.4c4.4,4.5,8.7,9.2,13,13.9
		c1.7,1.8,3,2.2,4.8,0.1c4.2-4.7,8.7-9.2,13.1-13.8C487.7,168.1,488.3,167.1,489,166.1z M576.1,170.6c-0.4,0.2-1,0.5-1.5,0.9
		c-4.5,4.9-8.9,9.8-13.4,14.8c-1.5,1.7-0.6,3,0.7,4.3c4.7,4.7,9.3,9.5,13.9,14.3c2,2.1,3.6,1.7,5.4-0.3c3.9-4.5,7.8-9.1,11.8-13.5
		c1.7-1.8,1.9-3.2,0-5c-4.7-4.5-9.2-9.1-13.8-13.7C578.4,171.5,577.7,170.6,576.1,170.6z M286.2,382.1c0.5-0.3,1.2-0.7,1.8-1.3
		c4.2-4.5,8.4-9,12.6-13.5c1.6-1.7,0.7-3-0.4-4.3c-4.3-5.7-8.6-11.4-12.9-17.2c-1.5-2.1-2.9-2.5-4.8-0.5c-3.9,4.1-7.8,8.2-11.9,12.1
		c-1.8,1.8-1.6,3.2-0.2,5.2c4.3,5.7,8.5,11.5,12.7,17.2C284,380.8,284.6,381.9,286.2,382.1z M760,320.1c-0.4-0.7-0.7-1.3-1.1-1.8
		c-6.6-6.5-13.3-13-20-19.5c-1.6-1.5-2.6-0.6-3.6,0.8c-2.7,3.8-5.3,7.6-8.1,11.3c-1.7,2.2-1.3,3.8,0.6,5.6c6,6,12,11.9,17.9,18
		c2.4,2.5,3.8,1.7,5.3-0.8c2.3-3.6,4.9-7.1,7.3-10.7C758.9,322.2,759.4,321.1,760,320.1z M673.1,361c-0.4-0.7-0.6-1.4-1-1.8
		c-4.2-4.5-8.3-9-12.6-13.4c-1.6-1.7-2.9-0.9-4.1,0.6c-4.4,5.8-8.8,11.6-13.3,17.4c-1.4,1.8-1.1,3.2,0.4,4.8c3.8,4,7.5,8,11.1,12.1
		c2,2.3,3.7,2.4,5.5-0.2c4-5.7,8.2-11.2,12.4-16.8C672.2,362.7,672.6,361.8,673.1,361z M573,166.8c-0.2-0.4-0.4-1-0.9-1.5
		c-5.5-5.6-11-11.1-16.6-16.6c-1.3-1.3-2.6-1.1-3.9,0.2c-4.1,4.6-8.2,9.2-12.3,13.8c-0.9,1-1.8,2.3-0.7,3.5
		c3.6,3.9,6.6,9.1,11.5,10.8c3.4,1.2,5.2-4.3,8-6.5c0.1-0.1,0.2-0.2,0.3-0.4c0.8-0.8,1.8-2,2.9-1c1.5,1.2,0.1,2.4-0.7,3.4
		c-1.9,2.1-3.9,4.1-5.8,6.2c-1.7,1.9-1.1,3.6,0.5,5.2c2,2.1,3.2,0.6,4.5-0.8c3.9-4.3,7.8-8.7,11.7-13
		C572.3,169.2,573,168.3,573,166.8z M385.8,184.4c1.4-0.3,2.3-1.4,3.2-2.6c0.9-1.2,0.2-2.2-0.6-3.1c-2.1-2.3-4.3-4.6-6.4-7
		c-0.8-0.9-1.4-2.1-0.2-3c0.9-0.7,1.9,0.1,2.6,0.8c1.8,2,3.6,3.9,5.3,6c1.7,2,3.3,2.6,5.3,0.4c2.8-3,5.8-6,8.7-8.9
		c1.6-1.6,1.6-3.1,0-4.8c-4-4.3-7.9-8.5-11.8-12.9c-1.9-2.2-3.5-1.8-5.4,0.1c-4.9,5-9.8,9.9-14.9,14.8c-1.9,1.9-2.1,3.5-0.2,5.5
		c3.8,4.2,7.4,8.5,11.2,12.8C383.5,183.3,384.3,184.3,385.8,184.4z M295.5,452.8c6.3,0,12.6,0,18.9,0c2.7,0,3.4-0.8,1.7-3.1
		c-5.4-7.4-10.8-14.8-16.1-22.2c-1.5-2.1-2.9-2.3-4.7-0.2c-6.7,7.4-13.5,14.6-20.3,21.9c-0.6,0.7-1.5,1.7-1.4,2.5
		c0.3,1.5,1.8,1.1,2.9,1.1C282.9,452.8,289.2,452.8,295.5,452.8z M535,161.4c0.5-0.3,1.2-0.6,1.8-1.2c4.3-4.6,8.6-9.3,12.9-13.9
		c1.6-1.7,0.7-2.9-0.6-4.2c-4.8-4.8-9.7-9.6-14.4-14.5c-1.8-1.8-3.1-1.9-4.9,0.1c-3.8,4.2-7.6,8.3-11.5,12.4c-1.7,1.8-2,3.1-0.1,5
		c4.7,4.7,9.2,9.6,13.8,14.4C532.6,160.3,533.4,161.2,535,161.4z M242.6,286.8c-0.2-0.3-0.4-1.1-0.8-1.5c-3.6-3.3-5.5-7.8-8.5-11.6
		c-2-2.5-3.5-2.5-5.6-0.3c-5.8,5.9-11.7,11.8-17.7,17.6c-2.1,2.1-2.1,3.8-0.4,6c2.6,3.3,4.9,6.8,7.4,10c1.1,1.3,1.7,4.3,4.4,2.2
		c2.4-1.8,3.7-3.8,1.2-6.6c-1.5-1.7-2.8-3.7-4.1-5.6c-0.5-0.8-1.2-1.8-0.2-2.7c1.1-0.8,1.8,0.1,2.4,0.9c1.2,1.6,2.5,3.1,3.6,4.8
		c1.8,2.6,3.5,3.2,5.9,0.6c3.4-3.6,7-7.1,10.6-10.6C241.6,289.2,242.6,288.4,242.6,286.8z M411.1,125.8c-0.7,0.4-1.3,0.7-1.8,1.1
		c-5.3,5.2-10.6,10.5-15.9,15.8c-1.5,1.5-0.7,2.6,0.4,3.9c4.1,4.4,8.1,8.8,12.1,13.2c1.4,1.6,2.7,2.2,4.5,0.3
		c4.8-5.1,9.6-10.1,14.5-15c1.5-1.5,2-2.8,0.3-4.6c-4-4.2-7.9-8.5-11.9-12.7C412.7,126.9,411.9,126.4,411.1,125.8z M882.2,265.4
		c-5.7,0-11.3,0.1-17,0c-3.5-0.1-4.8,1.4-4.7,4.8c0.2,4,0,8,0.1,12c0,6.6,0.2,6.5,6.7,6.7c4.6,0.2,6.5-1.5,6-6
		c-0.2-1.8-0.1-3.7,0.1-5.5c0.5-5.1,3.7-8.7,8.3-9.2c4.3-0.5,8.4,2.5,10,7.4c1,3,0.5,5.9,0.2,8.9c-0.3,3.3,1.2,4.6,4.4,4.4
		c2.9-0.1,6.3,0.7,6.3-4.1c-0.1-5.2-0.1-10.3,0.2-15.5c0.2-2.9-0.8-3.9-3.6-3.8C893.5,265.4,887.8,265.4,882.2,265.4z M449.5,118.6
		c0.7-0.4,1.4-0.5,1.8-1c5.5-5.5,11-11.1,16.5-16.7c1.2-1.3,0.7-2.4-0.3-3.5c-3.9-4.1-7.8-8.2-11.6-12.3c-1.8-2-3.3-1.5-5,0.2
		c-4.9,5-9.8,9.9-14.8,14.8c-1.6,1.6-1.8,2.9-0.1,4.6c4,4,7.8,8.2,11.7,12.3C448.1,117.6,448.8,118,449.5,118.6z M508.9,102.7
		c-0.5-0.8-0.8-1.6-1.4-2.1c-5.2-5.2-10.4-10.4-15.5-15.6c-1.9-1.9-3.2-0.8-4.6,0.6c-3.4,3.5-6.7,7-10.2,10.3
		c-2.5,2.3-2.6,4.3-0.1,6.7c4.6,4.6,9.2,9.2,13.6,14c2.1,2.3,3.8,2.1,5.8-0.1c3.6-4,7.3-7.8,10.9-11.7
		C507.8,104.2,508.3,103.5,508.9,102.7z M60.9,264.2C60.9,264.2,60.9,264.1,60.9,264.2c-6,0-12,0-17.9-0.1c-2,0-3.6,0.3-3.5,3
		c0.1,5.3,0.1,10.6,0.1,15.9c0,2.7,1.2,3.8,3.9,4c5.8,0.5,6.8-0.3,6.8-6c0-1.7-0.1-3.3,0.1-5c0.5-5.6,4.2-9.3,9.2-9.2
		c5.3,0.1,8.6,3.3,9.1,9.2c0.2,2.3,0.1,4.7,0.1,7c0,4.8,3.5,4,6.4,4c2.9,0,6.3,0.7,6.4-4c0.1-4.7,0.4-9.3,0.7-13.9
		c0.3-3.7-1.3-5-4.9-4.9C71.9,264.3,66.4,264.2,60.9,264.2z M647.5,453.1c0,0.1,0,0.2,0,0.4c6,0,12,0,18,0c1,0,2.2,0.5,2.8-0.4
		c0.8-1.1-0.3-1.8-1-2.5c-6.8-7.5-13.7-15-20.5-22.5c-1.7-1.8-2.9-2.4-4.6,0.1c-5,7.1-10.2,14-15.3,21c-2.2,2.9-1.4,4.1,2.1,4
		C635.2,453.1,641.4,453.1,647.5,453.1z M723.6,294.8c2.2,0.6,1.4,1.9,0.7,3c-1.6,2.3-3.3,4.6-5,6.8c-1.8,2.4,0.1,3.6,1.6,5
		c1.8,1.6,3,0.6,4.1-0.9c2.7-3.6,5.3-7.2,8-10.8c1.5-1.9,1.4-3.6-0.3-5.3c-6.1-6.1-12.3-12.2-18.3-18.3c-2.2-2.3-3.4-1.3-5.1,0.7
		c-3,3.5-4.6,8.1-8.1,11.2c-1.7,1.5-0.8,3,0.5,4.3c3.2,3.2,6.3,6.4,9.5,9.5c4.3,4.3,4.3,4.3,8-0.6
		C720.5,297.7,721.5,295.7,723.6,294.8z M698.4,314.5c-0.2,4.1-2.7,6.1-4.2,8.6c-1.2,2-1.6,3.6,0.4,5.2c2.3,1.9,3.3-0.2,4.3-1.6
		c4.3-5.7,8.4-11.5,12.8-17.2c1.5-2,1.3-3.5-0.4-5.1c-3.8-3.7-7.6-7.5-11.3-11.3c-1.6-1.6-3-1.9-4.5,0.2c-4.5,6-9,12-13.5,17.9
		c-1.2,1.6-1.1,3.1,0.3,4.5c2.6,2.5,4.3,6,8,7.1c0.5,0.1,1.5-1.5,2.3-2.4C694.2,318.5,695,315.7,698.4,314.5z M244.2,314.8
		c1.6-0.7,2.2,0.2,2.8,0.9c6,6.8,6,6.8,12.3,0.2c0.1-0.1,0.2-0.2,0.4-0.4c2.3-1.8,2.3-3.7,0.5-6c-4.3-5.5-8.5-11.1-12.7-16.7
		c-1.6-2.1-2.9-2.4-4.8-0.4c-3.6,3.7-7.2,7.4-11,11c-2.1,2-2,3.8-0.3,6.1c4.1,5.4,8.1,11,12.2,16.5c1,1.4,1.9,3.5,4.3,1.9
		c2.4-1.6,1.9-3.4,0.5-5.5C246.8,319.9,244.5,317.8,244.2,314.8z M102.8,325C102.8,325,102.8,325,102.8,325c0,4.7,0,9.3,0,14
		c0,1.5,0,3.4,1.9,3.7c4.3,0.6,8.6,0.7,12.9-0.1c1.6-0.3,1.7-1.9,1.7-3.2c0-9.3,1.4-18.6,1.1-27.9c-0.1-3.1-1.5-4.6-4.3-3.9
		c-4.4,1.1-10.1-3.3-13.2,3.1c-0.4,0.8-0.1,2-0.1,3C102.8,317.3,102.8,321.1,102.8,325z M794.5,230.9c-1.8-4.4-5-5-8.7-4.6
		c-2.3,0.2-4.7,0-7,0c-2.3,0-5-0.3-4.9,3.2c0.1,3.8,3.1,2.2,4.9,2.3c15.1,0.6,30.3,0.2,45.4,0.7c17.3,0.6,34.6,0.2,51.9,0.4
		c3.9,0,3.8-1.5,2.3-4.2c-0.9-1.7-2.2-2.4-4-2.4c-3,0-6,0-9,0c-2.7,0-5.5-0.3-5.7,3.7c0,0.5-0.7,1.2-1.2,1.3
		c-0.7,0.2-1.3-0.6-1.2-1.2c0.4-4.3-2.6-3.8-5.3-3.8c-2.7,0-5.3,0-8,0c-2.6,0-5.1-0.1-5.3,3.5c0,0.8-0.6,1.7-1.6,1.6
		c-0.9-0.1-1.3-1-1.5-1.8c-0.3-1.5-0.6-3.1-2.5-3.2c-4.7-0.1-10.5-1.8-13.7,0.4c-4,2.7-5.2,2.5-8.5-0.2c-1.8-1.5-5.8-0.2-8.8-0.4
		C798.7,226.1,795.5,226.1,794.5,230.9z M65.2,250.2C65.2,250.2,65.2,250.3,65.2,250.2c-12.6,0-25.3,0.1-37.9,0
		c-3,0-5.6,0.7-7.8,2.6c-0.9,0.8-2.2,1.5-1.9,2.7c0.4,1.8,2.2,1.2,3.4,1.2c27.4,0.1,54.9,0.1,82.3,0.1c2.5,0,4.9-0.1,4.8-3.5
		c0-3.7-2.8-3.1-5-3.1C90.5,250.2,77.9,250.2,65.2,250.2z M431.5,105.5c-0.7,0.4-1.5,0.8-2.1,1.3c-4.7,4.7-9.4,9.4-14.1,14
		c-1.8,1.8-1,3.2,0.4,4.7c3.9,4.1,7.8,8.2,11.6,12.4c1.6,1.8,3,1.8,4.6,0.1c4.4-4.7,8.9-9.4,13.4-14.1c1.1-1.1,2.1-2.3,0.7-3.9
		c-4.2-4.5-8.4-9-12.6-13.4C432.9,106.2,432.2,105.9,431.5,105.5z M529.1,123.1c-0.4-0.7-0.6-1.4-1-1.8c-4.9-5-9.8-9.9-14.8-14.8
		c-1.5-1.5-2.6-0.5-3.8,0.7c-3.8,4-7.5,8-11.4,11.9c-1.7,1.7-2.2,3-0.3,5c4.3,4.4,8.5,8.8,12.7,13.4c2.3,2.5,4,2.2,6.1-0.1
		c3.5-4,7.2-7.8,10.8-11.7C528.1,124.9,528.5,124,529.1,123.1z M839.2,326.8C839.2,326.8,839.2,326.8,839.2,326.8
		c0-1.8,0.1-3.7,0-5.5c-0.3-13.9,2.4-11.9-12.7-12.2c-3.8-0.1-5,1.5-4.8,5.1c0.4,8.6,0.7,17.3,1,25.9c0.1,2,0.5,3.8,2.9,3.8
		c3.5,0.1,7,0.2,10.5,0.1c2.4,0,3-1.7,3-3.8C839.2,335.8,839.2,331.3,839.2,326.8z M533.8,257.8c-0.3-0.6-0.5-1.3-0.9-1.8
		c-5.1-5.5-10.2-11-15.3-16.4c-1.3-1.4-2.6-1-3.8,0.4c-3.1,3.5-6.1,7-9.3,10.4c-2.1,2.2-2.3,4,0.1,6.3c3.6,3.5,6.8,7.3,10.3,10.9
		c6.3,6.6,5.5,6.6,11.3-0.4c1.9-2.3,4-4.5,5.9-6.8C532.6,259.6,533.1,258.7,533.8,257.8z M440.5,253.1c-0.2-0.4-0.5-0.9-1-1.4
		c-3.6-4.1-7.3-8.2-10.9-12.4c-1.8-2-2.8-0.7-4,0.5c-4.5,4.9-9,9.8-13.7,14.5c-1.8,1.9-2.3,3.5-0.4,5.6c3.2,3.6,6.4,7.2,9.5,10.9
		c1.8,2.1,3.2,1.7,4.9-0.1c4.6-5,9.4-9.9,14.1-14.9C439.7,255.1,440.5,254.5,440.5,253.1z M696,453.7c5.5,0,11,0,16.4,0
		c1.1,0,2.6,0.4,3.1-1c0.4-1-0.7-1.8-1.3-2.5c-6.4-6.8-12.8-13.5-19-20.3c-2-2.2-3.1-1.5-4.4,0.6c-4.2,6.4-8.4,12.8-12.7,19
		c-2.1,3-1.9,4.4,2.1,4.3C685.4,453.6,690.7,453.7,696,453.7z M246,452.8C246,452.8,246,452.8,246,452.8c5.5,0,11,0,16.4,0
		c3.2,0,4-1,2.1-3.8c-4.3-6.3-8.5-12.7-12.7-19.1c-1.5-2.3-2.9-3-5-0.7c-6.3,6.8-12.8,13.5-19.1,20.3c-0.5,0.6-1.2,1.5-1.1,2.1
		c0.2,1.2,1.5,1.1,2.5,1.1C234.7,452.8,240.4,452.8,246,452.8z M132,452.7c13.9,0,26.8,0.1,39.7-0.1c3.2,0,1.6-2.2,0.7-3.5
		c-4.2-6.4-8.4-12.8-12.7-19.2c-0.9-1.3-1.3-4-3.9-2.5c-2.2,1.4-2.4,3.4-0.9,5.6c1.4,2,2.8,4.2,4.1,6.3c0.5,0.8,0.4,1.7-0.4,2.2
		c-0.8,0.5-1.7,0.3-2.2-0.4c-1.4-1.9-2.6-3.8-3.9-5.8c-1.1-1.8-2.4-2.2-4-0.6C143.1,440.3,137.5,445.7,132,452.7z M60.6,290.2
		c-4.5,0-9,0-13.5,0c-8.3,0-8.4,0-8.3,8.2c0,2-1,4.9,1.4,5.8c2.7,1.1,6.2,1.5,8.6-0.6c6.7-5.7,13-5.2,19.8-0.2
		c3.3,2.4,7.6,2,11.1,0.8c3.3-1.2,1.3-5,1.8-7.6c0.1-0.5,0-1,0-1.5c0.4-3.7-1.4-5-5-4.9C71.2,290.4,65.9,290.3,60.6,290.2z
		 M884,258.1c10.3,0.3,24.2-0.6,38,0.5c1,0.1,2.1,0.4,2.7-0.8c0.5-1.1-0.3-1.9-1-2.6c-2.1-2.1-4.6-3.1-7.6-3.1
		c-25.3-0.2-50.6-0.5-75.9-0.6c-2.4,0-5.5-0.7-5.5,3.2c0,3.8,3,3.4,5.4,3.4C853.5,258.1,867,258.1,884,258.1z M810.3,453.7
		c-4.9-5.3-8.8-9.6-12.8-13.8c-5.6-6-5.6-6-10.4,0.9c-0.3,0.4-0.5,0.8-0.9,1.2c-0.8,0.9-1.7,1.8-3,1.1c-1.3-0.8-0.7-2.1-0.1-3.1
		c1.4-2.3,2.9-4.4,4.4-6.7c1.3-2,0.3-3.5-1.3-4.7c-2-1.4-2.6,0.5-3.4,1.7c-4.4,6.7-8.8,13.3-13.1,20c-1.2,1.8-2,3.5,1.3,3.5
		C783.7,453.7,796.3,453.7,810.3,453.7z M180.6,452.8c13.3,0,25.1,0,36.8,0c3.3,0,2.9-1.9,1.5-4c-4.1-6.3-8.2-12.5-12.2-18.8
		c-1.4-2.1-2.6-2.8-4.6-0.7C195.3,436.8,188.5,444.2,180.6,452.8z M761.4,453.7c-7.8-8.5-14.6-16-21.4-23.4c-1.4-1.6-2.8-1.7-4,0.2
		c-4.3,6.5-8.7,13-13,19.5c-1.7,2.5-0.7,3.7,2.1,3.7C736.7,453.7,748.3,453.7,761.4,453.7z M103,440.8c-1.9-0.3-2.2-2-3.1-3.1
		c-1-1-2-1.4-3-0.3c-4.8,4.7-9.5,9.5-15.2,15.3c13.9,0,26.5,0.1,39.1-0.1c3.4-0.1,1.8-2.5,0.9-3.9c-3.9-6.6-7.9-13.1-11.8-19.7
		c-1.5-2.7-2.8-2.1-4.6-0.3c-1.7,1.8-0.8,3.3,0,5c1.2,2.7,3.7,5,3.5,9.4c-3.4-3.4-4-7.8-7.6-10.1C100.1,436.3,103.8,438,103,440.8z
		 M832.3,444c0.9-4.8,3.1-7.7,4.7-10.8c1.2-2.3-0.2-3.5-1.7-4.5c-1.8-1.3-2.3,0.6-2.9,1.6c-4.1,6.7-8.2,13.3-12.2,20
		c-1,1.7-1.4,3.3,1.3,3.4c11.6,0.1,23.3,0.1,34.9,0c3.1,0,2.2-1.6,0.8-3.1c-2.5-2.6-5.1-5.2-7.7-7.8c-5.6-5.7-5.6-5.7-10.7-0.1
		c-0.1,0.1-0.5-0.1-0.8-0.2c0.1-2.9,3.3-4.9,2.8-8.8C837,436.4,836.5,440.9,832.3,444z M881.9,292c-5.7,0-11.3,0-17,0
		c-2.8,0-4.4,1.1-4.3,4.1c0,2.2,0,4.3,0,6.5c0,1.4,0.5,2.9,2.1,3c3.6,0.3,7.6,1.4,10.7-0.8c6.9-4.9,13.3-4.9,20.1,0.3
		c2.3,1.8,6.5,2.1,8.5,0.1c2.6-2.7,1.4-7,0.7-10.5c-0.6-3.1-3.5-2.6-5.8-2.6C891.9,291.9,886.9,292,881.9,292z M486.7,80.4
		c-0.3-0.5-0.6-1.2-1-1.6c-4.1-4.1-8.2-8.2-12.3-12.3c-1.6-1.6-3-0.7-4.3,0.6c-3.8,3.8-7.5,7.5-11.3,11.2c-1.5,1.4-1.7,2.7-0.2,4.2
		c4.1,4.1,8.1,8.3,12.2,12.4c0.8,0.9,1.9,1.7,3,0.6c4.4-4.5,8.7-9.1,13.1-13.6C486.3,81.5,486.5,81,486.7,80.4z M683.3,336.4
		c-0.2-3.1,1.5-4.6,2.7-6.4c0.9-1.5,2.7-3,0.9-4.8c-2.8-2.8-4.9-6.3-8.7-7.9c-0.3-0.1-1.3,0.9-1.8,1.5c-3.4,4.3-6.6,8.7-10,13
		c-1.2,1.6-1.3,2.9,0.2,4.3c4.1,4.1,8.1,8.3,12.2,12.5c1.1,1.1,2.3,2.2,3.7,0.3c3.6-4.8,7.2-9.6,10.8-14.4c1.4-1.9,0.2-3.1-1.1-4.2
		c-1.7-1.5-2.6-0.2-3.6,1C687,333.2,686.4,335.7,683.3,336.4z M259.6,335.3c-3.3-0.2-3.6-2.5-4.9-3.9c-1.1-1.2-1.9-3.6-4.2-1.6
		c-1.9,1.6-1.9,3.3-0.4,5.2c3.1,4.1,6.2,8.2,9.2,12.4c1.5,2,2.8,2.6,4.8,0.6c3.8-4,7.6-7.9,11.5-11.7c1.7-1.7,1.9-3.3,0.4-5.3
		c-3.2-4.2-6.4-8.5-9.7-12.7c-1-1.3-2-1.9-3.8-0.8c-6.6,4.2-7.8,8.3-4,15C258.9,333.2,259.1,334,259.6,335.3z M616.7,453
		c-2.2-4.1-4.5-5.8-8.4-5.8c-20.8,0.1-41.7,0-62.5,0c-2.4,0-5.9-1.2-6,3.1c-0.1,4.3,3.3,3.4,5.8,3.4c13,0.1,26,0.4,39-0.1
		C595,453.2,605.5,453.3,616.7,453z M84.7,382.2c0,2.3,0,4.7,0,7c0,2.3-0.1,4.7,0,7c0,1.1-0.5,3,1.9,2.5c2.3-0.5,8.9-8.6,9-11.3
		c0.3-10.1,0.4-20.2,0.8-30.4c0.1-3.8-1.5-4.9-5-4.8c-3.3,0.1-5.9,0.2-5.8,4.6C85.7,365.3,84.3,373.8,84.7,382.2z M856.4,400.4
		c1.2-2.6,0.9-4.6,0.8-6.6c-0.8-11.6-0.9-23.2-0.8-34.8c0-4.1-1.8-5.1-5.4-5.1c-3.8,0-5.4,1.2-5.3,5.2c0.2,7.6,0.8,15.3,0,22.9
		C844.8,391,850.2,395.5,856.4,400.4z M131.7,352.4c-8.3,0-16.9,0-25.5,0c-2.2,0-3.4,1.3-3.3,3.5c0.4,8.2,0.8,16.4,1.1,24.4
		C113.2,371,122.4,361.8,131.7,352.4z M179.3,309.2c-0.4-0.6-0.8-1.2-1.2-1.8c-8.9,0-17.8,0-26.6,0c-1.6,0-2.4,0.9-2.2,2.6
		c1.1,7.1,0.2,14.2,0.5,21.4c0.1,1.2-0.5,3,1,3.5c1.4,0.4,2.2-1.2,3.2-2.1c5.2-5.1,10.3-10.3,15.6-15.4
		C172.6,314.6,176,312,179.3,309.2z M680.8,226.5c2.3,4,5.7,4.6,9.5,4.7c23.1,0.2,46.2,0.5,69.3,0.7c2.8,0,5.7,0,8.5,0
		c1.7,0,3-0.5,3-2.5c0.1-2.2-1.1-3-3.1-3c-2.7,0-5.3-0.1-8,0c-2.9,0.1-6.6-1.3-7.3,3.5c-0.1,0.8-1.6,1.2-1.9,0.2
		c-1.3-5.8-5.9-3.6-9.3-3.7c-3.5-0.1-7.8-1.7-9.7,3.4c-0.3,0.9-1.4,0.5-2.1-0.2c-4.6-4.4-14-4.9-18.6-0.9c-1.1,1-1.6,1.1-2.7-0.1
		c-3.4-3.6-14.6-3.6-17.7-0.1c-1.5,1.7-2.4,1.6-3.3-0.2C685.9,225.2,683.5,226.1,680.8,226.5z M325.4,452.9c2.6,0,4.5,0,6.3,0
		c21,0,42,0.1,62.9,0.1c1.3,0,2.7,0,4,0c2,0,3.7-0.5,3.7-3c0-2.5-1.9-2.8-3.8-2.9c-1.8,0-3.7,0-5.5,0c-19.5,0-39,0.2-58.4-0.2
		C329.9,446.7,327.5,448.2,325.4,452.9z M265.8,253.3c0.8-0.6,1.5-1,2.1-1.5c6.5-6.4,13-12.9,19.5-19.3c1.3-1.3,1.4-2.5,0.3-4
		c-1.2-1.6-2.6-3-3.7-4.7c-1.8-2.7-3.5-2.4-5.6-0.3c-5.9,5.9-12,11.6-17.9,17.4c-1.2,1.2-3.4,2.4-1.7,4.5
		C261,248.1,262.7,251.2,265.8,253.3z M838.2,368c0.1,0,0.1,0,0.2,0c0-3.3,0-6.7,0-10c0-2.7-1.1-4.1-3.8-4.1c-7.2,0-14.3,0-21.4,0
		c-1.8,0-3.4,0.6-1.4,2.5c7.8,7.9,15.7,15.8,23.7,23.5c2.2,2.2,2.8,0.4,2.8-1.6C838.2,375,838.2,371.5,838.2,368z M660.8,222.6
		c-2.5,1.8-4.4,4.5-6.2,7.2c-1.4,2.2,0.8,3.3,2,4.5c5.5,5.5,11,11.1,16.6,16.5c1.4,1.4,2.5,5.1,5.8,1.7c5.4-5.7,6-7.3,2.8-10.6
		c-5.7-5.8-11.5-11.5-17.3-17.2C663.6,223.8,662.8,222.7,660.8,222.6z M487.5,69.7c1.3,0.4,2.1,0.4,2.4,0.8c3.2,4,5.8,2.3,8.3-0.9
		c0.8-1,1.8-2,2.8-2.8c1.8-1.6,1.5-3-0.1-4.6c-3.7-3.6-7.4-7.2-11-10.9c-1.7-1.8-3.2-2-5-0.1c-2.9,3-5.8,6-8.8,8.8
		c-1.9,1.8-1.9,3.2,0,4.9c3,2.8,5.8,5.9,8.9,8.8c1.5,1.4,3.1,4.6,4.9,3.3c2.6-2-1.5-3.2-2-5.1C487.9,71.4,487.8,70.9,487.5,69.7z
		 M455.5,69.8c0.5,2.3-1.1,3-1.9,4.1c-0.7,0.9-2,1.7-0.8,3c1.2,1.3,2.1,0.1,2.9-0.7c3.9-3.8,7.8-7.7,11.7-11.6
		c1.5-1.5,1.5-2.7,0-4.2c-3.1-3.2-6.2-6.5-9.2-9.8c-1.6-1.8-2.9-1.7-4.6,0c-3.6,3.7-7.2,7.3-11,10.9c-2,2-1.7,3.5,0.1,5.5
		C448.3,73.1,448.2,73.1,455.5,69.8z M338.2,181.9c-2-2.5-4-4.9-5.9-7.3c-1.5-1.9-2.9-1.7-4.5,0c-5.6,5.7-11.3,11.3-17,16.9
		c-1.8,1.7-2,3.3-0.2,5.1c1.1,1.2,2.1,2.5,3.1,3.9c1.7,2.4,3.5,2.7,5.7,0.5c5.7-5.6,11.5-11.1,17.2-16.7
		C337.2,183.6,337.5,182.9,338.2,181.9z M240.2,277.4c1.8,0,2.6-1.2,3.6-2.1c4.7-4.7,9.4-9.4,14.1-14c5.7-5.6,5.7-5.6,0.6-11.7
		c-0.2-0.2-0.5-0.5-0.6-0.8c-1.6-2.5-3.1-2.3-5.1-0.2c-5.6,5.7-11.3,11.2-16.9,16.9c-1.2,1.2-3.3,2.3-1.8,4.5
		C235.9,272.7,237.7,275.5,240.2,277.4z M765.3,309.1c8,8.4,15.5,16.3,23.1,24.3c0.8,0.8,1.6,2,2.9,1.5c1.3-0.5,1-2,1-3.1
		c0.1-6.7,0.1-13.3,0.3-20c0-1.6-0.5-2.7-2.1-2.7C782,309,773.5,309.1,765.3,309.1z M291.7,227.6c0.7-0.5,1.3-0.7,1.8-1.2
		c6.2-6.1,12.3-12.2,18.4-18.3c1.6-1.6,1.5-3.2,0.1-4.9c-1.2-1.4-2.4-2.8-3.4-4.3c-1.6-2.4-3.1-2.4-5.2-0.3
		c-5.7,5.8-11.5,11.5-17.3,17.3c-1.1,1.1-2.9,2.4-1.5,4.2C286.8,222.7,288.5,225.9,291.7,227.6z M658.8,219.4
		c-0.8-1-1.5-1.9-2.3-2.7c-5-5-10.1-10.1-15.1-15.1c-4.9-4.8-4.7-4.7-9.2,0.5c-2.8,3.2-3.2,5.5,0.3,8.5c5.1,4.5,9.7,9.6,14.6,14.2
		c1.4,1.3,2.5,4.4,5.1,2.7C655,225.6,657.1,222.7,658.8,219.4z M633.5,195.1c0-1.4-0.8-2.1-1.5-2.8c-5.7-5.6-11.4-11.3-17-17
		c-1.8-1.8-3.2-2.1-4.8,0.2c-0.9,1.2-1.8,2.4-3,3.4c-2.6,2.3-2.5,4.2,0.1,6.6c5,4.7,9.7,9.6,14.6,14.4c1.4,1.4,2.7,4.5,5,3
		C629.9,201,632.1,198.1,633.5,195.1z M84.8,325c0,4.6,0.1,9.3,0,13.9c-0.1,3.9,2.3,4.2,5.2,4.1c2.9,0,5.4-0.1,5.3-4
		c0-9.1,0-18.2,0.2-27.4c0.1-3.7-2-4.4-5.1-4.3c-3,0.1-5.8,0-5.7,4.2C84.9,316,84.9,320.5,84.8,325z M709,270.2
		c-0.3-1.8-1.5-2.7-2.5-3.8c-5.3-5.3-10.5-10.6-15.9-15.8c-1.7-1.6-3.6-4.6-5.7-0.9c-1.7,3-7.8,5.2-2.5,10.2
		c5.2,4.9,10.2,10,15.4,14.8c1.4,1.3,2.6,4.4,5,3C705.6,276.1,707.2,272.9,709,270.2z M484.8,46.8c-0.6-0.8-1-1.5-1.5-2.1
		c-10-12.6-11.4-12.6-22.4-1.2c-0.2,0.2-0.5,0.5-0.7,0.7c-2,1.6-1.9,3.1,0,4.9c2.9,2.7,5.8,5.5,8.5,8.5c2.3,2.5,4,2.1,6.2-0.2
		c2.5-2.7,5.2-5.2,7.8-7.8C483.4,48.7,484,47.7,484.8,46.8z M524.8,86.4c-0.7-0.9-1.2-1.7-1.9-2.4c-4.9-5-9.9-9.8-14.8-14.8
		c-1.8-1.8-3.3-2-5,0c-1.2,1.4-2.5,2.7-3.8,3.9c-2.5,2.2-2.2,3.9,0.1,6.1c4.4,4.1,8.5,8.4,12.8,12.6c1.3,1.3,2.6,3.8,4.8,2.5
		C520.1,92.4,522.5,89.5,524.8,86.4z M362.3,158.3c1-0.8,1.9-1.5,2.7-2.2c3.6-3.4,7.3-6.8,10.9-10.3c8.2-8.2,7.3-5.6,0.5-13.7
		c-2.2-2.6-3.5-2-5.5,0c-4.6,4.8-9.5,9.4-14.1,14.1c-1.2,1.2-3.5,2.4-1.8,4.5C357.2,153.4,359,156.5,362.3,158.3z M568.8,130.9
		c-2.2,1-3.5,3.3-5.3,4.9c-2.5,2.2-2.5,4.2,0,6.6c4.9,4.5,9.5,9.2,14.1,14c2.3,2.4,4.1,2.3,6.1-0.2c1-1.3,2.2-2.5,3.4-3.6
		c2.2-2,1.7-3.5-0.3-5.4c-5.1-4.8-10-9.7-15.1-14.5C571,132,570.3,131,568.8,130.9z M446.1,76.3c-1-3.2-3.9-4.6-5.6-7
		c-1.8-2.6-3.3-2.6-5.5-0.3c-4.1,4.3-8.2,8.7-12.8,12.6c-3.7,3.2-3.7,5.8,0,8.7c0.8,0.6,1.5,1.4,2.1,2.1c1.9,2.2,3.6,2.5,5.8,0.2
		c4.6-4.8,9.5-9.4,14.2-14C445,78,445.5,77.1,446.1,76.3z M403.9,117.6c-1-1.2-1.9-2.4-2.9-3.5c-6.8-7.1-5.1-6.5-11.5-0.4
		c-2.9,2.8-5.7,5.6-8.5,8.4c-5,5-5,5-0.2,10.2c0.6,0.6,1.2,1.2,1.7,1.8c1.8,2.4,3.4,1.9,5.2,0c4.5-4.6,9.2-9.1,13.8-13.7
		C402.3,119.7,403,118.8,403.9,117.6z M359,161.4c-0.6-2.5-2.7-3.6-3.8-5.4c-2.7-4.4-5.3-3.9-8.4-0.3c-2.6,3-5.6,5.7-8.5,8.5
		c-6.8,6.7-6.7,6.6,0.1,13.5c1.9,1.9,3.1,2,4.9,0.1c4.7-4.7,9.4-9.4,14.1-14.1C358.1,163,358.5,162,359,161.4z M602.2,179.6
		c2.5-0.8,3.5-3.1,5.2-4.6c3-2.7,2.9-4.9-0.2-7.7c-4.5-4-8.6-8.4-12.8-12.7c-1.8-1.8-3.2-2.1-4.9,0c-1,1.3-2.2,2.5-3.4,3.7
		c-2.5,2.4-2.3,4.4,0.3,6.7c4.6,4.1,8.9,8.5,13.4,12.7C600.4,178.4,601.3,179,602.2,179.6z M856.5,327
		C856.5,327,856.5,327,856.5,327c0-4.8,0.1-9.7,0-14.5c0-3.4-2.5-3.4-5-3.4c-2.4,0-5,0-5,3.3c0,9.5-0.1,19,0.2,28.4
		c0.1,4.4,4.1,3,6.6,3.4c3,0.5,3.1-1.8,3.1-3.9C856.5,336,856.5,331.5,856.5,327z M423.9,97.3c-1.2-2.5-3.6-4.4-5.5-6.6
		c-2-2.4-3.7-2.1-5.7,0c-3.1,3.3-6.4,6.3-9.5,9.5c-6.4,6.5-6.8,4.6,0.2,12.1c2.1,2.2,3.8,2.8,6.2,0.3c4.1-4.2,8.4-8.1,12.6-12.1
		C423,99.7,423.9,99,423.9,97.3z M547.5,109.7c-2.8,1.1-4.2,3.9-6.2,6c-1.6,1.6-1.4,3.2,0.2,4.7c4.8,4.8,9.7,9.5,14.5,14.4
		c1.7,1.7,3.1,1.5,4.6-0.2c1-1.1,2-2.3,3.1-3.2c2.8-2.3,2.8-4.4,0-6.9c-4.4-4-8.5-8.4-12.7-12.6C550,111,549.1,109.9,547.5,109.7z
		 M546.1,108.2c-0.5-0.5-1-1-1.5-1.5c0-1.3-1-2-1.8-2.9c-3-3.1-6.1-6.1-9.2-9.2c-6.5-6.4-6.4-6.4-12.5,0.3c-2,2.1-2.3,3.5,0.1,5.7
		c4,3.5,7.6,7.5,11.5,11.1c1.4,1.3,2.5,4.1,4.6,3C540.5,113,543.2,110.4,546.1,108.2z M138.2,347.3c-1.2-1.5-2.6-1-3.9-1
		c-30.1,0-60.3,0-90.4,0c-1,0-2,0-3,0.1c-0.9,0.1-1.7,0.5-1.8,1.4c-0.1,1.3,0.9,1.7,1.9,1.8c1.3,0.1,2.7,0.1,4,0.1
		c16.1-0.2,32.3-0.5,48.4-0.7c13-0.1,26-0.1,38.9-0.2C134.5,348.9,136.8,349.5,138.2,347.3z M81.6,325.2
		C81.6,325.2,81.6,325.2,81.6,325.2c-0.1-4.3-0.2-8.7,0-13c0.2-4.2-1.9-5-5.5-5c-4.2,0-4.5,2.3-4.2,5.5c0.6,8.6,1.3,17.2,1.7,25.8
		c0.1,2.7,0.8,4.5,3.9,4.5c3,0,4.1-1.5,4.1-4.4C81.6,334.2,81.6,329.7,81.6,325.2z M66.1,247.1c13.2-0.1,13.1-0.1,16.2-8.4
		c1.1-3.1,0.5-4.4-2.8-4.3c-5.1,0.1-10.3,0.1-15.4,0c-2.4,0-4.1,0.8-5.2,3.1c-1.1,2.2-2.3,4.4-3.5,6.6c-1.3,2.2-0.5,3.1,1.8,3.1
		C60.2,247.1,63.1,247.1,66.1,247.1z M876.2,248.7C876.2,248.7,876.2,248.7,876.2,248.7c1.5,0,3,0,4.5,0c7.7,0,7.7,0,4.2-6.6
		c-1.3-2.3-1.6-5.7-5.4-5.8c-5.8-0.1-11.6,0-17.4-0.1c-2,0-3,0.6-2.4,3c2,7.6,4.1,9.4,12,9.4C873.2,248.7,874.7,248.7,876.2,248.7z
		 M860.5,327.2C860.5,327.2,860.5,327.2,860.5,327.2c-0.1,4.2,0,8.3-0.1,12.5c0,2.5-0.6,5.1,3.4,5.1c3.6,0,4.4-1.7,4.6-4.9
		c0.3-8.6,0.8-17.2,1.4-25.8c0.2-2.8,0.3-4.9-3.5-4.8c-3.3,0-6,0.2-5.8,4.6C860.7,318.2,860.5,322.7,860.5,327.2z M471.1,453
		C471.1,453,471.1,453,471.1,453c5.8,0.1,11.6,0.1,17.4,0c2.2,0,4.5,0.2,4.7-3c0.2-3.3-2-3.7-4.6-3.7c-11.8,0-23.5,0-35.3,0
		c-2.3,0-4.4,0.3-4.5,3.3c-0.1,3.1,2,3.4,4.3,3.4C459.2,453,465.1,453,471.1,453z M857.2,277.1C857.2,277.1,857.3,277.1,857.2,277.1
		c0-2.7-0.1-5.3,0.1-8c0.2-4.2-2.7-3.9-5.4-3.8c-2.6,0.1-6.1-1-6,3.6c0,5.3,0,10.6,0.1,15.9c0,1.8,0.5,3.1,2.6,3.7
		c6.2,1.6,8.7-0.2,8.8-6.5C857.3,280.5,857.2,278.8,857.2,277.1z M38.8,325.1C38.8,325.1,38.7,325.1,38.8,325.1
		c-0.1,4.6-0.1,9.3,0,13.9c0,2.1-0.3,4.6,3,4.7c3.4,0.1,3.6-2.2,3.7-4.7c0.4-9.1,0.6-18.2,1.2-27.3c0.2-2.8-0.1-4.4-3.5-4.5
		c-3.3,0-4.4,1.3-4.3,4.4C38.9,316.2,38.8,320.7,38.8,325.1z M425.5,453C425.5,453,425.5,453,425.5,453c5.2,0,10.3,0,15.5,0
		c2.3,0,4.4-0.3,4.3-3.4c-0.1-2.7-1.9-3.2-4.1-3.2c-10.3,0-20.6,0-31,0c-2.4,0-4.4,0.5-4.3,3.5c0,3.2,2.4,3.1,4.6,3.1
		C415.5,453,420.5,453,425.5,453z M903.3,327.5C903.2,327.5,903.2,327.5,903.3,327.5c0-5-0.1-10,0-14.9c0-3.1-1.9-3.4-4.3-3.3
		c-1.9,0.1-3.7,0-3.5,2.8c0.5,9.6,0.9,19.2,1.3,28.8c0.1,2.2,0.6,3.9,3.3,4c3.2,0,3.2-2.1,3.3-4.4
		C903.3,336.2,903.3,331.8,903.3,327.5z M84.8,275.1C84.8,275.1,84.8,275.1,84.8,275.1c0,2.3,0.2,4.7,0,7c-0.3,4.1,1.8,5.2,5.4,5
		c3.4-0.1,6.4,0,6.2-4.8c-0.2-4.3-0.2-8.6,0.1-13c0.2-4-1.4-5.2-5.2-5.2c-6.1,0.1-6.4,0.2-6.4,6.5C84.8,272.1,84.8,273.6,84.8,275.1
		z M803.6,347.7c1.9,2.9,4.3,2.4,6.3,2.4c29,0.3,58,0.5,87,0.7c1.9,0,5.3,1.4,5.4-1.4c0.1-2-3.3-1.1-5.2-1.1
		c-23.7-0.1-47.3-0.1-71-0.3C818.8,347.9,811.5,346.8,803.6,347.7z M924.9,263c0-0.5-0.1-1-0.1-1.5c-69,0-137.9,0-206.8,0
		C787,262.1,856,262,924.9,263z M516.7,447.2c0,0,0-0.1,0-0.2c-5.2,0-10.3,0-15.5,0c-2,0-4.2,0-4.3,2.9c-0.1,2.8,1.9,3.1,4,3.3
		c10.5,1.2,21,0.4,31.4,0.5c2.3,0,3.9-0.8,3.9-3.4c0-2.8-1.9-3.2-4-3.2C527,447.2,521.8,447.2,516.7,447.2z M298.8,418.3
		c2.5-0.2,5.2-5.2,3.7-7.4c-4.9-6.9-10.1-13.6-15.1-20.4c-1.6-2.1-2.9-1.5-4.4,0.2c-1.6,2-2.5,3.8-0.8,6.2
		c4.8,6.6,9.5,13.2,14.3,19.8C297,417.5,297.6,418.4,298.8,418.3z M661.6,395c-0.3-2.2-2-3.2-3.2-4.5c-1.1-1-2.2-0.7-3,0.3
		c-5.3,7-10.7,13.9-15.8,21.1c-2.1,2.9,1.1,4.5,2.7,6.1c2.3,2.2,3.1-0.5,4.1-1.7c4.7-6.2,9.2-12.6,13.7-18.9
		C660.7,396.7,661.1,395.8,661.6,395z M91.7,247C91.7,246.9,91.7,246.9,91.7,247c1.7,0,3.3-0.1,5,0c3.8,0.3,5.3-1.6,5.6-5.2
		c0.6-6.8,0.1-7.4-6.8-7.4c-1.8,0-3.6,0.1-5.5,0c-2.3,0-3.6,1-4.6,3c-4.6,9.1-4.4,9.6,5.8,9.6C91.4,247,91.6,247,91.7,247z
		 M225.1,260.6c0-0.2-0.1-0.5-0.1-0.8c-69.3,0-138.6,0-207.9,0c0,0.2,0,0.5,0,0.8C86.5,260.6,155.8,260.6,225.1,260.6z M266,363.1
		c-2.6,0.2-4.4,5-2.7,7.5c3.9,5.6,7.9,11.2,11.9,16.7c1,1.4,1.9,4.2,4.5,2c2.1-1.8,4.5-3.5,1.8-6.9c-4.5-5.6-8.6-11.5-12.9-17.2
		C267.9,364.3,267.4,363.2,266,363.1z M664.3,390.9c0.3-0.2,0.8-0.4,1-0.8c5-6.8,10.1-13.6,14.8-20.6c1.5-2.2-1.4-3.3-2.6-4.7
		c-0.9-1-2.1-1.1-3,0.1c-4.8,6.5-9.7,13-14.3,19.7C659,386.4,662.2,391.1,664.3,390.9z M850.7,248.1c10.2,0,10.6-0.7,6.2-9
		c-1.5-2.9-14.2-4.4-16.3-2c-0.3,0.4-0.4,0.9-0.6,1.3c-1.7,5.7,1.3,9.6,7.2,9.6C848.3,248.1,849.5,248.1,850.7,248.1z M226.2,309.6
		c-2.9,0.3-4.4,4.1-2.5,6.8c4,5.5,8,11,12.1,16.4c1.1,1.4,1.7,4.7,4.8,2.4c2.4-1.8,3.4-3.8,1.2-6.7c-4.4-5.6-8.5-11.4-12.8-17.1
		C228.3,310.5,227.6,309.5,226.2,309.6z M720.2,314.7c-0.5-2-1.8-3.4-3.3-4.3c-1.7-1-2.3,0.7-3,1.7c-4.4,5.8-8.7,11.8-13.2,17.5
		c-2,2.5-1.2,4.2,0.9,5.9c2.4,2,3.5,0.3,4.8-1.4c4.1-5.6,8.3-11.3,12.4-16.9C719.3,316.5,719.7,315.6,720.2,314.7z M760.7,251.2
		c0,0,0-0.1,0-0.1c-3.7,0-7.3,0-11,0c-2.3,0-3.9,0.6-3.9,3.4c0,2.6,1.3,3.6,3.7,3.6c7.3,0,14.7,0,22,0c2.4,0,3.7-1.1,3.7-3.6
		c0-2.8-1.8-3.2-4-3.2C767.7,251.2,764.2,251.2,760.7,251.2z M256,366.9c-0.4-0.5-0.9-1.4-1.6-2c-1.2-0.8-2.2-0.1-3.1,0.8
		c-6.9,7-13.8,14-20.7,21c-1.9,1.9-1.1,3.6,0.3,5.2c1.9,2.2,3,0,3.9-1c6.6-6.8,13.1-13.7,19.6-20.6
		C255.3,369.5,256.2,368.7,256,366.9z M181.7,257C181.7,257,181.7,257,181.7,257c3.8,0,7.7,0.1,11.5,0c3.1,0,3.2-2.4,3.3-4.6
		c0.1-2.6-1.8-2.4-3.4-2.4c-7.3,0-14.6,0-22,0.1c-2.1,0-4.2,0.1-4.1,3.1c0.1,2.7,1.7,3.8,4.2,3.8C174.7,257,178.2,257,181.7,257z
		 M137.6,256.9C137.6,256.9,137.6,256.9,137.6,256.9c3.5,0.1,7,0.1,10.5,0.1c1.8,0,4,0.1,3.9-2.6c0-2.4-1-4.2-3.8-4.2
		c-7.3,0-14.6,0-21.9,0c-2.2,0-3.5,0.8-3.4,3.2c0,2.2,1,3.4,3.3,3.4C129.9,256.9,133.8,256.9,137.6,256.9z M804.5,258
		C804.5,258,804.5,258,804.5,258c3.8,0,7.6,0,11.5-0.1c2.3,0,3.2-1.3,3.3-3.5c0-2.1-0.9-3.1-2.9-3.1c-7.6,0-15.3,0-22.9,0
		c-2.5,0-2.7,2-2.9,3.9c-0.2,2.4,1.2,2.8,3.1,2.8C797.2,258,800.9,258,804.5,258z M154.9,422.7c-0.3-0.5-0.6-1.3-1-2
		c-4.6-7.1-9.2-14.2-13.8-21.3c-0.9-1.3-1.6-3.3-3.7-1.4c-1.6,1.4-2.8,2.8-1.2,5.1c4.8,7.1,9.5,14.3,14.3,21.5
		c0.7,1.1,1.5,2.4,3.2,1.4C153.7,425.3,154.7,424.4,154.9,422.7z M689.4,365c-1.4,0.1-2,1-2.5,1.8c-1.1,1.6-0.1,2.8,0.9,3.9
		c6.5,6.9,13,13.7,19.5,20.6c1.1,1.1,2.2,2.9,4.1,1c1.8-1.8,1.3-3.4-0.3-5.1c-6.6-6.8-13.1-13.7-19.6-20.5
		C690.8,366.1,690,365.5,689.4,365z M427.4,404.8C427.4,404.8,427.4,404.8,427.4,404.8c5,0,10,0.1,15,0c1.5,0,3.3,0.2,3.5-1.9
		c0.2-2.3-1.7-2.6-3.4-2.6c-10.3-0.1-20.6-0.1-31-0.1c-1.7,0-3.6,0.1-3.4,2.5c0.1,2.1,1.9,2.1,3.4,2.1
		C416.8,404.8,422.1,404.8,427.4,404.8z M790.6,427.4c0.5-0.3,1-0.4,1.3-0.8c5.3-7.8,10.5-15.7,15.7-23.6c1-1.6-0.5-2.8-1.6-3.7
		c-1.3-1.2-2.5-0.6-3.3,0.7c-4.9,7.5-9.9,14.9-14.6,22.5C786.4,425.2,788.5,426.4,790.6,427.4z M515.4,400.3
		C515.4,400.3,515.4,400.3,515.4,400.3c-5,0-9.9,0-14.9,0.1c-1.6,0-3.6,0-3.5,2.4c0.1,2,1.8,2.1,3.3,2.1c10.1,0,20.2,0,30.3,0
		c1.7,0,3.7,0,3.5-2.4c-0.1-2.3-2.2-2.1-3.8-2.1C525.3,400.2,520.3,400.3,515.4,400.3z M285.8,336.5c0.5-0.3,1.2-0.6,1.6-1.1
		c6.5-6.8,13-13.7,19.5-20.5c1.1-1.1,1.2-2.3,0-3.5c-1.5-1.5-2.7-0.5-3.8,0.6c-5,5.1-10,10.2-15,15.3c-1.6,1.7-3.3,3.4-4.5,5.3
		C282.3,334.7,283.6,335.9,285.8,336.5z M57.2,436.5c0.8-0.6,1.7-1.2,2.5-2c10.3-10.1,20.7-20.2,31-30.3c1-1,3.4-2.3,1.6-4
		c-1.7-1.6-2.9,0.8-3.9,1.8c-10.2,10-20.3,20.1-30.5,30.1c-0.7,0.7-1.4,1.4-2,2.2C55.2,435.5,55.5,436.3,57.2,436.5z M850.8,401
		c-0.5,0.3-1.1,0.4-1.2,0.7c-0.7,1.6,0.5,2.5,1.4,3.4c10.4,10.5,20.9,20.9,31.4,31.3c0.9,0.9,2,2.9,3.6,1.3c1.6-1.5-0.2-2.7-1.2-3.7
		c-10.7-10.5-21.3-20.9-32-31.4C852.2,402.2,851.6,401.7,850.8,401z M258.7,352.4c-0.5-0.9-0.9-1.9-1.6-2.9
		c-2.8-3.9-5.6-7.8-8.5-11.6c-1-1.3-1.9-4.2-4.5-1.7c-1.8,1.7-3.9,3.3-1.5,6.2c3.2,4,6.1,8.3,9.2,12.4c0.8,1.1,1.5,3.1,3.4,1.9
		C256.7,355.8,258,354.5,258.7,352.4z M659.7,334.5c-0.3-0.5-0.5-1.2-0.9-1.6c-6.7-7-13.3-14-20-21c-0.9-0.9-1.9-1.4-3-0.2
		c-1,1.2-1.2,2.5-0.2,3.6c6.6,7,13.2,14.1,19.9,21C657.5,338.4,658.7,336.4,659.7,334.5z M223,257.7c4.6,0.8,9-0.7,12.4-5.1
		c1.1-1.4,1.2-2.5-0.9-2.6c-5.8-0.3-11.6-0.5-17.4-0.6c-2.5-0.1-3.4,1.6-3.4,3.9c0,2.5,0.6,4.3,3.5,4.4
		C218.9,257.7,220.5,257.7,223,257.7z M84.8,297.7c0.6,2-1.5,5.7,2.4,6.8c2.4,0.7,6,1.5,7.5-0.8c2.2-3.3,2.2-7.7,1.1-11.5
		c-0.8-2.9-3.9-1.7-6.1-1.9C84.1,289.8,84.8,293.8,84.8,297.7z M700.8,341.4c-0.2-2.4-1.6-3.3-2.9-4.3c-1.1-0.9-2.2-0.6-3,0.5
		c-3.5,4.6-7,9.2-10.3,14c-1.8,2.7,0.6,4.3,2.3,5.8c2.2,1.8,2.8-0.6,3.7-1.8c2.5-3.3,4.9-6.7,7.3-10
		C698.9,344.1,699.9,342.6,700.8,341.4z M334.1,286c-0.6-0.8-1-1.6-1.7-2c-1.5-0.9-2.5,0.3-3.4,1.2c-6.2,6.5-12.4,13-18.6,19.5
		c-1.5,1.6-2,3.3-0.2,4.8c1.8,1.5,2.7-0.5,3.6-1.5c6.2-6.5,12.4-13,18.6-19.5C333,287.8,333.5,286.9,334.1,286z M611.6,284
		c-1.3,0.1-1.9,0.7-2.3,1.4c-0.8,1.5,0.1,2.5,1,3.5c6.2,6.5,12.3,13.1,18.5,19.6c1.1,1.1,2.2,2.9,4.1,1c1.6-1.7,0.5-3-0.7-4.3
		c-6.2-6.5-12.4-13-18.6-19.5C612.9,285,612.1,284.5,611.6,284z M424.8,281.5c-0.6-0.8-1-1.5-1.6-2c-1-0.8-1.8-0.2-2.5,0.6
		c-6.8,7.3-13.6,14.6-20.5,21.9c-1.2,1.3-2,2.9-0.5,4.4c2,1.9,3-0.3,4-1.4c6.5-6.9,12.8-14,19.2-21
		C423.6,283.3,424.1,282.4,424.8,281.5z M543.8,304.3c-0.2-0.4-0.4-1.1-0.8-1.6c-6.9-7.4-13.8-14.8-20.7-22.2
		c-0.9-0.9-2-1.4-3.1-0.4c-1.6,1.5-0.5,2.8,0.5,3.9c6.7,7.4,13.4,14.7,20.1,22.1c0.7,0.8,1.4,1.5,2.5,0.9
		C543.3,306.5,543.7,305.6,543.8,304.3z M651.6,235c-1.3,0-1.9,0.6-2.2,1.4c-0.6,1.4,0.4,2.2,1.2,3c6.3,6.4,12.7,12.7,19,19
		c1,1,2,2.6,3.7,0.9c1.6-1.6,0.6-3.1-0.7-4.3c-6.4-6.3-12.9-12.5-19.3-18.7C652.8,235.7,652.1,235.3,651.6,235z M245.9,284.2
		c0.3-0.1,0.7-0.2,0.9-0.4c6.8-6.8,13.6-13.5,20.4-20.4c1-1,0.5-2.2-0.4-3.1c-1.1-1.1-2.1-0.6-3,0.2c-6.5,6.4-13,12.8-19.4,19.2
		c-0.9,0.9-1.2,2-0.3,3.1C244.4,283.6,244.9,284.3,245.9,284.2z M677.3,260.4c-0.7,0.7-1.5,1.1-1.9,1.7c-0.8,1.5,0.3,2.5,1.3,3.4
		c5.8,5.9,11.7,11.8,17.5,17.6c1,1,2.1,3.2,4,1.2c1.8-1.8,0.6-3.3-0.8-4.7c-5.9-5.8-11.7-11.7-17.6-17.5
		C679.2,261.5,678.3,261,677.3,260.4z M705.9,250.7c3.8,6.4,15.2,10,20.9,6.9c1.4-0.8,1.5-2,1.5-3.4c0-1.7-0.8-3-2.5-3.1
		C719.2,250.6,712.6,249.8,705.9,250.7z M270.7,259.3c0.5-0.2,1-0.3,1.4-0.6c7-6.9,13.9-13.8,20.9-20.8c0.8-0.8,0.9-1.8,0.1-2.6
		c-1-1.1-2.2-0.8-3.1,0c-6.9,6.5-13.7,13.1-20.5,19.8C267.5,256.9,268.8,258.3,270.7,259.3z M856.6,298.7c0.2-7.3-0.7-8.3-6.8-7.3
		c-5.6,0.9-3.1,5.4-3.3,8.3c-0.3,5.6,1.8,7.1,7.2,5.9C858.3,304.7,855.9,300.9,856.6,298.7z M337.1,283.1c0.7-0.5,1.2-0.9,1.6-1.4
		c5.9-6.1,11.7-12.2,17.5-18.3c1.1-1.2,1.9-2.4,0.6-3.9c-1-1.1-2.1-1.1-3-0.1c-6.2,6.5-12.3,13-18.5,19.5c-0.9,1-0.8,2.2,0.1,3.2
		C335.9,282.5,336.6,282.8,337.1,283.1z M586.5,258.2c-0.3,0.7-0.5,1.4-0.8,2c-0.8,1.5,0,2.5,1,3.5c5.3,5.7,10.7,11.4,16.1,17
		c1.1,1.1,2.2,3.7,4.3,1.8c2.2-2,0.1-3.7-1.2-5c-5.3-5.7-10.8-11.3-16.2-16.8C589,259.9,588.1,259.4,586.5,258.2z M407.6,441.6
		c-0.2,0.4-0.4,0.9-0.5,1.3c0.4,0.2,0.9,0.7,1.3,0.7c11.4,0.1,22.9,0.1,34.3,0.2c1,0,2.1-0.3,2-1.6c0-1.2-1.1-1.6-2.1-1.7
		C430.9,439.7,419.3,440.6,407.6,441.6z M813.7,305.4c1.6,5.7,1.1,11.4,1.6,17c0.5,5.6,0.1,11.3,0.2,17c0,1.6-0.4,3.9,1.8,4
		c2.5,0.1,1.9-2.3,1.9-3.8c-0.2-8.7-0.4-17.3-0.7-25.9C818.4,310,816.4,307.5,813.7,305.4z M140.5,279.8c-0.2-1.7-0.3-3.8-0.8-5.9
		c-0.4-1.8-1.6-3.5-3.7-3.4c-1.9,0-2.7,1.7-3.3,3.3c-1.2,2.9-0.6,5.9-0.8,8.8c-0.3,3.7,1.8,4.5,4.9,4.3
		C141.6,286.7,140,283,140.5,279.8z M810.5,279.7c-0.2-1.6-0.3-3.8-0.7-5.9c-0.3-1.6-1.4-2.7-3.2-2.4c-2.8,0.5-3.9,2.4-4.1,4.9
		c-0.2,3.8-2.4,7.8,0.9,11.3c0.4,0.4,1.2,0.4,1.9,0.4C811.9,288.7,809.8,283.6,810.5,279.7z M626.2,210.6c-0.3,0.3-1,0.6-1.3,1.1
		c-0.8,1.4,0.3,2.2,1.1,3c5.8,5.9,11.7,11.8,17.6,17.6c1,1,2.2,3.2,4,1.2c1.5-1.7-0.1-3.1-1.3-4.2c-5.6-5.6-11.3-11.2-16.9-16.8
		C628.5,211.6,627.7,210.7,626.2,210.6z M296.5,233.5c0.6-0.2,0.9-0.3,1.2-0.5c6.7-6.7,13.4-13.3,20-20c0.8-0.8,0.4-1.9-0.4-2.7
		c-0.7-0.7-1.6-0.5-2.2,0.1c-6.6,6.5-13.2,13-19.8,19.5c-0.8,0.8-1,1.8-0.2,2.6C295.5,233.1,296.1,233.3,296.5,233.5z M515.5,443.8
		c5.7,0,11.3,0,16.9,0c0.9,0,2.2,0,2-1.5c-0.1-1-1.2-1-2-1c-5.6-0.2-11.3-0.4-16.9-0.9c-4.8-0.4-9.6-0.1-14.4,0
		c-1.4,0-3.6,0.1-3.6,1.9c-0.1,2.2,2.2,1.5,3.5,1.5C505.9,443.9,510.7,443.8,515.5,443.8z M601,186.1c0,0-0.4,0.6-0.6,1.2
		c-0.6,1.4,0.4,2.2,1.2,3c5.6,5.6,11.2,11.3,16.9,16.8c1,1,2.1,3.3,4,1.4c1.6-1.7,0-3-1.2-4.2c-5.6-5.6-11.2-11.2-16.9-16.8
		C603.6,186.9,603,186.1,601,186.1z M282.2,340c-0.8-1.8-1.4-4.4-3.7-2.2c-4.7,4.4-9.1,9.1-13.6,13.8c-1.4,1.4-0.5,2.8,0.6,3.9
		c1,1.1,2.1,0.9,3-0.1c4.2-4.4,8.5-8.9,12.6-13.3C281.6,341.6,281.8,340.7,282.2,340z M793.5,344c-0.5,0.2-1.1,0.3-1.3,0.7
		c-0.8,1.5,0.3,2.5,1.2,3.5c6.8,6.8,13.6,13.7,20.5,20.4c1,1,2,3.6,3.8,1.6c1.4-1.5-0.7-3-1.8-4.1c-6.7-6.7-13.5-13.4-20.2-20.1
		C795.1,345.4,794.3,344.7,793.5,344z M847.1,397.5c-0.9-1-1.7-2.1-2.6-3c-6.2-6.2-12.4-12.5-18.8-18.6c-1.4-1.3-2.9-5-5.1-2.8
		c-1.9,1.8,1.4,3.5,2.8,5c5.4,5.6,11,11.1,16.6,16.5c1.4,1.4,3,2.7,4.5,3.9c0.4,0.3,1.2,0.4,1.8,0.3
		C846.6,398.8,846.8,398.1,847.1,397.5z M678.1,354.2c-0.3-0.7-0.4-1.2-0.7-1.5c-4-5.2-8.7-9.5-13.3-14.1c-1-1-2.1-0.8-3,0.3
		c-1.1,1.3-1.3,2.6,0,4c4.3,4.4,8.5,8.8,12.8,13.2c0.7,0.7,1.6,1.4,2.6,0.5C677.2,355.8,677.6,354.9,678.1,354.2z M884.6,281.5
		c0-2.6,0.2-5-0.7-7.2c-0.7-1.7-1.7-2.9-3.8-1.9c-3.2,1.5-5,13.2-2.3,15.5c0.6,0.5,1.5,0.7,2.3,0.7
		C886.3,289,883.8,284.1,884.6,281.5z M517,275.8c-0.2-0.4-0.4-1-0.8-1.5c-5.1-5.6-10.2-11.3-15.4-16.9c-0.8-0.9-1.7-0.9-2.6-0.1
		c-1.1,1-0.8,2.1,0,3.1c5.1,5.7,10.2,11.3,15.3,16.9c0.6,0.6,1.3,1.1,2.2,0.8C516.6,277.8,517,277,517,275.8z M321.5,208.6
		c0.6-0.2,1-0.3,1.2-0.5c6.6-6.5,13.1-13.1,19.7-19.6c0.6-0.6,0.4-1.6-0.4-2.2c-0.8-0.6-1.6-0.4-2.2,0.2
		c-6.5,6.2-12.9,12.4-19.3,18.6c-0.8,0.8-1.1,1.7-0.3,2.6C320.5,208.1,321.1,208.3,321.5,208.6z M65.4,280.5c0-2.8,0.3-5.3-1.1-7.5
		c-0.7-1.2-1.8-2.6-3-2c-3,1.5-3.7,4.6-3.5,7.6c0.2,2.8-1.8,6.5,2.2,8.3c0.4,0.2,1,0.2,1.5,0.2C66.8,287,64.9,282.9,65.4,280.5z
		 M427.3,278.3c0.6-0.3,1.1-0.5,1.4-0.8c5.3-5.7,10.5-11.4,15.8-17.2c0.9-1,0.7-2.2-0.4-3c-1-0.8-1.9-0.2-2.6,0.5
		c-5.2,5.5-10.4,11.1-15.6,16.7c-0.7,0.8-0.9,1.8-0.1,2.7C426.2,277.7,426.8,278,427.3,278.3z M125.5,369.2c0.5-0.3,1-0.6,1.3-0.9
		c7.5-7.3,15.1-14.6,22.6-21.9c0.8-0.8,1.9-1.9,0.8-3c-1.5-1.4-2.4,0.3-3.2,1.1c-4.4,4.3-8.8,8.7-13.1,13c-2.9,2.9-5.9,5.9-8.8,8.8
		c-0.6,0.6-1.2,1.3-0.7,2.2C124.5,368.8,125.1,369,125.5,369.2z M766.6,317.9c-0.5,0.3-1.1,0.4-1.2,0.7c-0.6,1.4,0.6,2.2,1.3,2.9
		c6.6,6.6,13.2,13.2,19.8,19.7c0.9,0.9,2,3,3.6,1.3c1.5-1.6-0.5-2.7-1.5-3.6c-6.6-6.5-13.3-13-20-19.4
		C768,318.9,767.3,318.4,766.6,317.9z M599,183.4c-0.2-0.5-0.2-0.9-0.4-1.2c-5.3-5.7-10.6-11.4-16.7-16.3c-0.7-0.6-1.6-0.6-2.2,0.1
		c-0.9,1-0.4,1.9,0.3,2.6c5.2,5.3,10.5,10.6,15.8,15.8c0.6,0.6,1.4,1.1,2.2,0.4C598.6,184.5,598.8,183.8,599,183.4z M454.9,42.4
		c3.4-0.3,5-2.6,6.9-4.5c10.6-10.5,8.9-10.4,19.5,0.1c2,2,3.8,4.5,6.9,5.3c-4.5-5.7-9.4-10.8-14.3-16c-1-1-2.1-1.9-3.4-0.6
		C465.3,31.9,460.1,37.1,454.9,42.4z M96.7,397.5c0.6-0.4,1.2-0.7,1.7-1.1c7.6-7.5,15.1-15,22.7-22.5c0.7-0.7,1.5-1.7,0.4-2.6
		c-1-0.8-1.8,0.2-2.5,0.8c-3.2,3.1-6.4,6.3-9.6,9.5c-4.3,4.2-8.6,8.4-12.9,12.5c-0.7,0.7-1.6,1.4-1,2.5
		C95.6,397.1,96.2,397.2,96.7,397.5z M879.4,338.2c-0.6-2.6,1.3-6.7-3.5-6.7c-5.2,0.1-3.7,4.5-4,7.5c-0.2,2.7-0.8,5.9,3.7,5.8
		C880.7,344.6,878.8,340.8,879.4,338.2z M762.3,280.9c0-1.3,0.1-2.7,0-4c-0.2-1.8-0.1-4.1-2.5-4.2c-2.3-0.1-3.6,1.7-3.8,3.9
		c-0.2,2.8-0.2,5.6-0.1,8.4c0,2,1.2,2.9,3.2,2.9c2,0,3.1-1,3.2-3C762.4,283.5,762.3,282.2,762.3,280.9z M558.7,143
		c-1.1-0.1-1.7,0.2-1.9,0.9c-0.5,1.2,0.4,1.9,1.1,2.6c5.3,5.3,10.6,10.6,15.9,15.9c0.9,0.9,1.8,2.5,3.3,1.2c1.7-1.6-0.1-2.7-1.1-3.7
		c-5-5.1-10.1-10.1-15.2-15.2C560,144,559.2,143.4,558.7,143z M691,242.7c-0.5,0.4-1,0.5-1.2,0.9c-0.7,1.4,0.4,2.2,1.2,3
		c6,5.9,12.1,11.8,18.2,17.7c0.8,0.8,1.8,2.7,3.1,1.2c1.2-1.3-0.5-2.4-1.4-3.2c-5.8-5.9-11.8-11.7-17.7-17.6
		C692.6,244,691.8,243.4,691,242.7z M153.4,341.9c0.4-0.2,0.8-0.4,1.2-0.8c7.2-7.1,14.4-14.2,21.5-21.4c0.7-0.7,1.6-1.7,0.6-2.5
		c-1.2-1.1-2.1,0.4-2.8,1.1c-6.7,6.6-13.4,13.3-20.1,20c-0.6,0.6-1.1,1.2-1.5,2C151.9,341.1,152.2,341.8,153.4,341.9z M688.5,240.5
		c-0.3-0.4-0.6-1-1.1-1.4c-6.8-6.7-13.7-13.5-20.5-20.2c-0.7-0.6-1.5-1.6-2.5-0.5c-0.3,0.3-0.1,1.4,0.3,1.7
		c7.1,7.2,14.2,14.3,21.4,21.4C687,242.4,688,242,688.5,240.5z M512.9,97.9c-0.2-0.5-0.3-0.8-0.5-1c-5.7-5.6-11.3-11.3-17-16.8
		c-0.3-0.3-1.4-0.4-1.8-0.1c-0.9,0.6-0.6,1.5,0,2.1c1.6,1.7,3.2,3.4,4.8,5c3.8,3.8,7.5,7.5,11.3,11.3c0.7,0.7,1.5,1.4,2.6,0.7
		C512.6,98.8,512.7,98.2,512.9,97.9z M554.9,139.8c-0.2-0.4-0.2-0.8-0.5-1c-5.5-5.5-11-11-16.6-16.5c-0.6-0.6-1.5-0.8-2.2,0
		c-0.7,0.8-0.4,1.6,0.2,2.2c5.4,5.4,10.8,10.9,16.2,16.2c0.6,0.6,1.4,0.9,2.2,0.3C554.6,140.6,554.7,140.1,554.9,139.8z
		 M386.2,144.5c-0.3-0.5-0.4-1.2-0.8-1.3c-1.1-0.5-1.9,0.4-2.6,1c-5.3,5-10.6,10.1-15.8,15.2c-0.9,0.9-2.4,2-1.2,3.3
		c1.6,1.8,2.7-0.1,3.6-1.1c5-4.9,9.9-9.8,14.9-14.8C385,146.1,385.5,145.3,386.2,144.5z M408,123.3c-0.3-0.5-0.4-1.1-0.7-1.3
		c-1.3-0.8-2.2,0.2-3,1c-4.9,4.8-9.7,9.6-14.5,14.4c-0.9,0.9-2.3,2.1-0.7,3.3c1.5,1.2,2.4-0.4,3.3-1.3c4.6-4.5,9.2-9.1,13.8-13.7
		C406.8,124.9,407.3,124.1,408,123.3z M345.8,184.5c0.4-0.2,0.8-0.2,1-0.4c5.5-5.5,11-11,16.5-16.5c0.6-0.7,0.5-1.6-0.2-2.2
		c-0.8-0.6-1.6-0.4-2.2,0.2c-5.4,5.4-10.8,10.7-16.2,16.1c-0.6,0.6-0.7,1.5-0.1,2.2C344.9,184.2,345.4,184.3,345.8,184.5z
		 M736.9,291.3c0.4-0.5,1-1,1-1.2c-0.4-0.9-0.8-1.8-1.4-2.5c-6.1-6.2-12.2-12.3-18.4-18.3c-0.8-0.8-1.8-2.6-3.2-1
		c-0.9,1.1,0.5,2.1,1.3,2.9c6.1,6.1,12.2,12.3,18.4,18.3C735.2,290.2,736,290.7,736.9,291.3z M202.8,292.9c-0.4-0.5-0.8-1.1-1-1.1
		c-0.8,0.2-1.6,0.5-2.1,1c-6.4,6.3-12.8,12.6-19.1,19c-0.8,0.8-2.1,1.8-0.9,2.9c1.2,1.1,2.1-0.4,2.8-1.1
		c6.3-6.2,12.5-12.4,18.8-18.6C201.8,294.3,202.2,293.6,202.8,292.9z M533.5,118.4c-0.1-0.3-0.2-0.7-0.4-0.9
		c-5.4-5.4-10.8-10.8-16.3-16.1c-0.5-0.5-1.3-0.3-1.8,0.2c-0.5,0.5-0.7,1.3-0.2,1.8c5.5,5.5,11,11.1,16.6,16.4
		C532.4,120.6,533.3,119.6,533.5,118.4z M661,216.7c0.3-0.3,0.7-0.6,1-1c0-0.5,0.1-1.1-0.2-1.4c-6.7-6.9-13.5-13.7-20.3-20.5
		c-0.6-0.6-1.4-1.2-2.1-0.2c-0.6,0.8,0,1.6,0.6,2.2c2.8,2.9,5.6,5.7,8.4,8.5C652.6,208.4,656.8,212.5,661,216.7z M138.5,337.5
		c0.2,2.2-0.6,5.4,3.6,5.2c3.7-0.2,4.3-2.9,4.3-6c0-2.8,0.1-5.4-3.9-5.4C138,331.3,138.7,334.5,138.5,337.5z M741.1,292.8
		c-0.4,0.5-1,1-1,1.2c0.3,0.9,0.7,1.9,1.4,2.5c6,6,12,12,18,18c0.8,0.8,1.8,2.6,3.2,1.1c0.9-1-0.4-2.1-1.2-2.9
		c-6.1-6.1-12.2-12.2-18.4-18.3C742.6,293.7,741.9,293.3,741.1,292.8z M450.6,81c-0.3-0.5-0.4-1.1-0.7-1.2c-1.1-0.5-1.9,0.3-2.6,1
		c-5.2,4.9-10.3,9.9-15.4,14.9c-0.9,0.8-2.5,1.9-1,3.3c1.4,1.3,2.4-0.3,3.3-1.2c5-4.9,9.9-9.8,14.8-14.8
		C449.5,82.4,450,81.7,450.6,81z M231.1,265.3c-0.5-0.5-1-1.1-1.5-1.6c7.3-7.4,14.7-14.9,22-22.3c0.5,0.5,0.9,0.9,1.4,1.4
		C245.7,250.4,238.4,257.8,231.1,265.3z M428.7,102.5c-0.4-0.5-0.6-1.1-1-1.3c-1.1-0.6-1.9,0.2-2.6,0.9c-4.6,4.5-9.2,9.1-13.8,13.7
		c-0.8,0.8-1.9,1.8-0.9,3c1.1,1.3,2.1,0.1,2.9-0.7c4.6-4.5,9.2-9.1,13.8-13.7C427.8,103.9,428.2,103.2,428.7,102.5z"/>
	<path class="st0" d="M164.4,555.2c0.3-0.8,0.8-1.4,0.8-2c0.2-15.1,0.8-30.3-0.4-45.4c-0.3-4-1.5-7.4-5.1-9.7
		c-2.6-1.7-1.9-3.5,0.8-4c6.3-1.3,12.6-0.7,18.8,0.8c3.5,0.9,3.4,3.7,1.2,5.7c-5.6,5-5.7,11.5-6,18.3c-0.7,17.5-0.8,35-0.7,52.4
		c0,1.2,0,2.3-0.2,3.5c-0.7,5.1-3.1,6.2-7.5,3.5c-4.5-2.8-7.6-7-10.6-11.2c-11.6-15.8-23.2-31.7-34.8-47.6c-1.6-2.1-3.3-4.1-5.7-7.2
		c-0.5,4.4-1.1,7.6-1.1,10.8c-0.2,13.3-0.1,26.6,0.7,39.9c0.3,4.3,2,7.5,4.9,10.6c3.2,3.5,2.6,5.6-2.1,6.2
		c-6.1,0.9-12.3,0.6-18.4,0.2c-2.1-0.1-4.8-2-1.9-3.7c8.9-4.9,8-13.4,8.2-21.1c0.4-15.5,0.8-31-0.6-46.4c-0.4-4.1-2.4-6.7-5.5-8.9
		c-1.5-1-3.3-2.2-2.6-4.4c0.6-1.9,2.6-1.8,4.2-2.1c9.4-1.5,17.4,0.8,23.4,8.8c12,16.2,24.1,32.3,36.2,48.4
		C161.2,552.4,162.2,554.2,164.4,555.2z"/>
	<path class="st0" d="M279.7,535.9c0.4,6.4-1,12.7-3.1,18.9c-7.5,21.5-32.1,34.1-56.5,22.4c-30.5-14.6-27.9-56.8-12.3-73.3
		c11.6-12.3,25.7-15.8,41.5-11.9c16.1,4.1,24.9,15.8,29.2,31.2C279.7,527.3,280,531.5,279.7,535.9z M210.8,534.1
		c0,13.3,2.8,23.1,8.2,30.5c10.3,14,28.7,13.8,38.2-0.5c9.9-14.9,9.2-42.2-1.5-56.4c-10-13.2-27.7-12.9-37.2,0.6
		C212.6,516.6,211.2,526.1,210.8,534.1z"/>
	<path class="st0" d="M660.5,491.5c9.1-0.4,17.6,3.8,26.7,3.3c1.5-0.1,2.8,1.1,3.5,2.5c2.3,4.8,3.2,9.8,2.1,15
		c-0.7,3.1-2.5,3.9-5,1.5c-1.2-1.1-2.4-2.3-3.5-3.6c-8.2-9.8-18.9-12.3-30.7-9.5c-11.9,2.8-17.8,11.9-20.2,23.2
		c-3,14-2,27.5,7.6,39.2c7,8.6,18.2,12.2,28.8,9c10.1-3,13.2-15.7,6-24.5c-1.4-1.7-4.5-3-3.6-5.5c1-2.5,4.2-1.2,6.3-1.7
		c5.5-1.3,11-0.2,16.4,0.4c4.4,0.5,5.3,2.2,2.7,5.9c-3,4.2-4.1,8.6-4,13.6c0.1,3.7,0.1,7.3-1,10.9c-0.7,2.4-1.9,4.4-4.4,5
		c-8.6,2.1-16.9,5.2-25.8,5.7c-25.2,1.5-48.8-18.1-45.5-50c2.2-21,15.5-35.6,34.6-39.6C654.5,491.9,657.5,491.8,660.5,491.5z"/>
	<path class="st0" d="M513.5,580.1c-3.2-0.1-6.3,0.3-9.4-0.7c-2.8-0.8-3.9-2.4-1.3-4.5c3-2.5,2.8-5.3,2-8.5
		c-4.1-15.6-4.7-16.1-21-16.1c-0.3,0-0.7,0-1,0c-15.2,0-22,11.9-14.4,25.2c1.6,2.8,0.9,4.1-2.1,4.3c-5.8,0.5-11.7,0-17.3-1.3
		c-3.9-0.9-4.5-3.6-1.3-6c6.2-4.5,8.9-11.1,11.4-17.8c6.3-16.5,12.6-33,17.9-49.8c1.1-3.5,2.6-6.9,5.1-9.6c3.3-3.7,6.8-3.7,10.3-0.2
		c3.2,3.3,4.9,7.5,6.5,11.7c6.4,17.2,12.7,34.3,19,51.5c2,5.5,4.6,10.7,9.7,14.1c1.2,0.8,2.5,1.9,2.1,3.7c-0.5,1.8-2.1,2.5-3.8,2.8
		C521.8,579.8,517.6,580.4,513.5,580.1z M486.3,510.3c-0.5,0-0.9,0-1.4,0c-3.8,9.7-7.7,19.4-10.7,29.4c-0.7,2.4,0.1,4,2.8,4
		c5.7,0.1,11.3,0.1,17,0.1c2.7,0,3-1.6,2.3-3.7C493,530.2,489.7,520.2,486.3,510.3z"/>
	<path class="st0" d="M825.5,580.1c-3.2-0.1-6.3,0.3-9.4-0.7c-2.2-0.8-3.4-2.2-1.4-4c3.7-3.3,2.8-7,1.8-11
		c-3.5-13-4.8-14.1-18.1-14.1c-1.5,0-3-0.1-4.5,0c-4.9,0.4-10.5-0.3-13.2,5.1c-3.1,6.4-5.4,13.1-0.4,19.8c2,2.8,1.2,4.3-2,4.7
		c-5.7,0.5-11.3-0.3-16.9-1.2c-1.5-0.2-3-0.9-3.4-2.6c-0.5-1.8,0.7-2.9,2-3.7c5.5-3.8,8.3-9.4,10.6-15.4
		c6.3-16.8,12.9-33.6,18.3-50.7c1.1-3.5,2.5-6.9,4.7-9.9c3.8-5.1,8.5-5.1,12.3,0c2.2,2.9,3.8,6.3,5,9.7
		c5.9,16.1,11.8,32.2,17.8,48.2c2.5,6.9,5.2,13.6,11.3,18.5c3.4,2.7,2.7,5.1-1.6,6.1C834.2,579.9,829.8,580.3,825.5,580.1z
		 M798.5,509.8c-0.4,0-0.8,0-1.2,0c-3.5,9.9-7,19.7-10.5,29.6c-1.1,2.9-0.3,4.5,3,4.5c5.2,0,10.3,0,15.5,0.1c3.6,0,4.3-1.7,3.2-4.8
		C805.1,529.3,801.8,519.5,798.5,509.8z"/>
	<path class="st0" d="M293.4,563.7c0.4-2-1.6-6.4,2-7.5c3.6-1.1,4.6,3.5,6.3,5.9c5.6,8.1,12.9,12.7,23.2,11.9
		c6.9-0.5,12.8-4.5,14.2-9.9c1.9-7-0.6-12.9-7.5-16.8c-4.8-2.7-9.8-4.9-14.8-7.2c-4.4-2-8.7-4.1-12.7-6.9
		c-13.3-9.2-12.7-28.3,1.3-36.7c6-3.6,12.7-5.2,19.6-4.4c5.5,0.5,10.8,1.9,16.3,2.1c2.4,0.1,4.8,1.1,5.5,3.7
		c1.2,4.5,2.1,9.1,1.1,13.8c-0.3,1.3-0.7,2.7-2.3,2.9c-1.4,0.2-2.2-0.7-2.9-1.6c-1.1-1.5-2.1-3-3.1-4.5c-5.9-8.3-14.9-11.3-24.7-8
		c-8.5,2.8-11.1,12.7-5.2,19.4c2.5,2.8,5.6,4.6,9,6.2c6.8,3.1,13.7,6.1,20.4,9.5c9.7,4.9,14.6,12.9,13.5,24
		c-1.1,10.3-7.3,16.9-16.7,20.5c-5,2-10.3,2.6-15.7,2c-6.8-0.8-13.3-3.2-20.2-2.8c-2.6,0.2-4.2-1.7-5.2-4
		C293.6,571.6,293.1,568.2,293.4,563.7z"/>
	<path class="st0" d="M407.8,536.4c0,8.3-0.1,16.7,0,25c0.1,5.7,1,11,7,13.7c1.2,0.5,2.4,1.5,2.1,3.1c-0.3,1.8-1.8,2.4-3.3,2.5
		c-8.6,0.8-17.3,0.6-26,0.1c-1.4-0.1-3.2-0.3-3.7-2c-0.6-2,1-3.2,2.4-3.9c5.4-2.7,6.8-7.6,6.8-13c0.1-16.7,0.1-33.3,0-50
		c0-1.6-0.5-3.3-0.8-4.9c-0.7-4.2-3.4-6-7.5-5.6c-6.5,0.6-11.9,3-15.3,9c-0.9,1.5-1.5,4.4-4.1,3.5c-2.1-0.8-1.8-3.3-2-5.3
		c0-0.3,0-0.7,0-1c1.6-10.4-0.9-15.3,14.6-15.1c10.1,0.1,20.2-0.4,30.4,0.1c6.8,0.3,13.6-0.7,20.4,0c5.4,0.5,7.8,2.7,8.1,7.9
		c0.2,3.3,0.6,6.6,0.1,10c-0.2,1.3-0.6,2.8-2.1,3.1c-1.5,0.3-2.4-0.8-3.2-1.9c-0.9-1.2-1.7-2.5-2.6-3.7c-2.8-3.9-6.6-6-11.3-6.6
		c-7.1-1-10.1,1.3-10.3,8.5C407.6,518.7,407.8,527.6,407.8,536.4z"/>
	<path class="st0" d="M561.4,580.6c-5.2,0-10.3,0.4-15.5-0.1c-5-0.5-5.7-2.8-2.1-6.4c3.3-3.3,4.6-7.2,4.6-11.7
		c0-17.7-0.1-35.3,0.1-53c0.1-5.1-1.5-8.7-6.2-10.9c-1.5-0.7-3.8-1.5-3-3.9c0.6-1.8,2.7-1.8,4.3-1.8c7.7,0,15.3,0,23,0.2
		c1.9,0,4.4,0.2,5.1,2.3c0.9,2.5-1.6,3.3-3.2,4.4c-3.1,2.2-4.7,4.9-5,8.7c-1.4,18.8-1.5,37.6,0.2,56.3c0.3,4.1,2.2,7.2,6.5,7.6
		c6,0.6,11.9,0.9,17.8-0.8c6-1.7,9.9-5.8,13.3-10.7c1.2-1.8,2.6-4.8,5.3-3.4c2.4,1.2,1.7,4,1.4,6.4c-2,15.6-2.5,16.2-18.3,16.2
		C580.4,580.2,570.9,581.6,561.4,580.6z"/>
	<path class="st0" d="M730,581c-4.5,0-9,0.1-13.5,0c-1.3,0-2.7-0.5-3.1-2.1c-0.4-1.6,0.6-2.7,1.8-3.2c6.6-2.3,7.7-7.9,7.8-13.7
		c0.2-18,0.9-35.9-0.3-53.9c-0.3-4.6-2.1-7.9-6.2-10c-1.4-0.7-3.3-1.7-2.7-3.7c0.5-1.9,2.6-2.1,4.2-2.1c8.3-0.1,16.6-0.1,24.9,0.1
		c1.7,0,4,0.2,4.3,2.6c0.3,2-1.6,2.8-3,3.5c-4.6,2.3-6.4,6.1-6.4,11c0,18.3,0,36.6,0,54.9c0,4.7,1.6,8.4,6.1,10.6
		c1.5,0.8,3.9,1.5,3.2,3.8c-0.6,2.4-3.1,2.2-5,2.3c-4,0.1-8,0-12,0C730,581.1,730,581,730,581z"/>
	<path class="st0" d="M70.7,397.6c0,2.7,0,5.3,0,8c-0.1,6.6-0.5,7.2-6.9,7.4c-5,0.2-10,0.1-15,0.2c-2.7,0.1-4-1-4.1-3.7
		c-0.3-12-1.2-23.9,1.6-35.7c1.3-5.6,5.3-9.5,9.5-9.7c7.4-0.3,9.8,1.4,12.4,8.8C70.8,381,70.4,389.3,70.7,397.6z M63.4,397
		C63.4,397,63.4,397,63.4,397c0-3.2,0-6.3,0-9.5c0-2.5-1.4-3.5-3.8-3.5c-2.4,0-3.8,0.9-3.8,3.5c0,6.2,0,12.3,0,18.4
		c0,2.8,1.5,3.8,4.1,3.8c2.6,0,3.6-1.3,3.5-3.7C63.4,403,63.4,400,63.4,397z M61.7,380.8c1.7-0.4,4.2,0.7,4.3-2.6
		c0.2-4.1-4.1-11.2-6.6-10.7c-3.2,0.7-3.4,3.7-3.2,6C56.6,376.8,55.4,381.7,61.7,380.8z"/>
	<path class="st0" d="M886.7,415c-3-0.2-7.2-0.5-11.3-0.7c-1.9-0.1-3.9-0.5-4-2.9c-0.5-12.6-1.6-25.3,2.5-37.6c2.3-7,5.3-9,12.8-8.2
		c5,0.6,7.8,4.6,8.9,9.1c1.6,6.8,2.8,13.7,1.9,20.8c-0.5,3.4,0.3,7,0.2,10.4C897.2,414.8,896.8,415.1,886.7,415z M874.9,398.6
		c0,0-0.1,0-0.2,0c0,3.2,0,6.3,0,9.5c0,1.8,1.1,2.7,2.9,2.6c1.6,0,2.3-0.9,2.6-2.4c1.2-5.9,1-11.9,1-17.9c0-2.4-1.5-3.1-3.6-3.1
		c-2.2,0-2.8,1.4-2.8,3.3C874.8,393.2,874.9,395.9,874.9,398.6z M885.4,378.3c-0.4-3.2,0.5-7.7-3.6-8.3c-4.5-0.7-4.1,4.3-5.3,7.1
		c-0.8,1.9-1.7,4.3,0.4,5.9c2,1.4,4.5,1.1,6.7,0.4C886.2,382.6,885.3,380.2,885.4,378.3z"/>
</g>
</svg>
