<?xml version="1.0" encoding="utf-8"?>
<!-- Generator: Adobe Illustrator 25.3.0, SVG Export Plug-In . SVG Version: 6.00 Build 0)  -->
<svg version="1.1" id="레이어_1" xmlns="http://www.w3.org/2000/svg" xmlns:xlink="http://www.w3.org/1999/xlink" x="0px"
	 y="0px" viewBox="0 0 936 583" style="enable-background:new 0 0 936 583;" xml:space="preserve">
<style type="text/css">
	.st0{fill:#846E5B;}
</style>
<g>
	<path class="st0" d="M897.5,431.7c3.8,3.6,6.5,6.3,9.3,8.9c1.5,1.5,2.7,3.2,2,5.3c-0.8,2.4-3.1,2.3-5,2.3
		c-13.2,0.1-26.3,0.1-39.5,0.1c-106-0.1-212-0.2-317.9-0.3c-20.8,0-41.6-0.6-62.4-0.6c-92.3-0.1-184.6-0.1-276.9-0.1
		c-49.7,0-99.3-0.1-149-0.2c-8.2,0-16.3-0.4-24.5-0.7c-1.6,0-3.6,0.2-4.3-1.7c-0.8-2.1,0.2-3.8,1.8-5.3c2.2-2,4.4-4.1,6.5-6.2
		c0.7-0.7,1.8-1.3,1.4-2.4c-0.4-1.4-1.9-1.2-3-1.2c-3-0.1-6,0-9-0.2c-6.1-0.4-7-1.1-6.8-7.2c1.1-40.3,0.7-80.6,1.1-121
		c0.1-14.5,0.4-29,0.9-43.5c0.1-4.2-1.4-5.5-5.4-5.5c-6.8,0-8.1-2.2-5.4-8.5c2.1-4.8,7.9-8.1,13.2-7.9c6.2,0.3,12.3,0.1,18.5,0.2
		c2.6,0,4.4-1,5.6-3.4c3.1-5.9,6.4-11.7,9.3-17.7c1.7-3.5,4-4.9,7.8-4.8c11.3,0.1,22.7-0.1,34,0.1c4.1,0.1,5.9-1.4,5.4-5.5
		c-0.1-1.1,0-2.3,0-3.5c0.1-3-0.4-6.3,3.8-7c3.8-0.6,8.4,2.3,9.4,5.9c0.1,0.5,0.2,1,0.2,1.5c1,8.5,1,8.5,9.4,8.5
		c43.8,0,87.6-0.1,131.5,0c3.8,0,6.5-1,9.3-3.7c31.1-30.9,62.3-61.6,93.6-92.3c31.5-30.9,63.1-61.8,94.6-92.7
		c3.5-3.4,7.2-6.5,10.5-10c2-2.1,3.1-1.4,4.9,0.3c20.4,20.1,40.9,40.1,61.3,60.3c45.3,44.8,90.5,89.6,135.7,134.4
		c2.6,2.6,5.3,4,9.2,4.1c44.7,0.1,89.3,0.4,134,0.7c4.9,0,7.7-0.8,7-6.5c-0.4-3.5,1-6.5,4.5-8.2c5.8-2.9,9.3-0.9,9.5,5.6
		c0.3,9.1,0.3,9,9.4,9.1c9.2,0,18.3,0.2,27.5,0.1c5.2,0,8.8,1.5,10.9,6.7c2.1,5.2,5.4,10,7.8,15.1c1.4,3,3.5,4,6.7,4
		c6.3-0.1,12.7,0,19,0.1c6.5,0.1,12.1,5.3,12.9,11.7c0.4,3.1,0,5-4.1,4.8c-7.8-0.4-8-0.2-7.7,7.8c1.5,54.8,0.6,109.6,1.2,164.4
		c0,3.1-0.9,4.6-4.1,4.8C908.3,430.7,903.7,431.2,897.5,431.7z M400.4,431.2c0-0.5-0.1-1-0.1-1.6c-7.7-1.4-15.7,0.5-23.4-1.9
		c6.6-0.8,13.2-0.8,19.8-0.9c1.7,0,4.3,0.6,4.2-2.1c-0.1-3-2.7-1.6-4.3-1.7c-4.5-0.3-9.1,1-13.6-1c0.2-0.5,0.3-0.7,0.4-0.7
		c3.9-1,8,0,11.9-0.6c2.1-0.3,5.6,0.3,5.4-2.8c-0.1-2.5-3.3-1.2-5.1-1.6c-0.7-0.2-1.6,0.2-2.1-0.7c8.6-1.8,8.6-1.9,8.7-11.2
		c0-0.7,0-1.3,0-2c0-7.1,0-7-7.1-7.3c-6.9-0.2-13.8-0.7-20.7-1.1c8-1,16-1,23.9-1.1c1.6,0,3.7,0.1,3.7-2.3c0.1-2.3-2-2.3-3.6-2.4
		c-8.1-0.3-16.3-0.5-24.5-0.9c-3.2-0.2-5.3,1.1-7.3,3.4c-7.8,8.9-15.8,17.6-23.5,26.6c-3.9,4.6-8.6,8.6-11.8,14
		C354.9,431.2,377.6,431.2,400.4,431.2z M554.2,422.1c-3.9,1.6-7.9,0.8-11.8,1.1c-1.8,0.1-4.9-1.1-4.9,1.7c0,3.2,3.3,2,5.2,2
		c5,0.2,10,0.1,15,0.2c1.5,0,3.3-0.3,4,2.3c-8-0.1-15.7-0.6-23.5,0.2c0.8,2.7,2.4,2.2,3.6,2.3c20.5,0.3,41,0.6,61.4,0.8
		c1.1,0,2.6,0.5,3.2-0.8c0.6-1.3-0.8-2-1.5-2.9c-11.4-13-22.8-26-34.3-39c-1.1-1.2-2.2-2.7-4.1-2.4c-9,1.1-18,0.4-27,0.7
		c-1.7,0.1-3.7,0-3.5,2.5c0.2,2.3,2.3,2.1,3.9,2.1c6.5,0.1,13,0,19.5,0.1c1.7,0,3.5-0.5,5,1.6c-6,0.7-12,0.6-18,0.7
		c-11.6,0-11.5,0-10.4,11.8c0.4,4.9,1.1,9,7.5,8.3c0.1,0,0.2,0.5,0.4,1c-0.6,0.2-1.2,0.5-1.8,0.7c-1.6,0.7-4.9-0.8-4.5,2.2
		c0.3,2.5,3.3,1.5,5.1,1.7C546.5,421.2,550.4,420.2,554.2,422.1z M36.7,401.5c-0.3,0-0.6,0-1,0c0,6.7,0.1,13.3-0.1,20
		c-0.1,4.1,2,5.2,5.6,5.2c2.6,0,4.4-1.4,6.1-3c9.7-9.6,19.4-19.2,29.1-28.8c1.6-1.6,2.9-3.2,2.9-5.6c0.3-14.8,0.6-29.6,1.1-44.4
		c0.1-3.6-1.4-4.6-4.8-4.6c-11.3,0.1-22.6,0.1-34,0c-3.6,0-5.1,1.2-5,4.9C36.7,363.9,36.7,382.7,36.7,401.5z M481.2,394.1
		c2.2-1.8,4.5-0.9,6.5-1.2c1.5-0.2,3.3-0.1,3.2-2.2c-0.1-2-1.7-2.2-3.3-2.3c-2.5-0.1-5,0-7.5,0c-9.5,0-19,0-28.5,0
		c-1.9,0-4.6-0.5-4.5,2.5c0,2.7,2.6,1.8,4.3,2.1c1.7,0.3,3.6-0.7,5.2,1.3c-1.8,1.5-3.9,1-5.7,1c-2.9,0-4.3,1.1-4.2,4.1
		c0.1,9.5,0.2,19,0.1,28.5c0,3,1.3,4.1,4.2,4.1c11.8-0.1,23.6-0.1,35.4,0c3.5,0,4.7-1.4,4.6-4.8c-0.1-7.2,0.1-14.3,0.1-21.5
		c0-9.3,0-9.3-8.9-10.7C482.2,394.9,481.9,394.6,481.2,394.1z M901.6,384.9c-0.1,0-0.2,0-0.3,0c0-12.3-0.1-24.6,0.1-37
		c0.1-4.2-1-6-5.6-5.9c-10.8,0.2-21.6,0.2-32.5-0.1c-4.4-0.1-5.8,1.5-5.6,5.8c0.5,13.8,0.8,27.6,1.1,41.4c0,1.9,0.1,3.7,1.5,5.1
		c10.7,10.7,21.4,21.4,32.2,32c2,2,4.7,1.8,7.1,1.1c2.8-0.8,2-3.5,2-5.6C901.6,409.5,901.6,397.2,901.6,384.9z M220.8,252.3
		c-2.7,0-4.5,0-6.2,0c-34.5,0-69-0.1-103.5,0c-11.8,0-10.3-1.2-10.2,10.5c0.1,14.1-2,12.2,12.1,12.3c10.4,0.1,9.3,0.5,9.5-9
		c0-1,0-2,0.1-3c0.8-5.2,4-8.2,9-8.2c5.7-0.1,8,1.7,9.3,7.6c0.5,2.4,1.1,5,0.9,7.4c-0.2,4.3,1.9,5.5,5.8,5.3c3.8-0.2,7.7,0,11.5,0
		c10.9,0,10.9,0,11.9-10.9c0.5-6,2.7-8.3,7.7-8.3c5.6,0.1,7.9,2.4,8.3,8.3c0.1,1.5,0.2,3,0.4,4.5c0.9,6.4,7.9,9.3,12.9,4.8
		C207.1,267,213.4,259.9,220.8,252.3z M719.2,253.8c6.7,7.1,13,14.6,20.3,21c4.8,4.2,10.6,0.9,11-5.5c0.1-1.7,0.3-3.3,0.5-5
		c0.8-5.5,3.6-7.8,9.2-7.5c4.6,0.2,7,2.9,7.3,8.3c0.1,2,0.2,4,0.1,6c-0.2,3.7,1.5,5,5,5c5.7-0.1,11.3-0.3,17,0.1
		c5,0.3,7.1-1.4,6.7-6.5c-0.2-1.9,0.4-4,0.8-5.9c1.3-5.9,4.4-8.3,10.1-8c4.8,0.3,8,3.8,8.4,9.5c0.2,2.7,0.3,5.3,0.5,8
		c0.1,1.8,0.9,2.8,2.8,2.8c4.7,0.2,9.3,0.4,14,0.6c3.3,0.2,4.4-1.6,4.3-4.6c-0.1-4,0-8,0-12c0-6.7,0-6.7-6.5-6.7
		c-35.7,0-71.3,0-107,0C722.2,253.3,720.5,252.8,719.2,253.8z M494,351c-0.2-0.4-0.6-1.2-1.2-1.8c-7.2-8.3-14.4-16.5-21.7-24.8
		c-1.4-1.6-2.5-1.7-4,0c-7,8-14,16-21.1,23.9c-2,2.2-2,4.1,0,6.5c6.8,8.2,13.5,16.5,20,24.8c2.4,3,4,2.6,6.1-0.1
		c6.7-8.5,13.6-16.8,20.4-25.2C493.3,353.5,494.2,352.7,494,351z M251.5,222.2c-3.2,0-4.9,0-6.5,0c-44.8,0-89.6,0.1-134.4,0.1
		c-7.7,0-7.9,0.1-7.8,7.7c0,1.7-0.8,4.1,1.9,4.4c2.2,0.2,2.4-1.9,2.8-3.5c0.8-3.6,3.1-5.6,6.6-5.7c3.6-0.1,5.3,2.6,5.9,5.7
		c0.7,3.4,2.7,4,5.8,4c7.3-0.1,14.7-0.2,22,0c4.1,0.1,6.7-1.3,7.6-5.5c0.7-2.9,2.3-5.5,5.6-5.3c3.5,0.2,3.2,3.6,3.4,5.8
		c0.4,3.9,2.2,5,5.8,4.9c7.2-0.2,14.3-0.3,21.5,0c4.4,0.2,7.3-0.9,8.7-5.5c0.8-2.6,2.1-5.6,5.8-5.1c3.5,0.4,4.5,3,4.8,6.1
		c0.3,3.6,2.4,4.7,5.8,4.5c4.5-0.2,9.1-0.7,13.5,0C240.4,236.5,244.9,229.3,251.5,222.2z M740,224.1c0-0.4,0-0.8,0-1.1
		c-15.8,0-31.7,0-47.5,0c-1.2,0-3-0.6-3.5,1c-0.4,1.2,1.1,1.9,1.8,2.8c4.8,6.2,10.6,9.7,18.9,8.4c3.4-0.5,7-0.2,10.5,0
		c4.1,0.2,7.3-0.4,7.5-5.6c0.1-2.2,1.6-4,4-4.5c2.3-0.5,3.9,0.6,5,2.4c0.7,1.1,1.5,2.3,1.8,3.5c1,3.8,3.4,4.8,7.1,4.7
		c6-0.2,12,0,18,0c8.3,0,8.3,0,10.9-7.7c1.2-3.4,3.7-4,6.4-1.5c1.3,1.2,1.9,2.7,2.3,4.4c0.9,3.6,3.2,5.1,7,5
		c7.5-0.1,15-0.1,22.5,0.1c3.2,0.1,5.3-0.2,5.8-4.2c0.4-2.9,2.3-5.4,5.6-5.5c3.2,0,5.6,1.8,6.7,5c0.4,1.1,0.7,2.3,1.3,3.2
		c1,1.5,2.2,1.4,3.2-0.1c2.6-4.3-0.7-10.4-5.7-10.4C799.6,224.1,769.8,224.1,740,224.1z M312.6,413.2c-2.5-1-3.5-3.3-5.2-5
		c-1.4-1.5-2.2-4.8-5.3-2.2c-2.4,2-4.3,4-1.6,7.5c5.6,7.4,11,15,16.4,22.6c1.8,2.6,3.2,2.9,5.4,0.4c6.5-7.5,13.1-15,19.8-22.4
		c1.5-1.6,1.7-2.9,0.2-4.7c-5.7-7.3-11.3-14.8-16.8-22.3c-2-2.7-3.6-3-5.9-0.4c-3.5,4-7.1,8-10.8,11.7c-2.4,2.4-2.3,4.5-0.3,7
		C310.3,407.7,312.4,409.8,312.6,413.2z M370.1,381.9c-0.4-0.8-0.6-1.4-1-2c-6-7.6-12-15.2-18-22.7c-1.7-2.1-3.1-1.2-4.5,0.4
		c-6.3,6.9-12.5,13.8-18.9,20.6c-2.2,2.3-1.8,4.2,0,6.5c5.4,7,10.7,14,15.9,21.2c1.8,2.4,3.1,3,5.4,0.4c6.4-7.4,13.1-14.7,19.6-22
		C369.1,383.6,369.6,382.7,370.1,381.9z M624.9,414.1c0.7-3.9,3.1-6.1,5-8.5c1.7-2.2,2-3.8-0.1-6c-4.2-4.3-8.2-8.7-12.2-13.2
		c-1.5-1.7-2.6-1.6-3.9,0.2c-5.8,7.7-11.7,15.3-17.5,23c-1.3,1.7-1.4,3.4,0,5c6.7,7.6,13.5,15.2,20.2,22.7c1.3,1.5,2.9,1.8,4.2,0
		c6-8.2,12-16.3,17.8-24.7c2.1-3-1.1-5-2.9-6.6c-2.3-2.1-2.9,1-4,2.1C629.5,410,628.5,412.8,624.9,414.1z M592.1,408.8
		c0.4-0.3,0.9-0.7,1.3-1.2c6.2-8.1,12.3-16.2,18.4-24.3c1.4-1.8,0.3-3-0.9-4.3c-6.3-6.9-12.6-13.7-18.8-20.7c-2-2.2-3.3-2.7-5.4,0
		c-5.5,7.1-11.2,14.1-16.9,21c-1.7,2.1-1.7,3.6,0.2,5.6c6.6,7.3,13,14.7,19.5,22.1C590.2,407.9,590.7,408.8,592.1,408.8z
		 M358.4,351.4c-2.5-1.2-4.1-2.7-5.7-0.5c-1.3,1.9,0,3.2,1,4.4c5.4,6.8,10.9,13.5,16.1,20.4c2.5,3.3,4.2,2.7,6.5-0.1
		c5.8-6.7,11.6-13.3,17.6-19.7c2.4-2.6,1.8-4.5-0.2-6.9c-5.2-6.2-10.4-12.5-15.5-19c-2-2.5-3.5-3.1-5.9-0.5
		c-4.5,5.1-9.2,10.1-13.9,15C356.6,346.6,356.7,348.4,358.4,351.4z M537.1,299c-0.4-0.7-0.6-1.4-1-1.8c-6.9-7.6-13.9-15.2-20.8-22.9
		c-1.9-2.1-3-0.9-4.3,0.7c-5.3,6.2-10.7,12.3-16.2,18.3c-2.2,2.4-1.9,4.1,0.2,6.4c6.5,7.2,12.8,14.4,19.1,21.8
		c2.1,2.5,3.7,2.2,5.5-0.1c5.3-6.6,10.7-13.2,16-19.8C536.1,300.8,536.5,299.9,537.1,299z M268.2,437.3c0.6-0.5,1.5-1,2.1-1.7
		c7.1-7.7,14.1-15.5,21.3-23.1c2.1-2.2,1.6-4,0-6.1c-4.5-6-9-12-13.2-18.2c-2.1-3.1-3.7-3-6.1-0.4c-6.4,7-12.9,13.8-19.5,20.7
		c-2.1,2.1-2.4,4.1-0.7,6.6c4.5,6.6,8.9,13.3,13.3,19.9C266,436.1,266.5,437.2,268.2,437.3z M580,350.9c1.2-2.4,1.5-4.4-0.5-6.4
		c-4.6-4.6-8.9-9.4-13.2-14.3c-2.4-2.8-4-2.5-6.2,0.3c-5.1,6.6-10.4,13-15.8,19.4c-1.7,2-2.2,3.5-0.3,5.6
		c6.3,7.1,12.6,14.2,18.9,21.3c1.8,2.1,3.4,2.2,5.2-0.1c5.4-7,11-13.8,16.5-20.8c1.2-1.5,2-2.9,0.6-4.9
		C583.5,348.6,582,350.8,580,350.9z M445.8,295.9c-0.2-0.4-0.3-0.9-0.7-1.2c-6-6.9-12.1-13.7-18.1-20.6c-1.6-1.8-2.8-0.8-4.1,0.6
		c-6.4,7-12.8,14-19.2,20.9c-2,2.1-2.1,3.8-0.3,6c5.3,6.4,10.5,12.9,15.6,19.5c2.2,2.8,3.7,2.5,5.8,0c6.4-7.4,12.9-14.8,19.4-22.1
		C444.9,298.1,445.9,297.3,445.8,295.9z M194.4,278.2c-3.1,0-4.8,0-6.4,0c-26.6,0-53.2,0-79.9,0c-7.3,0-7.3,0-7.3,7.2
		c0,7.3,0,7.4,7.6,7.4c2.8,0,5.7,0,8.5,0c1.9,0,3.6-0.4,5-1.8c5.4-5,11.7-5.4,17.5-1.7c5.2,3.4,10.5,3.6,16.1,3.5
		c4.7-0.1,9.4-0.6,14,0.1C181.3,294.8,186.9,286.5,194.4,278.2z M790.9,279.4C790.9,279.3,790.9,279.3,790.9,279.4
		c-13.8-0.1-27.7-0.1-41.5,0c-1.3,0-3.8-1.2-3.6,1.7c0.2,2.6,12.1,11.7,15.1,12c9,1,18,0.4,27,0.6c3.3,0.1,6.1-0.7,8.9-2.5
		c5-3.2,11.1-5.1,16-1.4c5.9,4.5,12.1,3.5,18.4,4c5.6,0.4,6.2-2.5,6.1-7c-0.2-7.4-0.1-7.5-5.9-7.5
		C817.9,279.3,804.4,279.4,790.9,279.4z M664.1,386.2c-2.2,0-2.8,0.9-3.3,1.7c-4.9,6.7-9.7,13.5-14.7,20.2c-1.5,2-1.1,3.5,0.4,5.2
		c7,7.6,13.9,15.2,20.8,22.8c2,2.3,3.5,2.6,5.3-0.3c4.4-6.8,8.9-13.6,13.5-20.3c1.5-2.2,1.4-3.7-0.5-5.6c-7-7.3-13.9-14.8-20.8-22.2
		C664.4,387.1,664.2,386.2,664.1,386.2z M200.1,411.8c-0.2-0.4-0.4-1.3-0.8-1.9c-4.8-7.4-9.6-14.8-14.4-22.2
		c-1.8-2.8-3.2-1.2-4.6,0.3c-6.7,6.9-13.3,13.9-20.1,20.8c-1.8,1.8-2.1,3.4-0.6,5.7c4.5,6.8,9,13.6,13.3,20.5
		c1.8,2.9,3.3,3.1,5.7,0.6c6.4-6.7,13-13.3,19.5-19.9C199,414.6,199.9,413.6,200.1,411.8z M529.4,414.9c4-2.2,5.4-16,2.1-18.9
		c-0.7-0.6-1.8-0.8-2.8-0.8c-10.1,0-20.3,0-30.4,0c-2.5,0-3.7,1.2-3.7,3.7c0,8.2,0.1,16.3,0.1,24.4c0,2.1,0.8,3.8,3.2,3.4
		c10.3-2,20.5,0.9,30.8,0.2c1.7-0.1,4.2,0.5,4.3-2.1c0.2-3.1-2.6-2.4-4.4-2.6c-4.3-0.5-8.7-0.9-13-1.3c0-0.5,0-0.9,0.1-1.4
		c4.1-1,8.2-0.2,12.4,0.2c1.7,0.2,4,1,4.7-1.4C533.5,415.9,530.3,416.7,529.4,414.9z M421.5,420.6c-0.8,0.2-1.5,0.6-2.3,0.6
		c-4,0.1-8,0-11.9,1c-1.5,0.3-2.5,1-2.3,2.7c0.1,1.5,1.2,1.9,2.5,1.9c1.2,0.1,2.3,0,3.5,0.1c9.8,0.2,19.5-2.1,29.4-0.3
		c3,0.5,3-1.9,3.1-3.9c0.1-7.5,0-15,0.2-22.5c0.1-3.6-1.3-5.1-4.9-5.1c-6.8,0.1-13.6,0-20.5,0c-15.6,0.1-11.3-1.7-13.3,12.8
		c-0.4,3-0.5,6.1,3.6,6.7c-0.5,2.3-4.4,1.3-3.2,4c1,2.2,3.2,0.7,5,0.6C414,419.1,417.8,418.3,421.5,420.6z M779.9,412.8
		c-0.6-0.9-1-1.8-1.7-2.5c-6.9-7.2-13.8-14.4-20.7-21.6c-2.1-2.2-3.2-1.4-4.6,0.7c-4.4,6.8-8.9,13.7-13.5,20.4
		c-1.7,2.5-1.6,4.3,0.6,6.5c6.4,6.5,12.8,13.1,19,19.8c2.6,2.8,4.2,3,6.4-0.4c4.2-6.8,8.7-13.4,13-20.1
		C779,414.7,779.4,413.8,779.9,412.8z M180.7,381.8c-0.2-0.5-0.4-1.3-0.9-2c-4.6-7.1-9.3-14.2-13.9-21.3c-1.3-2-2.5-1.6-4-0.1
		c-7,7.1-14.1,14.1-21.2,21.1c-1.7,1.7-1.9,3.3-0.6,5.3c4.5,6.8,9,13.5,13.5,20.4c1.5,2.4,2.9,2.8,5,0.5c6.6-7,13.5-13.8,20.2-20.7
		C179.7,384.2,180.6,383.4,180.7,381.8z M33,351.6c0.5,21.3-1.4,42.6-1.3,63.9c0,1.4,0.6,3.7-1.4,3.7c-2.1,0-1.2-2.3-1.2-3.7
		c0.4-24.1,0.3-48.3,0.8-72.4c0.6-27,1.2-53.9,1.4-80.9c0-2.4-0.7-5,2.4-6.5c1.1-0.5,1.3-2.3,0.1-3c-2.1-1.2-4.6-0.7-6.8-0.3
		c-2.1,0.4-1.5,2.2-1.5,3.7c-0.3,30.1-0.3,60.3-1,90.4c-0.6,24.8-0.7,49.6-0.9,74.4c0,3.2,0.7,5,4.4,5c3.6,0,4.4-1.7,4.6-4.9
		C33.7,397.9,33.3,374.8,33,351.6z M799.2,383.3c-0.5-0.8-0.8-1.5-1.3-2.1c-7.2-7.3-14.5-14.6-21.8-21.9c-1.7-1.7-2.7-1.1-3.8,0.7
		c-4.3,6.7-8.7,13.4-13.1,20c-1.7,2.5-1.3,4.5,0.8,6.6c6.6,6.6,13.1,13.2,19.5,20c2.5,2.7,4,1.9,5.7-0.8c4.1-6.5,8.3-12.8,12.5-19.2
		C798.2,385.5,798.6,384.4,799.2,383.3z M448.2,299.8c-0.3,0.3-0.9,0.6-1.3,1.1c-7.2,8-14.4,16.1-21.6,24.1c-1.2,1.4-1,2.7,0.1,4
		c4.8,5.9,9.6,11.9,14.4,17.8c1.2,1.5,2.3,1.7,3.6,0.2c7.1-8.1,14.2-16.2,21.3-24.4c1.7-1.9,1.8-3.7,0-5.7
		c-4.7-5.2-9.2-10.5-13.8-15.7C450.3,300.5,449.6,299.7,448.2,299.8z M497.2,348.1c0.4-0.3,1-0.6,1.4-1.1
		c4.8-5.9,9.6-11.9,14.4-17.8c1.5-1.8,0.7-3.3-0.6-4.8c-6.6-7.5-13.2-14.9-19.8-22.5c-1.8-2-3.2-2.6-5.2-0.3
		c-4.6,5.4-9.4,10.8-14.1,16.1c-1.6,1.8-1.2,3.2,0.2,4.8c6.9,7.9,13.8,15.8,20.7,23.7C495,347,495.7,348,497.2,348.1z M125.5,217.8
		c-2-5.1-5.9-4.8-9.8-4.6c-1.7,0.1-3.3,0-5,0c-2.8-0.1-5.4,0-6.1,3.6c-0.1,0.5-0.8,1.2-1.2,1.3c-1,0.1-1.5-0.8-1.5-1.6
		c0.1-3.5-2.3-3.4-4.7-3.4c-3.2,0-6.3,0-9.5,0c-2.2,0-4.5-0.2-4.2,3.2c0.1,0.9-0.4,1.8-1.4,1.7c-0.9-0.1-1.4-0.9-1.5-1.8
		c-0.3-2.6-2.1-3.1-4.3-3.1c-3.5,0-7,0-10.5,0c-3.2,0-4.7,2.5-4.8,4.8c-0.1,3.2,3.1,1.7,4.6,1.7c20.6,0.1,41.3-0.3,61.9-0.5
		c38.5-0.5,76.9-0.3,115.4-0.5c1.3,0,2.7,0,4,0c1.3-0.1,2.9,0,2.7-2c-0.1-1.5-0.7-3.5-2.5-3.2c-5.3,0.7-11.2-3.1-15.8,2.3
		c-0.2,0.3-1.2,0.5-1.2,0.4c-3.4-5.5-8.8-2.1-13.2-2.9c-3.3-0.6-6.2,0.1-7.2,4.2c-4-6-16.9-5.9-21.4-0.2c-1.4-1.4-1.3-4.2-4.3-4
		c-4,0.2-8,0.3-12,0c-3.7-0.4-1.9,4.5-4.2,4.2c-2.1-0.3-1.6-4.6-5.2-4.3c-3.8,0.4-7.7,0.3-11.5,0c-3.3-0.3-3,3.7-4.9,4
		c-2.5,0.5-1.7-4.5-5.3-4c-2.8,0.4-5.6,0.1-8.5,0C129.3,213,126.5,213.3,125.5,217.8z M190.6,330.5c-0.6,0.4-1.5,0.9-2.2,1.5
		c-6.6,6.6-13.2,13.2-19.9,19.7c-1.6,1.6-1.5,3.1-0.3,4.8c4.4,6.7,8.9,13.3,13.1,20.1c1.8,2.8,3.2,2.7,5.3,0.4
		c6.1-6.6,12.4-13,18.7-19.5c1.8-1.8,2.2-3.5,0.7-5.7c-4.3-6.4-8.4-12.8-12.6-19.2C192.9,331.7,192.2,330.7,190.6,330.5z
		 M346.4,352.5c-0.4-0.9-0.6-1.7-1.1-2.3c-5-6.4-10.1-12.8-15.1-19.2c-1.7-2.2-3.1-1-4.5,0.5c-6.3,6.6-12.5,13.3-18.9,19.9
		c-1.7,1.8-1.8,3.2-0.3,5.2c4.7,6,9.3,12.2,13.8,18.4c2,2.8,3.7,2.7,5.9,0.2c6-6.6,12.2-13.1,18.3-19.7
		C345.2,354.5,345.7,353.5,346.4,352.5z M610.3,329.8c-0.7,0.6-1.4,1.1-1.9,1.7c-5,6.2-10,12.5-15,18.7c-1.8,2.2-1.1,3.8,0.6,5.6
		c6.4,6.8,12.7,13.7,18.9,20.6c1.9,2.1,3,1.9,4.6-0.3c4.7-6.3,9.4-12.5,14.2-18.7c1.6-2,1.8-3.7-0.1-5.7c-6.3-6.6-12.5-13.3-18.8-20
		C612.1,331.1,611.2,330.5,610.3,329.8z M248.8,407.9c0.4-0.3,1-0.6,1.4-1.1c7.2-7.6,14.4-15.2,21.6-22.8c1.9-2,1-3.6-0.3-5.3
		c-4-5.5-8.1-11-11.9-16.6c-2.1-3.1-3.8-3-6.2-0.4c-6.3,6.8-12.8,13.6-19.3,20.2c-1.7,1.8-1.8,3.2-0.4,5.2
		c4.3,6.3,8.4,12.8,12.7,19.1C246.9,407.2,247.3,408.2,248.8,407.9z M94.6,409.9c1.8-0.1,1.9,1.4,2.7,2.1c1.2,1.2,1.4,4.4,4.3,2.3
		c2.2-1.6,2.8-3.4,1.1-5.9c-2.8-4.3-5.3-8.8-7.9-13.3c-1.3-2.2-2.4-2.3-4.2-0.5c-10.7,10.7-21.5,21.3-32.2,32c-1,1-1.6,1.9-1.2,3.5
		c2.1,7.7,7.1,11.3,14.8,10.7c2.5-0.2,4.4-1.3,6.1-3c3.4-3.4,6.7-7,10.3-10.1c4.2-3.6,7.2-7.3,3.6-13c0,0,0.4-0.4,0.6-0.6
		c2.2,0.6,1.7,4,4.6,4.3C98.1,414.9,93.5,413.2,94.6,409.9z M771,355.8c0-1.6-0.9-2.4-1.7-3.2c-6.5-6.5-12.9-12.9-19.3-19.4
		c-2.2-2.2-3.6-1.5-5.1,0.7c-4.1,6.3-8.1,12.6-12.3,18.7c-1.8,2.7-1,4.5,0.9,6.5c6,6,11.9,12,17.8,18.2c2.4,2.5,4.1,2.8,6.1-0.4
		c3.9-6.2,8.1-12.2,12.1-18.3C770,357.6,770.5,356.6,771,355.8z M682.5,360.1c-1.5,0-2,0.9-2.6,1.7c-4.4,6-8.7,12.2-13.2,18.1
		c-1.7,2.3-0.8,3.8,0.8,5.6c6.6,7,13.2,14.1,19.6,21.3c2.5,2.8,3.8,2,5.5-0.7c3.6-5.8,7.4-11.5,11.4-17c2.1-2.8,1.9-4.9-0.5-7.4
		c-6.4-6.5-12.6-13.2-18.9-19.9C683.8,361.2,683,360.6,682.5,360.1z M208.1,394.9c-0.3-0.2-0.8-0.5-0.9-0.9
		c-0.3-1.1,0.5-1.8,1.2-2.6c3.6-3.9,7.2-7.8,11-11.6c2.3-2.3,2.6-4.2,0.6-6.9c-2.8-3.7-5.3-7.7-7.8-11.6c-1.7-2.8-3.2-3.4-5.7-0.8
		c-6.2,6.7-12.6,13.3-19,19.8c-1.8,1.8-1.6,3.3-0.3,5.3c4.7,7.1,9.4,14.2,14,21.3c1.3,1.9,2.4,2.5,4.2,0.6
		c6.7-7.2,13.5-14.3,20.3-21.3c1.7-1.8,1.1-3.3-0.4-4.8c-1.6-1.6-2.7-0.1-3.8,0.9c-3.4,3.4-6.8,6.9-10.2,10.3
		C210.6,393.6,209.7,394.7,208.1,394.9z M905.5,377.5c-0.2,0-0.5,0-0.8,0c0,14.9,0,29.9,0,44.8c0,2.4-0.6,5.3,3.5,5.1
		c3.5-0.2,6.2-0.8,6-5.4c-0.4-6.2-0.6-12.3-0.6-18.5c-0.2-25.2-0.2-50.3-0.5-75.5c-0.2-23.8-1.3-47.6-0.4-71.4
		c0.1-1.8-0.3-3.1-2.2-3.1c-2.2,0-4.7-1.1-6.5,1.2c-0.5,0.6-0.4,1.9,0.4,2.2c3.1,1.4,2.2,4.2,2.3,6.5c0.2,8.2,0.4,16.3,0.5,24.5
		c0.7,43,1,86,1.4,129c0,1.5,0.8,4-1.4,4.1c-2.2,0.1-1.5-2.5-1.8-4c-0.1-0.8-0.1-1.7-0.1-2.5C905.5,402.1,905.5,389.8,905.5,377.5z
		 M222.1,436.3c0.4-0.3,1-0.6,1.5-1c6.9-7.2,13.7-14.5,20.5-21.7c1.2-1.3,1-2.7,0.1-4.1c-4.3-6.5-8.6-13-12.8-19.6
		c-1.5-2.3-2.9-2.3-4.7-0.3c-6.4,6.8-12.8,13.5-19.2,20.2c-1.6,1.7-2,3.3-0.7,5.3c4.3,6.5,8.5,13.1,12.8,19.6
		C220.1,435.6,220.7,436.4,222.1,436.3z M539.5,349.4c1.2,0,1.8-0.8,2.4-1.5c5.7-7,11.3-14,17.1-20.9c1.9-2.3,0.8-3.9-0.8-5.6
		c-5.1-5.5-10.2-11-15.1-16.7c-2.4-2.8-4-2.1-5.9,0.3c-5,6.2-9.9,12.5-15.1,18.6c-2.3,2.7-2.2,4.8,0.1,7.3c4.9,5.4,9.7,11,14.5,16.5
		C537.5,348.2,538.2,349.2,539.5,349.4z M714.8,381.3c-1.8-0.1-2.1,1.2-2.7,2.1c-1.1,1.5-0.5,2.8,0.7,4c6.7,7,13.3,14,19.9,21
		c1.8,2,2.9,1.4,4.2-0.6c4.6-7.1,9.3-14.2,14-21.3c1.3-2,1.3-3.5-0.4-5.3c-6.4-6.6-12.7-13.2-19-19.8c-2.3-2.5-3.8-1.8-5.4,0.7
		c-2.7,4.2-5.4,8.4-8.3,12.5c-1.5,2.2-1.4,3.8,0.5,5.6c3.9,3.8,7.7,7.8,11.5,11.8c0.9,0.9,2.3,2.1,1,3.4c-1.3,1.3-2.5-0.1-3.3-1
		c-3.5-3.6-6.8-7.3-10.3-10.9C716.4,382.7,715.5,382,714.8,381.3z M398,302.7c-0.5,0.3-1.2,0.7-1.8,1.3c-5.7,6.1-11.3,12.2-17,18.2
		c-1.5,1.6-0.8,3,0.3,4.4c5.7,7,11.4,13.9,17,20.9c1.7,2.1,3,2,4.8,0.1c5.1-5.9,10.3-11.7,15.6-17.5c1.9-2.2,1.7-4,0-6.2
		c-5.3-6.4-10.5-12.9-15.7-19.4C400.3,303.6,399.6,302.7,398,302.7z M732.4,413.6c-0.5-0.9-0.9-1.8-1.5-2.5
		c-6.5-6.9-13-13.8-19.5-20.7c-1.8-1.9-3-1.5-4.3,0.5c-4.1,6.3-8.2,12.5-12.5,18.7c-1.5,2.2-1.2,3.8,0.6,5.7
		c6.3,6.7,12.5,13.4,18.6,20.2c1.9,2.1,3.3,2.4,5-0.3c4-6.3,8.2-12.5,12.3-18.8C731.6,415.6,731.9,414.6,732.4,413.6z M348.7,336
		c1.2,1.9,2.5,3.8,3.7,5.7c1.4,2.1,2.8,2,4.3,0.2c4.6-5.2,9.3-10.4,14-15.5c1.6-1.8,1.8-3.4,0.2-5.2c-4.7-5.6-9.3-11.2-13.9-17
		c-2.1-2.6-3.7-2.6-5.9-0.1c-5.9,6.5-12,12.9-18.1,19.2c-1.8,1.9-2.2,3.4-0.4,5.5c4.8,5.9,9.5,12,14.2,17.9c0.9,1.1,1.7,3.3,3.9,1.5
		c1.6-1.4,1.2-2.8,0.3-4.4C349.6,341.5,347.4,339.5,348.7,336z M590.6,336c0,3.4-2,5.5-3.5,7.8c-1.2,1.9-1.2,3.4,0.6,4.7
		c1.8,1.4,2.7-0.2,3.6-1.3c4.8-6,9.5-12,14.4-17.9c1.8-2.1,1.5-3.7-0.3-5.6c-6.2-6.5-12.4-13-18.4-19.7c-1.9-2.1-3.3-2.2-5.1,0.1
		c-4.7,5.9-9.4,11.7-14.3,17.3c-1.9,2.2-1.5,3.7,0.3,5.5c3.1,3.2,6,6.7,9.1,9.9c6.5,6.9,6.5,6.9,12.2-0.6
		C589.3,336.2,589.5,336.2,590.6,336z M845.5,415.5c-1.7,7.3-1.7,7.3,3.9,13c2.7,2.7,5.7,5.2,8.1,8.2c3.6,4.5,8.2,5.8,13.7,5.2
		c3.1-0.4,10-8.2,9.5-11.3c-0.1-0.8-0.7-1.5-1.2-2.1c-10.7-10.7-21.4-21.4-32.1-32c-1.4-1.4-2.6-1.9-3.9,0.2
		c-2.8,4.7-5.6,9.4-8.4,14.1c-1.3,2.1,0.1,3.5,1.6,4.6c2,1.5,2.5-0.6,3.4-1.5c1-1,1-3,3.2-2.8c1,3.2-3.1,4.9-2.6,8
		C843.2,419,842.7,415.5,845.5,415.5z M727.4,352c1.6,0,2-1,2.5-1.8c4.4-6.5,8.7-13,13.1-19.5c1.6-2.4,0.7-3.9-1-5.6
		c-5.8-5.7-11.6-11.4-17.3-17.3c-2.4-2.5-4.1-2.8-6.2,0.3c-3.6,5.4-7.4,10.6-11.4,15.7c-2.4,3.1-2.2,5.5,0.5,8.2
		c6,6,11.8,12.1,17.8,18.2C726,351,726.8,351.6,727.4,352z M233.7,326.8c-0.4-0.7-0.9-1.8-1.5-2.7c-3.9-5.6-8-11-11.8-16.7
		c-2.2-3.3-4-3-6.5-0.3c-5.8,6-11.7,11.8-17.7,17.5c-2.1,2-1.9,3.4-0.5,5.5c4.2,6.2,8.4,12.4,12.4,18.7c1.9,3,3.4,2.8,5.7,0.4
		c6-6.4,12.1-12.7,18.2-19.1C232.8,329.3,233.7,328.5,233.7,326.8z M489.5,246.8c-0.2-0.4-0.5-1-0.9-1.5
		c-5.8-6.4-11.7-12.8-17.5-19.2c-1.5-1.6-2.6-0.8-3.7,0.5c-5.5,6-11.1,12-16.7,17.9c-1.7,1.8-1.7,3.3,0,5.1
		c5.4,5.9,10.7,11.9,15.9,17.9c2,2.3,3.7,2.3,5.7,0c5.1-5.9,10.4-11.7,15.6-17.6C488.6,249.1,489.6,248.4,489.5,246.8z M652.2,329.7
		c-0.2-2.1-1.4-3.3-2.5-4.5c-5.8-6.2-11.7-12.3-17.4-18.5c-1.7-1.8-2.8-1.6-4.3,0.3c-4.4,5.7-8.8,11.2-13.4,16.7
		c-1.9,2.2-1.2,3.7,0.5,5.5c6.1,6.6,12.2,13.1,18.2,19.8c2,2.2,3.3,2.1,5-0.3c4-5.5,8.2-10.9,12.3-16.3
		C651.2,331.5,651.7,330.5,652.2,329.7z M303.1,350.2c0.4-0.3,0.9-0.6,1.3-1.1c6.5-6.9,12.9-13.8,19.4-20.7c1.7-1.8,1.6-3.4,0.1-5.3
		c-4.4-5.4-8.8-10.8-13-16.4c-1.9-2.5-3.3-2-5.1,0c-5.9,6.3-11.9,12.6-17.9,18.7c-1.8,1.8-2.3,3.4-0.6,5.6
		c4.5,5.8,8.8,11.7,13.2,17.5C301.1,349.3,301.6,350.2,303.1,350.2z M334.5,277.8c-1.3,0-2,1-2.8,1.8c-6.1,6.4-12.1,12.8-18.2,19.1
		c-1.9,1.9-1.8,3.6-0.2,5.6c4.3,5.3,8.6,10.6,12.7,16c1.7,2.3,3.2,2.5,5.1,0.3c6-6.5,12-12.9,18.1-19.2c2.1-2.2,2.3-4.2,0.3-6.5
		c-4.3-5.1-8.5-10.2-12.7-15.3C336.2,278.8,335.7,277.9,334.5,277.8z M609.4,322.9c1.3,0.1,1.8-0.6,2.3-1.2
		c4.7-5.8,9.3-11.7,14-17.5c1.6-1.9,0.9-3.2-0.5-4.7c-6.2-6.5-12.4-13-18.5-19.6c-2.2-2.4-3.6-2-5.4,0.4c-3.8,5-7.9,9.9-12,14.7
		c-2.1,2.5-2.3,4.4,0,6.8c6.1,6.4,12,12.9,18,19.3C608.1,321.8,608.9,322.4,609.4,322.9z M573.5,231.7c3.5,1.2,5.6,4,7.9,6.5
		c2.3,2.5,3.9,2.3,5.9-0.4c2.9-3.8,6-7.6,9.1-11.2c1.8-2.1,1.7-3.6-0.2-5.5c-5.6-5.7-11.1-11.4-16.5-17.3c-2.4-2.6-4.2-2.7-6.5,0
		c-4.6,5.5-9.3,10.8-14.1,16.1c-1.7,1.9-1.8,3.2,0,5c6,6.2,11.9,12.5,17.9,18.8c1,1,2,3.3,4,1.6c2.1-1.9,0.5-3.5-0.9-5.1
		C577.7,237.6,574.6,235.5,573.5,231.7z M364.9,230.3c0.4,0.4,0.7,0.7,1.1,1c-1.9,3.9-5.8,6.2-8.1,9.8c-0.8,1.2-1.2,2.4,0.1,3.5
		c1.2,1,2.2,0.3,3-0.6c6.2-6.5,12.5-13,18.7-19.4c1.7-1.8,1.5-3.4-0.1-5.2c-5-5.6-9.9-11.3-14.7-17c-1.4-1.7-2.6-1.7-4.1-0.2
		c-6,6.2-12.1,12.4-18.2,18.5c-1.5,1.5-1.9,3.1-0.4,4.8c3.2,4,6.5,8,9.7,12c1.8,2.2,3.4,2.2,5.4,0.1
		C359.7,235.2,362.3,232.8,364.9,230.3z M560.8,269.4c0.3-0.2,1-0.5,1.4-1c4.8-5.8,9.5-11.6,14.2-17.5c1.2-1.5,0.5-2.8-0.7-4
		c-6.2-6.5-12.4-13-18.5-19.6c-1.6-1.8-3-1.7-4.5,0.1c-4.5,5.1-9,10.3-13.6,15.4c-1.6,1.8-1.7,3.2,0.1,5.1
		c6.1,6.4,12.1,12.9,18.2,19.3C558.2,268.2,559,269.3,560.8,269.4z M383.6,225.9c-0.4,0.2-1,0.5-1.4,1c-6.4,6.7-12.9,13.5-19.3,20.3
		c-1.4,1.5-1,3.1,0.2,4.5c4.3,5.3,8.6,10.6,12.8,16c1.6,2,3,2.1,4.8,0c6-6.6,12.2-13.2,18.4-19.7c1.8-1.9,2.3-3.4,0.4-5.5
		c-4.5-4.9-8.8-10-13.2-15C385.7,226.7,385,225.9,383.6,225.9z M310.7,247.8c-0.2-0.4-0.3-0.9-0.6-1.2c-4.7-5.8-9.4-11.6-14.1-17.4
		c-1.5-1.9-2.8-1-4.1,0.3c-6.2,6.2-12.4,12.5-18.7,18.6c-2,1.9-2,3.5-0.3,5.5c4.1,5,8.2,10.1,12.1,15.2c1.9,2.5,3.5,3.1,5.9,0.5
		c5.9-6.3,12.1-12.4,18.1-18.5C309.8,249.9,310.8,249.2,310.7,247.8z M667.4,252.1c0.2-1.5-0.7-2.1-1.3-2.8
		c-6.3-6.4-12.7-12.6-19-19c-2.1-2.2-3.6-1.5-5.2,0.6c-3.8,4.8-7.6,9.6-11.7,14.3c-2.2,2.5-2.2,4.5,0.1,6.8
		c6.1,6.1,12.1,12.3,18.1,18.6c1.8,1.9,3,2,4.7-0.2c4.2-5.5,8.7-10.9,13-16.4C666.7,253.2,667.1,252.5,667.4,252.1z M284.8,274.6
		c-0.4-0.8-0.5-1.4-0.9-1.9c-4.6-5.9-9.2-11.8-13.9-17.7c-1.5-2-2.8-1-4.1,0.3c-6,6-12,12-18.1,18c-1.7,1.7-2.1,3.1-0.5,5.2
		c4.4,5.6,8.8,11.3,13,17.1c1.6,2.1,3,2.3,4.8,0.4c5.9-6.3,12-12.5,17.9-18.8C283.8,276.3,284.3,275.4,284.8,274.6z M670.6,254.7
		c-1.1,0-1.8,0.8-2.4,1.6c-4.3,5.5-8.6,11-13,16.4c-1.8,2.3-0.8,4,0.8,5.7c5.9,6.1,11.8,12.2,17.7,18.3c1.7,1.8,2.9,1.7,4.4-0.3
		c4.4-5.9,8.8-11.7,13.3-17.4c1.7-2.1,1-3.5-0.6-5.1c-5.8-5.7-11.5-11.5-17.3-17.3C672.6,255.8,671.8,254.8,670.6,254.7z
		 M135.2,405.9c-0.4,0.6-0.7,1.2-1.2,1.5c-1.1,0.5-2-0.2-2.5-1c-1.5-2.4-3-4.8-4.4-7.3c-1.5-2.7-3.1-3-5.4-0.7
		c-3.2,3.4-6.5,6.7-9.9,9.8c-2.2,2.1-2.3,4-0.8,6.6c4.2,7,8.4,14,12.4,21c1.4,2.4,2.6,3.2,4.9,0.9c5.3-5.5,10.7-10.9,16.1-16.3
		c1.6-1.6,2.1-3.2,0.8-5.3c-4.7-7.2-9.4-14.5-14.1-21.8c-0.5-0.8-1.1-2-2.3-1.4c-1.4,0.8-0.8,2-0.2,3c1.6,2.6,3.2,5.1,4.7,7.6
		C134.1,403.7,134.6,404.7,135.2,405.9z M510.3,270c-0.3-0.7-0.4-1.4-0.8-1.9c-5-5.5-10.1-11.1-15.2-16.6c-1.6-1.7-3-0.7-4.2,0.7
		c-5.5,6.2-11,12.4-16.6,18.6c-1.3,1.5-1.6,2.8-0.2,4.3c4.8,5.3,9.5,10.7,14.2,16.1c1.7,1.9,3,2.2,4.8,0.1
		c5.3-6.2,10.7-12.3,16-18.5C509.1,272,509.6,271,510.3,270z M804.6,408.8c-2.1-0.7-1.8-2.1-0.9-3.5c1.5-2.6,3.3-5,4.9-7.5
		c0.8-1.3,2.8-3,0.8-4.3c-1.7-1.1-2.3,1.3-3,2.5c-4.3,6.5-8.5,13.2-12.9,19.6c-1.7,2.5-1.5,4.3,0.6,6.5c5.3,5.3,10.5,10.8,15.5,16.2
		c1.9,2.1,3,2,4.4-0.5c2.8-5.1,6-10,8.8-15.1c7.1-12.3,7.5-8.7-2.3-18.7c-7.1-7.2-7.1-7.2-12.6,1.3
		C807.2,406.7,806.6,408.4,804.6,408.8z M446,250.7c-0.4,0.3-1.2,0.6-1.8,1.2c-5,5.3-10,10.7-14.9,16.1c-1.6,1.7-0.6,3.1,0.6,4.4
		c5.4,6.3,11,12.5,16.3,18.8c2.2,2.6,3.5,1.9,5.4-0.4c3.9-4.7,8-9.3,12.3-13.7c2.4-2.5,2.8-4.5,0.4-7.2
		c-5.2-5.8-10.3-11.7-15.5-17.5C448.1,251.5,447.5,250.7,446,250.7z M438.7,351.7c-0.4-0.7-0.6-1.3-1-1.8
		c-4.8-5.9-9.6-11.8-14.5-17.8c-2-2.5-3.4-0.9-4.8,0.7c-5.2,5.8-10.3,11.7-15.6,17.5c-1.8,1.9-1.4,3.4,0,5.2
		c4.6,5.7,9.2,11.3,13.8,17c1.5,1.8,2.7,2.1,4.4,0.2c5.2-6,10.5-12,15.7-18C437.5,353.7,438.1,352.7,438.7,351.7z M518.9,374.2
		c1.5,0,2-0.9,2.7-1.7c4.8-5.8,9.5-11.6,14.3-17.4c1.6-1.9,0.9-3.2-0.5-4.8c-5.2-5.8-10.5-11.7-15.5-17.6c-2.2-2.5-3.6-2.1-5.5,0.2
		c-4.1,5.2-8.3,10.4-12.6,15.5c-1.9,2.3-2.1,4.1,0,6.5c5.3,5.8,10.3,11.8,15.5,17.7C517.9,373.2,518.5,373.8,518.9,374.2z
		 M545.6,296.2c-1.1,0-1.6,0.7-2,1.4c-0.8,1.2-0.4,2.2,0.4,3.2c5.7,6.3,11.3,12.6,17,18.9c1.4,1.6,2.7,1.6,4.1-0.1
		c4.9-6.1,9.8-12.2,14.8-18.2c1.7-2.1,1.3-3.8-0.5-5.7c-5.3-5.5-10.5-11.1-15.7-16.8c-2.1-2.3-3.6-2.4-5.5,0.2
		c-2.4,3.2-4.8,6.4-7.6,9.3c-2.5,2.7-3.1,5,0.1,7.5c0.9,0.7,1.7,1.7,2.3,2.7c1.2,2.1,5.7,4,3.5,6s-3.9-2.4-5.8-3.8
		C548.8,299.4,547.7,297.2,545.6,296.2z M390,292.1c-0.2-0.5-0.2-1.1-0.5-1.4c-3.5-4.5-6.9-8.9-10.6-13.3c-1.1-1.4-2.4-0.5-3.4,0.6
		c-5.5,6-11.1,12-16.7,17.9c-1.4,1.5-2,3-0.5,4.8c5,6,9.9,12.2,14.8,18.2c1.3,1.5,2.7,2,4.2,0.4c5.8-6.4,11.7-12.8,17.5-19.2
		c1.2-1.3,0.7-2.4-0.4-3.5c-1.1-1.1-2.1-0.6-3,0.3c-1.5,1.5-2.9,3.2-4.6,4.6c-1.5,1.3-3,4.8-4.9,3c-2.3-2.3,1.5-3.7,2.7-5.3
		C386.5,296.8,389.1,295.1,390,292.1z M446.9,235.4c0.3,1.6-0.4,2.4-1,3.1c-1,1.3-2.6,2.7-0.7,4.3c1.9,1.6,2.9-0.4,4-1.5
		c5.2-5.6,10.3-11.4,15.5-16.9c1.8-2,2.1-3.3,0.1-5.4c-4.6-4.8-9.1-9.7-13.5-14.7c-2.2-2.5-4-3-6.4-0.2c-2.8,3.3-6,6.2-8.9,9.5
		c-8.6,9.8-8.6,9.9,0.1,19.5C441,238.4,441,238.4,446.9,235.4z M375,273.2c-0.3-0.7-0.5-1.3-0.9-1.8c-4.7-5.8-9.4-11.6-14.1-17.4
		c-1.5-1.9-2.8-1.1-4.1,0.3c-5.7,6-11.4,12.1-17.2,18.1c-1.4,1.5-1.5,2.7-0.1,4.3c4.4,5.2,8.7,10.5,12.9,15.8c2.1,2.7,3.9,2.4,6,0
		c5.1-5.6,10.4-11.2,15.6-16.7C373.9,275,374.4,274.1,375,273.2z M601.1,275c-0.4-0.7-0.6-1.4-1-1.8c-6-6.4-12.1-12.8-18.1-19.2
		c-1.5-1.5-2.6-0.8-3.7,0.6c-4.3,5.5-8.7,10.9-13.1,16.3c-1.6,1.9-1.4,3.5,0.2,5.2c5.4,5.7,10.8,11.3,16,17.1
		c2.2,2.4,3.7,2.1,5.5-0.3c4.1-5.2,8.4-10.3,12.6-15.5C600.1,276.7,600.5,275.9,601.1,275z M492.2,235.3c6.1,6,8.5-0.2,11.7-3.6
		c1.8-1.9,3.4-4.1,5.3-6c1.7-1.7,2-3.2,0.2-5.1c-5.4-5.6-10.8-11.3-16-17.1c-2-2.2-3.5-1.7-5.3,0.3c-4.7,5.2-9.5,10.2-14.2,15.4
		c-1,1.1-2.2,2.3-0.8,3.9c5.9,6.5,11.8,13.1,17.7,19.5c0.9,1,2,1.2,3,0.1c1.1-1.1,0.4-2.1-0.3-3.1
		C492.8,238.6,491.3,237.7,492.2,235.3z M625,245.4c0.8-0.5,1.6-0.9,2.1-1.5c4.6-5.5,9.2-11,13.7-16.4c1.7-2,0.3-3.3-1-4.6
		c-5.6-5.6-11.3-11.2-16.9-16.9c-2.1-2.2-3.6-2.4-5.5,0.2c-3.7,4.9-7.6,9.7-11.5,14.4c-2,2.4-2,4.2,0.3,6.4
		c5.5,5.4,10.7,10.9,16.1,16.3C623,244,623.9,244.6,625,245.4z M335,223.3c-0.4-0.7-0.5-1.4-0.9-1.9c-4.4-5.5-8.7-10.9-13.1-16.3
		c-1.8-2.2-3.4-1.3-5,0.3c-5.6,5.7-11.2,11.3-17,16.9c-1.9,1.9-2.1,3.4-0.3,5.5c4,4.7,7.9,9.4,11.7,14.3c2.1,2.8,3.9,3,6.4,0.4
		c5.2-5.6,10.7-10.9,16-16.4C333.6,225.2,334.2,224.2,335,223.3z M359.6,197.2c-0.2-0.4-0.4-1.1-0.8-1.5
		c-4.5-5.3-9.1-10.6-13.7-15.8c-1.7-1.9-2.9-0.5-4.1,0.7c-5.7,5.6-11.2,11.3-17,16.9c-1.9,1.8-2.3,3.3-0.4,5.5
		c4,4.7,7.8,9.5,11.6,14.3c2.2,2.9,4.1,2.6,6.4,0c5.3-5.7,10.8-11.3,16.2-16.9C358.5,199.4,359.5,198.7,359.6,197.2z M595.6,179.4
		c-0.8,0.5-1.6,0.8-2.1,1.4c-4.5,5.1-9,10.3-13.5,15.4c-1.5,1.8-0.4,3,0.8,4.3c5.8,6,11.7,11.9,17.5,17.9c2,2.1,3.4,2,5.2-0.3
		c3.8-4.9,7.7-9.6,11.7-14.3c2-2.3,1.7-3.9-0.4-5.9c-5.5-5.3-10.8-10.8-16.3-16.2C597.7,180.8,596.7,180.2,595.6,179.4z
		 M402.2,179.8c-0.3,0.6-0.5,1.4-0.7,1.4c-0.6,0-1.4-0.1-1.8-0.4c-1.9-1.8-3.7-3.8-5.6-5.6c-1.6-1.6-3-4-5.7-1.4
		c-2.7,2.6-0.8,4.4,0.9,6.3c4.4,4.9,9,9.8,13.2,14.9c2.1,2.5,3.5,2.3,5.5,0.1c5-5.5,10.2-10.9,15.4-16.3c1.8-1.8,1.8-3.3,0-5.1
		c-3.1-3.2-6.2-6.5-9.1-9.9c-7.8-9-7.7-9.1-15.9-0.8c-5.8,5.9-5.7,5.9,0,12.2C399.7,176.7,401,178.3,402.2,179.8z M536.2,182.1
		c2-4.7,4.8-7.1,7.2-9.8c2-2.1,2.1-3.9,0-6c-2.7-2.7-5.3-5.5-7.8-8.4c-2-2.4-3.6-2.2-5.6,0.1c-4.6,5.2-9.4,10.3-14.2,15.4
		c-2.1,2.2-1.8,4,0.1,6c5.2,5.4,10.4,10.7,15.5,16.2c1.9,2,3.3,1.5,4.9-0.4c4.7-5.4,9.4-10.8,14.2-16c1.8-2,1.9-3.6-0.1-5.5
		c-2.2-2.1-3.5-0.4-5,0.9C543,177,541.2,180.4,536.2,182.1z M530.7,200.7c0.1-1-0.6-1.7-1.3-2.4c-5.3-5.7-10.7-11.3-16-17
		c-1.7-1.8-3-1.5-4.5,0.1c-4.5,4.9-9,9.8-13.5,14.6c-1.5,1.6-1.6,3.1,0,4.8c5.3,5.7,10.7,11.4,16,17.1c0.9,1,2.2,2.3,3.4,1.2
		c5.9-5.4,11-11.4,15.9-17.7C530.6,201.2,530.6,201,530.7,200.7z M427.4,179.8c-0.3,0.2-0.9,0.6-1.4,1c-5.6,5.7-11.1,11.5-16.7,17.2
		c-1.6,1.7-1.4,3.2,0,4.8c4.5,5.1,9.1,10.1,13.6,15.3c1.4,1.6,2.6,1.7,4.1,0.1c5.4-5.9,10.9-11.7,16.4-17.5c1.8-1.9,1.6-3.3-0.1-5.1
		c-4.4-4.6-8.6-9.3-12.9-13.9C429.8,180.9,429.1,179.8,427.4,179.8z M488.2,110c-0.5-0.8-0.8-1.6-1.3-2.2
		c-5-5.3-10.1-10.6-15.1-15.9c-2-2.1-3.5-1-5,0.6c-4.7,4.9-9.3,9.9-14.1,14.8c-2,2-1.8,3.5,0.1,5.5c4.6,4.8,9.2,9.6,13.7,14.5
		c2.1,2.3,3.8,2.7,6.1,0.2c4.5-5.1,9.3-9.9,14-14.9C487.1,111.9,487.6,111,488.2,110z M384.1,219.3c0.8-0.6,1.5-1,2.1-1.5
		c4.8-5.1,9.6-10.2,14.4-15.2c1.6-1.6,1.6-3.1,0-4.8c-4.8-5.3-9.5-10.7-14.2-16.1c-2.2-2.6-3.9-2.2-6.1,0.1
		c-4.2,4.5-8.5,8.9-13,13.2c-2.2,2.1-2.1,3.8-0.2,5.9c4.9,5.5,9.7,11,14.5,16.5C382.4,218,383.2,218.6,384.1,219.3z M225.3,373.3
		c0.7-0.5,1.3-0.9,1.8-1.3c6.9-7,13.8-14,20.7-21c1.9-1.9,1-3.6-0.3-5.3c-2.9-4.1-6-8-8.7-12.2c-2-3.2-3.7-2.5-5.7-0.1
		c-2.8,3.1-5.6,6.2-8.5,9.2c-13.2,13.4-13.2,13.4-1.7,28.6c0.3,0.4,0.5,0.9,0.9,1.2C224.2,372.6,224.8,372.9,225.3,373.3z
		 M573.1,197.9c-0.2-0.4-0.6-1.2-1.1-1.8c-4.8-5.1-9.6-10.1-14.4-15.2c-2-2.1-3.5-0.9-4.9,0.7c-4.6,5.2-9.1,10.6-13.9,15.6
		c-2.4,2.6-2,4.4,0.3,6.7c4.3,4.4,8.5,8.8,12.6,13.4c2,2.3,3.6,2.4,5.6,0c4.6-5.4,9.4-10.7,14.1-16.1
		C572.3,200.4,573.1,199.6,573.1,197.9z M487.8,198.5c-0.5-0.7-0.7-1.3-1.2-1.8c-5.2-5.6-10.4-11.2-15.7-16.8
		c-1.8-1.9-2.9-0.4-4.1,0.8c-4.7,5-9.3,10-14,14.9c-1.6,1.7-2.2,3.1-0.4,5.1c5,5.4,9.8,10.9,14.7,16.3c1.6,1.8,3,1.7,4.5-0.1
		c4.8-5.4,9.6-10.6,14.4-15.9C486.8,200.2,487.3,199.3,487.8,198.5z M530,153.1c-0.5-0.7-0.8-1.5-1.3-2.1c-5-5.1-10-10.2-15-15.3
		c-2-2-3.5-0.9-5,0.7c-4.7,5-9.2,10-14,14.9c-1.9,2-1.9,3.6,0,5.5c4.7,4.9,9.4,9.8,14,14.8c1.9,2.1,3.3,1.5,4.9-0.3
		c4.9-5.4,9.9-10.7,14.9-16.1C529,154.7,529.4,153.9,530,153.1z M702.8,332.2c-1.3-0.3-1.9,0.4-2.3,1.1c-3.4,4.7-6.8,9.4-10.3,14.1
		c-1.1,1.5-0.9,2.7,0.3,4c6.8,7.1,13.6,14.1,20.3,21.2c1.7,1.8,2.9,1.7,4.3-0.4c2.8-4.3,5.7-8.6,8.7-12.8c1.8-2.5,1.4-4.4-0.7-6.5
		c-6-6.2-11.9-12.5-17.9-18.7C704.4,333.5,703.5,332.8,702.8,332.2z M446.2,154c-0.6-1-1-1.9-1.7-2.6c-5-5.5-10.2-11-15.2-16.5
		c-1.7-1.9-2.8-0.8-4,0.5c-4.6,4.8-9.2,9.6-13.9,14.3c-2.2,2.1-2.1,3.7-0.1,5.8c4.9,5.2,9.7,10.5,14.4,15.9c1.8,2,3.1,1.9,4.9,0
		c4.6-5,9.4-9.9,14-14.9C445.2,155.8,445.6,154.9,446.2,154z M469.2,316.7c0.8-0.6,1.5-0.9,2.1-1.5c4.9-5.5,9.7-11,14.6-16.5
		c1.8-2,0.9-3.5-0.6-5.2c-4.5-4.9-9-9.8-13.3-14.9c-1.9-2.2-3.3-2.2-5.2-0.1c-4.6,5.3-9.2,10.5-13.9,15.7c-1.6,1.8-1.3,3,0.1,4.7
		c4.5,5.1,9,10.3,13.5,15.4C467.2,315.2,468.2,315.8,469.2,316.7z M137.2,378.3c0.7-0.5,1.3-0.8,1.8-1.2
		c7.3-7.3,14.6-14.6,21.9-21.8c1.5-1.5,1.1-2.9,0.1-4.5c-2.7-4.2-5.4-8.4-8-12.6c-1.5-2.4-2.8-2.3-4.6-0.4c-3.9,4.1-8.1,7.9-12,12
		c-3.6,3.8-10,6.8-10.3,11.6c-0.2,5.2,5.4,9.5,8.3,14.3c0.3,0.6,0.7,1.1,1.2,1.6C136,377.7,136.6,378,137.2,378.3z M787.2,337.8
		c-0.3,0.3-0.9,0.7-1.3,1.2c-3,4.6-6,9.2-9,13.8c-1.2,1.9,0,3.1,1.2,4.3c6.8,6.8,13.7,13.6,20.4,20.5c2.4,2.4,3.8,1.8,5.4-0.8
		c2.4-3.8,4.8-7.6,7.5-11.2c1.5-2.2,1.3-3.8-0.6-5.6c-6.9-6.7-13.7-13.6-20.5-20.4C789.5,338.8,788.8,337.8,787.2,337.8z M483.4,385
		c8.2,0,16.3-0.1,24.4,0c4.5,0,6.5-3.1,8.3-6.2c1.7-2.9-1.5-4.5-2.9-6.2c-4.2-5.2-8.8-10-13-15.2c-2.4-3-3.9-2.4-6,0.3
		c-5,6.5-10.4,12.6-15.3,19.1c-1.9,2.5-6.4,5-4.9,7.9C475.4,387.4,480.2,385.2,483.4,385z M456.4,385.8c2,0,2.8,0.1,3.6,0
		c1.6-0.2,3.7,0.8,4.5-1c0.8-1.7-1.1-3-2.1-4.2c-6.2-7.8-12.6-15.5-18.8-23.3c-1.4-1.7-2.5-3.2-4.6-0.7c-5.3,6.2-10.7,12.3-16,18.5
		c-0.8,1-2.2,2-1.1,3.4c2.4,3,4.1,6.7,9.2,6.6C439.9,384.8,448.7,384.8,456.4,385.8z M122,376.9c3.1,1.3,3.9,3.7,5.3,5.4
		c1.1,1.4,1.7,4.2,4.5,2c2.1-1.6,2.5-3.3,0.9-5.6c-2.7-4-5.3-8-7.9-12.2c-1.4-2.3-2.8-2.5-4.8-0.6c-7.1,7-14.3,13.9-21.5,20.9
		c-1.7,1.6-2,3.3-0.8,5.4c2.7,4.4,5.3,8.9,7.9,13.3c1.3,2.1,2.7,2.2,4.4,0.5c2.7-2.7,5.2-5.6,8.2-8.1c3.8-3.2,5.7-6.3,1.9-10.8
		c-0.8-0.9-1.7-2.2-0.5-3.7c2.4,0.2,2.8,2.6,4.1,3.9c0.8,0.8,1.3,2.3,2.7,1.5c1.3-0.8,0.5-2.1,0-3.1
		C124.9,383.2,122.6,380.9,122,376.9z M634.8,292.1c0.3-0.3,0.9-0.6,1.3-1.1c3.7-4.5,7.3-9,11-13.5c1.2-1.5,0.6-2.7-0.5-3.9
		c-6.4-6.7-12.9-13.4-19.3-20.1c-1.5-1.6-2.7-1.5-4,0.2c-3.1,3.9-6.2,7.8-9.5,11.5c-2.3,2.5-2,4.4,0.3,6.7c6.1,6.1,12,12.4,18,18.6
		C632.8,291.2,633.4,292.1,634.8,292.1z M326.8,267.6c-0.5-0.8-1.1-1.8-1.8-2.6c-2.9-3.6-6-7.1-8.8-10.9c-2.1-2.8-3.6-2.6-5.9-0.2
		c-5.8,6.2-11.7,12.3-17.6,18.4c-2.1,2.1-2.1,3.9-0.3,6c3,3.6,5.9,7.2,8.7,10.9c1.9,2.5,3.5,2.4,5.6,0.2c6-6.2,12.1-12.4,18.1-18.5
		C325.8,270,326.8,269.2,326.8,267.6z M301.6,357.1c-0.5,0.4-1.2,0.8-1.7,1.4c-4.1,4.3-8.1,8.8-12.3,13.1c-1.9,1.9-1.1,3.5,0.1,5.3
		c4.7,6.4,9.5,12.8,14.1,19.3c1.6,2.2,2.9,2.3,4.6,0.3c4-4.5,8-8.9,12.1-13.2c1.8-1.9,1.3-3.5,0-5.3c-4.9-6.3-9.7-12.7-14.5-19
		C303.6,358.2,303.1,357.2,301.6,357.1z M287.6,278.7c-1.1,0-1.8,0.7-2.5,1.4c-6.1,6.2-12.1,12.4-18.3,18.5
		c-1.8,1.8-1.7,3.2-0.2,5.2c3.1,3.9,6.2,7.9,9,12c1.8,2.6,3.1,2.8,5.4,0.5c5.8-6.2,11.8-12.2,17.8-18.2c2-2,2.4-3.6,0.5-5.9
		c-3.1-3.7-6-7.6-9-11.4C289.6,279.8,288.9,278.8,287.6,278.7z M557.7,273.4c-0.5-0.7-0.8-1.3-1.2-1.8c-6.6-7.2-13.3-14.5-20-21.7
		c-1.6-1.8-2.8-0.9-4.1,0.5c-3.1,3.5-6,7.1-9.3,10.4c-2.2,2.2-1.8,3.9,0.1,5.9c6.4,6.8,12.8,13.5,19.1,20.4c1.7,1.8,2.9,2.4,4.7,0
		c2.9-3.9,6-7.5,9-11.3C556.8,275.1,557.2,274.2,557.7,273.4z M177.1,309.8c-0.4,0.2-1,0.5-1.4,0.9c-7.1,7-14.2,14-21.2,21.1
		c-1.3,1.3-1.2,2.6-0.2,4c2.8,4.1,5.7,8.2,8.4,12.4c1.4,2.1,2.7,2.6,4.7,0.7c6.6-6.5,13.3-13,20-19.5c1.8-1.7,1.8-3.3,0.4-5.3
		c-2.8-4.1-5.5-8.3-8.2-12.5C179.1,310.7,178.6,309.8,177.1,309.8z M508.7,130.9c-0.3-0.6-0.5-1.3-1-1.8c-5-5.1-10-10.2-15-15.3
		c-1.5-1.5-2.7-0.5-3.8,0.7c-5,5.3-10,10.7-15.1,15.9c-1.4,1.5-1.6,2.7-0.1,4.2c4.5,4.7,8.9,9.4,13.3,14.2c2,2.2,3.6,1.7,5.4-0.2
		c4.8-5.3,9.8-10.5,14.7-15.7C507.7,132.4,508.1,131.7,508.7,130.9z M673.2,302c-0.5-0.8-0.8-1.6-1.4-2.2
		c-6.2-6.5-12.4-13-18.6-19.5c-1.8-1.9-3.1-1.3-4.5,0.5c-3,3.8-5.9,7.6-9,11.3c-2.2,2.5-1.9,4.5,0.4,6.8c6,6,11.9,12.2,17.7,18.3
		c1.6,1.7,2.6,2.3,4.3,0.1c3.1-4.3,6.5-8.5,9.7-12.7C672.3,303.8,672.6,302.9,673.2,302z M466.8,132.8c-0.4-0.7-0.6-1.3-1-1.8
		c-5.3-5.7-10.7-11.4-16-17c-1.4-1.5-2.6-1.1-3.8,0.2c-4.5,4.6-9,9.3-13.6,13.9c-1.8,1.8-1.7,3.4,0,5.2c4.8,5.1,9.5,10.1,14.2,15.3
		c2,2.2,3.6,2.4,5.7,0.1c4.2-4.7,8.6-9.2,12.9-13.8C465.8,134.3,466.2,133.6,466.8,132.8z M417.4,263.7c-0.6-1-0.9-1.9-1.6-2.6
		c-2.9-3.4-6-6.7-8.8-10.1c-2.2-2.7-3.9-2.3-6,0.1c-3.3,3.7-7.1,7-10.1,10.9c-3.1,4-9.9,6.7-9,11.6c0.9,4.6,6.1,8.4,9.2,12.7
		c1.9,2.6,3.5,2.4,5.5,0.2c6.3-6.8,12.8-13.5,19.1-20.3C416.3,265.5,416.8,264.6,417.4,263.7z M636.5,358c-1.2,0-1.8,0.9-2.4,1.7
		c-4.8,6.3-9.7,12.7-14.5,19c-1.5,2-1.3,3.5,0.4,5.2c3.8,4,7.5,8,11.1,12.1c2.1,2.5,3.8,2.7,5.8-0.2c4.4-6.2,9-12.3,13.6-18.5
		c1-1.4,2-2.8,0.5-4.5c-4.4-4.8-8.8-9.5-13.3-14.2C637.4,358.4,636.9,358.2,636.5,358z M508,176.9c-0.1-1.8-1.1-2.6-2-3.6
		c-4.5-4.7-9.2-9.2-13.4-14.1c-2.2-2.5-3.5-2.1-5.5,0c-4.2,4.7-8.5,9.3-12.9,13.9c-1.8,1.9-1.7,3.2,0,5c4.7,4.9,9.4,9.9,14,15
		c2,2.2,3.5,2.5,5.6,0.1c4-4.6,8.3-9.1,12.4-13.6C506.9,178.7,507.4,177.6,508,176.9z M466.7,175.7c-0.3-0.6-0.4-1.2-0.8-1.5
		c-5.1-5.5-10.2-11-15.3-16.4c-1.3-1.4-2.3-0.5-3.3,0.5c-4.8,5.1-9.6,10.2-14.5,15.2c-2.2,2.2-1.7,4,0.1,6c4.2,4.5,8.4,9,12.5,13.6
		c2.1,2.5,3.6,2.1,5.6-0.1c4.6-5.1,9.3-10,14-15C465.6,177.3,466.1,176.5,466.7,175.7z M785,335.3c-0.5-0.9-0.9-1.8-1.6-2.5
		c-6.8-6.8-13.6-13.6-20.4-20.4c-1.8-1.8-3-1.5-4.3,0.5c-2.3,3.6-4.6,7.3-7.2,10.8c-2.2,3-1.8,5.2,0.9,7.7
		c4.7,4.4,9.2,9.1,13.8,13.7c7.3,7.3,7.3,7.3,13.2-1.4C781.2,341,783.1,338.2,785,335.3z M422.1,223.1c-0.5-0.9-0.9-1.8-1.5-2.5
		c-4.4-5-8.8-10-13.1-15c-2-2.4-3.5-1.6-5.3,0.3c-4.2,4.5-8.4,9-12.9,13.2c-2.8,2.6-2.3,4.6,0.1,7.1c4.2,4.5,8.3,9.1,12.2,13.9
		c1.8,2.2,3.1,2.5,5.1,0.3c4.6-5.1,9.3-10,13.9-15C421.1,224.7,421.5,224,422.1,223.1z M551.9,222.8c-0.4-0.7-0.7-1.4-1.1-1.8
		c-5-5.3-10-10.6-15-16c-1.6-1.7-2.9-0.9-4.1,0.5c-4.4,5-8.8,9.9-13.2,14.9c-1.6,1.8-1.7,3.4,0,5.2c4.7,4.9,9.3,9.9,13.9,14.9
		c1.8,2,3,1.8,4.8-0.2c4.2-5,8.6-9.7,12.8-14.5C550.8,224.9,551.3,223.8,551.9,222.8z M818.8,384.5c1.3,2.3-0.2,3.8-1.2,5.1
		c-2.4,3.2-1.7,5.7,1.2,8.2c3.2,2.9,6.2,6.1,9.2,9.2c1.8,1.8,3.3,2.1,4.7-0.4c2.5-4.2,5-8.3,7.5-12.4c1.2-2,1.1-3.7-0.6-5.4
		c-7.2-7.2-14.4-14.3-21.6-21.5c-1.5-1.5-2.8-1.7-4,0.2c-2.8,4.3-5.7,8.6-8.5,13c-1.4,2.1-0.5,3.9,1.3,5.2c2.2,1.5,2.8-0.8,3.8-1.9
		c1.6-1.8,2.1-4.8,5.7-5.3c-0.6,4-3.2,6.4-4.7,9.3c-0.5,1-0.8,1.9,0.3,2.6c0.9,0.5,1.5-0.3,2.1-0.9
		C815.6,387.7,816.1,385.1,818.8,384.5z M202.8,284.9c-0.4,0.2-1.1,0.5-1.5,0.9c-6.6,6.3-13.1,12.7-19.7,19c-1.4,1.3-1.1,2.6-0.2,4
		c2.8,4.1,5.6,8.2,8.3,12.4c1.8,2.8,3.4,2.5,5.5,0.3c5.8-5.9,11.7-11.8,17.7-17.6c2-2,2.4-3.6,0.6-6c-2.7-3.6-5.2-7.3-7.8-11
		C205,286.1,204.3,285.1,202.8,284.9z M393.7,384.8C393.7,384.8,393.7,384.8,393.7,384.8c4.7,0,9.3,0,14,0.1
		c4.4,0.1,5.7-3.5,7.7-6.2c1.8-2.5-0.9-3.9-2.1-5.5c-4-5.1-8.2-10-12.2-15.1c-1.8-2.3-3.1-2.3-5-0.1c-6.1,7-12.4,13.9-18.6,20.8
		c-1.1,1.2-2.7,2.3-1.6,4.2c1,1.7,2.7,1.7,4.4,1.7C384.7,384.8,389.2,384.8,393.7,384.8z M544.4,384.9c0,0,0-0.1,0-0.1
		c4.8,0,9.7,0,14.5,0c1.5,0,3.1-0.3,3.8-1.9c0.7-1.6-0.6-2.5-1.5-3.4c-6.1-6.8-12.2-13.6-18.3-20.5c-2.3-2.7-4.1-2.8-6.3,0.2
		c-3.5,4.7-7.1,9.3-11.1,13.5c-3.5,3.7-3.4,6.6,0.2,10.1c1.6,1.5,3.1,2.3,5.2,2.3C535.4,384.8,539.9,384.9,544.4,384.9z
		 M622.2,249.4c-0.4-0.8-0.6-1.6-1.1-2.2c-5.9-6.3-11.9-12.5-17.9-18.8c-1.7-1.8-2.8-1-4,0.5c-3.1,3.9-6.2,7.9-9.5,11.6
		c-2.1,2.4-1.9,4.2,0.3,6.4c5.5,5.5,10.9,11.2,16.3,16.9c1.8,1.9,3.2,2,4.8-0.1c3.1-3.9,6.4-7.7,9.5-11.6
		C621.2,251.3,621.6,250.4,622.2,249.4z M351.1,243.2c-0.6-0.9-1-1.8-1.6-2.6c-3.1-3.9-6.4-7.7-9.3-11.7c-1.9-2.6-3.4-2.5-5.5-0.3
		c-5.4,5.9-11,11.6-16.6,17.3c-1.8,1.8-1.9,3.2-0.2,5.1c3.2,3.8,6.5,7.6,9.4,11.6c1.9,2.5,3.2,2.7,5.4,0.4
		c5.4-5.9,11-11.5,16.5-17.3C349.9,245,350.4,244.2,351.1,243.2z M380.7,175.8c-0.3-0.6-0.5-1.2-0.8-1.5c-4.5-5.1-9-10.2-13.6-15.3
		c-1.5-1.7-2.6-0.6-3.8,0.5c-4.9,4.7-9.8,9.5-14.8,14.2c-1.9,1.8-1.6,3.2,0,5c4,4.4,8,9,11.8,13.6c1.9,2.2,3.5,2.8,5.6,0.4
		c4.5-4.9,9.2-9.7,13.7-14.5C379.7,177.4,380.2,176.5,380.7,175.8z M487,154.1c-0.4-0.7-0.7-1.4-1.1-1.8
		c-4.9-5.2-9.8-10.5-14.7-15.6c-1.5-1.5-2.6-0.6-3.7,0.6c-4.5,4.7-8.9,9.5-13.5,14c-2,2-1.8,3.5,0,5.4c4.4,4.5,8.7,9.2,13,13.9
		c1.7,1.8,3,2.2,4.8,0.1c4.2-4.7,8.7-9.2,13.1-13.8C485.7,156.1,486.3,155.1,487,154.1z M574.1,158.6c-0.4,0.2-1,0.5-1.5,0.9
		c-4.5,4.9-8.9,9.8-13.4,14.8c-1.5,1.7-0.6,3,0.7,4.3c4.7,4.7,9.3,9.5,13.9,14.3c2,2.1,3.6,1.7,5.4-0.3c3.9-4.5,7.8-9.1,11.8-13.5
		c1.7-1.8,1.9-3.2,0-5c-4.7-4.5-9.2-9.1-13.8-13.7C576.4,159.5,575.7,158.6,574.1,158.6z M284.2,370.1c0.5-0.3,1.2-0.7,1.8-1.3
		c4.2-4.5,8.4-9,12.6-13.5c1.6-1.7,0.7-3-0.4-4.3c-4.3-5.7-8.6-11.4-12.9-17.2c-1.5-2.1-2.9-2.5-4.8-0.5c-3.9,4.1-7.8,8.2-11.9,12.1
		c-1.8,1.8-1.6,3.2-0.2,5.2c4.3,5.7,8.5,11.5,12.7,17.2C282,368.8,282.6,369.9,284.2,370.1z M758,308.1c-0.4-0.7-0.7-1.3-1.1-1.8
		c-6.6-6.5-13.3-13-20-19.5c-1.6-1.5-2.6-0.6-3.6,0.8c-2.7,3.8-5.3,7.6-8.1,11.3c-1.7,2.2-1.3,3.8,0.6,5.6c6,6,12,11.9,17.9,18
		c2.4,2.5,3.8,1.7,5.3-0.8c2.3-3.6,4.9-7.1,7.3-10.7C756.9,310.2,757.4,309.1,758,308.1z M671.1,349c-0.4-0.7-0.6-1.4-1-1.8
		c-4.2-4.5-8.3-9-12.6-13.4c-1.6-1.7-2.9-0.9-4.1,0.6c-4.4,5.8-8.8,11.6-13.3,17.4c-1.4,1.8-1.1,3.2,0.4,4.8c3.8,4,7.5,8,11.1,12.1
		c2,2.3,3.7,2.4,5.5-0.2c4-5.7,8.2-11.2,12.4-16.8C670.2,350.7,670.6,349.8,671.1,349z M571,154.8c-0.2-0.4-0.4-1-0.9-1.5
		c-5.5-5.6-11-11.1-16.6-16.6c-1.3-1.3-2.6-1.1-3.9,0.2c-4.1,4.6-8.2,9.2-12.3,13.8c-0.9,1-1.8,2.3-0.7,3.5
		c3.6,3.9,6.6,9.1,11.5,10.8c3.4,1.2,5.2-4.3,8-6.5c0.1-0.1,0.2-0.2,0.3-0.4c0.8-0.8,1.8-2,2.9-1c1.5,1.2,0.1,2.4-0.7,3.4
		c-1.9,2.1-3.9,4.1-5.8,6.2c-1.7,1.9-1.1,3.6,0.5,5.2c2,2.1,3.2,0.6,4.5-0.8c3.9-4.3,7.8-8.7,11.7-13
		C570.3,157.2,571,156.3,571,154.8z M383.8,172.4c1.4-0.3,2.3-1.4,3.2-2.6c0.9-1.2,0.2-2.2-0.6-3.1c-2.1-2.3-4.3-4.6-6.4-7
		c-0.8-0.9-1.4-2.1-0.2-3c0.9-0.7,1.9,0.1,2.6,0.8c1.8,2,3.6,3.9,5.3,6c1.7,2,3.3,2.6,5.3,0.4c2.8-3,5.8-6,8.7-8.9
		c1.6-1.6,1.6-3.1,0-4.8c-4-4.3-7.9-8.5-11.8-12.9c-1.9-2.2-3.5-1.8-5.4,0.1c-4.9,5-9.8,9.9-14.9,14.8c-1.9,1.9-2.1,3.5-0.2,5.5
		c3.8,4.2,7.4,8.5,11.2,12.8C381.5,171.3,382.3,172.3,383.8,172.4z M293.5,440.8c6.3,0,12.6,0,18.9,0c2.7,0,3.4-0.8,1.7-3.1
		c-5.4-7.4-10.8-14.8-16.1-22.2c-1.5-2.1-2.9-2.3-4.7-0.2c-6.7,7.4-13.5,14.6-20.3,21.9c-0.6,0.7-1.5,1.7-1.4,2.5
		c0.3,1.5,1.8,1.1,2.9,1.1C280.9,440.8,287.2,440.8,293.5,440.8z M533,149.4c0.5-0.3,1.2-0.6,1.8-1.2c4.3-4.6,8.6-9.3,12.9-13.9
		c1.6-1.7,0.7-2.9-0.6-4.2c-4.8-4.8-9.7-9.6-14.4-14.5c-1.8-1.8-3.1-1.9-4.9,0.1c-3.8,4.2-7.6,8.3-11.5,12.4c-1.7,1.8-2,3.1-0.1,5
		c4.7,4.7,9.2,9.6,13.8,14.4C530.6,148.3,531.4,149.2,533,149.4z M240.6,274.8c-0.2-0.3-0.4-1.1-0.8-1.5c-3.6-3.3-5.5-7.8-8.5-11.6
		c-2-2.5-3.5-2.5-5.6-0.3c-5.8,5.9-11.7,11.8-17.7,17.6c-2.1,2.1-2.1,3.8-0.4,6c2.6,3.3,4.9,6.8,7.4,10c1.1,1.3,1.7,4.3,4.4,2.2
		c2.4-1.8,3.7-3.8,1.2-6.6c-1.5-1.7-2.8-3.7-4.1-5.6c-0.5-0.8-1.2-1.8-0.2-2.7c1.1-0.8,1.8,0.1,2.4,0.9c1.2,1.6,2.5,3.1,3.6,4.8
		c1.8,2.6,3.5,3.2,5.9,0.6c3.4-3.6,7-7.1,10.6-10.6C239.6,277.2,240.6,276.4,240.6,274.8z M409.1,113.8c-0.7,0.4-1.3,0.7-1.8,1.1
		c-5.3,5.2-10.6,10.5-15.9,15.8c-1.5,1.5-0.7,2.6,0.4,3.9c4.1,4.4,8.1,8.8,12.1,13.2c1.4,1.6,2.7,2.2,4.5,0.3
		c4.8-5.1,9.6-10.1,14.5-15c1.5-1.5,2-2.8,0.3-4.6c-4-4.2-7.9-8.5-11.9-12.7C410.7,114.9,409.9,114.4,409.1,113.8z M880.2,253.4
		c-5.7,0-11.3,0.1-17,0c-3.5-0.1-4.8,1.4-4.7,4.8c0.2,4,0,8,0.1,12c0,6.6,0.2,6.5,6.7,6.7c4.6,0.2,6.5-1.5,6-6
		c-0.2-1.8-0.1-3.7,0.1-5.5c0.5-5.1,3.7-8.7,8.3-9.2c4.3-0.5,8.4,2.5,10,7.4c1,3,0.5,5.9,0.2,8.9c-0.3,3.3,1.2,4.6,4.4,4.4
		c2.9-0.1,6.3,0.7,6.3-4.1c-0.1-5.2-0.1-10.3,0.2-15.5c0.2-2.9-0.8-3.9-3.6-3.8C891.5,253.4,885.8,253.4,880.2,253.4z M447.5,106.6
		c0.7-0.4,1.4-0.5,1.8-1c5.5-5.5,11-11.1,16.5-16.7c1.2-1.3,0.7-2.4-0.3-3.5c-3.9-4.1-7.8-8.2-11.6-12.3c-1.8-2-3.3-1.5-5,0.2
		c-4.9,5-9.8,9.9-14.8,14.8c-1.6,1.6-1.8,2.9-0.1,4.6c4,4,7.8,8.2,11.7,12.3C446.1,105.6,446.8,106,447.5,106.6z M506.9,90.7
		c-0.5-0.8-0.8-1.6-1.4-2.1c-5.2-5.2-10.4-10.4-15.5-15.6c-1.9-1.9-3.2-0.8-4.6,0.6c-3.4,3.5-6.7,7-10.2,10.3
		c-2.5,2.3-2.6,4.3-0.1,6.7c4.6,4.6,9.2,9.2,13.6,14c2.1,2.3,3.8,2.1,5.8-0.1c3.6-4,7.3-7.8,10.9-11.7
		C505.8,92.2,506.3,91.5,506.9,90.7z M58.9,252.2C58.9,252.2,58.9,252.1,58.9,252.2c-6,0-12,0-17.9-0.1c-2,0-3.6,0.3-3.5,3
		c0.1,5.3,0.1,10.6,0.1,15.9c0,2.7,1.2,3.8,3.9,4c5.8,0.5,6.8-0.3,6.8-6c0-1.7-0.1-3.3,0.1-5c0.5-5.6,4.2-9.3,9.2-9.2
		c5.3,0.1,8.6,3.3,9.1,9.2c0.2,2.3,0.1,4.7,0.1,7c0,4.8,3.5,4,6.4,4c2.9,0,6.3,0.7,6.4-4c0.1-4.7,0.4-9.3,0.7-13.9
		c0.3-3.7-1.3-5-4.9-4.9C69.9,252.3,64.4,252.2,58.9,252.2z M645.5,441.1c0,0.1,0,0.2,0,0.4c6,0,12,0,18,0c1,0,2.2,0.5,2.8-0.4
		c0.8-1.1-0.3-1.8-1-2.5c-6.8-7.5-13.7-15-20.5-22.5c-1.7-1.8-2.9-2.4-4.6,0.1c-5,7.1-10.2,14-15.3,21c-2.2,2.9-1.4,4.1,2.1,4
		C633.2,441.1,639.4,441.1,645.5,441.1z M721.6,282.8c2.2,0.6,1.4,1.9,0.7,3c-1.6,2.3-3.3,4.6-5,6.8c-1.8,2.4,0.1,3.6,1.6,5
		c1.8,1.6,3,0.6,4.1-0.9c2.7-3.6,5.3-7.2,8-10.8c1.5-1.9,1.4-3.6-0.3-5.3c-6.1-6.1-12.3-12.2-18.3-18.3c-2.2-2.3-3.4-1.3-5.1,0.7
		c-3,3.5-4.6,8.1-8.1,11.2c-1.7,1.5-0.8,3,0.5,4.3c3.2,3.2,6.3,6.4,9.5,9.5c4.3,4.3,4.3,4.3,8-0.6
		C718.5,285.7,719.5,283.7,721.6,282.8z M696.4,302.5c-0.2,4.1-2.7,6.1-4.2,8.6c-1.2,2-1.6,3.6,0.4,5.2c2.3,1.9,3.3-0.2,4.3-1.6
		c4.3-5.7,8.4-11.5,12.8-17.2c1.5-2,1.3-3.5-0.4-5.1c-3.8-3.7-7.6-7.5-11.3-11.3c-1.6-1.6-3-1.9-4.5,0.2c-4.5,6-9,12-13.5,17.9
		c-1.2,1.6-1.1,3.1,0.3,4.5c2.6,2.5,4.3,6,8,7.1c0.5,0.1,1.5-1.5,2.3-2.4C692.2,306.5,693,303.7,696.4,302.5z M242.2,302.8
		c1.6-0.7,2.2,0.2,2.8,0.9c6,6.8,6,6.8,12.3,0.2c0.1-0.1,0.2-0.2,0.4-0.4c2.3-1.8,2.3-3.7,0.5-6c-4.3-5.5-8.5-11.1-12.7-16.7
		c-1.6-2.1-2.9-2.4-4.8-0.4c-3.6,3.7-7.2,7.4-11,11c-2.1,2-2,3.8-0.3,6.1c4.1,5.4,8.1,11,12.2,16.5c1,1.4,1.9,3.5,4.3,1.9
		c2.4-1.6,1.9-3.4,0.5-5.5C244.8,307.9,242.5,305.8,242.2,302.8z M100.8,313C100.8,313,100.8,313,100.8,313c0,4.7,0,9.3,0,14
		c0,1.5,0,3.4,1.9,3.7c4.3,0.6,8.6,0.7,12.9-0.1c1.6-0.3,1.7-1.9,1.7-3.2c0-9.3,1.4-18.6,1.1-27.9c-0.1-3.1-1.5-4.6-4.3-3.9
		c-4.4,1.1-10.1-3.3-13.2,3.1c-0.4,0.8-0.1,2-0.1,3C100.8,305.3,100.8,309.1,100.8,313z M792.5,218.9c-1.8-4.4-5-5-8.7-4.6
		c-2.3,0.2-4.7,0-7,0c-2.3,0-5-0.3-4.9,3.2c0.1,3.8,3.1,2.2,4.9,2.3c15.1,0.6,30.3,0.2,45.4,0.7c17.3,0.6,34.6,0.2,51.9,0.4
		c3.9,0,3.8-1.5,2.3-4.2c-0.9-1.7-2.2-2.4-4-2.4c-3,0-6,0-9,0c-2.7,0-5.5-0.3-5.7,3.7c0,0.5-0.7,1.2-1.2,1.3
		c-0.7,0.2-1.3-0.6-1.2-1.2c0.4-4.3-2.6-3.8-5.3-3.8c-2.7,0-5.3,0-8,0c-2.6,0-5.1-0.1-5.3,3.5c0,0.8-0.6,1.7-1.6,1.6
		c-0.9-0.1-1.3-1-1.5-1.8c-0.3-1.5-0.6-3.1-2.5-3.2c-4.7-0.1-10.5-1.8-13.7,0.4c-4,2.7-5.2,2.5-8.5-0.2c-1.8-1.5-5.8-0.2-8.8-0.4
		C796.7,214.1,793.5,214.1,792.5,218.9z M63.2,238.2C63.2,238.2,63.2,238.3,63.2,238.2c-12.6,0-25.3,0.1-37.9,0
		c-3,0-5.6,0.7-7.8,2.6c-0.9,0.8-2.2,1.5-1.9,2.7c0.4,1.8,2.2,1.2,3.4,1.2c27.4,0.1,54.9,0.1,82.3,0.1c2.5,0,4.9-0.1,4.8-3.5
		c0-3.7-2.8-3.1-5-3.1C88.5,238.2,75.9,238.2,63.2,238.2z M429.5,93.5c-0.7,0.4-1.5,0.8-2.1,1.3c-4.7,4.7-9.4,9.4-14.1,14
		c-1.8,1.8-1,3.2,0.4,4.7c3.9,4.1,7.8,8.2,11.6,12.4c1.6,1.8,3,1.8,4.6,0.1c4.4-4.7,8.9-9.4,13.4-14.1c1.1-1.1,2.1-2.3,0.7-3.9
		c-4.2-4.5-8.4-9-12.6-13.4C430.9,94.2,430.2,93.9,429.5,93.5z M527.1,111.1c-0.4-0.7-0.6-1.4-1-1.8c-4.9-5-9.8-9.9-14.8-14.8
		c-1.5-1.5-2.6-0.5-3.8,0.7c-3.8,4-7.5,8-11.4,11.9c-1.7,1.7-2.2,3-0.3,5c4.3,4.4,8.5,8.8,12.7,13.4c2.3,2.5,4,2.2,6.1-0.1
		c3.5-4,7.2-7.8,10.8-11.7C526.1,112.9,526.5,112,527.1,111.1z M837.2,314.8C837.2,314.8,837.2,314.8,837.2,314.8
		c0-1.8,0.1-3.7,0-5.5c-0.3-13.9,2.4-11.9-12.7-12.2c-3.8-0.1-5,1.5-4.8,5.1c0.4,8.6,0.7,17.3,1,25.9c0.1,2,0.5,3.8,2.9,3.8
		c3.5,0.1,7,0.2,10.5,0.1c2.4,0,3-1.7,3-3.8C837.2,323.8,837.2,319.3,837.2,314.8z M531.8,245.8c-0.3-0.6-0.5-1.3-0.9-1.8
		c-5.1-5.5-10.2-11-15.3-16.4c-1.3-1.4-2.6-1-3.8,0.4c-3.1,3.5-6.1,7-9.3,10.4c-2.1,2.2-2.3,4,0.1,6.3c3.6,3.5,6.8,7.3,10.3,10.9
		c6.3,6.6,5.5,6.6,11.3-0.4c1.9-2.3,4-4.5,5.9-6.8C530.6,247.6,531.1,246.7,531.8,245.8z M438.5,241.1c-0.2-0.4-0.5-0.9-1-1.4
		c-3.6-4.1-7.3-8.2-10.9-12.4c-1.8-2-2.8-0.7-4,0.5c-4.5,4.9-9,9.8-13.7,14.5c-1.8,1.9-2.3,3.5-0.4,5.6c3.2,3.6,6.4,7.2,9.5,10.9
		c1.8,2.1,3.2,1.7,4.9-0.1c4.6-5,9.4-9.9,14.1-14.9C437.7,243.1,438.5,242.5,438.5,241.1z M694,441.7c5.5,0,11,0,16.4,0
		c1.1,0,2.6,0.4,3.1-1c0.4-1-0.7-1.8-1.3-2.5c-6.4-6.8-12.8-13.5-19-20.3c-2-2.2-3.1-1.5-4.4,0.6c-4.2,6.4-8.4,12.8-12.7,19
		c-2.1,3-1.9,4.4,2.1,4.3C683.4,441.6,688.7,441.7,694,441.7z M244,440.8C244,440.8,244,440.8,244,440.8c5.5,0,11,0,16.4,0
		c3.2,0,4-1,2.1-3.8c-4.3-6.3-8.5-12.7-12.7-19.1c-1.5-2.3-2.9-3-5-0.7c-6.3,6.8-12.8,13.5-19.1,20.3c-0.5,0.6-1.2,1.5-1.1,2.1
		c0.2,1.2,1.5,1.1,2.5,1.1C232.7,440.8,238.4,440.8,244,440.8z M130,440.7c13.9,0,26.8,0.1,39.7-0.1c3.2,0,1.6-2.2,0.7-3.5
		c-4.2-6.4-8.4-12.8-12.7-19.2c-0.9-1.3-1.3-4-3.9-2.5c-2.2,1.4-2.4,3.4-0.9,5.6c1.4,2,2.8,4.2,4.1,6.3c0.5,0.8,0.4,1.7-0.4,2.2
		c-0.8,0.5-1.7,0.3-2.2-0.4c-1.4-1.9-2.6-3.8-3.9-5.8c-1.1-1.8-2.4-2.2-4-0.6C141.1,428.3,135.5,433.7,130,440.7z M58.6,278.2
		c-4.5,0-9,0-13.5,0c-8.3,0-8.4,0-8.3,8.2c0,2-1,4.9,1.4,5.8c2.7,1.1,6.2,1.5,8.6-0.6c6.7-5.7,13-5.2,19.8-0.2
		c3.3,2.4,7.6,2,11.1,0.8c3.3-1.2,1.3-5,1.8-7.6c0.1-0.5,0-1,0-1.5c0.4-3.7-1.4-5-5-4.9C69.2,278.4,63.9,278.3,58.6,278.2z
		 M882,246.1c10.3,0.3,24.2-0.6,38,0.5c1,0.1,2.1,0.4,2.7-0.8c0.5-1.1-0.3-1.9-1-2.6c-2.1-2.1-4.6-3.1-7.6-3.1
		c-25.3-0.2-50.6-0.5-75.9-0.6c-2.4,0-5.5-0.7-5.5,3.2c0,3.8,3,3.4,5.4,3.4C851.5,246.1,865,246.1,882,246.1z M808.3,441.7
		c-4.9-5.3-8.8-9.6-12.8-13.8c-5.6-6-5.6-6-10.4,0.9c-0.3,0.4-0.5,0.8-0.9,1.2c-0.8,0.9-1.7,1.8-3,1.1c-1.3-0.8-0.7-2.1-0.1-3.1
		c1.4-2.3,2.9-4.4,4.4-6.7c1.3-2,0.3-3.5-1.3-4.7c-2-1.4-2.6,0.5-3.4,1.7c-4.4,6.7-8.8,13.3-13.1,20c-1.2,1.8-2,3.5,1.3,3.5
		C781.7,441.7,794.3,441.7,808.3,441.7z M178.6,440.8c13.3,0,25.1,0,36.8,0c3.3,0,2.9-1.9,1.5-4c-4.1-6.3-8.2-12.5-12.2-18.8
		c-1.4-2.1-2.6-2.8-4.6-0.7C193.3,424.8,186.5,432.2,178.6,440.8z M759.4,441.7c-7.8-8.5-14.6-16-21.4-23.4c-1.4-1.6-2.8-1.7-4,0.2
		c-4.3,6.5-8.7,13-13,19.5c-1.7,2.5-0.7,3.7,2.1,3.7C734.7,441.7,746.3,441.7,759.4,441.7z M101,428.8c-1.9-0.3-2.2-2-3.1-3.1
		c-1-1-2-1.4-3-0.3c-4.8,4.7-9.5,9.5-15.2,15.3c13.9,0,26.5,0.1,39.1-0.1c3.4-0.1,1.8-2.5,0.9-3.9c-3.9-6.6-7.9-13.1-11.8-19.7
		c-1.5-2.7-2.8-2.1-4.6-0.3c-1.7,1.8-0.8,3.3,0,5c1.2,2.7,3.7,5,3.5,9.4c-3.4-3.4-4-7.8-7.6-10.1C98.1,424.3,101.8,426,101,428.8z
		 M830.3,432c0.9-4.8,3.1-7.7,4.7-10.8c1.2-2.3-0.2-3.5-1.7-4.5c-1.8-1.3-2.3,0.6-2.9,1.6c-4.1,6.7-8.2,13.3-12.2,20
		c-1,1.7-1.4,3.3,1.3,3.4c11.6,0.1,23.3,0.1,34.9,0c3.1,0,2.2-1.6,0.8-3.1c-2.5-2.6-5.1-5.2-7.7-7.8c-5.6-5.7-5.6-5.7-10.7-0.1
		c-0.1,0.1-0.5-0.1-0.8-0.2c0.1-2.9,3.3-4.9,2.8-8.8C835,424.4,834.5,428.9,830.3,432z M879.9,280c-5.7,0-11.3,0-17,0
		c-2.8,0-4.4,1.1-4.3,4.1c0,2.2,0,4.3,0,6.5c0,1.4,0.5,2.9,2.1,3c3.6,0.3,7.6,1.4,10.7-0.8c6.9-4.9,13.3-4.9,20.1,0.3
		c2.3,1.8,6.5,2.1,8.5,0.1c2.6-2.7,1.4-7,0.7-10.5c-0.6-3.1-3.5-2.6-5.8-2.6C889.9,279.9,884.9,280,879.9,280z M484.7,68.4
		c-0.3-0.5-0.6-1.2-1-1.6c-4.1-4.1-8.2-8.2-12.3-12.3c-1.6-1.6-3-0.7-4.3,0.6c-3.8,3.8-7.5,7.5-11.3,11.2c-1.5,1.4-1.7,2.7-0.2,4.2
		c4.1,4.1,8.1,8.3,12.2,12.4c0.8,0.9,1.9,1.7,3,0.6c4.4-4.5,8.7-9.1,13.1-13.6C484.3,69.5,484.5,69,484.7,68.4z M681.3,324.4
		c-0.2-3.1,1.5-4.6,2.7-6.4c0.9-1.5,2.7-3,0.9-4.8c-2.8-2.8-4.9-6.3-8.7-7.9c-0.3-0.1-1.3,0.9-1.8,1.5c-3.4,4.3-6.6,8.7-10,13
		c-1.2,1.6-1.3,2.9,0.2,4.3c4.1,4.1,8.1,8.3,12.2,12.5c1.1,1.1,2.3,2.2,3.7,0.3c3.6-4.8,7.2-9.6,10.8-14.4c1.4-1.9,0.2-3.1-1.1-4.2
		c-1.7-1.5-2.6-0.2-3.6,1C685,321.2,684.4,323.7,681.3,324.4z M257.6,323.3c-3.3-0.2-3.6-2.5-4.9-3.9c-1.1-1.2-1.9-3.6-4.2-1.6
		c-1.9,1.6-1.9,3.3-0.4,5.2c3.1,4.1,6.2,8.2,9.2,12.4c1.5,2,2.8,2.6,4.8,0.6c3.8-4,7.6-7.9,11.5-11.7c1.7-1.7,1.9-3.3,0.4-5.3
		c-3.2-4.2-6.4-8.5-9.7-12.7c-1-1.3-2-1.9-3.8-0.8c-6.6,4.2-7.8,8.3-4,15C256.9,321.2,257.1,322,257.6,323.3z M614.7,441
		c-2.2-4.1-4.5-5.8-8.4-5.8c-20.8,0.1-41.7,0-62.5,0c-2.4,0-5.9-1.2-6,3.1c-0.1,4.3,3.3,3.4,5.8,3.4c13,0.1,26,0.4,39-0.1
		C593,441.2,603.5,441.3,614.7,441z M82.7,370.2c0,2.3,0,4.7,0,7c0,2.3-0.1,4.7,0,7c0,1.1-0.5,3,1.9,2.5c2.3-0.5,8.9-8.6,9-11.3
		c0.3-10.1,0.4-20.2,0.8-30.4c0.1-3.8-1.5-4.9-5-4.8c-3.3,0.1-5.9,0.2-5.8,4.6C83.7,353.3,82.3,361.8,82.7,370.2z M854.4,388.4
		c1.2-2.6,0.9-4.6,0.8-6.6c-0.8-11.6-0.9-23.2-0.8-34.8c0-4.1-1.8-5.1-5.4-5.1c-3.8,0-5.4,1.2-5.3,5.2c0.2,7.6,0.8,15.3,0,22.9
		C842.8,379,848.2,383.5,854.4,388.4z M129.7,340.4c-8.3,0-16.9,0-25.5,0c-2.2,0-3.4,1.3-3.3,3.5c0.4,8.2,0.8,16.4,1.1,24.4
		C111.2,359,120.4,349.8,129.7,340.4z M177.3,297.2c-0.4-0.6-0.8-1.2-1.2-1.8c-8.9,0-17.8,0-26.6,0c-1.6,0-2.4,0.9-2.2,2.6
		c1.1,7.1,0.2,14.2,0.5,21.4c0.1,1.2-0.5,3,1,3.5c1.4,0.4,2.2-1.2,3.2-2.1c5.2-5.1,10.3-10.3,15.6-15.4
		C170.6,302.6,174,300,177.3,297.2z M678.8,214.5c2.3,4,5.7,4.6,9.5,4.7c23.1,0.2,46.2,0.5,69.3,0.7c2.8,0,5.7,0,8.5,0
		c1.7,0,3-0.5,3-2.5c0.1-2.2-1.1-3-3.1-3c-2.7,0-5.3-0.1-8,0c-2.9,0.1-6.6-1.3-7.3,3.5c-0.1,0.8-1.6,1.2-1.9,0.2
		c-1.3-5.8-5.9-3.6-9.3-3.7c-3.5-0.1-7.8-1.7-9.7,3.4c-0.3,0.9-1.4,0.5-2.1-0.2c-4.6-4.4-14-4.9-18.6-0.9c-1.1,1-1.6,1.1-2.7-0.1
		c-3.4-3.6-14.6-3.6-17.7-0.1c-1.5,1.7-2.4,1.6-3.3-0.2C683.9,213.2,681.5,214.1,678.8,214.5z M323.4,440.9c2.6,0,4.5,0,6.3,0
		c21,0,42,0.1,62.9,0.1c1.3,0,2.7,0,4,0c2,0,3.7-0.5,3.7-3c0-2.5-1.9-2.8-3.8-2.9c-1.8,0-3.7,0-5.5,0c-19.5,0-39,0.2-58.4-0.2
		C327.9,434.7,325.5,436.2,323.4,440.9z M263.8,241.3c0.8-0.6,1.5-1,2.1-1.5c6.5-6.4,13-12.9,19.5-19.3c1.3-1.3,1.4-2.5,0.3-4
		c-1.2-1.6-2.6-3-3.7-4.7c-1.8-2.7-3.5-2.4-5.6-0.3c-5.9,5.9-12,11.6-17.9,17.4c-1.2,1.2-3.4,2.4-1.7,4.5
		C259,236.1,260.7,239.2,263.8,241.3z M836.2,356c0.1,0,0.1,0,0.2,0c0-3.3,0-6.7,0-10c0-2.7-1.1-4.1-3.8-4.1c-7.2,0-14.3,0-21.4,0
		c-1.8,0-3.4,0.6-1.4,2.5c7.8,7.9,15.7,15.8,23.7,23.5c2.2,2.2,2.8,0.4,2.8-1.6C836.2,363,836.2,359.5,836.2,356z M658.8,210.6
		c-2.5,1.8-4.4,4.5-6.2,7.2c-1.4,2.2,0.8,3.3,2,4.5c5.5,5.5,11,11.1,16.6,16.5c1.4,1.4,2.5,5.1,5.8,1.7c5.4-5.7,6-7.3,2.8-10.6
		c-5.7-5.8-11.5-11.5-17.3-17.2C661.6,211.8,660.8,210.7,658.8,210.6z M485.5,57.7c1.3,0.4,2.1,0.4,2.4,0.8c3.2,4,5.8,2.3,8.3-0.9
		c0.8-1,1.8-2,2.8-2.8c1.8-1.6,1.5-3-0.1-4.6c-3.7-3.6-7.4-7.2-11-10.9c-1.7-1.8-3.2-2-5-0.1c-2.9,3-5.8,6-8.8,8.8
		c-1.9,1.8-1.9,3.2,0,4.9c3,2.8,5.8,5.9,8.9,8.8c1.5,1.4,3.1,4.6,4.9,3.3c2.6-2-1.5-3.2-2-5.1C485.9,59.4,485.8,58.9,485.5,57.7z
		 M453.5,57.8c0.5,2.3-1.1,3-1.9,4.1c-0.7,0.9-2,1.7-0.8,3c1.2,1.3,2.1,0.1,2.9-0.7c3.9-3.8,7.8-7.7,11.7-11.6
		c1.5-1.5,1.5-2.7,0-4.2c-3.1-3.2-6.2-6.5-9.2-9.8c-1.6-1.8-2.9-1.7-4.6,0c-3.6,3.7-7.2,7.3-11,10.9c-2,2-1.7,3.5,0.1,5.5
		C446.3,61.1,446.2,61.1,453.5,57.8z M336.2,169.9c-2-2.5-4-4.9-5.9-7.3c-1.5-1.9-2.9-1.7-4.5,0c-5.6,5.7-11.3,11.3-17,16.9
		c-1.8,1.7-2,3.3-0.2,5.1c1.1,1.2,2.1,2.5,3.1,3.9c1.7,2.4,3.5,2.7,5.7,0.5c5.7-5.6,11.5-11.1,17.2-16.7
		C335.2,171.6,335.5,170.9,336.2,169.9z M238.2,265.4c1.8,0,2.6-1.2,3.6-2.1c4.7-4.7,9.4-9.4,14.1-14c5.7-5.6,5.7-5.6,0.6-11.7
		c-0.2-0.2-0.5-0.5-0.6-0.8c-1.6-2.5-3.1-2.3-5.1-0.2c-5.6,5.7-11.3,11.2-16.9,16.9c-1.2,1.2-3.3,2.3-1.8,4.5
		C233.9,260.7,235.7,263.5,238.2,265.4z M763.3,297.1c8,8.4,15.5,16.3,23.1,24.3c0.8,0.8,1.6,2,2.9,1.5c1.3-0.5,1-2,1-3.1
		c0.1-6.7,0.1-13.3,0.3-20c0-1.6-0.5-2.7-2.1-2.7C780,297,771.5,297.1,763.3,297.1z M289.7,215.6c0.7-0.5,1.3-0.7,1.8-1.2
		c6.2-6.1,12.3-12.2,18.4-18.3c1.6-1.6,1.5-3.2,0.1-4.9c-1.2-1.4-2.4-2.8-3.4-4.3c-1.6-2.4-3.1-2.4-5.2-0.3
		c-5.7,5.8-11.5,11.5-17.3,17.3c-1.1,1.1-2.9,2.4-1.5,4.2C284.8,210.7,286.5,213.9,289.7,215.6z M656.8,207.4
		c-0.8-1-1.5-1.9-2.3-2.7c-5-5-10.1-10.1-15.1-15.1c-4.9-4.8-4.7-4.7-9.2,0.5c-2.8,3.2-3.2,5.5,0.3,8.5c5.1,4.5,9.7,9.6,14.6,14.2
		c1.4,1.3,2.5,4.4,5.1,2.7C653,213.6,655.1,210.7,656.8,207.4z M631.5,183.1c0-1.4-0.8-2.1-1.5-2.8c-5.7-5.6-11.4-11.3-17-17
		c-1.8-1.8-3.2-2.1-4.8,0.2c-0.9,1.2-1.8,2.4-3,3.4c-2.6,2.3-2.5,4.2,0.1,6.6c5,4.7,9.7,9.6,14.6,14.4c1.4,1.4,2.7,4.5,5,3
		C627.9,189,630.1,186.1,631.5,183.1z M82.8,313c0,4.6,0.1,9.3,0,13.9c-0.1,3.9,2.3,4.2,5.2,4.1c2.9,0,5.4-0.1,5.3-4
		c0-9.1,0-18.2,0.2-27.4c0.1-3.7-2-4.4-5.1-4.3c-3,0.1-5.8,0-5.7,4.2C82.9,304,82.9,308.5,82.8,313z M707,258.2
		c-0.3-1.8-1.5-2.7-2.5-3.8c-5.3-5.3-10.5-10.6-15.9-15.8c-1.7-1.6-3.6-4.6-5.7-0.9c-1.7,3-7.8,5.2-2.5,10.2
		c5.2,4.9,10.2,10,15.4,14.8c1.4,1.3,2.6,4.4,5,3C703.6,264.1,705.2,260.9,707,258.2z M482.8,34.8c-0.6-0.8-1-1.5-1.5-2.1
		c-10-12.6-11.4-12.6-22.4-1.2c-0.2,0.2-0.5,0.5-0.7,0.7c-2,1.6-1.9,3.1,0,4.9c2.9,2.7,5.8,5.5,8.5,8.5c2.3,2.5,4,2.1,6.2-0.2
		c2.5-2.7,5.2-5.2,7.8-7.8C481.4,36.7,482,35.7,482.8,34.8z M522.8,74.4c-0.7-0.9-1.2-1.7-1.9-2.4c-4.9-5-9.9-9.8-14.8-14.8
		c-1.8-1.8-3.3-2-5,0c-1.2,1.4-2.5,2.7-3.8,3.9c-2.5,2.2-2.2,3.9,0.1,6.1c4.4,4.1,8.5,8.4,12.8,12.6c1.3,1.3,2.6,3.8,4.8,2.5
		C518.1,80.4,520.5,77.5,522.8,74.4z M360.3,146.3c1-0.8,1.9-1.5,2.7-2.2c3.6-3.4,7.3-6.8,10.9-10.3c8.2-8.2,7.3-5.6,0.5-13.7
		c-2.2-2.6-3.5-2-5.5,0c-4.6,4.8-9.5,9.4-14.1,14.1c-1.2,1.2-3.5,2.4-1.8,4.5C355.2,141.4,357,144.5,360.3,146.3z M566.8,118.9
		c-2.2,1-3.5,3.3-5.3,4.9c-2.5,2.2-2.5,4.2,0,6.6c4.9,4.5,9.5,9.2,14.1,14c2.3,2.4,4.1,2.3,6.1-0.2c1-1.3,2.2-2.5,3.4-3.6
		c2.2-2,1.7-3.5-0.3-5.4c-5.1-4.8-10-9.7-15.1-14.5C569,120,568.3,119,566.8,118.9z M444.1,64.3c-1-3.2-3.9-4.6-5.6-7
		c-1.8-2.6-3.3-2.6-5.5-0.3c-4.1,4.3-8.2,8.7-12.8,12.6c-3.7,3.2-3.7,5.8,0,8.7c0.8,0.6,1.5,1.4,2.1,2.1c1.9,2.2,3.6,2.5,5.8,0.2
		c4.6-4.8,9.5-9.4,14.2-14C443,66,443.5,65.1,444.1,64.3z M401.9,105.6c-1-1.2-1.9-2.4-2.9-3.5c-6.8-7.1-5.1-6.5-11.5-0.4
		c-2.9,2.8-5.7,5.6-8.5,8.4c-5,5-5,5-0.2,10.2c0.6,0.6,1.2,1.2,1.7,1.8c1.8,2.4,3.4,1.9,5.2,0c4.5-4.6,9.2-9.1,13.8-13.7
		C400.3,107.7,401,106.8,401.9,105.6z M357,149.4c-0.6-2.5-2.7-3.6-3.8-5.4c-2.7-4.4-5.3-3.9-8.4-0.3c-2.6,3-5.6,5.7-8.5,8.5
		c-6.8,6.7-6.7,6.6,0.1,13.5c1.9,1.9,3.1,2,4.9,0.1c4.7-4.7,9.4-9.4,14.1-14.1C356.1,151,356.5,150,357,149.4z M600.2,167.6
		c2.5-0.8,3.5-3.1,5.2-4.6c3-2.7,2.9-4.9-0.2-7.7c-4.5-4-8.6-8.4-12.8-12.7c-1.8-1.8-3.2-2.1-4.9,0c-1,1.3-2.2,2.5-3.4,3.7
		c-2.5,2.4-2.3,4.4,0.3,6.7c4.6,4.1,8.9,8.5,13.4,12.7C598.4,166.4,599.3,167,600.2,167.6z M854.5,315
		C854.5,315,854.5,315,854.5,315c0-4.8,0.1-9.7,0-14.5c0-3.4-2.5-3.4-5-3.4c-2.4,0-5,0-5,3.3c0,9.5-0.1,19,0.2,28.4
		c0.1,4.4,4.1,3,6.6,3.4c3,0.5,3.1-1.8,3.1-3.9C854.5,324,854.5,319.5,854.5,315z M421.9,85.3c-1.2-2.5-3.6-4.4-5.5-6.6
		c-2-2.4-3.7-2.1-5.7,0c-3.1,3.3-6.4,6.3-9.5,9.5c-6.4,6.5-6.8,4.6,0.2,12.1c2.1,2.2,3.8,2.8,6.2,0.3c4.1-4.2,8.4-8.1,12.6-12.1
		C421,87.7,421.9,87,421.9,85.3z M545.5,97.7c-2.8,1.1-4.2,3.9-6.2,6c-1.6,1.6-1.4,3.2,0.2,4.7c4.8,4.8,9.7,9.5,14.5,14.4
		c1.7,1.7,3.1,1.5,4.6-0.2c1-1.1,2-2.3,3.1-3.2c2.8-2.3,2.8-4.4,0-6.9c-4.4-4-8.5-8.4-12.7-12.6C548,99,547.1,97.9,545.5,97.7z
		 M544.1,96.2c-0.5-0.5-1-1-1.5-1.5c0-1.3-1-2-1.8-2.9c-3-3.1-6.1-6.1-9.2-9.2c-6.5-6.4-6.4-6.4-12.5,0.3c-2,2.1-2.3,3.5,0.1,5.7
		c4,3.5,7.6,7.5,11.5,11.1c1.4,1.3,2.5,4.1,4.6,3C538.5,101,541.2,98.4,544.1,96.2z M136.2,335.3c-1.2-1.5-2.6-1-3.9-1
		c-30.1,0-60.3,0-90.4,0c-1,0-2,0-3,0.1c-0.9,0.1-1.7,0.5-1.8,1.4c-0.1,1.3,0.9,1.7,1.9,1.8c1.3,0.1,2.7,0.1,4,0.1
		c16.1-0.2,32.3-0.5,48.4-0.7c13-0.1,26-0.1,38.9-0.2C132.5,336.9,134.8,337.5,136.2,335.3z M79.6,313.2
		C79.6,313.2,79.6,313.2,79.6,313.2c-0.1-4.3-0.2-8.7,0-13c0.2-4.2-1.9-5-5.5-5c-4.2,0-4.5,2.3-4.2,5.5c0.6,8.6,1.3,17.2,1.7,25.8
		c0.1,2.7,0.8,4.5,3.9,4.5c3,0,4.1-1.5,4.1-4.4C79.6,322.2,79.6,317.7,79.6,313.2z M64.1,235.1c13.2-0.1,13.1-0.1,16.2-8.4
		c1.1-3.1,0.5-4.4-2.8-4.3c-5.1,0.1-10.3,0.1-15.4,0c-2.4,0-4.1,0.8-5.2,3.1c-1.1,2.2-2.3,4.4-3.5,6.6c-1.3,2.2-0.5,3.1,1.8,3.1
		C58.2,235.1,61.1,235.1,64.1,235.1z M874.2,236.7C874.2,236.7,874.2,236.7,874.2,236.7c1.5,0,3,0,4.5,0c7.7,0,7.7,0,4.2-6.6
		c-1.3-2.3-1.6-5.7-5.4-5.8c-5.8-0.1-11.6,0-17.4-0.1c-2,0-3,0.6-2.4,3c2,7.6,4.1,9.4,12,9.4C871.2,236.7,872.7,236.7,874.2,236.7z
		 M858.5,315.2C858.5,315.2,858.5,315.2,858.5,315.2c-0.1,4.2,0,8.3-0.1,12.5c0,2.5-0.6,5.1,3.4,5.1c3.6,0,4.4-1.7,4.6-4.9
		c0.3-8.6,0.8-17.2,1.4-25.8c0.2-2.8,0.3-4.9-3.5-4.8c-3.3,0-6,0.2-5.8,4.6C858.7,306.2,858.5,310.7,858.5,315.2z M469.1,441
		C469.1,441,469.1,441,469.1,441c5.8,0.1,11.6,0.1,17.4,0c2.2,0,4.5,0.2,4.7-3c0.2-3.3-2-3.7-4.6-3.7c-11.8,0-23.5,0-35.3,0
		c-2.3,0-4.4,0.3-4.5,3.3c-0.1,3.1,2,3.4,4.3,3.4C457.2,441,463.1,441,469.1,441z M855.2,265.1C855.2,265.1,855.3,265.1,855.2,265.1
		c0-2.7-0.1-5.3,0.1-8c0.2-4.2-2.7-3.9-5.4-3.8c-2.6,0.1-6.1-1-6,3.6c0,5.3,0,10.6,0.1,15.9c0,1.8,0.5,3.1,2.6,3.7
		c6.2,1.6,8.7-0.2,8.8-6.5C855.3,268.5,855.2,266.8,855.2,265.1z M36.8,313.1C36.8,313.1,36.7,313.1,36.8,313.1
		c-0.1,4.6-0.1,9.3,0,13.9c0,2.1-0.3,4.6,3,4.7c3.4,0.1,3.6-2.2,3.7-4.7c0.4-9.1,0.6-18.2,1.2-27.3c0.2-2.8-0.1-4.4-3.5-4.5
		c-3.3,0-4.4,1.3-4.3,4.4C36.9,304.2,36.8,308.7,36.8,313.1z M423.5,441C423.5,441,423.5,441,423.5,441c5.2,0,10.3,0,15.5,0
		c2.3,0,4.4-0.3,4.3-3.4c-0.1-2.7-1.9-3.2-4.1-3.2c-10.3,0-20.6,0-31,0c-2.4,0-4.4,0.5-4.3,3.5c0,3.2,2.4,3.1,4.6,3.1
		C413.5,441,418.5,441,423.5,441z M901.3,315.5C901.2,315.5,901.2,315.5,901.3,315.5c0-5-0.1-10,0-14.9c0-3.1-1.9-3.4-4.3-3.3
		c-1.9,0.1-3.7,0-3.5,2.8c0.5,9.6,0.9,19.2,1.3,28.8c0.1,2.2,0.6,3.9,3.3,4c3.2,0,3.2-2.1,3.3-4.4
		C901.3,324.2,901.3,319.8,901.3,315.5z M82.8,263.1C82.8,263.1,82.8,263.1,82.8,263.1c0,2.3,0.2,4.7,0,7c-0.3,4.1,1.8,5.2,5.4,5
		c3.4-0.1,6.4,0,6.2-4.8c-0.2-4.3-0.2-8.6,0.1-13c0.2-4-1.4-5.2-5.2-5.2c-6.1,0.1-6.4,0.2-6.4,6.5C82.8,260.1,82.8,261.6,82.8,263.1
		z M801.6,335.7c1.9,2.9,4.3,2.4,6.3,2.4c29,0.3,58,0.5,87,0.7c1.9,0,5.3,1.4,5.4-1.4c0.1-2-3.3-1.1-5.2-1.1
		c-23.7-0.1-47.3-0.1-71-0.3C816.8,335.9,809.5,334.8,801.6,335.7z M922.9,251c0-0.5-0.1-1-0.1-1.5c-69,0-137.9,0-206.8,0
		C785,250.1,854,250,922.9,251z M514.7,435.2c0,0,0-0.1,0-0.2c-5.2,0-10.3,0-15.5,0c-2,0-4.2,0-4.3,2.9c-0.1,2.8,1.9,3.1,4,3.3
		c10.5,1.2,21,0.4,31.4,0.5c2.3,0,3.9-0.8,3.9-3.4c0-2.8-1.9-3.2-4-3.2C525,435.2,519.8,435.2,514.7,435.2z M296.8,406.3
		c2.5-0.2,5.2-5.2,3.7-7.4c-4.9-6.9-10.1-13.6-15.1-20.4c-1.6-2.1-2.9-1.5-4.4,0.2c-1.6,2-2.5,3.8-0.8,6.2
		c4.8,6.6,9.5,13.2,14.3,19.8C295,405.5,295.6,406.4,296.8,406.3z M659.6,383c-0.3-2.2-2-3.2-3.2-4.5c-1.1-1-2.2-0.7-3,0.3
		c-5.3,7-10.7,13.9-15.8,21.1c-2.1,2.9,1.1,4.5,2.7,6.1c2.3,2.2,3.1-0.5,4.1-1.7c4.7-6.2,9.2-12.6,13.7-18.9
		C658.7,384.7,659.1,383.8,659.6,383z M89.7,235C89.7,234.9,89.7,234.9,89.7,235c1.7,0,3.3-0.1,5,0c3.8,0.3,5.3-1.6,5.6-5.2
		c0.6-6.8,0.1-7.4-6.8-7.4c-1.8,0-3.6,0.1-5.5,0c-2.3,0-3.6,1-4.6,3c-4.6,9.1-4.4,9.6,5.8,9.6C89.4,235,89.6,235,89.7,235z
		 M223.1,248.6c0-0.2-0.1-0.5-0.1-0.8c-69.3,0-138.6,0-207.9,0c0,0.2,0,0.5,0,0.8C84.5,248.6,153.8,248.6,223.1,248.6z M264,351.1
		c-2.6,0.2-4.4,5-2.7,7.5c3.9,5.6,7.9,11.2,11.9,16.7c1,1.4,1.9,4.2,4.5,2c2.1-1.8,4.5-3.5,1.8-6.9c-4.5-5.6-8.6-11.5-12.9-17.2
		C265.9,352.3,265.4,351.2,264,351.1z M662.3,378.9c0.3-0.2,0.8-0.4,1-0.8c5-6.8,10.1-13.6,14.8-20.6c1.5-2.2-1.4-3.3-2.6-4.7
		c-0.9-1-2.1-1.1-3,0.1c-4.8,6.5-9.7,13-14.3,19.7C657,374.4,660.2,379.1,662.3,378.9z M848.7,236.1c10.2,0,10.6-0.7,6.2-9
		c-1.5-2.9-14.2-4.4-16.3-2c-0.3,0.4-0.4,0.9-0.6,1.3c-1.7,5.7,1.3,9.6,7.2,9.6C846.3,236.1,847.5,236.1,848.7,236.1z M224.2,297.6
		c-2.9,0.3-4.4,4.1-2.5,6.8c4,5.5,8,11,12.1,16.4c1.1,1.4,1.7,4.7,4.8,2.4c2.4-1.8,3.4-3.8,1.2-6.7c-4.4-5.6-8.5-11.4-12.8-17.1
		C226.3,298.5,225.6,297.5,224.2,297.6z M718.2,302.7c-0.5-2-1.8-3.4-3.3-4.3c-1.7-1-2.3,0.7-3,1.7c-4.4,5.8-8.7,11.8-13.2,17.5
		c-2,2.5-1.2,4.2,0.9,5.9c2.4,2,3.5,0.3,4.8-1.4c4.1-5.6,8.3-11.3,12.4-16.9C717.3,304.5,717.7,303.6,718.2,302.7z M758.7,239.2
		c0,0,0-0.1,0-0.1c-3.7,0-7.3,0-11,0c-2.3,0-3.9,0.6-3.9,3.4c0,2.6,1.3,3.6,3.7,3.6c7.3,0,14.7,0,22,0c2.4,0,3.7-1.1,3.7-3.6
		c0-2.8-1.8-3.2-4-3.2C765.7,239.2,762.2,239.2,758.7,239.2z M254,354.9c-0.4-0.5-0.9-1.4-1.6-2c-1.2-0.8-2.2-0.1-3.1,0.8
		c-6.9,7-13.8,14-20.7,21c-1.9,1.9-1.1,3.6,0.3,5.2c1.9,2.2,3,0,3.9-1c6.6-6.8,13.1-13.7,19.6-20.6
		C253.3,357.5,254.2,356.7,254,354.9z M179.7,245C179.7,245,179.7,245,179.7,245c3.8,0,7.7,0.1,11.5,0c3.1,0,3.2-2.4,3.3-4.6
		c0.1-2.6-1.8-2.4-3.4-2.4c-7.3,0-14.6,0-22,0.1c-2.1,0-4.2,0.1-4.1,3.1c0.1,2.7,1.7,3.8,4.2,3.8C172.7,245,176.2,245,179.7,245z
		 M135.6,244.9C135.6,244.9,135.6,244.9,135.6,244.9c3.5,0.1,7,0.1,10.5,0.1c1.8,0,4,0.1,3.9-2.6c0-2.4-1-4.2-3.8-4.2
		c-7.3,0-14.6,0-21.9,0c-2.2,0-3.5,0.8-3.4,3.2c0,2.2,1,3.4,3.3,3.4C127.9,244.9,131.8,244.9,135.6,244.9z M802.5,246
		C802.5,246,802.5,246,802.5,246c3.8,0,7.6,0,11.5-0.1c2.3,0,3.2-1.3,3.3-3.5c0-2.1-0.9-3.1-2.9-3.1c-7.6,0-15.3,0-22.9,0
		c-2.5,0-2.7,2-2.9,3.9c-0.2,2.4,1.2,2.8,3.1,2.8C795.2,246,798.9,246,802.5,246z M152.9,410.7c-0.3-0.5-0.6-1.3-1-2
		c-4.6-7.1-9.2-14.2-13.8-21.3c-0.9-1.3-1.6-3.3-3.7-1.4c-1.6,1.4-2.8,2.8-1.2,5.1c4.8,7.1,9.5,14.3,14.3,21.5
		c0.7,1.1,1.5,2.4,3.2,1.4C151.7,413.3,152.7,412.4,152.9,410.7z M687.4,353c-1.4,0.1-2,1-2.5,1.8c-1.1,1.6-0.1,2.8,0.9,3.9
		c6.5,6.9,13,13.7,19.5,20.6c1.1,1.1,2.2,2.9,4.1,1c1.8-1.8,1.3-3.4-0.3-5.1c-6.6-6.8-13.1-13.7-19.6-20.5
		C688.8,354.1,688,353.5,687.4,353z M425.4,392.8C425.4,392.8,425.4,392.8,425.4,392.8c5,0,10,0.1,15,0c1.5,0,3.3,0.2,3.5-1.9
		c0.2-2.3-1.7-2.6-3.4-2.6c-10.3-0.1-20.6-0.1-31-0.1c-1.7,0-3.6,0.1-3.4,2.5c0.1,2.1,1.9,2.1,3.4,2.1
		C414.8,392.8,420.1,392.8,425.4,392.8z M788.6,415.4c0.5-0.3,1-0.4,1.3-0.8c5.3-7.8,10.5-15.7,15.7-23.6c1-1.6-0.5-2.8-1.6-3.7
		c-1.3-1.2-2.5-0.6-3.3,0.7c-4.9,7.5-9.9,14.9-14.6,22.5C784.4,413.2,786.5,414.4,788.6,415.4z M513.4,388.3
		C513.4,388.3,513.4,388.3,513.4,388.3c-5,0-9.9,0-14.9,0.1c-1.6,0-3.6,0-3.5,2.4c0.1,2,1.8,2.1,3.3,2.1c10.1,0,20.2,0,30.3,0
		c1.7,0,3.7,0,3.5-2.4c-0.1-2.3-2.2-2.1-3.8-2.1C523.3,388.2,518.3,388.3,513.4,388.3z M283.8,324.5c0.5-0.3,1.2-0.6,1.6-1.1
		c6.5-6.8,13-13.7,19.5-20.5c1.1-1.1,1.2-2.3,0-3.5c-1.5-1.5-2.7-0.5-3.8,0.6c-5,5.1-10,10.2-15,15.3c-1.6,1.7-3.3,3.4-4.5,5.3
		C280.3,322.7,281.6,323.9,283.8,324.5z M55.2,424.5c0.8-0.6,1.7-1.2,2.5-2c10.3-10.1,20.7-20.2,31-30.3c1-1,3.4-2.3,1.6-4
		c-1.7-1.6-2.9,0.8-3.9,1.8c-10.2,10-20.3,20.1-30.5,30.1c-0.7,0.7-1.4,1.4-2,2.2C53.2,423.5,53.5,424.3,55.2,424.5z M848.8,389
		c-0.5,0.3-1.1,0.4-1.2,0.7c-0.7,1.6,0.5,2.5,1.4,3.4c10.4,10.5,20.9,20.9,31.4,31.3c0.9,0.9,2,2.9,3.6,1.3c1.6-1.5-0.2-2.7-1.2-3.7
		c-10.7-10.5-21.3-20.9-32-31.4C850.2,390.2,849.6,389.7,848.8,389z M256.7,340.4c-0.5-0.9-0.9-1.9-1.6-2.9
		c-2.8-3.9-5.6-7.8-8.5-11.6c-1-1.3-1.9-4.2-4.5-1.7c-1.8,1.7-3.9,3.3-1.5,6.2c3.2,4,6.1,8.3,9.2,12.4c0.8,1.1,1.5,3.1,3.4,1.9
		C254.7,343.8,256,342.5,256.7,340.4z M657.7,322.5c-0.3-0.5-0.5-1.2-0.9-1.6c-6.7-7-13.3-14-20-21c-0.9-0.9-1.9-1.4-3-0.2
		c-1,1.2-1.2,2.5-0.2,3.6c6.6,7,13.2,14.1,19.9,21C655.5,326.4,656.7,324.4,657.7,322.5z M221,245.7c4.6,0.8,9-0.7,12.4-5.1
		c1.1-1.4,1.2-2.5-0.9-2.6c-5.8-0.3-11.6-0.5-17.4-0.6c-2.5-0.1-3.4,1.6-3.4,3.9c0,2.5,0.6,4.3,3.5,4.4
		C216.9,245.7,218.5,245.7,221,245.7z M82.8,285.7c0.6,2-1.5,5.7,2.4,6.8c2.4,0.7,6,1.5,7.5-0.8c2.2-3.3,2.2-7.7,1.1-11.5
		c-0.8-2.9-3.9-1.7-6.1-1.9C82.1,277.8,82.8,281.8,82.8,285.7z M698.8,329.4c-0.2-2.4-1.6-3.3-2.9-4.3c-1.1-0.9-2.2-0.6-3,0.5
		c-3.5,4.6-7,9.2-10.3,14c-1.8,2.7,0.6,4.3,2.3,5.8c2.2,1.8,2.8-0.6,3.7-1.8c2.5-3.3,4.9-6.7,7.3-10
		C696.9,332.1,697.9,330.6,698.8,329.4z M332.1,274c-0.6-0.8-1-1.6-1.7-2c-1.5-0.9-2.5,0.3-3.4,1.2c-6.2,6.5-12.4,13-18.6,19.5
		c-1.5,1.6-2,3.3-0.2,4.8c1.8,1.5,2.7-0.5,3.6-1.5c6.2-6.5,12.4-13,18.6-19.5C331,275.8,331.5,274.9,332.1,274z M609.6,272
		c-1.3,0.1-1.9,0.7-2.3,1.4c-0.8,1.5,0.1,2.5,1,3.5c6.2,6.5,12.3,13.1,18.5,19.6c1.1,1.1,2.2,2.9,4.1,1c1.6-1.7,0.5-3-0.7-4.3
		c-6.2-6.5-12.4-13-18.6-19.5C610.9,273,610.1,272.5,609.6,272z M422.8,269.5c-0.6-0.8-1-1.5-1.6-2c-1-0.8-1.8-0.2-2.5,0.6
		c-6.8,7.3-13.6,14.6-20.5,21.9c-1.2,1.3-2,2.9-0.5,4.4c2,1.9,3-0.3,4-1.4c6.5-6.9,12.8-14,19.2-21
		C421.6,271.3,422.1,270.4,422.8,269.5z M541.8,292.3c-0.2-0.4-0.4-1.1-0.8-1.6c-6.9-7.4-13.8-14.8-20.7-22.2
		c-0.9-0.9-2-1.4-3.1-0.4c-1.6,1.5-0.5,2.8,0.5,3.9c6.7,7.4,13.4,14.7,20.1,22.1c0.7,0.8,1.4,1.5,2.5,0.9
		C541.3,294.5,541.7,293.6,541.8,292.3z M649.6,223c-1.3,0-1.9,0.6-2.2,1.4c-0.6,1.4,0.4,2.2,1.2,3c6.3,6.4,12.7,12.7,19,19
		c1,1,2,2.6,3.7,0.9c1.6-1.6,0.6-3.1-0.7-4.3c-6.4-6.3-12.9-12.5-19.3-18.7C650.8,223.7,650.1,223.3,649.6,223z M243.9,272.2
		c0.3-0.1,0.7-0.2,0.9-0.4c6.8-6.8,13.6-13.5,20.4-20.4c1-1,0.5-2.2-0.4-3.1c-1.1-1.1-2.1-0.6-3,0.2c-6.5,6.4-13,12.8-19.4,19.2
		c-0.9,0.9-1.2,2-0.3,3.1C242.4,271.6,242.9,272.3,243.9,272.2z M675.3,248.4c-0.7,0.7-1.5,1.1-1.9,1.7c-0.8,1.5,0.3,2.5,1.3,3.4
		c5.8,5.9,11.7,11.8,17.5,17.6c1,1,2.1,3.2,4,1.2c1.8-1.8,0.6-3.3-0.8-4.7c-5.9-5.8-11.7-11.7-17.6-17.5
		C677.2,249.5,676.3,249,675.3,248.4z M703.9,238.7c3.8,6.4,15.2,10,20.9,6.9c1.4-0.8,1.5-2,1.5-3.4c0-1.7-0.8-3-2.5-3.1
		C717.2,238.6,710.6,237.8,703.9,238.7z M268.7,247.3c0.5-0.2,1-0.3,1.4-0.6c7-6.9,13.9-13.8,20.9-20.8c0.8-0.8,0.9-1.8,0.1-2.6
		c-1-1.1-2.2-0.8-3.1,0c-6.9,6.5-13.7,13.1-20.5,19.8C265.5,244.9,266.8,246.3,268.7,247.3z M854.6,286.7c0.2-7.3-0.7-8.3-6.8-7.3
		c-5.6,0.9-3.1,5.4-3.3,8.3c-0.3,5.6,1.8,7.1,7.2,5.9C856.3,292.7,853.9,288.9,854.6,286.7z M335.1,271.1c0.7-0.5,1.2-0.9,1.6-1.4
		c5.9-6.1,11.7-12.2,17.5-18.3c1.1-1.2,1.9-2.4,0.6-3.9c-1-1.1-2.1-1.1-3-0.1c-6.2,6.5-12.3,13-18.5,19.5c-0.9,1-0.8,2.2,0.1,3.2
		C333.9,270.5,334.6,270.8,335.1,271.1z M584.5,246.2c-0.3,0.7-0.5,1.4-0.8,2c-0.8,1.5,0,2.5,1,3.5c5.3,5.7,10.7,11.4,16.1,17
		c1.1,1.1,2.2,3.7,4.3,1.8c2.2-2,0.1-3.7-1.2-5c-5.3-5.7-10.8-11.3-16.2-16.8C587,247.9,586.1,247.4,584.5,246.2z M405.6,429.6
		c-0.2,0.4-0.4,0.9-0.5,1.3c0.4,0.2,0.9,0.7,1.3,0.7c11.4,0.1,22.9,0.1,34.3,0.2c1,0,2.1-0.3,2-1.6c0-1.2-1.1-1.6-2.1-1.7
		C428.9,427.7,417.3,428.6,405.6,429.6z M811.7,293.4c1.6,5.7,1.1,11.4,1.6,17c0.5,5.6,0.1,11.3,0.2,17c0,1.6-0.4,3.9,1.8,4
		c2.5,0.1,1.9-2.3,1.9-3.8c-0.2-8.7-0.4-17.3-0.7-25.9C816.4,298,814.4,295.5,811.7,293.4z M138.5,267.8c-0.2-1.7-0.3-3.8-0.8-5.9
		c-0.4-1.8-1.6-3.5-3.7-3.4c-1.9,0-2.7,1.7-3.3,3.3c-1.2,2.9-0.6,5.9-0.8,8.8c-0.3,3.7,1.8,4.5,4.9,4.3
		C139.6,274.7,138,271,138.5,267.8z M808.5,267.7c-0.2-1.6-0.3-3.8-0.7-5.9c-0.3-1.6-1.4-2.7-3.2-2.4c-2.8,0.5-3.9,2.4-4.1,4.9
		c-0.2,3.8-2.4,7.8,0.9,11.3c0.4,0.4,1.2,0.4,1.9,0.4C809.9,276.7,807.8,271.6,808.5,267.7z M624.2,198.6c-0.3,0.3-1,0.6-1.3,1.1
		c-0.8,1.4,0.3,2.2,1.1,3c5.8,5.9,11.7,11.8,17.6,17.6c1,1,2.2,3.2,4,1.2c1.5-1.7-0.1-3.1-1.3-4.2c-5.6-5.6-11.3-11.2-16.9-16.8
		C626.5,199.6,625.7,198.7,624.2,198.6z M294.5,221.5c0.6-0.2,0.9-0.3,1.2-0.5c6.7-6.7,13.4-13.3,20-20c0.8-0.8,0.4-1.9-0.4-2.7
		c-0.7-0.7-1.6-0.5-2.2,0.1c-6.6,6.5-13.2,13-19.8,19.5c-0.8,0.8-1,1.8-0.2,2.6C293.5,221.1,294.1,221.3,294.5,221.5z M513.5,431.8
		c5.7,0,11.3,0,16.9,0c0.9,0,2.2,0,2-1.5c-0.1-1-1.2-1-2-1c-5.6-0.2-11.3-0.4-16.9-0.9c-4.8-0.4-9.6-0.1-14.4,0
		c-1.4,0-3.6,0.1-3.6,1.9c-0.1,2.2,2.2,1.5,3.5,1.5C503.9,431.9,508.7,431.8,513.5,431.8z M599,174.1c0,0-0.4,0.6-0.6,1.2
		c-0.6,1.4,0.4,2.2,1.2,3c5.6,5.6,11.2,11.3,16.9,16.8c1,1,2.1,3.3,4,1.4c1.6-1.7,0-3-1.2-4.2c-5.6-5.6-11.2-11.2-16.9-16.8
		C601.6,174.9,601,174.1,599,174.1z M280.2,328c-0.8-1.8-1.4-4.4-3.7-2.2c-4.7,4.4-9.1,9.1-13.6,13.8c-1.4,1.4-0.5,2.8,0.6,3.9
		c1,1.1,2.1,0.9,3-0.1c4.2-4.4,8.5-8.9,12.6-13.3C279.6,329.6,279.8,328.7,280.2,328z M791.5,332c-0.5,0.2-1.1,0.3-1.3,0.7
		c-0.8,1.5,0.3,2.5,1.2,3.5c6.8,6.8,13.6,13.7,20.5,20.4c1,1,2,3.6,3.8,1.6c1.4-1.5-0.7-3-1.8-4.1c-6.7-6.7-13.5-13.4-20.2-20.1
		C793.1,333.4,792.3,332.7,791.5,332z M845.1,385.5c-0.9-1-1.7-2.1-2.6-3c-6.2-6.2-12.4-12.5-18.8-18.6c-1.4-1.3-2.9-5-5.1-2.8
		c-1.9,1.8,1.4,3.5,2.8,5c5.4,5.6,11,11.1,16.6,16.5c1.4,1.4,3,2.7,4.5,3.9c0.4,0.3,1.2,0.4,1.8,0.3
		C844.6,386.8,844.8,386.1,845.1,385.5z M676.1,342.2c-0.3-0.7-0.4-1.2-0.7-1.5c-4-5.2-8.7-9.5-13.3-14.1c-1-1-2.1-0.8-3,0.3
		c-1.1,1.3-1.3,2.6,0,4c4.3,4.4,8.5,8.8,12.8,13.2c0.7,0.7,1.6,1.4,2.6,0.5C675.2,343.8,675.6,342.9,676.1,342.2z M882.6,269.5
		c0-2.6,0.2-5-0.7-7.2c-0.7-1.7-1.7-2.9-3.8-1.9c-3.2,1.5-5,13.2-2.3,15.5c0.6,0.5,1.5,0.7,2.3,0.7
		C884.3,277,881.8,272.1,882.6,269.5z M515,263.8c-0.2-0.4-0.4-1-0.8-1.5c-5.1-5.6-10.2-11.3-15.4-16.9c-0.8-0.9-1.7-0.9-2.6-0.1
		c-1.1,1-0.8,2.1,0,3.1c5.1,5.7,10.2,11.3,15.3,16.9c0.6,0.6,1.3,1.1,2.2,0.8C514.6,265.8,515,265,515,263.8z M319.5,196.6
		c0.6-0.2,1-0.3,1.2-0.5c6.6-6.5,13.1-13.1,19.7-19.6c0.6-0.6,0.4-1.6-0.4-2.2c-0.8-0.6-1.6-0.4-2.2,0.2
		c-6.5,6.2-12.9,12.4-19.3,18.6c-0.8,0.8-1.1,1.7-0.3,2.6C318.5,196.1,319.1,196.3,319.5,196.6z M63.4,268.5c0-2.8,0.3-5.3-1.1-7.5
		c-0.7-1.2-1.8-2.6-3-2c-3,1.5-3.7,4.6-3.5,7.6c0.2,2.8-1.8,6.5,2.2,8.3c0.4,0.2,1,0.2,1.5,0.2C64.8,275,62.9,270.9,63.4,268.5z
		 M425.3,266.3c0.6-0.3,1.1-0.5,1.4-0.8c5.3-5.7,10.5-11.4,15.8-17.2c0.9-1,0.7-2.2-0.4-3c-1-0.8-1.9-0.2-2.6,0.5
		c-5.2,5.5-10.4,11.1-15.6,16.7c-0.7,0.8-0.9,1.8-0.1,2.7C424.2,265.7,424.8,266,425.3,266.3z M123.5,357.2c0.5-0.3,1-0.6,1.3-0.9
		c7.5-7.3,15.1-14.6,22.6-21.9c0.8-0.8,1.9-1.9,0.8-3c-1.5-1.4-2.4,0.3-3.2,1.1c-4.4,4.3-8.8,8.7-13.1,13c-2.9,2.9-5.9,5.9-8.8,8.8
		c-0.6,0.6-1.2,1.3-0.7,2.2C122.5,356.8,123.1,357,123.5,357.2z M764.6,305.9c-0.5,0.3-1.1,0.4-1.2,0.7c-0.6,1.4,0.6,2.2,1.3,2.9
		c6.6,6.6,13.2,13.2,19.8,19.7c0.9,0.9,2,3,3.6,1.3c1.5-1.6-0.5-2.7-1.5-3.6c-6.6-6.5-13.3-13-20-19.4
		C766,306.9,765.3,306.4,764.6,305.9z M597,171.4c-0.2-0.5-0.2-0.9-0.4-1.2c-5.3-5.7-10.6-11.4-16.7-16.3c-0.7-0.6-1.6-0.6-2.2,0.1
		c-0.9,1-0.4,1.9,0.3,2.6c5.2,5.3,10.5,10.6,15.8,15.8c0.6,0.6,1.4,1.1,2.2,0.4C596.6,172.5,596.8,171.8,597,171.4z M452.9,30.4
		c3.4-0.3,5-2.6,6.9-4.5c10.6-10.5,8.9-10.4,19.5,0.1c2,2,3.8,4.5,6.9,5.3c-4.5-5.7-9.4-10.8-14.3-16c-1-1-2.1-1.9-3.4-0.6
		C463.3,19.9,458.1,25.1,452.9,30.4z M94.7,385.5c0.6-0.4,1.2-0.7,1.7-1.1c7.6-7.5,15.1-15,22.7-22.5c0.7-0.7,1.5-1.7,0.4-2.6
		c-1-0.8-1.8,0.2-2.5,0.8c-3.2,3.1-6.4,6.3-9.6,9.5c-4.3,4.2-8.6,8.4-12.9,12.5c-0.7,0.7-1.6,1.4-1,2.5
		C93.6,385.1,94.2,385.2,94.7,385.5z M877.4,326.2c-0.6-2.6,1.3-6.7-3.5-6.7c-5.2,0.1-3.7,4.5-4,7.5c-0.2,2.7-0.8,5.9,3.7,5.8
		C878.7,332.6,876.8,328.8,877.4,326.2z M760.3,268.9c0-1.3,0.1-2.7,0-4c-0.2-1.8-0.1-4.1-2.5-4.2c-2.3-0.1-3.6,1.7-3.8,3.9
		c-0.2,2.8-0.2,5.6-0.1,8.4c0,2,1.2,2.9,3.2,2.9c2,0,3.1-1,3.2-3C760.4,271.5,760.3,270.2,760.3,268.9z M556.7,131
		c-1.1-0.1-1.7,0.2-1.9,0.9c-0.5,1.2,0.4,1.9,1.1,2.6c5.3,5.3,10.6,10.6,15.9,15.9c0.9,0.9,1.8,2.5,3.3,1.2c1.7-1.6-0.1-2.7-1.1-3.7
		c-5-5.1-10.1-10.1-15.2-15.2C558,132,557.2,131.4,556.7,131z M689,230.7c-0.5,0.4-1,0.5-1.2,0.9c-0.7,1.4,0.4,2.2,1.2,3
		c6,5.9,12.1,11.8,18.2,17.7c0.8,0.8,1.8,2.7,3.1,1.2c1.2-1.3-0.5-2.4-1.4-3.2c-5.8-5.9-11.8-11.7-17.7-17.6
		C690.6,232,689.8,231.4,689,230.7z M151.4,329.9c0.4-0.2,0.8-0.4,1.2-0.8c7.2-7.1,14.4-14.2,21.5-21.4c0.7-0.7,1.6-1.7,0.6-2.5
		c-1.2-1.1-2.1,0.4-2.8,1.1c-6.7,6.6-13.4,13.3-20.1,20c-0.6,0.6-1.1,1.2-1.5,2C149.9,329.1,150.2,329.8,151.4,329.9z M686.5,228.5
		c-0.3-0.4-0.6-1-1.1-1.4c-6.8-6.7-13.7-13.5-20.5-20.2c-0.7-0.6-1.5-1.6-2.5-0.5c-0.3,0.3-0.1,1.4,0.3,1.7
		c7.1,7.2,14.2,14.3,21.4,21.4C685,230.4,686,230,686.5,228.5z M510.9,85.9c-0.2-0.5-0.3-0.8-0.5-1c-5.7-5.6-11.3-11.3-17-16.8
		c-0.3-0.3-1.4-0.4-1.8-0.1c-0.9,0.6-0.6,1.5,0,2.1c1.6,1.7,3.2,3.4,4.8,5c3.8,3.8,7.5,7.5,11.3,11.3c0.7,0.7,1.5,1.4,2.6,0.7
		C510.6,86.8,510.7,86.2,510.9,85.9z M552.9,127.8c-0.2-0.4-0.2-0.8-0.5-1c-5.5-5.5-11-11-16.6-16.5c-0.6-0.6-1.5-0.8-2.2,0
		c-0.7,0.8-0.4,1.6,0.2,2.2c5.4,5.4,10.8,10.9,16.2,16.2c0.6,0.6,1.4,0.9,2.2,0.3C552.6,128.6,552.7,128.1,552.9,127.8z
		 M384.2,132.5c-0.3-0.5-0.4-1.2-0.8-1.3c-1.1-0.5-1.9,0.4-2.6,1c-5.3,5-10.6,10.1-15.8,15.2c-0.9,0.9-2.4,2-1.2,3.3
		c1.6,1.8,2.7-0.1,3.6-1.1c5-4.9,9.9-9.8,14.9-14.8C383,134.1,383.5,133.3,384.2,132.5z M406,111.3c-0.3-0.5-0.4-1.1-0.7-1.3
		c-1.3-0.8-2.2,0.2-3,1c-4.9,4.8-9.7,9.6-14.5,14.4c-0.9,0.9-2.3,2.1-0.7,3.3c1.5,1.2,2.4-0.4,3.3-1.3c4.6-4.5,9.2-9.1,13.8-13.7
		C404.8,112.9,405.3,112.1,406,111.3z M343.8,172.5c0.4-0.2,0.8-0.2,1-0.4c5.5-5.5,11-11,16.5-16.5c0.6-0.7,0.5-1.6-0.2-2.2
		c-0.8-0.6-1.6-0.4-2.2,0.2c-5.4,5.4-10.8,10.7-16.2,16.1c-0.6,0.6-0.7,1.5-0.1,2.2C342.9,172.2,343.4,172.3,343.8,172.5z
		 M734.9,279.3c0.4-0.5,1-1,1-1.2c-0.4-0.9-0.8-1.8-1.4-2.5c-6.1-6.2-12.2-12.3-18.4-18.3c-0.8-0.8-1.8-2.6-3.2-1
		c-0.9,1.1,0.5,2.1,1.3,2.9c6.1,6.1,12.2,12.3,18.4,18.3C733.2,278.2,734,278.7,734.9,279.3z M200.8,280.9c-0.4-0.5-0.8-1.1-1-1.1
		c-0.8,0.2-1.6,0.5-2.1,1c-6.4,6.3-12.8,12.6-19.1,19c-0.8,0.8-2.1,1.8-0.9,2.9c1.2,1.1,2.1-0.4,2.8-1.1
		c6.3-6.2,12.5-12.4,18.8-18.6C199.8,282.3,200.2,281.6,200.8,280.9z M531.5,106.4c-0.1-0.3-0.2-0.7-0.4-0.9
		c-5.4-5.4-10.8-10.8-16.3-16.1c-0.5-0.5-1.3-0.3-1.8,0.2c-0.5,0.5-0.7,1.3-0.2,1.8c5.5,5.5,11,11.1,16.6,16.4
		C530.4,108.6,531.3,107.6,531.5,106.4z M659,204.7c0.3-0.3,0.7-0.6,1-1c0-0.5,0.1-1.1-0.2-1.4c-6.7-6.9-13.5-13.7-20.3-20.5
		c-0.6-0.6-1.4-1.2-2.1-0.2c-0.6,0.8,0,1.6,0.6,2.2c2.8,2.9,5.6,5.7,8.4,8.5C650.6,196.4,654.8,200.5,659,204.7z M136.5,325.5
		c0.2,2.2-0.6,5.4,3.6,5.2c3.7-0.2,4.3-2.9,4.3-6c0-2.8,0.1-5.4-3.9-5.4C136,319.3,136.7,322.5,136.5,325.5z M739.1,280.8
		c-0.4,0.5-1,1-1,1.2c0.3,0.9,0.7,1.9,1.4,2.5c6,6,12,12,18,18c0.8,0.8,1.8,2.6,3.2,1.1c0.9-1-0.4-2.1-1.2-2.9
		c-6.1-6.1-12.2-12.2-18.4-18.3C740.6,281.7,739.9,281.3,739.1,280.8z M448.6,69c-0.3-0.5-0.4-1.1-0.7-1.2c-1.1-0.5-1.9,0.3-2.6,1
		c-5.2,4.9-10.3,9.9-15.4,14.9c-0.9,0.8-2.5,1.9-1,3.3c1.4,1.3,2.4-0.3,3.3-1.2c5-4.9,9.9-9.8,14.8-14.8
		C447.5,70.4,448,69.7,448.6,69z M229.1,253.3c-0.5-0.5-1-1.1-1.5-1.6c7.3-7.4,14.7-14.9,22-22.3c0.5,0.5,0.9,0.9,1.4,1.4
		C243.7,238.4,236.4,245.8,229.1,253.3z M426.7,90.5c-0.4-0.5-0.6-1.1-1-1.3c-1.1-0.6-1.9,0.2-2.6,0.9c-4.6,4.5-9.2,9.1-13.8,13.7
		c-0.8,0.8-1.9,1.8-0.9,3c1.1,1.3,2.1,0.1,2.9-0.7c4.6-4.5,9.2-9.1,13.8-13.7C425.8,91.9,426.2,91.2,426.7,90.5z"/>
	<path class="st0" d="M162.4,543.2c0.3-0.8,0.8-1.4,0.8-2c0.2-15.1,0.8-30.3-0.4-45.4c-0.3-4-1.5-7.4-5.1-9.7
		c-2.6-1.7-1.9-3.5,0.8-4c6.3-1.3,12.6-0.7,18.8,0.8c3.5,0.9,3.4,3.7,1.2,5.7c-5.6,5-5.7,11.5-6,18.3c-0.7,17.5-0.8,35-0.7,52.4
		c0,1.2,0,2.3-0.2,3.5c-0.7,5.1-3.1,6.2-7.5,3.5c-4.5-2.8-7.6-7-10.6-11.2c-11.6-15.8-23.2-31.7-34.8-47.6c-1.6-2.1-3.3-4.1-5.7-7.2
		c-0.5,4.4-1.1,7.6-1.1,10.8c-0.2,13.3-0.1,26.6,0.7,39.9c0.3,4.3,2,7.5,4.9,10.6c3.2,3.5,2.6,5.6-2.1,6.2
		c-6.1,0.9-12.3,0.6-18.4,0.2c-2.1-0.1-4.8-2-1.9-3.7c8.9-4.9,8-13.4,8.2-21.1c0.4-15.5,0.8-31-0.6-46.4c-0.4-4.1-2.4-6.7-5.5-8.9
		c-1.5-1-3.3-2.2-2.6-4.4c0.6-1.9,2.6-1.8,4.2-2.1c9.4-1.5,17.4,0.8,23.4,8.8c12,16.2,24.1,32.3,36.2,48.4
		C159.2,540.4,160.2,542.2,162.4,543.2z"/>
	<path class="st0" d="M277.7,523.9c0.4,6.4-1,12.7-3.1,18.9c-7.5,21.5-32.1,34.1-56.5,22.4c-30.5-14.6-27.9-56.8-12.3-73.3
		c11.6-12.3,25.7-15.8,41.5-11.9c16.1,4.1,24.9,15.8,29.2,31.2C277.7,515.3,278,519.5,277.7,523.9z M208.8,522.1
		c0,13.3,2.8,23.1,8.2,30.5c10.3,14,28.7,13.8,38.2-0.5c9.9-14.9,9.2-42.2-1.5-56.4c-10-13.2-27.7-12.9-37.2,0.6
		C210.6,504.6,209.2,514.1,208.8,522.1z"/>
	<path class="st0" d="M658.5,479.5c9.1-0.4,17.6,3.8,26.7,3.3c1.5-0.1,2.8,1.1,3.5,2.5c2.3,4.8,3.2,9.8,2.1,15
		c-0.7,3.1-2.5,3.9-5,1.5c-1.2-1.1-2.4-2.3-3.5-3.6c-8.2-9.8-18.9-12.3-30.7-9.5c-11.9,2.8-17.8,11.9-20.2,23.2
		c-3,14-2,27.5,7.6,39.2c7,8.6,18.2,12.2,28.8,9c10.1-3,13.2-15.7,6-24.5c-1.4-1.7-4.5-3-3.6-5.5c1-2.5,4.2-1.2,6.3-1.7
		c5.5-1.3,11-0.2,16.4,0.4c4.4,0.5,5.3,2.2,2.7,5.9c-3,4.2-4.1,8.6-4,13.6c0.1,3.7,0.1,7.3-1,10.9c-0.7,2.4-1.9,4.4-4.4,5
		c-8.6,2.1-16.9,5.2-25.8,5.7c-25.2,1.5-48.8-18.1-45.5-50c2.2-21,15.5-35.6,34.6-39.6C652.5,479.9,655.5,479.8,658.5,479.5z"/>
	<path class="st0" d="M511.5,568.1c-3.2-0.1-6.3,0.3-9.4-0.7c-2.8-0.8-3.9-2.4-1.3-4.5c3-2.5,2.8-5.3,2-8.5
		c-4.1-15.6-4.7-16.1-21-16.1c-0.3,0-0.7,0-1,0c-15.2,0-22,11.9-14.4,25.2c1.6,2.8,0.9,4.1-2.1,4.3c-5.8,0.5-11.7,0-17.3-1.3
		c-3.9-0.9-4.5-3.6-1.3-6c6.2-4.5,8.9-11.1,11.4-17.8c6.3-16.5,12.6-33,17.9-49.8c1.1-3.5,2.6-6.9,5.1-9.6c3.3-3.7,6.8-3.7,10.3-0.2
		c3.2,3.3,4.9,7.5,6.5,11.7c6.4,17.2,12.7,34.3,19,51.5c2,5.5,4.6,10.7,9.7,14.1c1.2,0.8,2.5,1.9,2.1,3.7c-0.5,1.8-2.1,2.5-3.8,2.8
		C519.8,567.8,515.6,568.4,511.5,568.1z M484.3,498.3c-0.5,0-0.9,0-1.4,0c-3.8,9.7-7.7,19.4-10.7,29.4c-0.7,2.4,0.1,4,2.8,4
		c5.7,0.1,11.3,0.1,17,0.1c2.7,0,3-1.6,2.3-3.7C491,518.2,487.7,508.2,484.3,498.3z"/>
	<path class="st0" d="M823.5,568.1c-3.2-0.1-6.3,0.3-9.4-0.7c-2.2-0.8-3.4-2.2-1.4-4c3.7-3.3,2.8-7,1.8-11
		c-3.5-13-4.8-14.1-18.1-14.1c-1.5,0-3-0.1-4.5,0c-4.9,0.4-10.5-0.3-13.2,5.1c-3.1,6.4-5.4,13.1-0.4,19.8c2,2.8,1.2,4.3-2,4.7
		c-5.7,0.5-11.3-0.3-16.9-1.2c-1.5-0.2-3-0.9-3.4-2.6c-0.5-1.8,0.7-2.9,2-3.7c5.5-3.8,8.3-9.4,10.6-15.4
		c6.3-16.8,12.9-33.6,18.3-50.7c1.1-3.5,2.5-6.9,4.7-9.9c3.8-5.1,8.5-5.1,12.3,0c2.2,2.9,3.8,6.3,5,9.7
		c5.9,16.1,11.8,32.2,17.8,48.2c2.5,6.9,5.2,13.6,11.3,18.5c3.4,2.7,2.7,5.1-1.6,6.1C832.2,567.9,827.8,568.3,823.5,568.1z
		 M796.5,497.8c-0.4,0-0.8,0-1.2,0c-3.5,9.9-7,19.7-10.5,29.6c-1.1,2.9-0.3,4.5,3,4.5c5.2,0,10.3,0,15.5,0.1c3.6,0,4.3-1.7,3.2-4.8
		C803.1,517.3,799.8,507.5,796.5,497.8z"/>
	<path class="st0" d="M291.4,551.7c0.4-2-1.6-6.4,2-7.5c3.6-1.1,4.6,3.5,6.3,5.9c5.6,8.1,12.9,12.7,23.2,11.9
		c6.9-0.5,12.8-4.5,14.2-9.9c1.9-7-0.6-12.9-7.5-16.8c-4.8-2.7-9.8-4.9-14.8-7.2c-4.4-2-8.7-4.1-12.7-6.9
		c-13.3-9.2-12.7-28.3,1.3-36.7c6-3.6,12.7-5.2,19.6-4.4c5.5,0.5,10.8,1.9,16.3,2.1c2.4,0.1,4.8,1.1,5.5,3.7
		c1.2,4.5,2.1,9.1,1.1,13.8c-0.3,1.3-0.7,2.7-2.3,2.9c-1.4,0.2-2.2-0.7-2.9-1.6c-1.1-1.5-2.1-3-3.1-4.5c-5.9-8.3-14.9-11.3-24.7-8
		c-8.5,2.8-11.1,12.7-5.2,19.4c2.5,2.8,5.6,4.6,9,6.2c6.8,3.1,13.7,6.1,20.4,9.5c9.7,4.9,14.6,12.9,13.5,24
		c-1.1,10.3-7.3,16.9-16.7,20.5c-5,2-10.3,2.6-15.7,2c-6.8-0.8-13.3-3.2-20.2-2.8c-2.6,0.2-4.2-1.7-5.2-4
		C291.6,559.6,291.1,556.2,291.4,551.7z"/>
	<path class="st0" d="M405.8,524.4c0,8.3-0.1,16.7,0,25c0.1,5.7,1,11,7,13.7c1.2,0.5,2.4,1.5,2.1,3.1c-0.3,1.8-1.8,2.4-3.3,2.5
		c-8.6,0.8-17.3,0.6-26,0.1c-1.4-0.1-3.2-0.3-3.7-2c-0.6-2,1-3.2,2.4-3.9c5.4-2.7,6.8-7.6,6.8-13c0.1-16.7,0.1-33.3,0-50
		c0-1.6-0.5-3.3-0.8-4.9c-0.7-4.2-3.4-6-7.5-5.6c-6.5,0.6-11.9,3-15.3,9c-0.9,1.5-1.5,4.4-4.1,3.5c-2.1-0.8-1.8-3.3-2-5.3
		c0-0.3,0-0.7,0-1c1.6-10.4-0.9-15.3,14.6-15.1c10.1,0.1,20.2-0.4,30.4,0.1c6.8,0.3,13.6-0.7,20.4,0c5.4,0.5,7.8,2.7,8.1,7.9
		c0.2,3.3,0.6,6.6,0.1,10c-0.2,1.3-0.6,2.8-2.1,3.1c-1.5,0.3-2.4-0.8-3.2-1.9c-0.9-1.2-1.7-2.5-2.6-3.7c-2.8-3.9-6.6-6-11.3-6.6
		c-7.1-1-10.1,1.3-10.3,8.5C405.6,506.7,405.8,515.6,405.8,524.4z"/>
	<path class="st0" d="M559.4,568.6c-5.2,0-10.3,0.4-15.5-0.1c-5-0.5-5.7-2.8-2.1-6.4c3.3-3.3,4.6-7.2,4.6-11.7
		c0-17.7-0.1-35.3,0.1-53c0.1-5.1-1.5-8.7-6.2-10.9c-1.5-0.7-3.8-1.5-3-3.9c0.6-1.8,2.7-1.8,4.3-1.8c7.7,0,15.3,0,23,0.2
		c1.9,0,4.4,0.2,5.1,2.3c0.9,2.5-1.6,3.3-3.2,4.4c-3.1,2.2-4.7,4.9-5,8.7c-1.4,18.8-1.5,37.6,0.2,56.3c0.3,4.1,2.2,7.2,6.5,7.6
		c6,0.6,11.9,0.9,17.8-0.8c6-1.7,9.9-5.8,13.3-10.7c1.2-1.8,2.6-4.8,5.3-3.4c2.4,1.2,1.7,4,1.4,6.4c-2,15.6-2.5,16.2-18.3,16.2
		C578.4,568.2,568.9,569.6,559.4,568.6z"/>
	<path class="st0" d="M728,569c-4.5,0-9,0.1-13.5,0c-1.3,0-2.7-0.5-3.1-2.1c-0.4-1.6,0.6-2.7,1.8-3.2c6.6-2.3,7.7-7.9,7.8-13.7
		c0.2-18,0.9-35.9-0.3-53.9c-0.3-4.6-2.1-7.9-6.2-10c-1.4-0.7-3.3-1.7-2.7-3.7c0.5-1.9,2.6-2.1,4.2-2.1c8.3-0.1,16.6-0.1,24.9,0.1
		c1.7,0,4,0.2,4.3,2.6c0.3,2-1.6,2.8-3,3.5c-4.6,2.3-6.4,6.1-6.4,11c0,18.3,0,36.6,0,54.9c0,4.7,1.6,8.4,6.1,10.6
		c1.5,0.8,3.9,1.5,3.2,3.8c-0.6,2.4-3.1,2.2-5,2.3c-4,0.1-8,0-12,0C728,569.1,728,569,728,569z"/>
	<path class="st0" d="M68.7,385.6c0,2.7,0,5.3,0,8c-0.1,6.6-0.5,7.2-6.9,7.4c-5,0.2-10,0.1-15,0.2c-2.7,0.1-4-1-4.1-3.7
		c-0.3-12-1.2-23.9,1.6-35.7c1.3-5.6,5.3-9.5,9.5-9.7c7.4-0.3,9.8,1.4,12.4,8.8C68.8,369,68.4,377.3,68.7,385.6z M61.4,385
		C61.4,385,61.4,385,61.4,385c0-3.2,0-6.3,0-9.5c0-2.5-1.4-3.5-3.8-3.5c-2.4,0-3.8,0.9-3.8,3.5c0,6.2,0,12.3,0,18.4
		c0,2.8,1.5,3.8,4.1,3.8c2.6,0,3.6-1.3,3.5-3.7C61.4,391,61.4,388,61.4,385z M59.7,368.8c1.7-0.4,4.2,0.7,4.3-2.6
		c0.2-4.1-4.1-11.2-6.6-10.7c-3.2,0.7-3.4,3.7-3.2,6C54.6,364.8,53.4,369.7,59.7,368.8z"/>
	<path class="st0" d="M884.7,403c-3-0.2-7.2-0.5-11.3-0.7c-1.9-0.1-3.9-0.5-4-2.9c-0.5-12.6-1.6-25.3,2.5-37.6c2.3-7,5.3-9,12.8-8.2
		c5,0.6,7.8,4.6,8.9,9.1c1.6,6.8,2.8,13.7,1.9,20.8c-0.5,3.4,0.3,7,0.2,10.4C895.2,402.8,894.8,403.1,884.7,403z M872.9,386.6
		c0,0-0.1,0-0.2,0c0,3.2,0,6.3,0,9.5c0,1.8,1.1,2.7,2.9,2.6c1.6,0,2.3-0.9,2.6-2.4c1.2-5.9,1-11.9,1-17.9c0-2.4-1.5-3.1-3.6-3.1
		c-2.2,0-2.8,1.4-2.8,3.3C872.8,381.2,872.9,383.9,872.9,386.6z M883.4,366.3c-0.4-3.2,0.5-7.7-3.6-8.3c-4.5-0.7-4.1,4.3-5.3,7.1
		c-0.8,1.9-1.7,4.3,0.4,5.9c2,1.4,4.5,1.1,6.7,0.4C884.2,370.6,883.3,368.2,883.4,366.3z"/>
</g>
</svg>
