<?xml version="1.0" encoding="utf-8"?>
<!-- Generator: Adobe Illustrator 25.3.0, SVG Export Plug-In . SVG Version: 6.00 Build 0)  -->
<svg version="1.1" id="레이어_1" xmlns="http://www.w3.org/2000/svg" xmlns:xlink="http://www.w3.org/1999/xlink" x="0px"
	 y="0px" viewBox="0 0 2497 592" style="enable-background:new 0 0 2497 592;" xml:space="preserve">
<path d="M271,103.6c5.1,0,8.1,3,8.1,8.1v388.6c0,5.1-3,8.1-8.1,8.1h-50.1c-4.6,0-7.6-2-9.1-6.6l-77.4-216.1h-2.5v214.5
	c0,5.1-2.5,8.1-8.1,8.1H71.1c-5.1,0-8.1-3-8.1-8.1V111.7c0-5.1,3-8.1,8.1-8.1h50.1c4.6,0,7.6,2,9.1,6.6l76.9,215h3V111.7
	c0-5.1,2.5-8.1,8.1-8.1H271z"/>
<path d="M333.7,183.1c0-55,29.2-84.2,84.2-84.2h65.5c55,0,84.2,29.3,84.2,84.2v241c0,55-29.2,84.2-84.2,84.2h-65.5
	c-55,0-84.2-29.2-84.2-84.2V183.1z M470.6,432.9c15.2,0,23.4-7.6,23.4-23.4V197.8c0-15.2-8.2-23.4-23.4-23.4h-37.4
	c-15.2,0-23.4,8.2-23.4,23.4v211.8c0,15.8,8.2,23.4,23.4,23.4H470.6z"/>
<path d="M775.9,98.9c55,0,84.2,29.3,84.2,84.2v38.6c0,5.9-2.9,9.4-9.4,9.4h-59.1c-5.9,0-9.4-3.5-9.4-9.4v-24.6
	c0-15.2-7.6-23.4-23.4-23.4h-32.2c-14.6,0-23.4,8.2-23.4,23.4v49.7L845,292.5c9.9,3.5,15.2,10.5,15.2,21.6v110
	c0,55-29.2,84.2-84.2,84.2h-65.5c-54.4,0-84.2-29.2-84.2-84.2v-38c0-6.4,3.5-9.4,9.4-9.4h59.1c6.4,0,9.4,2.9,9.4,9.4v24.6
	c0,15.8,8.8,23.4,23.4,23.4H759c15.2,0,23.4-7.6,23.4-23.4v-59.1L642,306c-10.5-3.5-15.8-10.5-15.8-21.6V183.1
	c0-55,29.8-84.2,84.2-84.2H775.9z"/>
<path d="M1114.1,98.9c6.4,0,9.4,3.5,9.4,9.4v58.5c0,5.8-2.9,9.4-9.4,9.4h-67.9V499c0,6.4-2.9,9.4-9.4,9.4H976
	c-5.8,0-9.4-2.9-9.4-9.4V176.1h-67.9c-5.8,0-9.4-3.5-9.4-9.4v-58.5c0-5.9,3.5-9.4,9.4-9.4H1114.1z"/>
<path d="M1342.8,508.4c-5.3,0-8.2-2.9-9.4-8.2l-18.7-73.7h-110l-18.1,73.7c-1.2,5.3-4.1,8.2-9.4,8.2h-57.3c-6.4,0-9.4-3.5-7.6-9.9
	l97.1-391.4c1.2-5.9,4.7-8.2,9.9-8.2h81.3c5.3,0,8.8,2.3,9.9,8.2l97.1,391.4c1.8,6.4-1.2,9.9-8.2,9.9H1342.8z M1259.7,199.5
	l-36.9,159.1h73.7L1259.7,199.5z"/>
<path d="M1534.7,431.2h115.8c6.4,0,9.4,3.5,9.4,9.4V499c0,6.4-2.9,9.4-9.4,9.4h-186c-5.8,0-9.4-2.9-9.4-9.4V108.3
	c0-5.9,3.5-9.4,9.4-9.4h60.8c6.4,0,9.4,3.5,9.4,9.4V431.2z"/>
<path d="M1718.3,183.1c0-55,29.3-84.2,84.2-84.2h65.5c54.4,0,84.2,29.3,84.2,84.2v43.3c0,5.9-3.5,9.4-9.4,9.4h-55
	c-6.4,0-9.4-3.5-9.4-9.4v-28.7c0-15.2-8.2-23.4-23.4-23.4h-37.4c-15.8,0-23.4,8.2-23.4,23.4v211.8c0,15.8,8.2,23.4,23.4,23.4h37.4
	c15.2,0,23.4-7.6,23.4-23.4v-50.9h-30.4c-6.4,0-9.4-3.5-9.4-9.4v-58.5c0-6.4,2.9-9.4,9.4-9.4h94.8c5.9,0,9.4,2.9,9.4,9.4v133.4
	c0,55-29.8,84.2-84.2,84.2h-65.5c-55,0-84.2-29.2-84.2-84.2V183.1z"/>
<path d="M2020.2,508.4c-6.4,0-9.4-3.5-9.4-9.4V108.3c0-5.9,2.9-9.4,9.4-9.4h60.8c5.8,0,9.4,3.5,9.4,9.4V499c0,5.9-3.5,9.4-9.4,9.4
	H2020.2z"/>
<path d="M2368.3,508.4c-5.3,0-8.2-2.9-9.4-8.2l-18.7-73.7h-110l-18.1,73.7c-1.2,5.3-4.1,8.2-9.4,8.2h-57.3c-6.4,0-9.4-3.5-7.6-9.9
	l97.1-391.4c1.2-5.9,4.7-8.2,9.9-8.2h81.3c5.3,0,8.8,2.3,9.9,8.2l97.1,391.4c1.8,6.4-1.2,9.9-8.2,9.9H2368.3z M2285.2,199.5
	l-36.9,159.1h73.7L2285.2,199.5z"/>
</svg>
